%TF.GenerationSoftware,KiCad,Pcbnew,10.0.3*%
%TF.CreationDate,2026-06-25T12:17:52-04:00*%
%TF.ProjectId,RP2040_dev,52503230-3430-45f6-9465-762e6b696361,rev?*%
%TF.SameCoordinates,Original*%
%TF.FileFunction,Soldermask,Bot*%
%TF.FilePolarity,Negative*%
%FSLAX46Y46*%
G04 Gerber Fmt 4.6, Leading zero omitted, Abs format (unit mm)*
G04 Created by KiCad (PCBNEW 10.0.3) date 2026-06-25 12:17:52*
%MOMM*%
%LPD*%
G01*
G04 APERTURE LIST*
%ADD10R,1.700000X1.700000*%
%ADD11C,1.700000*%
%ADD12C,0.650000*%
%ADD13O,1.000000X2.100000*%
%ADD14O,1.000000X1.600000*%
G04 APERTURE END LIST*
D10*
%TO.C,J4*%
X169540000Y-48120000D03*
D11*
X169540000Y-50660000D03*
X169540000Y-53200000D03*
X169540000Y-55740000D03*
X169540000Y-58280000D03*
X169540000Y-60820000D03*
X169540000Y-63360000D03*
X169540000Y-65900000D03*
X169540000Y-68440000D03*
X169540000Y-70980000D03*
X169540000Y-73520000D03*
X169540000Y-76060000D03*
X169540000Y-78600000D03*
X169540000Y-81140000D03*
X169540000Y-83680000D03*
X169540000Y-86220000D03*
X169540000Y-88760000D03*
X169540000Y-91300000D03*
X169540000Y-93840000D03*
X169540000Y-96380000D03*
%TD*%
D10*
%TO.C,J3*%
X158000000Y-96000000D03*
D11*
X160540000Y-96000000D03*
X163080000Y-96000000D03*
%TD*%
D12*
%TO.C,J1*%
X163390000Y-51650000D03*
X157610000Y-51650000D03*
D13*
X164820000Y-52180000D03*
D14*
X164820000Y-48000000D03*
D13*
X156180000Y-52180000D03*
D14*
X156180000Y-48000000D03*
%TD*%
D10*
%TO.C,J2*%
X151760000Y-48120000D03*
D11*
X151760000Y-50660000D03*
X151760000Y-53200000D03*
X151760000Y-55740000D03*
X151760000Y-58280000D03*
X151760000Y-60820000D03*
X151760000Y-63360000D03*
X151760000Y-65900000D03*
X151760000Y-68440000D03*
X151760000Y-70980000D03*
X151760000Y-73520000D03*
X151760000Y-76060000D03*
X151760000Y-78600000D03*
X151760000Y-81140000D03*
X151760000Y-83680000D03*
X151760000Y-86220000D03*
X151760000Y-88760000D03*
X151760000Y-91300000D03*
X151760000Y-93840000D03*
X151760000Y-96380000D03*
%TD*%
M02*
