%TF.GenerationSoftware,KiCad,Pcbnew,10.0.3*%
%TF.CreationDate,2026-06-25T12:17:52-04:00*%
%TF.ProjectId,RP2040_dev,52503230-3430-45f6-9465-762e6b696361,rev?*%
%TF.SameCoordinates,Original*%
%TF.FileFunction,Copper,L2,Bot*%
%TF.FilePolarity,Positive*%
%FSLAX46Y46*%
G04 Gerber Fmt 4.6, Leading zero omitted, Abs format (unit mm)*
G04 Created by KiCad (PCBNEW 10.0.3) date 2026-06-25 12:17:52*
%MOMM*%
%LPD*%
G01*
G04 APERTURE LIST*
%TA.AperFunction,ComponentPad*%
%ADD10R,1.700000X1.700000*%
%TD*%
%TA.AperFunction,ComponentPad*%
%ADD11C,1.700000*%
%TD*%
%TA.AperFunction,ComponentPad*%
%ADD12O,1.000000X2.100000*%
%TD*%
%TA.AperFunction,ComponentPad*%
%ADD13O,1.000000X1.600000*%
%TD*%
%TA.AperFunction,ViaPad*%
%ADD14C,0.600000*%
%TD*%
%TA.AperFunction,ViaPad*%
%ADD15C,0.300000*%
%TD*%
%TA.AperFunction,Conductor*%
%ADD16C,0.200000*%
%TD*%
G04 APERTURE END LIST*
D10*
%TO.P,J4,1,Pin_1_1*%
%TO.N,VBUS*%
X169540000Y-48120000D03*
D11*
%TO.P,J4,2,Pin_2_2*%
%TO.N,GPIO29_ADC3*%
X169540000Y-50660000D03*
%TO.P,J4,3,Pin_3_3*%
%TO.N,GND*%
X169540000Y-53200000D03*
%TO.P,J4,4,Pin_4_4*%
%TO.N,GPIO28_ADC2*%
X169540000Y-55740000D03*
%TO.P,J4,5,Pin_5_5*%
%TO.N,+3V3*%
X169540000Y-58280000D03*
%TO.P,J4,6,Pin_6_6*%
%TO.N,GPIO27_ADC1*%
X169540000Y-60820000D03*
%TO.P,J4,7,Pin_7_7*%
%TO.N,GPIO26_ADC0*%
X169540000Y-63360000D03*
%TO.P,J4,8,Pin_8_8*%
%TO.N,GND*%
X169540000Y-65900000D03*
%TO.P,J4,9,Pin_9_9*%
%TO.N,GPIO24*%
X169540000Y-68440000D03*
%TO.P,J4,10,Pin_10_10*%
%TO.N,GPIO23*%
X169540000Y-70980000D03*
%TO.P,J4,11,Pin_11_11*%
%TO.N,RUN*%
X169540000Y-73520000D03*
%TO.P,J4,12,Pin_12_12*%
%TO.N,GPIO22*%
X169540000Y-76060000D03*
%TO.P,J4,13,Pin_13_13*%
%TO.N,GND*%
X169540000Y-78600000D03*
%TO.P,J4,14,Pin_14_14*%
%TO.N,GPIO21*%
X169540000Y-81140000D03*
%TO.P,J4,15,Pin_15_15*%
%TO.N,GPIO20*%
X169540000Y-83680000D03*
%TO.P,J4,16,Pin_16_16*%
%TO.N,GPIO19*%
X169540000Y-86220000D03*
%TO.P,J4,17,Pin_17_17*%
%TO.N,GPIO18*%
X169540000Y-88760000D03*
%TO.P,J4,18,Pin_18_18*%
%TO.N,GND*%
X169540000Y-91300000D03*
%TO.P,J4,19,Pin_19_19*%
%TO.N,GPIO17*%
X169540000Y-93840000D03*
%TO.P,J4,20,Pin_20_20*%
%TO.N,GPIO16*%
X169540000Y-96380000D03*
%TD*%
D10*
%TO.P,J3,1,Pin_1_1*%
%TO.N,SWCLK*%
X158000000Y-96000000D03*
D11*
%TO.P,J3,2,Pin_2_2*%
%TO.N,GND*%
X160540000Y-96000000D03*
%TO.P,J3,3,Pin_3_3*%
%TO.N,SWD*%
X163080000Y-96000000D03*
%TD*%
D12*
%TO.P,J1,SH,SHIELD_SH*%
%TO.N,GND*%
X164820000Y-52180000D03*
D13*
X164820000Y-48000000D03*
D12*
X156180000Y-52180000D03*
D13*
X156180000Y-48000000D03*
%TD*%
D10*
%TO.P,J2,1,Pin_1_1*%
%TO.N,GPIO0*%
X151760000Y-48120000D03*
D11*
%TO.P,J2,2,Pin_2_2*%
%TO.N,GPIO1*%
X151760000Y-50660000D03*
%TO.P,J2,3,Pin_3_3*%
%TO.N,GND*%
X151760000Y-53200000D03*
%TO.P,J2,4,Pin_4_4*%
%TO.N,GPIO2*%
X151760000Y-55740000D03*
%TO.P,J2,5,Pin_5_5*%
%TO.N,GPIO3*%
X151760000Y-58280000D03*
%TO.P,J2,6,Pin_6_6*%
%TO.N,GPIO4*%
X151760000Y-60820000D03*
%TO.P,J2,7,Pin_7_7*%
%TO.N,GPIO5*%
X151760000Y-63360000D03*
%TO.P,J2,8,Pin_8_8*%
%TO.N,GND*%
X151760000Y-65900000D03*
%TO.P,J2,9,Pin_9_9*%
%TO.N,GPIO6*%
X151760000Y-68440000D03*
%TO.P,J2,10,Pin_10_10*%
%TO.N,GPIO7*%
X151760000Y-70980000D03*
%TO.P,J2,11,Pin_11_11*%
%TO.N,GPIO8*%
X151760000Y-73520000D03*
%TO.P,J2,12,Pin_12_12*%
%TO.N,GPIO9*%
X151760000Y-76060000D03*
%TO.P,J2,13,Pin_13_13*%
%TO.N,GND*%
X151760000Y-78600000D03*
%TO.P,J2,14,Pin_14_14*%
%TO.N,GPIO10*%
X151760000Y-81140000D03*
%TO.P,J2,15,Pin_15_15*%
%TO.N,GPIO11*%
X151760000Y-83680000D03*
%TO.P,J2,16,Pin_16_16*%
%TO.N,GPIO12*%
X151760000Y-86220000D03*
%TO.P,J2,17,Pin_17_17*%
%TO.N,GPIO13*%
X151760000Y-88760000D03*
%TO.P,J2,18,Pin_18_18*%
%TO.N,GND*%
X151760000Y-91300000D03*
%TO.P,J2,19,Pin_19_19*%
%TO.N,GPIO14*%
X151760000Y-93840000D03*
%TO.P,J2,20,Pin_20_20*%
%TO.N,GPIO15*%
X151760000Y-96380000D03*
%TD*%
D14*
%TO.N,+3V3*%
X155100000Y-60651580D03*
X156358578Y-66641422D03*
X166500000Y-79500000D03*
X160500000Y-60000000D03*
X159500000Y-80037502D03*
X158495180Y-78717291D03*
X162000000Y-58500000D03*
X156161783Y-75191264D03*
X166000000Y-61500000D03*
X160500000Y-75837498D03*
X160000000Y-82500000D03*
X167667157Y-59500000D03*
X158900001Y-69501769D03*
%TO.N,GND*%
X162000000Y-89500000D03*
X158200000Y-80104143D03*
X170500000Y-64500000D03*
X164500000Y-57000000D03*
X158000000Y-72000000D03*
X158000000Y-50500000D03*
X156000000Y-69000000D03*
D15*
X159000000Y-57500000D03*
D14*
X154000000Y-48500000D03*
X159484246Y-65470418D03*
X154000000Y-46000000D03*
X161292779Y-58126052D03*
X165500000Y-63000000D03*
X153900000Y-90000000D03*
X161175000Y-62000000D03*
X166000000Y-88500000D03*
X165300000Y-82500000D03*
X165000000Y-85000000D03*
X164000000Y-55500000D03*
X156000000Y-91500000D03*
%TO.N,XIN*%
X160500000Y-80037502D03*
X161000000Y-86000000D03*
%TO.N,+1V1*%
X163000000Y-73500000D03*
X161000000Y-73500000D03*
X162800002Y-77000000D03*
%TO.N,GPIO29_ADC3*%
X162554902Y-75907353D03*
X164500000Y-72000000D03*
%TO.N,RUN*%
X163202118Y-80436599D03*
X167600000Y-76000000D03*
%TO.N,XOUT*%
X161991302Y-85514496D03*
X161500000Y-80037502D03*
%TO.N,SWCLK*%
X162300000Y-84000000D03*
X160000000Y-94000000D03*
%TO.N,SWD*%
X162300000Y-83000000D03*
%TO.N,QSPI_SS*%
X163000000Y-67000000D03*
X157000000Y-63000000D03*
%TO.N,GPIO0*%
X158179771Y-75537500D03*
%TO.N,GPIO1*%
X154700000Y-52500000D03*
X159054478Y-75554478D03*
%TO.N,GPIO2*%
X158189032Y-77978185D03*
X158832992Y-66418776D03*
%TO.N,GPIO3*%
X155659267Y-74568784D03*
X153500000Y-59500000D03*
%TO.N,GPIO4*%
X153374265Y-64125735D03*
X155137062Y-73962726D03*
%TO.N,GPIO5*%
X154352843Y-74120854D03*
%TO.N,GPIO6*%
X153752843Y-73500000D03*
%TO.N,GPIO15*%
X159223151Y-82691064D03*
X155242794Y-82742794D03*
%TD*%
%TO.N,+3V3*%
D16*
X159848420Y-60651580D02*
X160500000Y-60000000D01*
X162100000Y-79788973D02*
X161748529Y-79437502D01*
X155100000Y-60651580D02*
X159848420Y-60651580D01*
X160500000Y-75837498D02*
X160500000Y-76515746D01*
X158900001Y-69501769D02*
X158900001Y-72453046D01*
X162000000Y-58500000D02*
X160500000Y-60000000D01*
X156161783Y-76799465D02*
X156161783Y-75191264D01*
X162100000Y-80183010D02*
X162100000Y-79788973D01*
X166500000Y-79500000D02*
X164963401Y-81036599D01*
X159500000Y-80037502D02*
X160000000Y-80537502D01*
X164963401Y-81036599D02*
X162953589Y-81036599D01*
X167667157Y-59832843D02*
X167667157Y-59500000D01*
X162953589Y-81036599D02*
X162100000Y-80183010D01*
X161748529Y-79437502D02*
X160100000Y-79437502D01*
X158900001Y-72453046D02*
X156161783Y-75191264D01*
X160500000Y-76515746D02*
X158437561Y-78578185D01*
X157940503Y-78578185D02*
X156161783Y-76799465D01*
X166000000Y-61500000D02*
X167667157Y-59832843D01*
X160100000Y-79437502D02*
X159500000Y-80037502D01*
X158900001Y-69501769D02*
X156358578Y-66960346D01*
X158437561Y-78578185D02*
X157940503Y-78578185D01*
X160000000Y-80537502D02*
X160000000Y-82500000D01*
X156358578Y-66960346D02*
X156358578Y-66641422D01*
%TO.N,GND*%
X159484246Y-65470418D02*
X161000000Y-66986172D01*
X156180000Y-50680000D02*
X156180000Y-52180000D01*
X154000000Y-48500000D02*
X156180000Y-50680000D01*
%TO.N,XIN*%
X161000000Y-80537502D02*
X160500000Y-80037502D01*
X161000000Y-86000000D02*
X161000000Y-80537502D01*
%TO.N,+1V1*%
X161500000Y-75837498D02*
X161000000Y-75337498D01*
X161000000Y-75337498D02*
X161000000Y-73500000D01*
X162800002Y-77000000D02*
X162662502Y-77000000D01*
X163000000Y-73500000D02*
X161000000Y-73500000D01*
X162662502Y-77000000D02*
X161500000Y-75837498D01*
%TO.N,GPIO29_ADC3*%
X164500000Y-74000000D02*
X162554902Y-75945098D01*
X162554902Y-75945098D02*
X162554902Y-75907353D01*
X164500000Y-72000000D02*
X164500000Y-74000000D01*
%TO.N,RUN*%
X163202118Y-80436599D02*
X163202118Y-79297882D01*
X163202118Y-79297882D02*
X166500000Y-76000000D01*
X166500000Y-76000000D02*
X167600000Y-76000000D01*
%TO.N,XOUT*%
X161400000Y-80100000D02*
X161500000Y-80000000D01*
X161991302Y-85514496D02*
X161400000Y-84923194D01*
X161500000Y-80000000D02*
X161500000Y-80037502D01*
X161400000Y-84923194D02*
X161400000Y-80100000D01*
%TO.N,SWCLK*%
X161680000Y-94000000D02*
X160000000Y-94000000D01*
X162680000Y-93000000D02*
X162680000Y-84380000D01*
X162680000Y-93000000D02*
X161680000Y-94000000D01*
X162680000Y-84380000D02*
X162300000Y-84000000D01*
%TO.N,SWD*%
X163080000Y-83580000D02*
X162500000Y-83000000D01*
X163080000Y-96000000D02*
X163080000Y-83580000D01*
X162500000Y-83000000D02*
X162300000Y-83000000D01*
%TO.N,QSPI_SS*%
X163000000Y-67000000D02*
X159000000Y-63000000D01*
X159000000Y-63000000D02*
X157000000Y-63000000D01*
%TO.N,GPIO0*%
X158000000Y-67000000D02*
X157565686Y-67000000D01*
X158179771Y-75537500D02*
X159000000Y-74717271D01*
X154532843Y-61532843D02*
X154000000Y-61000000D01*
X159000000Y-74717271D02*
X159000000Y-74500000D01*
X154100000Y-60900000D02*
X154100000Y-50460000D01*
X159000000Y-74500000D02*
X159500000Y-74000000D01*
X154532843Y-63967157D02*
X154532843Y-61532843D01*
X157565686Y-67000000D02*
X154532843Y-63967157D01*
X159500000Y-68500000D02*
X158000000Y-67000000D01*
X159500000Y-74000000D02*
X159500000Y-68500000D01*
X154100000Y-50460000D02*
X151760000Y-48120000D01*
X154000000Y-61000000D02*
X154100000Y-60900000D01*
%TO.N,GPIO1*%
X159900000Y-74708956D02*
X159900000Y-68334314D01*
X155000000Y-63868628D02*
X155000000Y-61434314D01*
X154500000Y-52500000D02*
X154700000Y-52500000D01*
X154500000Y-60934315D02*
X154500000Y-52500000D01*
X158000000Y-66434314D02*
X157565686Y-66434314D01*
X159054478Y-75554478D02*
X159900000Y-74708956D01*
X155000000Y-61434314D02*
X154500000Y-60934315D01*
X159900000Y-68334314D02*
X158000000Y-66434314D01*
X157565686Y-66434314D02*
X155000000Y-63868628D01*
%TO.N,GPIO2*%
X160300000Y-67885784D02*
X160300000Y-75157485D01*
X158189032Y-77978185D02*
X158189032Y-77268453D01*
X158832992Y-66418776D02*
X160300000Y-67885784D01*
X158189032Y-77268453D02*
X160300000Y-75157485D01*
%TO.N,GPIO3*%
X157500000Y-72348529D02*
X157400000Y-72248529D01*
X157400000Y-72248529D02*
X157400000Y-71751471D01*
X155758578Y-66889951D02*
X155758578Y-66392893D01*
X155659267Y-74568784D02*
X157500000Y-72728051D01*
X157500000Y-71651471D02*
X157500000Y-68667453D01*
X157400000Y-71751471D02*
X157500000Y-71651471D01*
X155958578Y-67126031D02*
X155958578Y-67089951D01*
X155758578Y-66392893D02*
X156000000Y-66151471D01*
X154000000Y-64000000D02*
X154000000Y-62000000D01*
X155958578Y-67089951D02*
X155758578Y-66889951D01*
X156000000Y-66000000D02*
X154000000Y-64000000D01*
X154000000Y-62000000D02*
X153500000Y-61500000D01*
X156000000Y-66151471D02*
X156000000Y-66000000D01*
X157500000Y-72728051D02*
X157500000Y-72348529D01*
X153500000Y-61500000D02*
X153500000Y-59500000D01*
X157500000Y-68667453D02*
X155958578Y-67126031D01*
%TO.N,GPIO4*%
X154500000Y-65251470D02*
X153374265Y-64125735D01*
X154752843Y-65787157D02*
X154500000Y-65534314D01*
X154500000Y-65534314D02*
X154500000Y-65251470D01*
X154752843Y-73578507D02*
X154752843Y-65787157D01*
X155137062Y-73962726D02*
X154752843Y-73578507D01*
%TO.N,GPIO5*%
X154352843Y-74120854D02*
X154352843Y-65952843D01*
X154352843Y-65952843D02*
X151760000Y-63360000D01*
%TO.N,GPIO6*%
X153752843Y-70432843D02*
X151760000Y-68440000D01*
X153752843Y-73500000D02*
X153752843Y-70432843D01*
%TO.N,GPIO15*%
X155294524Y-82691064D02*
X159223151Y-82691064D01*
X155242794Y-82742794D02*
X155294524Y-82691064D01*
%TD*%
%TA.AperFunction,Conductor*%
%TO.N,GND*%
G36*
X155358546Y-67011716D02*
G01*
X155384730Y-67043428D01*
X155385370Y-67044537D01*
X155385371Y-67044539D01*
X155438098Y-67135864D01*
X155438100Y-67135866D01*
X155577264Y-67275030D01*
X155596969Y-67300709D01*
X155638099Y-67371946D01*
X157063181Y-68797027D01*
X157096666Y-68858350D01*
X157099500Y-68884708D01*
X157099500Y-71437726D01*
X157082887Y-71499727D01*
X157079520Y-71505557D01*
X157079520Y-71505558D01*
X157026793Y-71596883D01*
X157015371Y-71639511D01*
X157015371Y-71639512D01*
X157015370Y-71639511D01*
X156999500Y-71698742D01*
X156999500Y-71698744D01*
X156999500Y-72195802D01*
X156999500Y-72301256D01*
X157017576Y-72368717D01*
X157026794Y-72403120D01*
X157064044Y-72467638D01*
X157080517Y-72535538D01*
X157057665Y-72601565D01*
X157044338Y-72617319D01*
X155896422Y-73765235D01*
X155835099Y-73798720D01*
X155765407Y-73793736D01*
X155709474Y-73751864D01*
X155701356Y-73737602D01*
X155700703Y-73737980D01*
X155617586Y-73594016D01*
X155617580Y-73594008D01*
X155505779Y-73482207D01*
X155505771Y-73482201D01*
X155368852Y-73403152D01*
X155368847Y-73403149D01*
X155245249Y-73370031D01*
X155185589Y-73333665D01*
X155155060Y-73270818D01*
X155153343Y-73250256D01*
X155153343Y-67105429D01*
X155173028Y-67038390D01*
X155225832Y-66992635D01*
X155294990Y-66982691D01*
X155358546Y-67011716D01*
G37*
%TD.AperFunction*%
%TA.AperFunction,Conductor*%
G36*
X158105703Y-69274310D02*
G01*
X158112181Y-69280342D01*
X158263182Y-69431343D01*
X158296667Y-69492666D01*
X158299501Y-69519024D01*
X158299501Y-69580825D01*
X158340424Y-69733552D01*
X158340427Y-69733559D01*
X158419476Y-69870478D01*
X158419482Y-69870486D01*
X158463182Y-69914186D01*
X158496667Y-69975509D01*
X158499501Y-70001867D01*
X158499501Y-72235790D01*
X158479816Y-72302829D01*
X158463182Y-72323471D01*
X158112181Y-72674472D01*
X158050858Y-72707957D01*
X157981166Y-72702973D01*
X157925233Y-72661101D01*
X157900816Y-72595637D01*
X157900500Y-72586791D01*
X157900500Y-72295804D01*
X157900500Y-72295802D01*
X157873207Y-72193942D01*
X157820480Y-72102616D01*
X157820478Y-72102614D01*
X157817113Y-72096785D01*
X157812962Y-72081296D01*
X157805523Y-72069720D01*
X157800500Y-72034785D01*
X157800500Y-71965216D01*
X157817113Y-71903216D01*
X157850485Y-71845414D01*
X157850485Y-71845413D01*
X157873206Y-71806059D01*
X157873207Y-71806058D01*
X157900500Y-71704198D01*
X157900500Y-69368023D01*
X157920185Y-69300984D01*
X157972989Y-69255229D01*
X158042147Y-69245285D01*
X158105703Y-69274310D01*
G37*
%TD.AperFunction*%
%TA.AperFunction,Conductor*%
G36*
X153238574Y-65417839D02*
G01*
X153277985Y-65444377D01*
X153916024Y-66082416D01*
X153949509Y-66143739D01*
X153952343Y-66170097D01*
X153952343Y-69766588D01*
X153932658Y-69833627D01*
X153879854Y-69879382D01*
X153810696Y-69889326D01*
X153747140Y-69860301D01*
X153740662Y-69854269D01*
X152865674Y-68979281D01*
X152832189Y-68917958D01*
X152835423Y-68853284D01*
X152882171Y-68709409D01*
X152885103Y-68690897D01*
X152910500Y-68530551D01*
X152910500Y-68349448D01*
X152894019Y-68245397D01*
X152882171Y-68170591D01*
X152826211Y-67998361D01*
X152826211Y-67998360D01*
X152795716Y-67938511D01*
X152743996Y-67837006D01*
X152644021Y-67699401D01*
X152637558Y-67690505D01*
X152637552Y-67690498D01*
X152509499Y-67562445D01*
X152509494Y-67562441D01*
X152362995Y-67456004D01*
X152231314Y-67388908D01*
X152180519Y-67340934D01*
X152163724Y-67273113D01*
X152186262Y-67206978D01*
X152240977Y-67163527D01*
X152249295Y-67160492D01*
X152278217Y-67151095D01*
X152467554Y-67054622D01*
X152521716Y-67015270D01*
X152521717Y-67015270D01*
X151889408Y-66382962D01*
X151952993Y-66365925D01*
X152067007Y-66300099D01*
X152160099Y-66207007D01*
X152225925Y-66092993D01*
X152242962Y-66029408D01*
X152875270Y-66661717D01*
X152875270Y-66661716D01*
X152914622Y-66607554D01*
X153011095Y-66418217D01*
X153076757Y-66216130D01*
X153076757Y-66216127D01*
X153110000Y-66006246D01*
X153110000Y-65793753D01*
X153076757Y-65583872D01*
X153076756Y-65583865D01*
X153072373Y-65570375D01*
X153070378Y-65500534D01*
X153106459Y-65440702D01*
X153169160Y-65409874D01*
X153238574Y-65417839D01*
G37*
%TD.AperFunction*%
%TA.AperFunction,Conductor*%
G36*
X152359783Y-49290184D02*
G01*
X152380425Y-49306818D01*
X153130610Y-50057002D01*
X153663181Y-50589573D01*
X153696666Y-50650896D01*
X153699500Y-50677254D01*
X153699500Y-58775500D01*
X153679815Y-58842539D01*
X153627011Y-58888294D01*
X153575500Y-58899500D01*
X153420943Y-58899500D01*
X153268216Y-58940423D01*
X153268209Y-58940426D01*
X153131290Y-59019475D01*
X153131282Y-59019481D01*
X153019481Y-59131282D01*
X153019475Y-59131290D01*
X152940426Y-59268209D01*
X152940423Y-59268216D01*
X152899500Y-59420943D01*
X152899500Y-59579057D01*
X152916512Y-59642544D01*
X152940423Y-59731783D01*
X152940426Y-59731790D01*
X153019475Y-59868709D01*
X153019481Y-59868717D01*
X153063181Y-59912417D01*
X153096666Y-59973740D01*
X153099500Y-60000098D01*
X153099500Y-60436553D01*
X153079815Y-60503592D01*
X153027011Y-60549347D01*
X152957853Y-60559291D01*
X152894297Y-60530266D01*
X152857569Y-60474871D01*
X152826212Y-60378363D01*
X152826211Y-60378360D01*
X152797740Y-60322484D01*
X152743996Y-60217006D01*
X152710615Y-60171061D01*
X152637558Y-60070505D01*
X152637554Y-60070500D01*
X152509499Y-59942445D01*
X152509494Y-59942441D01*
X152362997Y-59836006D01*
X152362996Y-59836005D01*
X152362994Y-59836004D01*
X152305696Y-59806809D01*
X152201639Y-59753788D01*
X152201636Y-59753787D01*
X152029410Y-59697829D01*
X151869321Y-59672473D01*
X151806186Y-59642544D01*
X151769255Y-59583232D01*
X151770253Y-59513370D01*
X151808863Y-59455137D01*
X151869321Y-59427527D01*
X151939425Y-59416422D01*
X152029409Y-59402171D01*
X152201639Y-59346211D01*
X152362994Y-59263996D01*
X152509501Y-59157553D01*
X152637553Y-59029501D01*
X152743996Y-58882994D01*
X152826211Y-58721639D01*
X152882171Y-58549409D01*
X152902518Y-58420943D01*
X152910500Y-58370551D01*
X152910500Y-58189448D01*
X152894019Y-58085397D01*
X152882171Y-58010591D01*
X152826211Y-57838361D01*
X152826211Y-57838360D01*
X152797740Y-57782484D01*
X152743996Y-57677006D01*
X152730396Y-57658287D01*
X152637558Y-57530505D01*
X152637554Y-57530500D01*
X152509499Y-57402445D01*
X152509494Y-57402441D01*
X152362997Y-57296006D01*
X152362996Y-57296005D01*
X152362994Y-57296004D01*
X152311300Y-57269664D01*
X152201639Y-57213788D01*
X152201636Y-57213787D01*
X152029410Y-57157829D01*
X151869321Y-57132473D01*
X151806186Y-57102544D01*
X151769255Y-57043232D01*
X151770253Y-56973370D01*
X151808863Y-56915137D01*
X151869321Y-56887527D01*
X151939425Y-56876422D01*
X152029409Y-56862171D01*
X152201639Y-56806211D01*
X152362994Y-56723996D01*
X152509501Y-56617553D01*
X152637553Y-56489501D01*
X152743996Y-56342994D01*
X152826211Y-56181639D01*
X152882171Y-56009409D01*
X152896765Y-55917259D01*
X152910500Y-55830551D01*
X152910500Y-55649448D01*
X152894019Y-55545397D01*
X152882171Y-55470591D01*
X152826211Y-55298361D01*
X152826211Y-55298360D01*
X152797740Y-55242484D01*
X152743996Y-55137006D01*
X152730396Y-55118287D01*
X152637558Y-54990505D01*
X152637554Y-54990500D01*
X152509499Y-54862445D01*
X152509494Y-54862441D01*
X152362995Y-54756004D01*
X152231314Y-54688908D01*
X152180519Y-54640934D01*
X152163724Y-54573113D01*
X152186262Y-54506978D01*
X152240977Y-54463527D01*
X152249295Y-54460492D01*
X152278217Y-54451095D01*
X152467554Y-54354622D01*
X152521716Y-54315270D01*
X152521717Y-54315270D01*
X151889408Y-53682962D01*
X151952993Y-53665925D01*
X152067007Y-53600099D01*
X152160099Y-53507007D01*
X152225925Y-53392993D01*
X152242962Y-53329408D01*
X152875270Y-53961717D01*
X152875270Y-53961716D01*
X152914622Y-53907554D01*
X153011095Y-53718217D01*
X153076757Y-53516130D01*
X153076757Y-53516127D01*
X153110000Y-53306246D01*
X153110000Y-53093753D01*
X153076757Y-52883872D01*
X153076757Y-52883869D01*
X153011095Y-52681782D01*
X152914624Y-52492449D01*
X152875270Y-52438282D01*
X152875269Y-52438282D01*
X152242962Y-53070590D01*
X152225925Y-53007007D01*
X152160099Y-52892993D01*
X152067007Y-52799901D01*
X151952993Y-52734075D01*
X151889409Y-52717037D01*
X152521716Y-52084728D01*
X152467550Y-52045375D01*
X152278217Y-51948904D01*
X152249292Y-51939506D01*
X152191616Y-51900068D01*
X152164418Y-51835710D01*
X152176333Y-51766863D01*
X152223577Y-51715388D01*
X152231315Y-51711090D01*
X152362994Y-51643996D01*
X152509501Y-51537553D01*
X152637553Y-51409501D01*
X152743996Y-51262994D01*
X152826211Y-51101639D01*
X152882171Y-50929409D01*
X152896765Y-50837259D01*
X152910500Y-50750551D01*
X152910500Y-50569448D01*
X152884813Y-50407273D01*
X152882171Y-50390591D01*
X152826211Y-50218361D01*
X152826211Y-50218360D01*
X152743996Y-50057006D01*
X152648636Y-49925753D01*
X152648634Y-49925751D01*
X152637553Y-49910499D01*
X152509501Y-49782447D01*
X152494244Y-49771362D01*
X152494241Y-49771359D01*
X152362997Y-49676006D01*
X152362996Y-49676005D01*
X152362994Y-49676004D01*
X152311300Y-49649664D01*
X152201639Y-49593788D01*
X152201636Y-49593787D01*
X152029410Y-49537829D01*
X151897728Y-49516972D01*
X151834593Y-49487042D01*
X151797662Y-49427731D01*
X151798660Y-49357868D01*
X151837270Y-49299636D01*
X151901234Y-49271522D01*
X151917121Y-49270499D01*
X152292744Y-49270499D01*
X152359783Y-49290184D01*
G37*
%TD.AperFunction*%
%TA.AperFunction,Conductor*%
G36*
X162598833Y-93750072D02*
G01*
X162654767Y-93791943D01*
X162679184Y-93857408D01*
X162679500Y-93866254D01*
X162679500Y-94836840D01*
X162659815Y-94903879D01*
X162611795Y-94947325D01*
X162477002Y-95016006D01*
X162330505Y-95122441D01*
X162330500Y-95122445D01*
X162202445Y-95250500D01*
X162202441Y-95250505D01*
X162096004Y-95397004D01*
X162028908Y-95528685D01*
X161980933Y-95579480D01*
X161913112Y-95596275D01*
X161846977Y-95573737D01*
X161803527Y-95519021D01*
X161800492Y-95510705D01*
X161791094Y-95481780D01*
X161694624Y-95292449D01*
X161655270Y-95238282D01*
X161655269Y-95238282D01*
X161022962Y-95870590D01*
X161005925Y-95807007D01*
X160940099Y-95692993D01*
X160847007Y-95599901D01*
X160732993Y-95534075D01*
X160669409Y-95517037D01*
X161301716Y-94884728D01*
X161247550Y-94845375D01*
X161058217Y-94748904D01*
X160856129Y-94683242D01*
X160646246Y-94650000D01*
X160498598Y-94650000D01*
X160477352Y-94643761D01*
X160455264Y-94642182D01*
X160444480Y-94634109D01*
X160431559Y-94630315D01*
X160417059Y-94613581D01*
X160399331Y-94600310D01*
X160394623Y-94587689D01*
X160385804Y-94577511D01*
X160382652Y-94555593D01*
X160374914Y-94534846D01*
X160377776Y-94521685D01*
X160375860Y-94508353D01*
X160385059Y-94488209D01*
X160389766Y-94466573D01*
X160403034Y-94448847D01*
X160404885Y-94444797D01*
X160410917Y-94438319D01*
X160412417Y-94436819D01*
X160473740Y-94403334D01*
X160500098Y-94400500D01*
X161732725Y-94400500D01*
X161732727Y-94400500D01*
X161834588Y-94373207D01*
X161925913Y-94320480D01*
X162467819Y-93778572D01*
X162529142Y-93745088D01*
X162598833Y-93750072D01*
G37*
%TD.AperFunction*%
%TA.AperFunction,Conductor*%
G36*
X171642539Y-43920185D02*
G01*
X171688294Y-43972989D01*
X171699500Y-44024500D01*
X171699500Y-98875500D01*
X171679815Y-98942539D01*
X171627011Y-98988294D01*
X171575500Y-98999500D01*
X149724500Y-98999500D01*
X149657461Y-98979815D01*
X149611706Y-98927011D01*
X149600500Y-98875500D01*
X149600500Y-53093753D01*
X150410000Y-53093753D01*
X150410000Y-53306246D01*
X150443242Y-53516127D01*
X150443242Y-53516130D01*
X150508904Y-53718217D01*
X150605375Y-53907550D01*
X150644728Y-53961716D01*
X151277037Y-53329408D01*
X151294075Y-53392993D01*
X151359901Y-53507007D01*
X151452993Y-53600099D01*
X151567007Y-53665925D01*
X151630590Y-53682962D01*
X150998282Y-54315269D01*
X150998282Y-54315270D01*
X151052449Y-54354624D01*
X151241780Y-54451094D01*
X151270705Y-54460492D01*
X151328381Y-54499929D01*
X151355580Y-54564287D01*
X151343667Y-54633134D01*
X151296424Y-54684610D01*
X151288685Y-54688908D01*
X151157004Y-54756004D01*
X151010505Y-54862441D01*
X151010500Y-54862445D01*
X150882445Y-54990500D01*
X150882441Y-54990505D01*
X150776006Y-55137002D01*
X150693788Y-55298360D01*
X150693787Y-55298363D01*
X150637829Y-55470589D01*
X150609500Y-55649448D01*
X150609500Y-55830551D01*
X150637829Y-56009410D01*
X150693787Y-56181636D01*
X150693788Y-56181639D01*
X150776006Y-56342997D01*
X150882441Y-56489494D01*
X150882445Y-56489499D01*
X151010500Y-56617554D01*
X151010505Y-56617558D01*
X151138287Y-56710396D01*
X151157006Y-56723996D01*
X151262484Y-56777740D01*
X151318360Y-56806211D01*
X151318363Y-56806212D01*
X151404476Y-56834191D01*
X151490591Y-56862171D01*
X151563639Y-56873740D01*
X151650678Y-56887527D01*
X151713813Y-56917456D01*
X151750744Y-56976768D01*
X151749746Y-57046631D01*
X151711136Y-57104863D01*
X151650678Y-57132473D01*
X151490589Y-57157829D01*
X151318363Y-57213787D01*
X151318360Y-57213788D01*
X151157002Y-57296006D01*
X151010505Y-57402441D01*
X151010500Y-57402445D01*
X150882445Y-57530500D01*
X150882441Y-57530505D01*
X150776006Y-57677002D01*
X150693788Y-57838360D01*
X150693787Y-57838363D01*
X150637829Y-58010589D01*
X150609500Y-58189448D01*
X150609500Y-58370551D01*
X150637829Y-58549410D01*
X150693787Y-58721636D01*
X150693788Y-58721639D01*
X150749664Y-58831300D01*
X150768729Y-58868717D01*
X150776006Y-58882997D01*
X150882441Y-59029494D01*
X150882445Y-59029499D01*
X151010500Y-59157554D01*
X151010505Y-59157558D01*
X151138287Y-59250396D01*
X151157006Y-59263996D01*
X151262484Y-59317740D01*
X151318360Y-59346211D01*
X151318363Y-59346212D01*
X151370590Y-59363181D01*
X151490591Y-59402171D01*
X151563639Y-59413740D01*
X151650678Y-59427527D01*
X151713813Y-59457456D01*
X151750744Y-59516768D01*
X151749746Y-59586631D01*
X151711136Y-59644863D01*
X151650678Y-59672473D01*
X151490589Y-59697829D01*
X151318363Y-59753787D01*
X151318360Y-59753788D01*
X151157002Y-59836006D01*
X151010505Y-59942441D01*
X151010500Y-59942445D01*
X150882445Y-60070500D01*
X150882441Y-60070505D01*
X150776006Y-60217002D01*
X150693788Y-60378360D01*
X150693787Y-60378363D01*
X150637829Y-60550589D01*
X150609500Y-60729448D01*
X150609500Y-60910551D01*
X150637829Y-61089410D01*
X150693787Y-61261636D01*
X150693788Y-61261639D01*
X150776006Y-61422997D01*
X150882441Y-61569494D01*
X150882445Y-61569499D01*
X151010500Y-61697554D01*
X151010505Y-61697558D01*
X151077061Y-61745913D01*
X151157006Y-61803996D01*
X151262484Y-61857740D01*
X151318360Y-61886211D01*
X151318363Y-61886212D01*
X151404476Y-61914191D01*
X151490591Y-61942171D01*
X151563639Y-61953740D01*
X151650678Y-61967527D01*
X151713813Y-61997456D01*
X151750744Y-62056768D01*
X151749746Y-62126631D01*
X151711136Y-62184863D01*
X151650678Y-62212473D01*
X151490589Y-62237829D01*
X151318363Y-62293787D01*
X151318360Y-62293788D01*
X151157002Y-62376006D01*
X151010505Y-62482441D01*
X151010500Y-62482445D01*
X150882445Y-62610500D01*
X150882441Y-62610505D01*
X150776006Y-62757002D01*
X150693788Y-62918360D01*
X150693787Y-62918363D01*
X150637829Y-63090589D01*
X150609500Y-63269448D01*
X150609500Y-63450551D01*
X150637829Y-63629410D01*
X150693787Y-63801636D01*
X150693788Y-63801639D01*
X150776006Y-63962997D01*
X150882441Y-64109494D01*
X150882445Y-64109499D01*
X151010500Y-64237554D01*
X151010505Y-64237558D01*
X151138287Y-64330396D01*
X151157006Y-64343996D01*
X151258780Y-64395853D01*
X151288684Y-64411090D01*
X151339480Y-64459065D01*
X151356275Y-64526886D01*
X151333737Y-64593021D01*
X151279022Y-64636472D01*
X151270708Y-64639506D01*
X151241781Y-64648905D01*
X151052439Y-64745380D01*
X150998282Y-64784727D01*
X150998282Y-64784728D01*
X151630591Y-65417037D01*
X151567007Y-65434075D01*
X151452993Y-65499901D01*
X151359901Y-65592993D01*
X151294075Y-65707007D01*
X151277037Y-65770591D01*
X150644728Y-65138282D01*
X150644727Y-65138282D01*
X150605380Y-65192439D01*
X150508904Y-65381782D01*
X150443242Y-65583869D01*
X150443242Y-65583872D01*
X150410000Y-65793753D01*
X150410000Y-66006246D01*
X150443242Y-66216127D01*
X150443242Y-66216130D01*
X150508904Y-66418217D01*
X150605375Y-66607550D01*
X150644728Y-66661716D01*
X151277037Y-66029408D01*
X151294075Y-66092993D01*
X151359901Y-66207007D01*
X151452993Y-66300099D01*
X151567007Y-66365925D01*
X151630590Y-66382962D01*
X150998282Y-67015269D01*
X150998282Y-67015270D01*
X151052449Y-67054624D01*
X151241780Y-67151094D01*
X151270705Y-67160492D01*
X151328381Y-67199929D01*
X151355580Y-67264287D01*
X151343667Y-67333134D01*
X151296424Y-67384610D01*
X151288685Y-67388908D01*
X151157004Y-67456004D01*
X151010505Y-67562441D01*
X151010500Y-67562445D01*
X150882448Y-67690498D01*
X150882441Y-67690505D01*
X150776006Y-67837002D01*
X150693788Y-67998360D01*
X150693787Y-67998363D01*
X150637829Y-68170589D01*
X150609500Y-68349448D01*
X150609500Y-68530551D01*
X150637829Y-68709410D01*
X150693787Y-68881636D01*
X150693788Y-68881639D01*
X150776006Y-69042997D01*
X150882441Y-69189494D01*
X150882445Y-69189499D01*
X151010500Y-69317554D01*
X151010505Y-69317558D01*
X151079965Y-69368023D01*
X151157006Y-69423996D01*
X151242705Y-69467662D01*
X151318360Y-69506211D01*
X151318363Y-69506212D01*
X151404476Y-69534191D01*
X151490591Y-69562171D01*
X151563639Y-69573740D01*
X151650678Y-69587527D01*
X151713813Y-69617456D01*
X151750744Y-69676768D01*
X151749746Y-69746631D01*
X151711136Y-69804863D01*
X151650678Y-69832473D01*
X151490589Y-69857829D01*
X151318363Y-69913787D01*
X151318360Y-69913788D01*
X151157002Y-69996006D01*
X151010505Y-70102441D01*
X151010500Y-70102445D01*
X150882445Y-70230500D01*
X150882441Y-70230505D01*
X150776006Y-70377002D01*
X150693788Y-70538360D01*
X150693787Y-70538363D01*
X150637829Y-70710589D01*
X150609500Y-70889448D01*
X150609500Y-71070551D01*
X150637829Y-71249410D01*
X150693787Y-71421636D01*
X150693788Y-71421639D01*
X150776006Y-71582997D01*
X150882441Y-71729494D01*
X150882445Y-71729499D01*
X151010500Y-71857554D01*
X151010505Y-71857558D01*
X151073349Y-71903216D01*
X151157006Y-71963996D01*
X151262484Y-72017740D01*
X151318360Y-72046211D01*
X151318363Y-72046212D01*
X151390715Y-72069720D01*
X151490591Y-72102171D01*
X151563639Y-72113740D01*
X151650678Y-72127527D01*
X151713813Y-72157456D01*
X151750744Y-72216768D01*
X151749746Y-72286631D01*
X151711136Y-72344863D01*
X151650678Y-72372473D01*
X151490589Y-72397829D01*
X151318363Y-72453787D01*
X151318360Y-72453788D01*
X151157002Y-72536006D01*
X151010505Y-72642441D01*
X151010500Y-72642445D01*
X150882445Y-72770500D01*
X150882441Y-72770505D01*
X150776006Y-72917002D01*
X150693788Y-73078360D01*
X150693787Y-73078363D01*
X150637829Y-73250589D01*
X150609500Y-73429448D01*
X150609500Y-73610551D01*
X150637829Y-73789410D01*
X150693787Y-73961636D01*
X150693788Y-73961639D01*
X150776006Y-74122997D01*
X150882441Y-74269494D01*
X150882445Y-74269499D01*
X151010500Y-74397554D01*
X151010505Y-74397558D01*
X151078933Y-74447273D01*
X151157006Y-74503996D01*
X151249998Y-74551378D01*
X151318360Y-74586211D01*
X151318363Y-74586212D01*
X151382892Y-74607178D01*
X151490591Y-74642171D01*
X151563639Y-74653740D01*
X151650678Y-74667527D01*
X151713813Y-74697456D01*
X151750744Y-74756768D01*
X151749746Y-74826631D01*
X151711136Y-74884863D01*
X151650678Y-74912473D01*
X151490589Y-74937829D01*
X151318363Y-74993787D01*
X151318360Y-74993788D01*
X151157002Y-75076006D01*
X151010505Y-75182441D01*
X151010500Y-75182445D01*
X150882445Y-75310500D01*
X150882441Y-75310505D01*
X150776006Y-75457002D01*
X150693788Y-75618360D01*
X150693787Y-75618363D01*
X150637829Y-75790589D01*
X150609500Y-75969448D01*
X150609500Y-76150551D01*
X150637829Y-76329410D01*
X150693787Y-76501636D01*
X150693788Y-76501639D01*
X150776006Y-76662997D01*
X150882441Y-76809494D01*
X150882445Y-76809499D01*
X151010500Y-76937554D01*
X151010505Y-76937558D01*
X151127470Y-77022537D01*
X151157006Y-77043996D01*
X151225813Y-77079055D01*
X151288684Y-77111090D01*
X151339480Y-77159065D01*
X151356275Y-77226886D01*
X151333737Y-77293021D01*
X151279022Y-77336472D01*
X151270708Y-77339506D01*
X151241781Y-77348905D01*
X151052439Y-77445380D01*
X150998282Y-77484727D01*
X150998282Y-77484728D01*
X151630591Y-78117037D01*
X151567007Y-78134075D01*
X151452993Y-78199901D01*
X151359901Y-78292993D01*
X151294075Y-78407007D01*
X151277037Y-78470591D01*
X150644728Y-77838282D01*
X150644727Y-77838282D01*
X150605380Y-77892439D01*
X150508904Y-78081782D01*
X150443242Y-78283869D01*
X150443242Y-78283872D01*
X150410000Y-78493753D01*
X150410000Y-78706246D01*
X150443242Y-78916127D01*
X150443242Y-78916130D01*
X150508904Y-79118217D01*
X150605375Y-79307550D01*
X150644728Y-79361716D01*
X151277037Y-78729408D01*
X151294075Y-78792993D01*
X151359901Y-78907007D01*
X151452993Y-79000099D01*
X151567007Y-79065925D01*
X151630590Y-79082962D01*
X150998282Y-79715269D01*
X150998282Y-79715270D01*
X151052449Y-79754624D01*
X151241780Y-79851094D01*
X151270705Y-79860492D01*
X151328381Y-79899929D01*
X151355580Y-79964287D01*
X151343667Y-80033134D01*
X151296424Y-80084610D01*
X151288685Y-80088908D01*
X151157004Y-80156004D01*
X151010505Y-80262441D01*
X151010500Y-80262445D01*
X150882445Y-80390500D01*
X150882441Y-80390505D01*
X150776006Y-80537002D01*
X150693788Y-80698360D01*
X150693787Y-80698363D01*
X150637829Y-80870589D01*
X150609500Y-81049448D01*
X150609500Y-81230551D01*
X150637829Y-81409410D01*
X150693787Y-81581636D01*
X150693788Y-81581639D01*
X150776006Y-81742997D01*
X150882441Y-81889494D01*
X150882445Y-81889499D01*
X151010500Y-82017554D01*
X151010505Y-82017558D01*
X151116354Y-82094461D01*
X151157006Y-82123996D01*
X151262484Y-82177740D01*
X151318360Y-82206211D01*
X151318363Y-82206212D01*
X151404476Y-82234191D01*
X151490591Y-82262171D01*
X151563639Y-82273740D01*
X151650678Y-82287527D01*
X151713813Y-82317456D01*
X151750744Y-82376768D01*
X151749746Y-82446631D01*
X151711136Y-82504863D01*
X151650678Y-82532473D01*
X151490589Y-82557829D01*
X151318363Y-82613787D01*
X151318360Y-82613788D01*
X151157002Y-82696006D01*
X151010505Y-82802441D01*
X151010500Y-82802445D01*
X150882445Y-82930500D01*
X150882441Y-82930505D01*
X150776006Y-83077002D01*
X150693788Y-83238360D01*
X150693787Y-83238363D01*
X150637829Y-83410589D01*
X150609500Y-83589448D01*
X150609500Y-83770551D01*
X150637829Y-83949410D01*
X150693787Y-84121636D01*
X150693788Y-84121639D01*
X150776006Y-84282997D01*
X150882441Y-84429494D01*
X150882445Y-84429499D01*
X151010500Y-84557554D01*
X151010505Y-84557558D01*
X151138287Y-84650396D01*
X151157006Y-84663996D01*
X151262484Y-84717740D01*
X151318360Y-84746211D01*
X151318363Y-84746212D01*
X151404476Y-84774191D01*
X151490591Y-84802171D01*
X151563639Y-84813740D01*
X151650678Y-84827527D01*
X151713813Y-84857456D01*
X151750744Y-84916768D01*
X151749746Y-84986631D01*
X151711136Y-85044863D01*
X151650678Y-85072473D01*
X151490589Y-85097829D01*
X151318363Y-85153787D01*
X151318360Y-85153788D01*
X151157002Y-85236006D01*
X151010505Y-85342441D01*
X151010500Y-85342445D01*
X150882445Y-85470500D01*
X150882441Y-85470505D01*
X150776006Y-85617002D01*
X150693788Y-85778360D01*
X150693787Y-85778363D01*
X150637829Y-85950589D01*
X150609500Y-86129448D01*
X150609500Y-86310551D01*
X150637829Y-86489410D01*
X150693787Y-86661636D01*
X150693788Y-86661639D01*
X150776006Y-86822997D01*
X150882441Y-86969494D01*
X150882445Y-86969499D01*
X151010500Y-87097554D01*
X151010505Y-87097558D01*
X151138287Y-87190396D01*
X151157006Y-87203996D01*
X151262484Y-87257740D01*
X151318360Y-87286211D01*
X151318363Y-87286212D01*
X151404476Y-87314191D01*
X151490591Y-87342171D01*
X151563639Y-87353740D01*
X151650678Y-87367527D01*
X151713813Y-87397456D01*
X151750744Y-87456768D01*
X151749746Y-87526631D01*
X151711136Y-87584863D01*
X151650678Y-87612473D01*
X151490589Y-87637829D01*
X151318363Y-87693787D01*
X151318360Y-87693788D01*
X151157002Y-87776006D01*
X151010505Y-87882441D01*
X151010500Y-87882445D01*
X150882445Y-88010500D01*
X150882441Y-88010505D01*
X150776006Y-88157002D01*
X150693788Y-88318360D01*
X150693787Y-88318363D01*
X150637829Y-88490589D01*
X150609500Y-88669448D01*
X150609500Y-88850551D01*
X150637829Y-89029410D01*
X150693787Y-89201636D01*
X150693788Y-89201639D01*
X150776006Y-89362997D01*
X150882441Y-89509494D01*
X150882445Y-89509499D01*
X151010500Y-89637554D01*
X151010505Y-89637558D01*
X151138287Y-89730396D01*
X151157006Y-89743996D01*
X151258780Y-89795853D01*
X151288684Y-89811090D01*
X151339480Y-89859065D01*
X151356275Y-89926886D01*
X151333737Y-89993021D01*
X151279022Y-90036472D01*
X151270708Y-90039506D01*
X151241781Y-90048905D01*
X151052439Y-90145380D01*
X150998282Y-90184727D01*
X150998282Y-90184728D01*
X151630591Y-90817037D01*
X151567007Y-90834075D01*
X151452993Y-90899901D01*
X151359901Y-90992993D01*
X151294075Y-91107007D01*
X151277037Y-91170591D01*
X150644728Y-90538282D01*
X150644727Y-90538282D01*
X150605380Y-90592439D01*
X150508904Y-90781782D01*
X150443242Y-90983869D01*
X150443242Y-90983872D01*
X150410000Y-91193753D01*
X150410000Y-91406246D01*
X150443242Y-91616127D01*
X150443242Y-91616130D01*
X150508904Y-91818217D01*
X150605375Y-92007550D01*
X150644728Y-92061716D01*
X151277037Y-91429408D01*
X151294075Y-91492993D01*
X151359901Y-91607007D01*
X151452993Y-91700099D01*
X151567007Y-91765925D01*
X151630590Y-91782962D01*
X150998282Y-92415269D01*
X150998282Y-92415270D01*
X151052449Y-92454624D01*
X151241780Y-92551094D01*
X151270705Y-92560492D01*
X151328381Y-92599929D01*
X151355580Y-92664287D01*
X151343667Y-92733134D01*
X151296424Y-92784610D01*
X151288685Y-92788908D01*
X151157004Y-92856004D01*
X151010505Y-92962441D01*
X151010500Y-92962445D01*
X150882445Y-93090500D01*
X150882441Y-93090505D01*
X150776006Y-93237002D01*
X150693788Y-93398360D01*
X150693787Y-93398363D01*
X150637829Y-93570589D01*
X150609500Y-93749448D01*
X150609500Y-93930551D01*
X150637829Y-94109410D01*
X150693787Y-94281636D01*
X150693788Y-94281639D01*
X150776006Y-94442997D01*
X150882441Y-94589494D01*
X150882445Y-94589499D01*
X151010500Y-94717554D01*
X151010505Y-94717558D01*
X151135281Y-94808212D01*
X151157006Y-94823996D01*
X151262484Y-94877740D01*
X151318360Y-94906211D01*
X151318363Y-94906212D01*
X151403239Y-94933789D01*
X151490591Y-94962171D01*
X151563639Y-94973740D01*
X151650678Y-94987527D01*
X151713813Y-95017456D01*
X151750744Y-95076768D01*
X151749746Y-95146631D01*
X151711136Y-95204863D01*
X151650678Y-95232473D01*
X151490589Y-95257829D01*
X151318363Y-95313787D01*
X151318360Y-95313788D01*
X151157002Y-95396006D01*
X151010505Y-95502441D01*
X151010500Y-95502445D01*
X150882445Y-95630500D01*
X150882441Y-95630505D01*
X150776006Y-95777002D01*
X150693788Y-95938360D01*
X150693787Y-95938363D01*
X150637829Y-96110589D01*
X150609500Y-96289448D01*
X150609500Y-96470551D01*
X150637829Y-96649410D01*
X150693787Y-96821636D01*
X150693788Y-96821639D01*
X150776006Y-96982997D01*
X150882441Y-97129494D01*
X150882445Y-97129499D01*
X151010500Y-97257554D01*
X151010505Y-97257558D01*
X151137742Y-97350000D01*
X151157006Y-97363996D01*
X151262484Y-97417740D01*
X151318360Y-97446211D01*
X151318363Y-97446212D01*
X151404476Y-97474191D01*
X151490591Y-97502171D01*
X151573429Y-97515291D01*
X151669449Y-97530500D01*
X151669454Y-97530500D01*
X151850551Y-97530500D01*
X151937259Y-97516765D01*
X152029409Y-97502171D01*
X152201639Y-97446211D01*
X152362994Y-97363996D01*
X152509501Y-97257553D01*
X152637553Y-97129501D01*
X152743996Y-96982994D01*
X152826211Y-96821639D01*
X152882171Y-96649409D01*
X152905835Y-96500000D01*
X152910500Y-96470551D01*
X152910500Y-96289448D01*
X152894019Y-96185397D01*
X152882171Y-96110591D01*
X152826211Y-95938361D01*
X152826211Y-95938360D01*
X152759282Y-95807007D01*
X152743996Y-95777006D01*
X152710272Y-95730589D01*
X152637558Y-95630505D01*
X152637554Y-95630500D01*
X152509499Y-95502445D01*
X152509494Y-95502441D01*
X152362997Y-95396006D01*
X152362996Y-95396005D01*
X152362994Y-95396004D01*
X152311300Y-95369664D01*
X152201639Y-95313788D01*
X152201636Y-95313787D01*
X152029410Y-95257829D01*
X151869321Y-95232473D01*
X151854782Y-95225581D01*
X151838824Y-95223519D01*
X151823860Y-95210922D01*
X151806186Y-95202544D01*
X151797679Y-95188883D01*
X151785372Y-95178522D01*
X151779594Y-95159837D01*
X151769255Y-95143232D01*
X151769484Y-95127142D01*
X151764732Y-95111771D01*
X151769973Y-95092928D01*
X151770253Y-95073370D01*
X151779144Y-95059959D01*
X151783457Y-95044457D01*
X151798054Y-95031438D01*
X151808863Y-95015137D01*
X151824173Y-95008144D01*
X151835602Y-94997953D01*
X151869321Y-94987527D01*
X151922646Y-94979081D01*
X151960972Y-94973010D01*
X152029409Y-94962171D01*
X152201639Y-94906211D01*
X152362994Y-94823996D01*
X152509501Y-94717553D01*
X152637553Y-94589501D01*
X152743996Y-94442994D01*
X152826211Y-94281639D01*
X152882171Y-94109409D01*
X152896765Y-94017259D01*
X152910500Y-93930551D01*
X152910500Y-93749448D01*
X152891783Y-93631282D01*
X152882171Y-93570591D01*
X152826211Y-93398361D01*
X152826211Y-93398360D01*
X152797740Y-93342484D01*
X152743996Y-93237006D01*
X152730396Y-93218287D01*
X152637558Y-93090505D01*
X152637554Y-93090500D01*
X152509499Y-92962445D01*
X152509494Y-92962441D01*
X152362995Y-92856004D01*
X152231314Y-92788908D01*
X152180519Y-92740934D01*
X152163724Y-92673113D01*
X152186262Y-92606978D01*
X152240977Y-92563527D01*
X152249295Y-92560492D01*
X152278217Y-92551095D01*
X152467554Y-92454622D01*
X152521716Y-92415270D01*
X152521717Y-92415270D01*
X151889408Y-91782962D01*
X151952993Y-91765925D01*
X152067007Y-91700099D01*
X152160099Y-91607007D01*
X152225925Y-91492993D01*
X152242962Y-91429408D01*
X152875270Y-92061717D01*
X152875270Y-92061716D01*
X152914622Y-92007554D01*
X153011095Y-91818217D01*
X153076757Y-91616130D01*
X153076757Y-91616127D01*
X153110000Y-91406246D01*
X153110000Y-91193753D01*
X153076757Y-90983872D01*
X153076757Y-90983869D01*
X153011095Y-90781782D01*
X152914624Y-90592449D01*
X152875270Y-90538282D01*
X152875269Y-90538282D01*
X152242962Y-91170590D01*
X152225925Y-91107007D01*
X152160099Y-90992993D01*
X152067007Y-90899901D01*
X151952993Y-90834075D01*
X151889409Y-90817037D01*
X152521716Y-90184728D01*
X152467550Y-90145375D01*
X152278217Y-90048904D01*
X152249292Y-90039506D01*
X152191616Y-90000068D01*
X152164418Y-89935710D01*
X152176333Y-89866863D01*
X152223577Y-89815388D01*
X152231315Y-89811090D01*
X152362994Y-89743996D01*
X152509501Y-89637553D01*
X152637553Y-89509501D01*
X152743996Y-89362994D01*
X152826211Y-89201639D01*
X152882171Y-89029409D01*
X152896765Y-88937259D01*
X152910500Y-88850551D01*
X152910500Y-88669448D01*
X152894019Y-88565397D01*
X152882171Y-88490591D01*
X152826211Y-88318361D01*
X152826211Y-88318360D01*
X152797740Y-88262484D01*
X152743996Y-88157006D01*
X152730396Y-88138287D01*
X152637558Y-88010505D01*
X152637554Y-88010500D01*
X152509499Y-87882445D01*
X152509494Y-87882441D01*
X152362997Y-87776006D01*
X152362996Y-87776005D01*
X152362994Y-87776004D01*
X152311300Y-87749664D01*
X152201639Y-87693788D01*
X152201636Y-87693787D01*
X152029410Y-87637829D01*
X151869321Y-87612473D01*
X151806186Y-87582544D01*
X151769255Y-87523232D01*
X151770253Y-87453370D01*
X151808863Y-87395137D01*
X151869321Y-87367527D01*
X151939425Y-87356422D01*
X152029409Y-87342171D01*
X152201639Y-87286211D01*
X152362994Y-87203996D01*
X152509501Y-87097553D01*
X152637553Y-86969501D01*
X152743996Y-86822994D01*
X152826211Y-86661639D01*
X152882171Y-86489409D01*
X152901288Y-86368709D01*
X152910500Y-86310551D01*
X152910500Y-86129448D01*
X152885709Y-85972930D01*
X152882171Y-85950591D01*
X152826211Y-85778361D01*
X152826211Y-85778360D01*
X152797740Y-85722484D01*
X152743996Y-85617006D01*
X152696232Y-85551264D01*
X152637558Y-85470505D01*
X152637554Y-85470500D01*
X152509499Y-85342445D01*
X152509494Y-85342441D01*
X152362997Y-85236006D01*
X152362996Y-85236005D01*
X152362994Y-85236004D01*
X152311300Y-85209664D01*
X152201639Y-85153788D01*
X152201636Y-85153787D01*
X152029410Y-85097829D01*
X151869321Y-85072473D01*
X151806186Y-85042544D01*
X151769255Y-84983232D01*
X151770253Y-84913370D01*
X151808863Y-84855137D01*
X151869321Y-84827527D01*
X151939425Y-84816422D01*
X152029409Y-84802171D01*
X152201639Y-84746211D01*
X152362994Y-84663996D01*
X152509501Y-84557553D01*
X152637553Y-84429501D01*
X152743996Y-84282994D01*
X152826211Y-84121639D01*
X152882171Y-83949409D01*
X152896765Y-83857259D01*
X152910500Y-83770551D01*
X152910500Y-83589448D01*
X152893247Y-83480520D01*
X152882171Y-83410591D01*
X152847009Y-83302371D01*
X152826212Y-83238363D01*
X152826211Y-83238360D01*
X152761577Y-83111511D01*
X152743996Y-83077006D01*
X152673898Y-82980524D01*
X152637558Y-82930505D01*
X152637554Y-82930500D01*
X152509499Y-82802445D01*
X152509494Y-82802441D01*
X152445474Y-82755928D01*
X152362997Y-82696006D01*
X152362996Y-82696005D01*
X152362994Y-82696004D01*
X152299667Y-82663737D01*
X154642294Y-82663737D01*
X154642294Y-82821851D01*
X154671407Y-82930500D01*
X154683217Y-82974577D01*
X154683220Y-82974584D01*
X154762269Y-83111503D01*
X154762273Y-83111508D01*
X154762274Y-83111510D01*
X154874078Y-83223314D01*
X154874080Y-83223315D01*
X154874084Y-83223318D01*
X155011003Y-83302367D01*
X155011010Y-83302371D01*
X155163737Y-83343294D01*
X155163739Y-83343294D01*
X155321849Y-83343294D01*
X155321851Y-83343294D01*
X155474578Y-83302371D01*
X155611510Y-83223314D01*
X155706941Y-83127883D01*
X155768264Y-83094398D01*
X155794622Y-83091564D01*
X158723053Y-83091564D01*
X158790092Y-83111249D01*
X158810734Y-83127883D01*
X158854435Y-83171584D01*
X158854437Y-83171585D01*
X158854441Y-83171588D01*
X158991360Y-83250637D01*
X158991367Y-83250641D01*
X159144094Y-83291564D01*
X159144096Y-83291564D01*
X159302206Y-83291564D01*
X159302208Y-83291564D01*
X159454935Y-83250641D01*
X159591867Y-83171584D01*
X159666851Y-83096599D01*
X159728170Y-83063117D01*
X159786618Y-83064507D01*
X159920943Y-83100500D01*
X159920946Y-83100500D01*
X160079055Y-83100500D01*
X160079057Y-83100500D01*
X160231784Y-83059577D01*
X160368716Y-82980520D01*
X160387819Y-82961417D01*
X160449142Y-82927932D01*
X160518834Y-82932916D01*
X160574767Y-82974788D01*
X160599184Y-83040252D01*
X160599500Y-83049098D01*
X160599500Y-85499902D01*
X160579815Y-85566941D01*
X160563181Y-85587583D01*
X160519481Y-85631282D01*
X160519475Y-85631290D01*
X160440426Y-85768209D01*
X160440423Y-85768216D01*
X160399500Y-85920943D01*
X160399500Y-86079057D01*
X160437415Y-86220556D01*
X160440423Y-86231783D01*
X160440426Y-86231790D01*
X160519475Y-86368709D01*
X160519479Y-86368714D01*
X160519480Y-86368716D01*
X160631284Y-86480520D01*
X160631286Y-86480521D01*
X160631290Y-86480524D01*
X160768209Y-86559573D01*
X160768216Y-86559577D01*
X160920943Y-86600500D01*
X160920945Y-86600500D01*
X161079055Y-86600500D01*
X161079057Y-86600500D01*
X161231784Y-86559577D01*
X161368716Y-86480520D01*
X161480520Y-86368716D01*
X161559577Y-86231784D01*
X161581136Y-86151322D01*
X161617500Y-86091665D01*
X161680346Y-86061135D01*
X161749722Y-86069429D01*
X161756502Y-86072823D01*
X161759511Y-86074069D01*
X161759518Y-86074073D01*
X161912245Y-86114996D01*
X161912247Y-86114996D01*
X162070356Y-86114996D01*
X162070359Y-86114996D01*
X162123409Y-86100781D01*
X162193256Y-86102444D01*
X162251118Y-86141606D01*
X162278623Y-86205834D01*
X162279500Y-86220556D01*
X162279500Y-92782745D01*
X162259815Y-92849784D01*
X162243181Y-92870426D01*
X161550426Y-93563181D01*
X161489103Y-93596666D01*
X161462745Y-93599500D01*
X160500098Y-93599500D01*
X160433059Y-93579815D01*
X160412417Y-93563181D01*
X160368717Y-93519481D01*
X160368709Y-93519475D01*
X160231790Y-93440426D01*
X160231786Y-93440424D01*
X160231784Y-93440423D01*
X160079057Y-93399500D01*
X159920943Y-93399500D01*
X159768216Y-93440423D01*
X159768209Y-93440426D01*
X159631290Y-93519475D01*
X159631282Y-93519481D01*
X159519481Y-93631282D01*
X159519475Y-93631290D01*
X159440426Y-93768209D01*
X159440423Y-93768216D01*
X159399500Y-93920943D01*
X159399500Y-94079056D01*
X159440423Y-94231783D01*
X159440426Y-94231790D01*
X159519475Y-94368709D01*
X159519479Y-94368714D01*
X159519480Y-94368716D01*
X159631284Y-94480520D01*
X159631286Y-94480521D01*
X159631290Y-94480524D01*
X159725380Y-94534846D01*
X159768216Y-94559577D01*
X159865887Y-94585747D01*
X159925547Y-94622112D01*
X159956076Y-94684959D01*
X159947781Y-94754334D01*
X159903296Y-94808212D01*
X159890089Y-94816006D01*
X159832443Y-94845378D01*
X159832440Y-94845380D01*
X159778282Y-94884727D01*
X159778282Y-94884728D01*
X160410591Y-95517037D01*
X160347007Y-95534075D01*
X160232993Y-95599901D01*
X160139901Y-95692993D01*
X160074075Y-95807007D01*
X160057037Y-95870591D01*
X159424728Y-95238282D01*
X159424727Y-95238282D01*
X159385380Y-95292440D01*
X159385377Y-95292445D01*
X159384981Y-95293223D01*
X159384752Y-95293464D01*
X159382838Y-95296590D01*
X159382180Y-95296187D01*
X159337004Y-95344017D01*
X159269183Y-95360809D01*
X159203049Y-95338268D01*
X159159600Y-95283551D01*
X159150499Y-95236923D01*
X159150499Y-95105143D01*
X159150499Y-95105136D01*
X159150497Y-95105117D01*
X159147586Y-95080012D01*
X159147585Y-95080010D01*
X159147585Y-95080009D01*
X159102206Y-94977235D01*
X159022765Y-94897794D01*
X159022763Y-94897793D01*
X158919992Y-94852415D01*
X158894865Y-94849500D01*
X157105143Y-94849500D01*
X157105117Y-94849502D01*
X157080012Y-94852413D01*
X157080008Y-94852415D01*
X156977235Y-94897793D01*
X156897794Y-94977234D01*
X156852415Y-95080006D01*
X156852415Y-95080008D01*
X156849500Y-95105131D01*
X156849500Y-96894856D01*
X156849502Y-96894882D01*
X156852413Y-96919987D01*
X156852415Y-96919991D01*
X156897793Y-97022764D01*
X156897794Y-97022765D01*
X156977235Y-97102206D01*
X157080009Y-97147585D01*
X157105135Y-97150500D01*
X158894864Y-97150499D01*
X158894879Y-97150497D01*
X158894882Y-97150497D01*
X158919987Y-97147586D01*
X158919988Y-97147585D01*
X158919991Y-97147585D01*
X159022765Y-97102206D01*
X159102206Y-97022765D01*
X159147585Y-96919991D01*
X159150500Y-96894865D01*
X159150499Y-96763076D01*
X159170183Y-96696040D01*
X159222987Y-96650285D01*
X159292145Y-96640341D01*
X159355701Y-96669365D01*
X159382495Y-96703600D01*
X159382829Y-96703396D01*
X159384607Y-96706297D01*
X159384977Y-96706770D01*
X159385373Y-96707547D01*
X159424728Y-96761716D01*
X160057037Y-96129408D01*
X160074075Y-96192993D01*
X160139901Y-96307007D01*
X160232993Y-96400099D01*
X160347007Y-96465925D01*
X160410590Y-96482962D01*
X159778282Y-97115269D01*
X159778282Y-97115270D01*
X159832449Y-97154624D01*
X160021782Y-97251095D01*
X160223870Y-97316757D01*
X160433754Y-97350000D01*
X160646246Y-97350000D01*
X160856127Y-97316757D01*
X160856130Y-97316757D01*
X161058217Y-97251095D01*
X161247554Y-97154622D01*
X161301716Y-97115270D01*
X161301717Y-97115270D01*
X160669408Y-96482962D01*
X160732993Y-96465925D01*
X160847007Y-96400099D01*
X160940099Y-96307007D01*
X161005925Y-96192993D01*
X161022962Y-96129408D01*
X161655270Y-96761717D01*
X161655270Y-96761716D01*
X161694622Y-96707554D01*
X161791095Y-96518217D01*
X161800492Y-96489295D01*
X161839928Y-96431618D01*
X161904286Y-96404419D01*
X161973133Y-96416331D01*
X162024610Y-96463574D01*
X162028908Y-96471314D01*
X162096004Y-96602995D01*
X162202441Y-96749494D01*
X162202445Y-96749499D01*
X162330500Y-96877554D01*
X162330505Y-96877558D01*
X162458287Y-96970396D01*
X162477006Y-96983996D01*
X162553094Y-97022765D01*
X162638360Y-97066211D01*
X162638363Y-97066212D01*
X162724476Y-97094191D01*
X162810591Y-97122171D01*
X162893429Y-97135291D01*
X162989449Y-97150500D01*
X162989454Y-97150500D01*
X163170551Y-97150500D01*
X163257259Y-97136765D01*
X163349409Y-97122171D01*
X163521639Y-97066211D01*
X163682994Y-96983996D01*
X163829501Y-96877553D01*
X163957553Y-96749501D01*
X164063996Y-96602994D01*
X164146211Y-96441639D01*
X164202171Y-96269409D01*
X164216765Y-96177259D01*
X164230500Y-96090551D01*
X164230500Y-95909448D01*
X164209522Y-95777006D01*
X164202171Y-95730591D01*
X164146211Y-95558361D01*
X164146211Y-95558360D01*
X164107191Y-95481780D01*
X164063996Y-95397006D01*
X164050396Y-95378287D01*
X163957558Y-95250505D01*
X163957554Y-95250500D01*
X163829499Y-95122445D01*
X163829494Y-95122441D01*
X163682997Y-95016006D01*
X163682996Y-95016005D01*
X163682994Y-95016004D01*
X163577341Y-94962171D01*
X163548205Y-94947325D01*
X163497409Y-94899350D01*
X163480500Y-94836840D01*
X163480500Y-83527275D01*
X163480500Y-83527273D01*
X163453207Y-83425413D01*
X163453207Y-83425412D01*
X163400480Y-83334087D01*
X162892210Y-82825817D01*
X162863174Y-82775524D01*
X162862688Y-82775726D01*
X162861155Y-82772026D01*
X162860115Y-82770224D01*
X162859576Y-82768214D01*
X162859576Y-82768213D01*
X162780524Y-82631290D01*
X162780518Y-82631282D01*
X162668717Y-82519481D01*
X162668709Y-82519475D01*
X162531790Y-82440426D01*
X162531786Y-82440424D01*
X162531784Y-82440423D01*
X162379057Y-82399500D01*
X162220943Y-82399500D01*
X162068216Y-82440423D01*
X162068215Y-82440423D01*
X161986499Y-82487602D01*
X161918599Y-82504074D01*
X161852572Y-82481221D01*
X161809382Y-82426299D01*
X161800500Y-82380214D01*
X161800500Y-80749265D01*
X161820185Y-80682226D01*
X161872989Y-80636471D01*
X161942147Y-80626527D01*
X162005703Y-80655552D01*
X162012181Y-80661584D01*
X162707676Y-81357079D01*
X162799001Y-81409806D01*
X162900862Y-81437099D01*
X162900864Y-81437099D01*
X165016126Y-81437099D01*
X165016128Y-81437099D01*
X165117989Y-81409806D01*
X165209314Y-81357079D01*
X166429574Y-80136819D01*
X166490897Y-80103334D01*
X166517255Y-80100500D01*
X166579055Y-80100500D01*
X166579057Y-80100500D01*
X166731784Y-80059577D01*
X166868716Y-79980520D01*
X166980520Y-79868716D01*
X167059577Y-79731784D01*
X167100500Y-79579057D01*
X167100500Y-79420943D01*
X167059577Y-79268216D01*
X167046262Y-79245153D01*
X166980524Y-79131290D01*
X166980518Y-79131282D01*
X166868717Y-79019481D01*
X166868709Y-79019475D01*
X166731790Y-78940426D01*
X166731786Y-78940424D01*
X166731784Y-78940423D01*
X166579057Y-78899500D01*
X166420943Y-78899500D01*
X166268216Y-78940423D01*
X166268209Y-78940426D01*
X166131290Y-79019475D01*
X166131282Y-79019481D01*
X166019481Y-79131282D01*
X166019475Y-79131290D01*
X165940426Y-79268209D01*
X165940423Y-79268216D01*
X165899500Y-79420943D01*
X165899500Y-79482745D01*
X165879815Y-79549784D01*
X165863181Y-79570426D01*
X164833827Y-80599780D01*
X164772504Y-80633265D01*
X164746146Y-80636099D01*
X163926618Y-80636099D01*
X163859579Y-80616414D01*
X163813824Y-80563610D01*
X163802618Y-80512099D01*
X163802618Y-80357544D01*
X163802618Y-80357542D01*
X163761695Y-80204815D01*
X163710741Y-80116559D01*
X163682642Y-80067889D01*
X163682636Y-80067881D01*
X163638937Y-80024182D01*
X163605452Y-79962859D01*
X163602618Y-79936501D01*
X163602618Y-79515137D01*
X163622303Y-79448098D01*
X163638937Y-79427456D01*
X166629574Y-76436819D01*
X166690897Y-76403334D01*
X166717255Y-76400500D01*
X167099902Y-76400500D01*
X167166941Y-76420185D01*
X167187583Y-76436819D01*
X167231284Y-76480520D01*
X167231286Y-76480521D01*
X167231290Y-76480524D01*
X167298760Y-76519477D01*
X167368216Y-76559577D01*
X167520943Y-76600500D01*
X167520945Y-76600500D01*
X167679055Y-76600500D01*
X167679057Y-76600500D01*
X167831784Y-76559577D01*
X167968716Y-76480520D01*
X168080520Y-76368716D01*
X168159577Y-76231784D01*
X168161180Y-76225800D01*
X168197540Y-76166141D01*
X168260385Y-76135608D01*
X168329761Y-76143899D01*
X168383641Y-76188381D01*
X168403428Y-76238491D01*
X168417829Y-76329410D01*
X168473787Y-76501636D01*
X168473788Y-76501639D01*
X168556006Y-76662997D01*
X168662441Y-76809494D01*
X168662445Y-76809499D01*
X168790500Y-76937554D01*
X168790505Y-76937558D01*
X168907470Y-77022537D01*
X168937006Y-77043996D01*
X169005813Y-77079055D01*
X169068684Y-77111090D01*
X169119480Y-77159065D01*
X169136275Y-77226886D01*
X169113737Y-77293021D01*
X169059022Y-77336472D01*
X169050708Y-77339506D01*
X169021781Y-77348905D01*
X168832439Y-77445380D01*
X168778282Y-77484727D01*
X168778282Y-77484728D01*
X169410591Y-78117037D01*
X169347007Y-78134075D01*
X169232993Y-78199901D01*
X169139901Y-78292993D01*
X169074075Y-78407007D01*
X169057037Y-78470591D01*
X168424728Y-77838282D01*
X168424727Y-77838282D01*
X168385380Y-77892439D01*
X168288904Y-78081782D01*
X168223242Y-78283869D01*
X168223242Y-78283872D01*
X168190000Y-78493753D01*
X168190000Y-78706246D01*
X168223242Y-78916127D01*
X168223242Y-78916130D01*
X168288904Y-79118217D01*
X168385375Y-79307550D01*
X168424728Y-79361716D01*
X169057037Y-78729408D01*
X169074075Y-78792993D01*
X169139901Y-78907007D01*
X169232993Y-79000099D01*
X169347007Y-79065925D01*
X169410590Y-79082962D01*
X168778282Y-79715269D01*
X168778282Y-79715270D01*
X168832449Y-79754624D01*
X169021780Y-79851094D01*
X169050705Y-79860492D01*
X169108381Y-79899929D01*
X169135580Y-79964287D01*
X169123667Y-80033134D01*
X169076424Y-80084610D01*
X169068685Y-80088908D01*
X168937004Y-80156004D01*
X168790505Y-80262441D01*
X168790500Y-80262445D01*
X168662445Y-80390500D01*
X168662441Y-80390505D01*
X168556006Y-80537002D01*
X168473788Y-80698360D01*
X168473787Y-80698363D01*
X168417829Y-80870589D01*
X168389500Y-81049448D01*
X168389500Y-81230551D01*
X168417829Y-81409410D01*
X168473787Y-81581636D01*
X168473788Y-81581639D01*
X168556006Y-81742997D01*
X168662441Y-81889494D01*
X168662445Y-81889499D01*
X168790500Y-82017554D01*
X168790505Y-82017558D01*
X168896354Y-82094461D01*
X168937006Y-82123996D01*
X169042484Y-82177740D01*
X169098360Y-82206211D01*
X169098363Y-82206212D01*
X169184476Y-82234191D01*
X169270591Y-82262171D01*
X169343639Y-82273740D01*
X169430678Y-82287527D01*
X169493813Y-82317456D01*
X169530744Y-82376768D01*
X169529746Y-82446631D01*
X169491136Y-82504863D01*
X169430678Y-82532473D01*
X169270589Y-82557829D01*
X169098363Y-82613787D01*
X169098360Y-82613788D01*
X168937002Y-82696006D01*
X168790505Y-82802441D01*
X168790500Y-82802445D01*
X168662445Y-82930500D01*
X168662441Y-82930505D01*
X168556006Y-83077002D01*
X168473788Y-83238360D01*
X168473787Y-83238363D01*
X168417829Y-83410589D01*
X168389500Y-83589448D01*
X168389500Y-83770551D01*
X168417829Y-83949410D01*
X168473787Y-84121636D01*
X168473788Y-84121639D01*
X168556006Y-84282997D01*
X168662441Y-84429494D01*
X168662445Y-84429499D01*
X168790500Y-84557554D01*
X168790505Y-84557558D01*
X168918287Y-84650396D01*
X168937006Y-84663996D01*
X169042484Y-84717740D01*
X169098360Y-84746211D01*
X169098363Y-84746212D01*
X169184476Y-84774191D01*
X169270591Y-84802171D01*
X169343639Y-84813740D01*
X169430678Y-84827527D01*
X169493813Y-84857456D01*
X169530744Y-84916768D01*
X169529746Y-84986631D01*
X169491136Y-85044863D01*
X169430678Y-85072473D01*
X169270589Y-85097829D01*
X169098363Y-85153787D01*
X169098360Y-85153788D01*
X168937002Y-85236006D01*
X168790505Y-85342441D01*
X168790500Y-85342445D01*
X168662445Y-85470500D01*
X168662441Y-85470505D01*
X168556006Y-85617002D01*
X168473788Y-85778360D01*
X168473787Y-85778363D01*
X168417829Y-85950589D01*
X168389500Y-86129448D01*
X168389500Y-86310551D01*
X168417829Y-86489410D01*
X168473787Y-86661636D01*
X168473788Y-86661639D01*
X168556006Y-86822997D01*
X168662441Y-86969494D01*
X168662445Y-86969499D01*
X168790500Y-87097554D01*
X168790505Y-87097558D01*
X168918287Y-87190396D01*
X168937006Y-87203996D01*
X169042484Y-87257740D01*
X169098360Y-87286211D01*
X169098363Y-87286212D01*
X169184476Y-87314191D01*
X169270591Y-87342171D01*
X169343639Y-87353740D01*
X169430678Y-87367527D01*
X169493813Y-87397456D01*
X169530744Y-87456768D01*
X169529746Y-87526631D01*
X169491136Y-87584863D01*
X169430678Y-87612473D01*
X169270589Y-87637829D01*
X169098363Y-87693787D01*
X169098360Y-87693788D01*
X168937002Y-87776006D01*
X168790505Y-87882441D01*
X168790500Y-87882445D01*
X168662445Y-88010500D01*
X168662441Y-88010505D01*
X168556006Y-88157002D01*
X168473788Y-88318360D01*
X168473787Y-88318363D01*
X168417829Y-88490589D01*
X168389500Y-88669448D01*
X168389500Y-88850551D01*
X168417829Y-89029410D01*
X168473787Y-89201636D01*
X168473788Y-89201639D01*
X168556006Y-89362997D01*
X168662441Y-89509494D01*
X168662445Y-89509499D01*
X168790500Y-89637554D01*
X168790505Y-89637558D01*
X168918287Y-89730396D01*
X168937006Y-89743996D01*
X169038780Y-89795853D01*
X169068684Y-89811090D01*
X169119480Y-89859065D01*
X169136275Y-89926886D01*
X169113737Y-89993021D01*
X169059022Y-90036472D01*
X169050708Y-90039506D01*
X169021781Y-90048905D01*
X168832439Y-90145380D01*
X168778282Y-90184727D01*
X168778282Y-90184728D01*
X169410591Y-90817037D01*
X169347007Y-90834075D01*
X169232993Y-90899901D01*
X169139901Y-90992993D01*
X169074075Y-91107007D01*
X169057037Y-91170591D01*
X168424728Y-90538282D01*
X168424727Y-90538282D01*
X168385380Y-90592439D01*
X168288904Y-90781782D01*
X168223242Y-90983869D01*
X168223242Y-90983872D01*
X168190000Y-91193753D01*
X168190000Y-91406246D01*
X168223242Y-91616127D01*
X168223242Y-91616130D01*
X168288904Y-91818217D01*
X168385375Y-92007550D01*
X168424728Y-92061716D01*
X169057037Y-91429408D01*
X169074075Y-91492993D01*
X169139901Y-91607007D01*
X169232993Y-91700099D01*
X169347007Y-91765925D01*
X169410590Y-91782962D01*
X168778282Y-92415269D01*
X168778282Y-92415270D01*
X168832449Y-92454624D01*
X169021780Y-92551094D01*
X169050705Y-92560492D01*
X169108381Y-92599929D01*
X169135580Y-92664287D01*
X169123667Y-92733134D01*
X169076424Y-92784610D01*
X169068685Y-92788908D01*
X168937004Y-92856004D01*
X168790505Y-92962441D01*
X168790500Y-92962445D01*
X168662445Y-93090500D01*
X168662441Y-93090505D01*
X168556006Y-93237002D01*
X168473788Y-93398360D01*
X168473787Y-93398363D01*
X168417829Y-93570589D01*
X168389500Y-93749448D01*
X168389500Y-93930551D01*
X168417829Y-94109410D01*
X168473787Y-94281636D01*
X168473788Y-94281639D01*
X168556006Y-94442997D01*
X168662441Y-94589494D01*
X168662445Y-94589499D01*
X168790500Y-94717554D01*
X168790505Y-94717558D01*
X168915281Y-94808212D01*
X168937006Y-94823996D01*
X169042484Y-94877740D01*
X169098360Y-94906211D01*
X169098363Y-94906212D01*
X169183239Y-94933789D01*
X169270591Y-94962171D01*
X169343639Y-94973740D01*
X169430678Y-94987527D01*
X169493813Y-95017456D01*
X169530744Y-95076768D01*
X169529746Y-95146631D01*
X169491136Y-95204863D01*
X169430678Y-95232473D01*
X169270589Y-95257829D01*
X169098363Y-95313787D01*
X169098360Y-95313788D01*
X168937002Y-95396006D01*
X168790505Y-95502441D01*
X168790500Y-95502445D01*
X168662445Y-95630500D01*
X168662441Y-95630505D01*
X168556006Y-95777002D01*
X168473788Y-95938360D01*
X168473787Y-95938363D01*
X168417829Y-96110589D01*
X168389500Y-96289448D01*
X168389500Y-96470551D01*
X168417829Y-96649410D01*
X168473787Y-96821636D01*
X168473788Y-96821639D01*
X168556006Y-96982997D01*
X168662441Y-97129494D01*
X168662445Y-97129499D01*
X168790500Y-97257554D01*
X168790505Y-97257558D01*
X168917742Y-97350000D01*
X168937006Y-97363996D01*
X169042484Y-97417740D01*
X169098360Y-97446211D01*
X169098363Y-97446212D01*
X169184476Y-97474191D01*
X169270591Y-97502171D01*
X169353429Y-97515291D01*
X169449449Y-97530500D01*
X169449454Y-97530500D01*
X169630551Y-97530500D01*
X169717259Y-97516765D01*
X169809409Y-97502171D01*
X169981639Y-97446211D01*
X170142994Y-97363996D01*
X170289501Y-97257553D01*
X170417553Y-97129501D01*
X170523996Y-96982994D01*
X170606211Y-96821639D01*
X170662171Y-96649409D01*
X170685835Y-96500000D01*
X170690500Y-96470551D01*
X170690500Y-96289448D01*
X170674019Y-96185397D01*
X170662171Y-96110591D01*
X170606211Y-95938361D01*
X170606211Y-95938360D01*
X170539282Y-95807007D01*
X170523996Y-95777006D01*
X170490272Y-95730589D01*
X170417558Y-95630505D01*
X170417554Y-95630500D01*
X170289499Y-95502445D01*
X170289494Y-95502441D01*
X170142997Y-95396006D01*
X170142996Y-95396005D01*
X170142994Y-95396004D01*
X170091300Y-95369664D01*
X169981639Y-95313788D01*
X169981636Y-95313787D01*
X169809410Y-95257829D01*
X169649321Y-95232473D01*
X169586186Y-95202544D01*
X169549255Y-95143232D01*
X169550253Y-95073370D01*
X169588863Y-95015137D01*
X169649321Y-94987527D01*
X169719425Y-94976422D01*
X169809409Y-94962171D01*
X169981639Y-94906211D01*
X170142994Y-94823996D01*
X170289501Y-94717553D01*
X170417553Y-94589501D01*
X170523996Y-94442994D01*
X170606211Y-94281639D01*
X170662171Y-94109409D01*
X170676765Y-94017259D01*
X170690500Y-93930551D01*
X170690500Y-93749448D01*
X170671783Y-93631282D01*
X170662171Y-93570591D01*
X170606211Y-93398361D01*
X170606211Y-93398360D01*
X170577740Y-93342484D01*
X170523996Y-93237006D01*
X170510396Y-93218287D01*
X170417558Y-93090505D01*
X170417554Y-93090500D01*
X170289499Y-92962445D01*
X170289494Y-92962441D01*
X170142995Y-92856004D01*
X170011314Y-92788908D01*
X169960519Y-92740934D01*
X169943724Y-92673113D01*
X169966262Y-92606978D01*
X170020977Y-92563527D01*
X170029295Y-92560492D01*
X170058217Y-92551095D01*
X170247554Y-92454622D01*
X170301716Y-92415270D01*
X170301717Y-92415270D01*
X169669408Y-91782962D01*
X169732993Y-91765925D01*
X169847007Y-91700099D01*
X169940099Y-91607007D01*
X170005925Y-91492993D01*
X170022962Y-91429408D01*
X170655270Y-92061717D01*
X170655270Y-92061716D01*
X170694622Y-92007554D01*
X170791095Y-91818217D01*
X170856757Y-91616130D01*
X170856757Y-91616127D01*
X170890000Y-91406246D01*
X170890000Y-91193753D01*
X170856757Y-90983872D01*
X170856757Y-90983869D01*
X170791095Y-90781782D01*
X170694624Y-90592449D01*
X170655270Y-90538282D01*
X170655269Y-90538282D01*
X170022962Y-91170590D01*
X170005925Y-91107007D01*
X169940099Y-90992993D01*
X169847007Y-90899901D01*
X169732993Y-90834075D01*
X169669409Y-90817037D01*
X170301716Y-90184728D01*
X170247550Y-90145375D01*
X170058217Y-90048904D01*
X170029292Y-90039506D01*
X169971616Y-90000068D01*
X169944418Y-89935710D01*
X169956333Y-89866863D01*
X170003577Y-89815388D01*
X170011315Y-89811090D01*
X170142994Y-89743996D01*
X170289501Y-89637553D01*
X170417553Y-89509501D01*
X170523996Y-89362994D01*
X170606211Y-89201639D01*
X170662171Y-89029409D01*
X170676765Y-88937259D01*
X170690500Y-88850551D01*
X170690500Y-88669448D01*
X170674019Y-88565397D01*
X170662171Y-88490591D01*
X170606211Y-88318361D01*
X170606211Y-88318360D01*
X170577740Y-88262484D01*
X170523996Y-88157006D01*
X170510396Y-88138287D01*
X170417558Y-88010505D01*
X170417554Y-88010500D01*
X170289499Y-87882445D01*
X170289494Y-87882441D01*
X170142997Y-87776006D01*
X170142996Y-87776005D01*
X170142994Y-87776004D01*
X170091300Y-87749664D01*
X169981639Y-87693788D01*
X169981636Y-87693787D01*
X169809410Y-87637829D01*
X169649321Y-87612473D01*
X169586186Y-87582544D01*
X169549255Y-87523232D01*
X169550253Y-87453370D01*
X169588863Y-87395137D01*
X169649321Y-87367527D01*
X169719425Y-87356422D01*
X169809409Y-87342171D01*
X169981639Y-87286211D01*
X170142994Y-87203996D01*
X170289501Y-87097553D01*
X170417553Y-86969501D01*
X170523996Y-86822994D01*
X170606211Y-86661639D01*
X170662171Y-86489409D01*
X170681288Y-86368709D01*
X170690500Y-86310551D01*
X170690500Y-86129448D01*
X170665709Y-85972930D01*
X170662171Y-85950591D01*
X170606211Y-85778361D01*
X170606211Y-85778360D01*
X170577740Y-85722484D01*
X170523996Y-85617006D01*
X170476232Y-85551264D01*
X170417558Y-85470505D01*
X170417554Y-85470500D01*
X170289499Y-85342445D01*
X170289494Y-85342441D01*
X170142997Y-85236006D01*
X170142996Y-85236005D01*
X170142994Y-85236004D01*
X170091300Y-85209664D01*
X169981639Y-85153788D01*
X169981636Y-85153787D01*
X169809410Y-85097829D01*
X169649321Y-85072473D01*
X169586186Y-85042544D01*
X169549255Y-84983232D01*
X169550253Y-84913370D01*
X169588863Y-84855137D01*
X169649321Y-84827527D01*
X169719425Y-84816422D01*
X169809409Y-84802171D01*
X169981639Y-84746211D01*
X170142994Y-84663996D01*
X170289501Y-84557553D01*
X170417553Y-84429501D01*
X170523996Y-84282994D01*
X170606211Y-84121639D01*
X170662171Y-83949409D01*
X170676765Y-83857259D01*
X170690500Y-83770551D01*
X170690500Y-83589448D01*
X170673247Y-83480520D01*
X170662171Y-83410591D01*
X170627009Y-83302371D01*
X170606212Y-83238363D01*
X170606211Y-83238360D01*
X170541577Y-83111511D01*
X170523996Y-83077006D01*
X170453898Y-82980524D01*
X170417558Y-82930505D01*
X170417554Y-82930500D01*
X170289499Y-82802445D01*
X170289494Y-82802441D01*
X170142997Y-82696006D01*
X170142996Y-82696005D01*
X170142994Y-82696004D01*
X170079667Y-82663737D01*
X169981639Y-82613788D01*
X169981636Y-82613787D01*
X169809410Y-82557829D01*
X169649321Y-82532473D01*
X169586186Y-82502544D01*
X169549255Y-82443232D01*
X169550253Y-82373370D01*
X169588863Y-82315137D01*
X169649321Y-82287527D01*
X169719425Y-82276422D01*
X169809409Y-82262171D01*
X169981639Y-82206211D01*
X170142994Y-82123996D01*
X170289501Y-82017553D01*
X170417553Y-81889501D01*
X170523996Y-81742994D01*
X170606211Y-81581639D01*
X170662171Y-81409409D01*
X170676765Y-81317259D01*
X170690500Y-81230551D01*
X170690500Y-81049448D01*
X170674019Y-80945397D01*
X170662171Y-80870591D01*
X170626889Y-80762002D01*
X170606212Y-80698363D01*
X170606211Y-80698360D01*
X170572665Y-80632524D01*
X170523996Y-80537006D01*
X170505900Y-80512099D01*
X170417558Y-80390505D01*
X170417554Y-80390500D01*
X170289499Y-80262445D01*
X170289494Y-80262441D01*
X170142995Y-80156004D01*
X170011314Y-80088908D01*
X169960519Y-80040934D01*
X169943724Y-79973113D01*
X169966262Y-79906978D01*
X170020977Y-79863527D01*
X170029295Y-79860492D01*
X170058217Y-79851095D01*
X170247554Y-79754622D01*
X170301716Y-79715270D01*
X170301717Y-79715270D01*
X169669408Y-79082962D01*
X169732993Y-79065925D01*
X169847007Y-79000099D01*
X169940099Y-78907007D01*
X170005925Y-78792993D01*
X170022962Y-78729408D01*
X170655270Y-79361717D01*
X170655270Y-79361716D01*
X170694622Y-79307554D01*
X170791095Y-79118217D01*
X170856757Y-78916130D01*
X170856757Y-78916127D01*
X170890000Y-78706246D01*
X170890000Y-78493753D01*
X170856757Y-78283872D01*
X170856757Y-78283869D01*
X170791095Y-78081782D01*
X170694624Y-77892449D01*
X170655270Y-77838282D01*
X170655269Y-77838282D01*
X170022962Y-78470590D01*
X170005925Y-78407007D01*
X169940099Y-78292993D01*
X169847007Y-78199901D01*
X169732993Y-78134075D01*
X169669409Y-78117037D01*
X170301716Y-77484728D01*
X170247550Y-77445375D01*
X170058217Y-77348904D01*
X170029292Y-77339506D01*
X169971616Y-77300068D01*
X169944418Y-77235710D01*
X169956333Y-77166863D01*
X170003577Y-77115388D01*
X170011315Y-77111090D01*
X170142994Y-77043996D01*
X170289501Y-76937553D01*
X170417553Y-76809501D01*
X170523996Y-76662994D01*
X170606211Y-76501639D01*
X170662171Y-76329409D01*
X170683564Y-76194340D01*
X170690500Y-76150551D01*
X170690500Y-75969448D01*
X170666636Y-75818783D01*
X170662171Y-75790591D01*
X170626083Y-75679521D01*
X170606212Y-75618363D01*
X170606211Y-75618360D01*
X170565588Y-75538635D01*
X170523996Y-75457006D01*
X170499324Y-75423048D01*
X170417558Y-75310505D01*
X170417554Y-75310500D01*
X170289499Y-75182445D01*
X170289494Y-75182441D01*
X170142997Y-75076006D01*
X170142996Y-75076005D01*
X170142994Y-75076004D01*
X170090589Y-75049302D01*
X169981639Y-74993788D01*
X169981636Y-74993787D01*
X169809410Y-74937829D01*
X169649321Y-74912473D01*
X169586186Y-74882544D01*
X169549255Y-74823232D01*
X169550253Y-74753370D01*
X169588863Y-74695137D01*
X169649321Y-74667527D01*
X169719425Y-74656422D01*
X169809409Y-74642171D01*
X169975424Y-74588230D01*
X169981636Y-74586212D01*
X169981639Y-74586211D01*
X169992622Y-74580615D01*
X170142994Y-74503996D01*
X170289501Y-74397553D01*
X170417553Y-74269501D01*
X170523996Y-74122994D01*
X170606211Y-73961639D01*
X170607569Y-73957461D01*
X170626076Y-73900500D01*
X170662171Y-73789409D01*
X170676765Y-73697259D01*
X170690500Y-73610551D01*
X170690500Y-73429448D01*
X170674019Y-73325397D01*
X170662171Y-73250591D01*
X170634191Y-73164476D01*
X170606212Y-73078363D01*
X170606211Y-73078360D01*
X170576207Y-73019475D01*
X170523996Y-72917006D01*
X170447478Y-72811687D01*
X170417558Y-72770505D01*
X170417554Y-72770500D01*
X170289499Y-72642445D01*
X170289494Y-72642441D01*
X170142997Y-72536006D01*
X170142996Y-72536005D01*
X170142994Y-72536004D01*
X170072525Y-72500098D01*
X169981639Y-72453788D01*
X169981636Y-72453787D01*
X169809410Y-72397829D01*
X169649321Y-72372473D01*
X169586186Y-72342544D01*
X169549255Y-72283232D01*
X169550253Y-72213370D01*
X169588863Y-72155137D01*
X169649321Y-72127527D01*
X169719425Y-72116422D01*
X169809409Y-72102171D01*
X169981639Y-72046211D01*
X170142994Y-71963996D01*
X170289501Y-71857553D01*
X170417553Y-71729501D01*
X170523996Y-71582994D01*
X170606211Y-71421639D01*
X170662171Y-71249409D01*
X170676765Y-71157259D01*
X170690500Y-71070551D01*
X170690500Y-70889448D01*
X170674019Y-70785397D01*
X170662171Y-70710591D01*
X170606211Y-70538361D01*
X170606211Y-70538360D01*
X170577740Y-70482484D01*
X170523996Y-70377006D01*
X170428638Y-70245756D01*
X170417558Y-70230505D01*
X170417554Y-70230500D01*
X170289499Y-70102445D01*
X170289494Y-70102441D01*
X170142997Y-69996006D01*
X170142996Y-69996005D01*
X170142994Y-69996004D01*
X170053698Y-69950505D01*
X169981639Y-69913788D01*
X169981636Y-69913787D01*
X169809410Y-69857829D01*
X169649321Y-69832473D01*
X169586186Y-69802544D01*
X169549255Y-69743232D01*
X169550253Y-69673370D01*
X169588863Y-69615137D01*
X169649321Y-69587527D01*
X169719425Y-69576422D01*
X169809409Y-69562171D01*
X169981639Y-69506211D01*
X170142994Y-69423996D01*
X170289501Y-69317553D01*
X170417553Y-69189501D01*
X170523996Y-69042994D01*
X170606211Y-68881639D01*
X170662171Y-68709409D01*
X170676765Y-68617259D01*
X170690500Y-68530551D01*
X170690500Y-68349448D01*
X170674019Y-68245397D01*
X170662171Y-68170591D01*
X170606211Y-67998361D01*
X170606211Y-67998360D01*
X170575716Y-67938511D01*
X170523996Y-67837006D01*
X170424021Y-67699401D01*
X170417558Y-67690505D01*
X170417552Y-67690498D01*
X170289499Y-67562445D01*
X170289494Y-67562441D01*
X170142995Y-67456004D01*
X170011314Y-67388908D01*
X169960519Y-67340934D01*
X169943724Y-67273113D01*
X169966262Y-67206978D01*
X170020977Y-67163527D01*
X170029295Y-67160492D01*
X170058217Y-67151095D01*
X170247554Y-67054622D01*
X170301716Y-67015270D01*
X170301717Y-67015270D01*
X169669408Y-66382962D01*
X169732993Y-66365925D01*
X169847007Y-66300099D01*
X169940099Y-66207007D01*
X170005925Y-66092993D01*
X170022962Y-66029408D01*
X170655270Y-66661717D01*
X170655270Y-66661716D01*
X170694622Y-66607554D01*
X170791095Y-66418217D01*
X170856757Y-66216130D01*
X170856757Y-66216127D01*
X170890000Y-66006246D01*
X170890000Y-65793753D01*
X170856757Y-65583872D01*
X170856757Y-65583869D01*
X170791095Y-65381782D01*
X170694624Y-65192449D01*
X170655270Y-65138282D01*
X170655269Y-65138282D01*
X170022962Y-65770590D01*
X170005925Y-65707007D01*
X169940099Y-65592993D01*
X169847007Y-65499901D01*
X169732993Y-65434075D01*
X169669409Y-65417037D01*
X170301716Y-64784728D01*
X170247550Y-64745375D01*
X170058217Y-64648904D01*
X170029292Y-64639506D01*
X169971616Y-64600068D01*
X169944418Y-64535710D01*
X169956333Y-64466863D01*
X170003577Y-64415388D01*
X170011315Y-64411090D01*
X170142994Y-64343996D01*
X170289501Y-64237553D01*
X170417553Y-64109501D01*
X170523996Y-63962994D01*
X170606211Y-63801639D01*
X170662171Y-63629409D01*
X170678546Y-63526024D01*
X170690500Y-63450551D01*
X170690500Y-63269448D01*
X170674019Y-63165397D01*
X170662171Y-63090591D01*
X170606211Y-62918361D01*
X170606211Y-62918360D01*
X170577740Y-62862484D01*
X170523996Y-62757006D01*
X170467701Y-62679522D01*
X170417558Y-62610505D01*
X170417554Y-62610500D01*
X170289499Y-62482445D01*
X170289494Y-62482441D01*
X170142997Y-62376006D01*
X170142996Y-62376005D01*
X170142994Y-62376004D01*
X170091300Y-62349664D01*
X169981639Y-62293788D01*
X169981636Y-62293787D01*
X169809410Y-62237829D01*
X169649321Y-62212473D01*
X169586186Y-62182544D01*
X169549255Y-62123232D01*
X169550253Y-62053370D01*
X169588863Y-61995137D01*
X169649321Y-61967527D01*
X169719425Y-61956422D01*
X169809409Y-61942171D01*
X169981639Y-61886211D01*
X170142994Y-61803996D01*
X170289501Y-61697553D01*
X170417553Y-61569501D01*
X170523996Y-61422994D01*
X170606211Y-61261639D01*
X170662171Y-61089409D01*
X170680757Y-60972060D01*
X170690500Y-60910551D01*
X170690500Y-60729448D01*
X170674019Y-60625397D01*
X170662171Y-60550591D01*
X170634191Y-60464476D01*
X170606212Y-60378363D01*
X170606211Y-60378360D01*
X170577740Y-60322484D01*
X170523996Y-60217006D01*
X170490615Y-60171061D01*
X170417558Y-60070505D01*
X170417554Y-60070500D01*
X170289499Y-59942445D01*
X170289494Y-59942441D01*
X170142997Y-59836006D01*
X170142996Y-59836005D01*
X170142994Y-59836004D01*
X170085696Y-59806809D01*
X169981639Y-59753788D01*
X169981636Y-59753787D01*
X169809410Y-59697829D01*
X169649321Y-59672473D01*
X169586186Y-59642544D01*
X169549255Y-59583232D01*
X169550253Y-59513370D01*
X169588863Y-59455137D01*
X169649321Y-59427527D01*
X169719425Y-59416422D01*
X169809409Y-59402171D01*
X169981639Y-59346211D01*
X170142994Y-59263996D01*
X170289501Y-59157553D01*
X170417553Y-59029501D01*
X170523996Y-58882994D01*
X170606211Y-58721639D01*
X170662171Y-58549409D01*
X170682518Y-58420943D01*
X170690500Y-58370551D01*
X170690500Y-58189448D01*
X170674019Y-58085397D01*
X170662171Y-58010591D01*
X170606211Y-57838361D01*
X170606211Y-57838360D01*
X170577740Y-57782484D01*
X170523996Y-57677006D01*
X170510396Y-57658287D01*
X170417558Y-57530505D01*
X170417554Y-57530500D01*
X170289499Y-57402445D01*
X170289494Y-57402441D01*
X170142997Y-57296006D01*
X170142996Y-57296005D01*
X170142994Y-57296004D01*
X170091300Y-57269664D01*
X169981639Y-57213788D01*
X169981636Y-57213787D01*
X169809410Y-57157829D01*
X169649321Y-57132473D01*
X169586186Y-57102544D01*
X169549255Y-57043232D01*
X169550253Y-56973370D01*
X169588863Y-56915137D01*
X169649321Y-56887527D01*
X169719425Y-56876422D01*
X169809409Y-56862171D01*
X169981639Y-56806211D01*
X170142994Y-56723996D01*
X170289501Y-56617553D01*
X170417553Y-56489501D01*
X170523996Y-56342994D01*
X170606211Y-56181639D01*
X170662171Y-56009409D01*
X170676765Y-55917259D01*
X170690500Y-55830551D01*
X170690500Y-55649448D01*
X170674019Y-55545397D01*
X170662171Y-55470591D01*
X170606211Y-55298361D01*
X170606211Y-55298360D01*
X170577740Y-55242484D01*
X170523996Y-55137006D01*
X170510396Y-55118287D01*
X170417558Y-54990505D01*
X170417554Y-54990500D01*
X170289499Y-54862445D01*
X170289494Y-54862441D01*
X170142995Y-54756004D01*
X170011314Y-54688908D01*
X169960519Y-54640934D01*
X169943724Y-54573113D01*
X169966262Y-54506978D01*
X170020977Y-54463527D01*
X170029295Y-54460492D01*
X170058217Y-54451095D01*
X170247554Y-54354622D01*
X170301716Y-54315270D01*
X170301717Y-54315270D01*
X169669408Y-53682962D01*
X169732993Y-53665925D01*
X169847007Y-53600099D01*
X169940099Y-53507007D01*
X170005925Y-53392993D01*
X170022962Y-53329408D01*
X170655270Y-53961717D01*
X170655270Y-53961716D01*
X170694622Y-53907554D01*
X170791095Y-53718217D01*
X170856757Y-53516130D01*
X170856757Y-53516127D01*
X170890000Y-53306246D01*
X170890000Y-53093753D01*
X170856757Y-52883872D01*
X170856757Y-52883869D01*
X170791095Y-52681782D01*
X170694624Y-52492449D01*
X170655270Y-52438282D01*
X170655269Y-52438282D01*
X170022962Y-53070590D01*
X170005925Y-53007007D01*
X169940099Y-52892993D01*
X169847007Y-52799901D01*
X169732993Y-52734075D01*
X169669409Y-52717037D01*
X170301716Y-52084728D01*
X170247550Y-52045375D01*
X170058217Y-51948904D01*
X170029292Y-51939506D01*
X169971616Y-51900068D01*
X169944418Y-51835710D01*
X169956333Y-51766863D01*
X170003577Y-51715388D01*
X170011315Y-51711090D01*
X170142994Y-51643996D01*
X170289501Y-51537553D01*
X170417553Y-51409501D01*
X170523996Y-51262994D01*
X170606211Y-51101639D01*
X170662171Y-50929409D01*
X170676765Y-50837259D01*
X170690500Y-50750551D01*
X170690500Y-50569448D01*
X170664813Y-50407273D01*
X170662171Y-50390591D01*
X170606211Y-50218361D01*
X170606211Y-50218360D01*
X170563827Y-50135179D01*
X170523996Y-50057006D01*
X170428636Y-49925753D01*
X170417558Y-49910505D01*
X170417554Y-49910500D01*
X170289499Y-49782445D01*
X170289494Y-49782441D01*
X170142997Y-49676006D01*
X170142996Y-49676005D01*
X170142994Y-49676004D01*
X170091300Y-49649664D01*
X169981639Y-49593788D01*
X169981636Y-49593787D01*
X169809410Y-49537829D01*
X169677728Y-49516972D01*
X169614594Y-49487042D01*
X169577663Y-49427731D01*
X169578661Y-49357868D01*
X169617271Y-49299636D01*
X169681235Y-49271522D01*
X169697120Y-49270499D01*
X170434864Y-49270499D01*
X170434879Y-49270497D01*
X170434882Y-49270497D01*
X170459987Y-49267586D01*
X170459988Y-49267585D01*
X170459991Y-49267585D01*
X170562765Y-49222206D01*
X170642206Y-49142765D01*
X170687585Y-49039991D01*
X170690500Y-49014865D01*
X170690499Y-47225136D01*
X170690497Y-47225117D01*
X170687586Y-47200012D01*
X170687585Y-47200010D01*
X170687585Y-47200009D01*
X170642206Y-47097235D01*
X170562765Y-47017794D01*
X170562763Y-47017793D01*
X170459992Y-46972415D01*
X170434865Y-46969500D01*
X168645143Y-46969500D01*
X168645117Y-46969502D01*
X168620012Y-46972413D01*
X168620008Y-46972415D01*
X168517235Y-47017793D01*
X168437794Y-47097234D01*
X168392415Y-47200006D01*
X168392415Y-47200008D01*
X168389500Y-47225131D01*
X168389500Y-49014856D01*
X168389502Y-49014882D01*
X168392413Y-49039987D01*
X168392415Y-49039991D01*
X168437793Y-49142764D01*
X168437794Y-49142765D01*
X168517235Y-49222206D01*
X168620009Y-49267585D01*
X168645135Y-49270500D01*
X169382873Y-49270499D01*
X169449910Y-49290183D01*
X169495665Y-49342987D01*
X169505609Y-49412146D01*
X169476584Y-49475702D01*
X169417806Y-49513476D01*
X169402270Y-49516972D01*
X169270589Y-49537829D01*
X169098363Y-49593787D01*
X169098360Y-49593788D01*
X168937002Y-49676006D01*
X168790505Y-49782441D01*
X168790500Y-49782445D01*
X168662445Y-49910500D01*
X168662441Y-49910505D01*
X168556006Y-50057002D01*
X168473788Y-50218360D01*
X168473787Y-50218363D01*
X168417829Y-50390589D01*
X168389500Y-50569448D01*
X168389500Y-50750551D01*
X168417829Y-50929410D01*
X168473787Y-51101636D01*
X168473788Y-51101639D01*
X168556006Y-51262997D01*
X168662441Y-51409494D01*
X168662445Y-51409499D01*
X168790500Y-51537554D01*
X168790505Y-51537558D01*
X168840986Y-51574234D01*
X168937006Y-51643996D01*
X169038780Y-51695853D01*
X169068684Y-51711090D01*
X169119480Y-51759065D01*
X169136275Y-51826886D01*
X169113737Y-51893021D01*
X169059022Y-51936472D01*
X169050708Y-51939506D01*
X169021781Y-51948905D01*
X168832439Y-52045380D01*
X168778282Y-52084727D01*
X168778282Y-52084728D01*
X169410591Y-52717037D01*
X169347007Y-52734075D01*
X169232993Y-52799901D01*
X169139901Y-52892993D01*
X169074075Y-53007007D01*
X169057037Y-53070591D01*
X168424728Y-52438282D01*
X168424727Y-52438282D01*
X168385380Y-52492439D01*
X168288904Y-52681782D01*
X168223242Y-52883869D01*
X168223242Y-52883872D01*
X168190000Y-53093753D01*
X168190000Y-53306246D01*
X168223242Y-53516127D01*
X168223242Y-53516130D01*
X168288904Y-53718217D01*
X168385375Y-53907550D01*
X168424728Y-53961716D01*
X169057037Y-53329408D01*
X169074075Y-53392993D01*
X169139901Y-53507007D01*
X169232993Y-53600099D01*
X169347007Y-53665925D01*
X169410590Y-53682962D01*
X168778282Y-54315269D01*
X168778282Y-54315270D01*
X168832449Y-54354624D01*
X169021780Y-54451094D01*
X169050705Y-54460492D01*
X169108381Y-54499929D01*
X169135580Y-54564287D01*
X169123667Y-54633134D01*
X169076424Y-54684610D01*
X169068685Y-54688908D01*
X168937004Y-54756004D01*
X168790505Y-54862441D01*
X168790500Y-54862445D01*
X168662445Y-54990500D01*
X168662441Y-54990505D01*
X168556006Y-55137002D01*
X168473788Y-55298360D01*
X168473787Y-55298363D01*
X168417829Y-55470589D01*
X168389500Y-55649448D01*
X168389500Y-55830551D01*
X168417829Y-56009410D01*
X168473787Y-56181636D01*
X168473788Y-56181639D01*
X168556006Y-56342997D01*
X168662441Y-56489494D01*
X168662445Y-56489499D01*
X168790500Y-56617554D01*
X168790505Y-56617558D01*
X168918287Y-56710396D01*
X168937006Y-56723996D01*
X169042484Y-56777740D01*
X169098360Y-56806211D01*
X169098363Y-56806212D01*
X169184476Y-56834191D01*
X169270591Y-56862171D01*
X169343639Y-56873740D01*
X169430678Y-56887527D01*
X169493813Y-56917456D01*
X169530744Y-56976768D01*
X169529746Y-57046631D01*
X169491136Y-57104863D01*
X169430678Y-57132473D01*
X169270589Y-57157829D01*
X169098363Y-57213787D01*
X169098360Y-57213788D01*
X168937002Y-57296006D01*
X168790505Y-57402441D01*
X168790500Y-57402445D01*
X168662445Y-57530500D01*
X168662441Y-57530505D01*
X168556006Y-57677002D01*
X168473788Y-57838360D01*
X168473787Y-57838363D01*
X168417829Y-58010589D01*
X168389500Y-58189448D01*
X168389500Y-58370551D01*
X168417829Y-58549410D01*
X168473787Y-58721636D01*
X168473788Y-58721639D01*
X168529664Y-58831300D01*
X168548729Y-58868717D01*
X168556006Y-58882997D01*
X168662441Y-59029494D01*
X168662445Y-59029499D01*
X168790500Y-59157554D01*
X168790505Y-59157558D01*
X168918287Y-59250396D01*
X168937006Y-59263996D01*
X169042484Y-59317740D01*
X169098360Y-59346211D01*
X169098363Y-59346212D01*
X169150590Y-59363181D01*
X169270591Y-59402171D01*
X169343639Y-59413740D01*
X169430678Y-59427527D01*
X169493813Y-59457456D01*
X169530744Y-59516768D01*
X169529746Y-59586631D01*
X169491136Y-59644863D01*
X169430678Y-59672473D01*
X169270589Y-59697829D01*
X169098363Y-59753787D01*
X169098360Y-59753788D01*
X168937002Y-59836006D01*
X168790505Y-59942441D01*
X168790500Y-59942445D01*
X168662445Y-60070500D01*
X168662441Y-60070505D01*
X168556006Y-60217002D01*
X168473788Y-60378360D01*
X168473787Y-60378363D01*
X168417829Y-60550589D01*
X168389500Y-60729448D01*
X168389500Y-60910551D01*
X168417829Y-61089410D01*
X168473787Y-61261636D01*
X168473788Y-61261639D01*
X168556006Y-61422997D01*
X168662441Y-61569494D01*
X168662445Y-61569499D01*
X168790500Y-61697554D01*
X168790505Y-61697558D01*
X168857061Y-61745913D01*
X168937006Y-61803996D01*
X169042484Y-61857740D01*
X169098360Y-61886211D01*
X169098363Y-61886212D01*
X169184476Y-61914191D01*
X169270591Y-61942171D01*
X169343639Y-61953740D01*
X169430678Y-61967527D01*
X169493813Y-61997456D01*
X169530744Y-62056768D01*
X169529746Y-62126631D01*
X169491136Y-62184863D01*
X169430678Y-62212473D01*
X169270589Y-62237829D01*
X169098363Y-62293787D01*
X169098360Y-62293788D01*
X168937002Y-62376006D01*
X168790505Y-62482441D01*
X168790500Y-62482445D01*
X168662445Y-62610500D01*
X168662441Y-62610505D01*
X168556006Y-62757002D01*
X168473788Y-62918360D01*
X168473787Y-62918363D01*
X168417829Y-63090589D01*
X168389500Y-63269448D01*
X168389500Y-63450551D01*
X168417829Y-63629410D01*
X168473787Y-63801636D01*
X168473788Y-63801639D01*
X168556006Y-63962997D01*
X168662441Y-64109494D01*
X168662445Y-64109499D01*
X168790500Y-64237554D01*
X168790505Y-64237558D01*
X168918287Y-64330396D01*
X168937006Y-64343996D01*
X169038780Y-64395853D01*
X169068684Y-64411090D01*
X169119480Y-64459065D01*
X169136275Y-64526886D01*
X169113737Y-64593021D01*
X169059022Y-64636472D01*
X169050708Y-64639506D01*
X169021781Y-64648905D01*
X168832439Y-64745380D01*
X168778282Y-64784727D01*
X168778282Y-64784728D01*
X169410591Y-65417037D01*
X169347007Y-65434075D01*
X169232993Y-65499901D01*
X169139901Y-65592993D01*
X169074075Y-65707007D01*
X169057037Y-65770591D01*
X168424728Y-65138282D01*
X168424727Y-65138282D01*
X168385380Y-65192439D01*
X168288904Y-65381782D01*
X168223242Y-65583869D01*
X168223242Y-65583872D01*
X168190000Y-65793753D01*
X168190000Y-66006246D01*
X168223242Y-66216127D01*
X168223242Y-66216130D01*
X168288904Y-66418217D01*
X168385375Y-66607550D01*
X168424728Y-66661716D01*
X169057037Y-66029408D01*
X169074075Y-66092993D01*
X169139901Y-66207007D01*
X169232993Y-66300099D01*
X169347007Y-66365925D01*
X169410590Y-66382962D01*
X168778282Y-67015269D01*
X168778282Y-67015270D01*
X168832449Y-67054624D01*
X169021780Y-67151094D01*
X169050705Y-67160492D01*
X169108381Y-67199929D01*
X169135580Y-67264287D01*
X169123667Y-67333134D01*
X169076424Y-67384610D01*
X169068685Y-67388908D01*
X168937004Y-67456004D01*
X168790505Y-67562441D01*
X168790500Y-67562445D01*
X168662448Y-67690498D01*
X168662441Y-67690505D01*
X168556006Y-67837002D01*
X168473788Y-67998360D01*
X168473787Y-67998363D01*
X168417829Y-68170589D01*
X168389500Y-68349448D01*
X168389500Y-68530551D01*
X168417829Y-68709410D01*
X168473787Y-68881636D01*
X168473788Y-68881639D01*
X168556006Y-69042997D01*
X168662441Y-69189494D01*
X168662445Y-69189499D01*
X168790500Y-69317554D01*
X168790505Y-69317558D01*
X168859965Y-69368023D01*
X168937006Y-69423996D01*
X169022705Y-69467662D01*
X169098360Y-69506211D01*
X169098363Y-69506212D01*
X169184476Y-69534191D01*
X169270591Y-69562171D01*
X169343639Y-69573740D01*
X169430678Y-69587527D01*
X169493813Y-69617456D01*
X169530744Y-69676768D01*
X169529746Y-69746631D01*
X169491136Y-69804863D01*
X169430678Y-69832473D01*
X169270589Y-69857829D01*
X169098363Y-69913787D01*
X169098360Y-69913788D01*
X168937002Y-69996006D01*
X168790505Y-70102441D01*
X168790500Y-70102445D01*
X168662445Y-70230500D01*
X168662441Y-70230505D01*
X168556006Y-70377002D01*
X168473788Y-70538360D01*
X168473787Y-70538363D01*
X168417829Y-70710589D01*
X168389500Y-70889448D01*
X168389500Y-71070551D01*
X168417829Y-71249410D01*
X168473787Y-71421636D01*
X168473788Y-71421639D01*
X168556006Y-71582997D01*
X168662441Y-71729494D01*
X168662445Y-71729499D01*
X168790500Y-71857554D01*
X168790505Y-71857558D01*
X168853349Y-71903216D01*
X168937006Y-71963996D01*
X169042484Y-72017740D01*
X169098360Y-72046211D01*
X169098363Y-72046212D01*
X169170715Y-72069720D01*
X169270591Y-72102171D01*
X169343639Y-72113740D01*
X169430678Y-72127527D01*
X169493813Y-72157456D01*
X169530744Y-72216768D01*
X169529746Y-72286631D01*
X169491136Y-72344863D01*
X169430678Y-72372473D01*
X169270589Y-72397829D01*
X169098363Y-72453787D01*
X169098360Y-72453788D01*
X168937002Y-72536006D01*
X168790505Y-72642441D01*
X168790500Y-72642445D01*
X168662445Y-72770500D01*
X168662441Y-72770505D01*
X168556006Y-72917002D01*
X168473788Y-73078360D01*
X168473787Y-73078363D01*
X168417829Y-73250589D01*
X168389500Y-73429448D01*
X168389500Y-73610551D01*
X168417829Y-73789410D01*
X168473787Y-73961636D01*
X168473788Y-73961639D01*
X168556006Y-74122997D01*
X168662441Y-74269494D01*
X168662445Y-74269499D01*
X168790500Y-74397554D01*
X168790505Y-74397558D01*
X168858933Y-74447273D01*
X168937006Y-74503996D01*
X169029998Y-74551378D01*
X169098360Y-74586211D01*
X169098363Y-74586212D01*
X169162892Y-74607178D01*
X169270591Y-74642171D01*
X169343639Y-74653740D01*
X169430678Y-74667527D01*
X169493813Y-74697456D01*
X169530744Y-74756768D01*
X169529746Y-74826631D01*
X169491136Y-74884863D01*
X169430678Y-74912473D01*
X169270589Y-74937829D01*
X169098363Y-74993787D01*
X169098360Y-74993788D01*
X168937002Y-75076006D01*
X168790505Y-75182441D01*
X168790500Y-75182445D01*
X168662445Y-75310500D01*
X168662441Y-75310505D01*
X168556006Y-75457002D01*
X168473788Y-75618360D01*
X168473787Y-75618363D01*
X168417829Y-75790588D01*
X168415374Y-75806090D01*
X168385443Y-75869224D01*
X168326131Y-75906154D01*
X168256269Y-75905155D01*
X168198037Y-75866545D01*
X168173126Y-75818783D01*
X168165572Y-75790591D01*
X168159577Y-75768216D01*
X168115206Y-75691362D01*
X168080524Y-75631290D01*
X168080518Y-75631282D01*
X167968717Y-75519481D01*
X167968709Y-75519475D01*
X167831790Y-75440426D01*
X167831786Y-75440424D01*
X167831784Y-75440423D01*
X167679057Y-75399500D01*
X167520943Y-75399500D01*
X167368216Y-75440423D01*
X167368209Y-75440426D01*
X167231290Y-75519475D01*
X167231282Y-75519481D01*
X167187583Y-75563181D01*
X167126260Y-75596666D01*
X167099902Y-75599500D01*
X166447273Y-75599500D01*
X166345413Y-75626793D01*
X166345410Y-75626794D01*
X166313240Y-75645368D01*
X166291399Y-75657978D01*
X166279230Y-75665004D01*
X166254088Y-75679519D01*
X166254085Y-75679521D01*
X162881640Y-79051966D01*
X162881636Y-79051972D01*
X162828910Y-79143295D01*
X162828909Y-79143296D01*
X162815971Y-79191587D01*
X162801618Y-79245153D01*
X162801618Y-79936501D01*
X162792973Y-79965941D01*
X162786450Y-79995928D01*
X162782695Y-80000943D01*
X162781933Y-80003540D01*
X162765299Y-80024182D01*
X162724113Y-80065368D01*
X162662790Y-80098853D01*
X162593098Y-80093869D01*
X162548751Y-80065368D01*
X162536819Y-80053436D01*
X162503334Y-79992113D01*
X162500500Y-79965755D01*
X162500500Y-79736248D01*
X162500499Y-79736244D01*
X162494879Y-79715270D01*
X162490654Y-79699500D01*
X162473207Y-79634385D01*
X162420480Y-79543060D01*
X161994442Y-79117022D01*
X161940711Y-79086000D01*
X161903118Y-79064295D01*
X161815001Y-79040685D01*
X161801256Y-79037002D01*
X160152727Y-79037002D01*
X160047273Y-79037002D01*
X159945410Y-79064295D01*
X159854087Y-79117022D01*
X159854084Y-79117024D01*
X159570426Y-79400683D01*
X159509103Y-79434168D01*
X159482745Y-79437002D01*
X159420943Y-79437002D01*
X159268216Y-79477925D01*
X159268209Y-79477928D01*
X159131290Y-79556977D01*
X159131282Y-79556983D01*
X159019481Y-79668784D01*
X159019475Y-79668792D01*
X158940426Y-79805711D01*
X158940423Y-79805718D01*
X158899500Y-79958445D01*
X158899500Y-80116559D01*
X158938591Y-80262447D01*
X158940423Y-80269285D01*
X158940426Y-80269292D01*
X159019475Y-80406211D01*
X159019479Y-80406216D01*
X159019480Y-80406218D01*
X159131284Y-80518022D01*
X159131286Y-80518023D01*
X159131290Y-80518026D01*
X159210245Y-80563610D01*
X159268216Y-80597079D01*
X159420943Y-80638002D01*
X159475500Y-80638002D01*
X159542539Y-80657687D01*
X159588294Y-80710491D01*
X159599500Y-80762002D01*
X159599500Y-81999901D01*
X159590855Y-82029341D01*
X159584332Y-82059328D01*
X159580577Y-82064343D01*
X159579815Y-82066940D01*
X159563181Y-82087582D01*
X159556302Y-82094461D01*
X159494979Y-82127946D01*
X159436528Y-82126555D01*
X159426978Y-82123996D01*
X159302208Y-82090564D01*
X159144094Y-82090564D01*
X158991367Y-82131487D01*
X158991360Y-82131490D01*
X158854441Y-82210539D01*
X158854433Y-82210545D01*
X158810734Y-82254245D01*
X158749411Y-82287730D01*
X158723053Y-82290564D01*
X155690470Y-82290564D01*
X155623431Y-82270879D01*
X155614980Y-82264937D01*
X155611504Y-82262269D01*
X155474584Y-82183220D01*
X155474580Y-82183218D01*
X155474578Y-82183217D01*
X155321851Y-82142294D01*
X155163737Y-82142294D01*
X155011010Y-82183217D01*
X155011003Y-82183220D01*
X154874084Y-82262269D01*
X154874076Y-82262275D01*
X154762275Y-82374076D01*
X154762269Y-82374084D01*
X154683220Y-82511003D01*
X154683217Y-82511010D01*
X154642294Y-82663737D01*
X152299667Y-82663737D01*
X152201639Y-82613788D01*
X152201636Y-82613787D01*
X152029410Y-82557829D01*
X151869321Y-82532473D01*
X151806186Y-82502544D01*
X151769255Y-82443232D01*
X151770253Y-82373370D01*
X151808863Y-82315137D01*
X151869321Y-82287527D01*
X151939425Y-82276422D01*
X152029409Y-82262171D01*
X152201639Y-82206211D01*
X152362994Y-82123996D01*
X152509501Y-82017553D01*
X152637553Y-81889501D01*
X152743996Y-81742994D01*
X152826211Y-81581639D01*
X152882171Y-81409409D01*
X152896765Y-81317259D01*
X152910500Y-81230551D01*
X152910500Y-81049448D01*
X152894019Y-80945397D01*
X152882171Y-80870591D01*
X152846889Y-80762002D01*
X152826212Y-80698363D01*
X152826211Y-80698360D01*
X152792665Y-80632524D01*
X152743996Y-80537006D01*
X152725900Y-80512099D01*
X152637558Y-80390505D01*
X152637554Y-80390500D01*
X152509499Y-80262445D01*
X152509494Y-80262441D01*
X152362995Y-80156004D01*
X152231314Y-80088908D01*
X152180519Y-80040934D01*
X152163724Y-79973113D01*
X152186262Y-79906978D01*
X152240977Y-79863527D01*
X152249295Y-79860492D01*
X152278217Y-79851095D01*
X152467554Y-79754622D01*
X152521716Y-79715270D01*
X152521717Y-79715270D01*
X151889408Y-79082962D01*
X151952993Y-79065925D01*
X152067007Y-79000099D01*
X152160099Y-78907007D01*
X152225925Y-78792993D01*
X152242962Y-78729408D01*
X152875270Y-79361717D01*
X152875270Y-79361716D01*
X152914622Y-79307554D01*
X153011095Y-79118217D01*
X153076757Y-78916130D01*
X153076757Y-78916127D01*
X153110000Y-78706246D01*
X153110000Y-78493753D01*
X153076757Y-78283872D01*
X153076757Y-78283869D01*
X153011095Y-78081782D01*
X152914624Y-77892449D01*
X152875270Y-77838282D01*
X152875269Y-77838282D01*
X152242962Y-78470590D01*
X152225925Y-78407007D01*
X152160099Y-78292993D01*
X152067007Y-78199901D01*
X151952993Y-78134075D01*
X151889409Y-78117037D01*
X152521716Y-77484728D01*
X152467550Y-77445375D01*
X152278217Y-77348904D01*
X152249292Y-77339506D01*
X152191616Y-77300068D01*
X152164418Y-77235710D01*
X152176333Y-77166863D01*
X152223577Y-77115388D01*
X152231315Y-77111090D01*
X152362994Y-77043996D01*
X152509501Y-76937553D01*
X152637553Y-76809501D01*
X152743996Y-76662994D01*
X152826211Y-76501639D01*
X152882171Y-76329409D01*
X152903564Y-76194340D01*
X152910500Y-76150551D01*
X152910500Y-75969448D01*
X152886636Y-75818783D01*
X152882171Y-75790591D01*
X152846083Y-75679521D01*
X152826212Y-75618363D01*
X152826211Y-75618360D01*
X152785588Y-75538635D01*
X152743996Y-75457006D01*
X152719324Y-75423048D01*
X152637558Y-75310505D01*
X152637554Y-75310500D01*
X152509499Y-75182445D01*
X152509494Y-75182441D01*
X152362997Y-75076006D01*
X152362996Y-75076005D01*
X152362994Y-75076004D01*
X152310589Y-75049302D01*
X152201639Y-74993788D01*
X152201636Y-74993787D01*
X152029410Y-74937829D01*
X151869321Y-74912473D01*
X151806186Y-74882544D01*
X151769255Y-74823232D01*
X151770253Y-74753370D01*
X151808863Y-74695137D01*
X151869321Y-74667527D01*
X151939425Y-74656422D01*
X152029409Y-74642171D01*
X152195424Y-74588230D01*
X152201636Y-74586212D01*
X152201639Y-74586211D01*
X152212622Y-74580615D01*
X152362994Y-74503996D01*
X152509501Y-74397553D01*
X152637553Y-74269501D01*
X152743996Y-74122994D01*
X152826211Y-73961639D01*
X152827569Y-73957461D01*
X152846076Y-73900500D01*
X152882171Y-73789409D01*
X152897833Y-73690518D01*
X152910217Y-73612337D01*
X152910216Y-73612333D01*
X152910500Y-73610546D01*
X152910500Y-73429454D01*
X152906334Y-73403152D01*
X152895329Y-73333665D01*
X152882171Y-73250591D01*
X152854191Y-73164476D01*
X152826212Y-73078363D01*
X152826211Y-73078360D01*
X152796207Y-73019475D01*
X152743996Y-72917006D01*
X152667478Y-72811687D01*
X152637558Y-72770505D01*
X152637554Y-72770500D01*
X152509499Y-72642445D01*
X152509494Y-72642441D01*
X152362997Y-72536006D01*
X152362996Y-72536005D01*
X152362994Y-72536004D01*
X152292525Y-72500098D01*
X152201639Y-72453788D01*
X152201636Y-72453787D01*
X152029410Y-72397829D01*
X151869321Y-72372473D01*
X151806186Y-72342544D01*
X151769255Y-72283232D01*
X151770253Y-72213370D01*
X151808863Y-72155137D01*
X151869321Y-72127527D01*
X151939425Y-72116422D01*
X152029409Y-72102171D01*
X152201639Y-72046211D01*
X152362994Y-71963996D01*
X152509501Y-71857553D01*
X152637553Y-71729501D01*
X152743996Y-71582994D01*
X152826211Y-71421639D01*
X152882171Y-71249409D01*
X152896765Y-71157259D01*
X152910500Y-71070551D01*
X152910500Y-70889448D01*
X152894019Y-70785397D01*
X152882171Y-70710591D01*
X152826211Y-70538361D01*
X152826211Y-70538360D01*
X152797740Y-70482484D01*
X152743996Y-70377006D01*
X152637553Y-70230499D01*
X152509501Y-70102447D01*
X152362994Y-69996004D01*
X152362995Y-69996004D01*
X152362993Y-69996003D01*
X152201639Y-69913788D01*
X152201636Y-69913787D01*
X152029410Y-69857829D01*
X151869321Y-69832473D01*
X151806186Y-69802544D01*
X151769255Y-69743232D01*
X151770253Y-69673370D01*
X151808863Y-69615137D01*
X151869321Y-69587527D01*
X152029409Y-69562171D01*
X152080182Y-69545674D01*
X152173284Y-69515423D01*
X152243123Y-69513429D01*
X152299281Y-69545674D01*
X152819558Y-70065950D01*
X153316024Y-70562416D01*
X153349509Y-70623739D01*
X153352343Y-70650097D01*
X153352343Y-72999902D01*
X153332658Y-73066941D01*
X153316024Y-73087583D01*
X153272324Y-73131282D01*
X153272318Y-73131290D01*
X153193269Y-73268209D01*
X153193266Y-73268214D01*
X153175729Y-73333665D01*
X153152343Y-73420943D01*
X153152343Y-73579057D01*
X153193266Y-73731783D01*
X153193269Y-73731790D01*
X153272318Y-73868709D01*
X153272322Y-73868714D01*
X153272323Y-73868716D01*
X153384127Y-73980520D01*
X153384129Y-73980521D01*
X153384133Y-73980524D01*
X153509194Y-74052727D01*
X153521059Y-74059577D01*
X153661619Y-74097240D01*
X153721278Y-74133604D01*
X153749739Y-74192195D01*
X153750240Y-74192061D01*
X153750935Y-74194657D01*
X153751807Y-74196451D01*
X153752303Y-74199762D01*
X153793266Y-74352637D01*
X153793269Y-74352644D01*
X153872318Y-74489563D01*
X153872322Y-74489568D01*
X153872323Y-74489570D01*
X153984127Y-74601374D01*
X153984129Y-74601375D01*
X153984133Y-74601378D01*
X154054788Y-74642170D01*
X154121059Y-74680431D01*
X154273786Y-74721354D01*
X154273788Y-74721354D01*
X154431898Y-74721354D01*
X154431900Y-74721354D01*
X154584627Y-74680431D01*
X154721559Y-74601374D01*
X154772694Y-74550238D01*
X154783715Y-74544220D01*
X154791800Y-74534607D01*
X154813800Y-74527792D01*
X154834015Y-74516754D01*
X154848145Y-74517153D01*
X154858541Y-74513934D01*
X154880115Y-74518058D01*
X154893546Y-74518439D01*
X154903253Y-74521134D01*
X154905278Y-74522303D01*
X154967915Y-74539086D01*
X154968295Y-74539192D01*
X154997510Y-74557363D01*
X155026876Y-74575262D01*
X155027130Y-74575786D01*
X155027625Y-74576094D01*
X155042380Y-74607178D01*
X155057406Y-74638109D01*
X155057564Y-74639165D01*
X155057587Y-74639213D01*
X155057579Y-74639268D01*
X155058062Y-74642484D01*
X155058767Y-74647841D01*
X155087043Y-74753370D01*
X155099690Y-74800567D01*
X155099693Y-74800574D01*
X155178742Y-74937493D01*
X155178746Y-74937498D01*
X155178747Y-74937500D01*
X155290551Y-75049304D01*
X155290553Y-75049305D01*
X155290557Y-75049308D01*
X155413422Y-75120243D01*
X155427483Y-75128361D01*
X155469377Y-75139586D01*
X155529036Y-75175949D01*
X155559566Y-75238795D01*
X155561283Y-75259360D01*
X155561283Y-75270321D01*
X155595897Y-75399500D01*
X155602206Y-75423047D01*
X155602209Y-75423054D01*
X155681258Y-75559973D01*
X155681264Y-75559981D01*
X155724964Y-75603681D01*
X155758449Y-75665004D01*
X155761283Y-75691362D01*
X155761283Y-76852191D01*
X155788576Y-76954054D01*
X155814939Y-76999715D01*
X155841303Y-77045378D01*
X157694590Y-78898665D01*
X157785915Y-78951392D01*
X157887776Y-78978685D01*
X157887784Y-78978685D01*
X157895836Y-78979746D01*
X157895422Y-78982888D01*
X157948145Y-78998370D01*
X157988493Y-79040685D01*
X158014657Y-79086003D01*
X158014659Y-79086006D01*
X158014660Y-79086007D01*
X158126464Y-79197811D01*
X158126466Y-79197812D01*
X158126470Y-79197815D01*
X158208467Y-79245155D01*
X158263396Y-79276868D01*
X158416123Y-79317791D01*
X158416125Y-79317791D01*
X158574235Y-79317791D01*
X158574237Y-79317791D01*
X158726964Y-79276868D01*
X158863896Y-79197811D01*
X158975700Y-79086007D01*
X159054757Y-78949075D01*
X159095680Y-78796348D01*
X159095680Y-78638234D01*
X159082134Y-78587679D01*
X159083797Y-78517835D01*
X159114226Y-78467911D01*
X160820480Y-76761659D01*
X160873207Y-76670334D01*
X160900500Y-76568473D01*
X160900500Y-76463019D01*
X160900500Y-76337596D01*
X160906778Y-76316212D01*
X160908422Y-76293986D01*
X160917394Y-76280061D01*
X160920185Y-76270557D01*
X160925410Y-76263050D01*
X160930652Y-76256081D01*
X160980520Y-76206214D01*
X161021278Y-76135617D01*
X161025804Y-76129602D01*
X161048021Y-76113052D01*
X161068072Y-76093934D01*
X161075648Y-76092473D01*
X161081837Y-76087864D01*
X161109472Y-76085953D01*
X161136678Y-76080709D01*
X161143842Y-76083577D01*
X161151540Y-76083045D01*
X161175822Y-76096379D01*
X161201544Y-76106676D01*
X161212575Y-76116467D01*
X162184914Y-77088805D01*
X162217007Y-77144391D01*
X162240423Y-77231779D01*
X162240428Y-77231790D01*
X162319477Y-77368709D01*
X162319481Y-77368714D01*
X162319482Y-77368716D01*
X162431286Y-77480520D01*
X162431288Y-77480521D01*
X162431292Y-77480524D01*
X162543188Y-77545126D01*
X162568218Y-77559577D01*
X162720945Y-77600500D01*
X162720947Y-77600500D01*
X162879057Y-77600500D01*
X162879059Y-77600500D01*
X163031786Y-77559577D01*
X163168718Y-77480520D01*
X163280522Y-77368716D01*
X163359579Y-77231784D01*
X163400502Y-77079057D01*
X163400502Y-76920943D01*
X163359579Y-76768216D01*
X163303068Y-76670335D01*
X163280526Y-76631290D01*
X163280520Y-76631282D01*
X163168719Y-76519481D01*
X163168714Y-76519477D01*
X163069361Y-76462116D01*
X163021145Y-76411549D01*
X163007922Y-76342942D01*
X163031448Y-76283159D01*
X163031359Y-76283108D01*
X163031702Y-76282513D01*
X163032994Y-76279231D01*
X163035415Y-76276075D01*
X163035422Y-76276069D01*
X163035426Y-76276061D01*
X163035429Y-76276058D01*
X163095245Y-76172452D01*
X163114479Y-76139137D01*
X163155402Y-75986410D01*
X163155402Y-75962353D01*
X163175087Y-75895314D01*
X163191721Y-75874672D01*
X163990389Y-75076004D01*
X164820480Y-74245913D01*
X164873207Y-74154588D01*
X164900500Y-74052727D01*
X164900500Y-73947273D01*
X164900500Y-72500098D01*
X164920185Y-72433059D01*
X164936819Y-72412417D01*
X164951407Y-72397829D01*
X164980520Y-72368716D01*
X165059577Y-72231784D01*
X165100500Y-72079057D01*
X165100500Y-71920943D01*
X165059577Y-71768216D01*
X165022616Y-71704197D01*
X164980524Y-71631290D01*
X164980518Y-71631282D01*
X164868717Y-71519481D01*
X164868709Y-71519475D01*
X164731790Y-71440426D01*
X164731786Y-71440424D01*
X164731784Y-71440423D01*
X164579057Y-71399500D01*
X164420943Y-71399500D01*
X164268216Y-71440423D01*
X164268209Y-71440426D01*
X164131290Y-71519475D01*
X164131282Y-71519481D01*
X164019481Y-71631282D01*
X164019475Y-71631290D01*
X163940426Y-71768209D01*
X163940423Y-71768216D01*
X163899500Y-71920943D01*
X163899500Y-72079057D01*
X163936400Y-72216768D01*
X163940423Y-72231783D01*
X163940426Y-72231790D01*
X164019475Y-72368709D01*
X164019481Y-72368717D01*
X164063181Y-72412417D01*
X164096666Y-72473740D01*
X164099500Y-72500098D01*
X164099500Y-73782745D01*
X164079815Y-73849784D01*
X164063181Y-73870426D01*
X162663073Y-75270534D01*
X162601750Y-75304019D01*
X162575392Y-75306853D01*
X162475845Y-75306853D01*
X162323118Y-75347776D01*
X162323111Y-75347779D01*
X162186192Y-75426828D01*
X162186184Y-75426834D01*
X162074383Y-75538635D01*
X162074379Y-75538640D01*
X162042867Y-75593222D01*
X162024771Y-75610476D01*
X162009791Y-75630488D01*
X161999924Y-75634168D01*
X161992300Y-75641438D01*
X161967747Y-75646170D01*
X161944327Y-75654906D01*
X161934036Y-75652667D01*
X161923693Y-75654661D01*
X161900481Y-75645368D01*
X161876054Y-75640055D01*
X161863231Y-75630455D01*
X161858828Y-75628693D01*
X161847800Y-75618904D01*
X161788868Y-75559973D01*
X161745913Y-75517018D01*
X161745910Y-75517016D01*
X161628394Y-75399500D01*
X161436819Y-75207924D01*
X161403334Y-75146601D01*
X161400500Y-75120243D01*
X161400500Y-74024500D01*
X161420185Y-73957461D01*
X161472989Y-73911706D01*
X161524500Y-73900500D01*
X162499902Y-73900500D01*
X162566941Y-73920185D01*
X162587583Y-73936819D01*
X162631284Y-73980520D01*
X162631286Y-73980521D01*
X162631290Y-73980524D01*
X162756351Y-74052727D01*
X162768216Y-74059577D01*
X162920943Y-74100500D01*
X162920945Y-74100500D01*
X163079055Y-74100500D01*
X163079057Y-74100500D01*
X163231784Y-74059577D01*
X163368716Y-73980520D01*
X163480520Y-73868716D01*
X163559577Y-73731784D01*
X163600500Y-73579057D01*
X163600500Y-73420943D01*
X163559577Y-73268216D01*
X163549208Y-73250256D01*
X163480524Y-73131290D01*
X163480518Y-73131282D01*
X163368717Y-73019481D01*
X163368709Y-73019475D01*
X163231790Y-72940426D01*
X163231786Y-72940424D01*
X163231784Y-72940423D01*
X163079057Y-72899500D01*
X162920943Y-72899500D01*
X162768216Y-72940423D01*
X162768209Y-72940426D01*
X162631290Y-73019475D01*
X162631282Y-73019481D01*
X162587583Y-73063181D01*
X162526260Y-73096666D01*
X162499902Y-73099500D01*
X161500098Y-73099500D01*
X161433059Y-73079815D01*
X161412417Y-73063181D01*
X161368717Y-73019481D01*
X161368709Y-73019475D01*
X161231790Y-72940426D01*
X161231786Y-72940424D01*
X161231784Y-72940423D01*
X161079057Y-72899500D01*
X160920943Y-72899500D01*
X160920941Y-72899500D01*
X160856592Y-72916742D01*
X160786742Y-72915079D01*
X160728880Y-72875915D01*
X160701377Y-72811687D01*
X160700500Y-72796967D01*
X160700500Y-67948513D01*
X160700501Y-67948500D01*
X160700501Y-67833058D01*
X160700501Y-67833057D01*
X160673207Y-67731197D01*
X160649710Y-67690499D01*
X160620480Y-67639871D01*
X160545913Y-67565304D01*
X160545910Y-67565302D01*
X160018998Y-67038390D01*
X159469811Y-66489202D01*
X159436326Y-66427879D01*
X159433492Y-66401521D01*
X159433492Y-66339721D01*
X159433492Y-66339719D01*
X159392569Y-66186992D01*
X159350332Y-66113834D01*
X159313516Y-66050066D01*
X159313510Y-66050058D01*
X159201709Y-65938257D01*
X159201701Y-65938251D01*
X159064782Y-65859202D01*
X159064778Y-65859200D01*
X159064776Y-65859199D01*
X158912049Y-65818276D01*
X158753935Y-65818276D01*
X158601208Y-65859199D01*
X158601201Y-65859202D01*
X158464282Y-65938251D01*
X158464274Y-65938257D01*
X158352467Y-66050064D01*
X158352035Y-66050628D01*
X158351549Y-66050982D01*
X158346725Y-66055807D01*
X158345971Y-66055053D01*
X158295602Y-66091824D01*
X158225856Y-66095969D01*
X158191667Y-66082515D01*
X158154590Y-66061107D01*
X158086680Y-66042911D01*
X158052727Y-66033814D01*
X158052726Y-66033814D01*
X157782941Y-66033814D01*
X157715902Y-66014129D01*
X157695260Y-65997495D01*
X155436819Y-63739054D01*
X155403334Y-63677731D01*
X155400500Y-63651373D01*
X155400500Y-62920943D01*
X156399500Y-62920943D01*
X156399500Y-63079056D01*
X156440423Y-63231783D01*
X156440426Y-63231790D01*
X156519475Y-63368709D01*
X156519479Y-63368714D01*
X156519480Y-63368716D01*
X156631284Y-63480520D01*
X156631286Y-63480521D01*
X156631290Y-63480524D01*
X156692528Y-63515879D01*
X156768216Y-63559577D01*
X156920943Y-63600500D01*
X156920945Y-63600500D01*
X157079055Y-63600500D01*
X157079057Y-63600500D01*
X157231784Y-63559577D01*
X157368716Y-63480520D01*
X157412417Y-63436819D01*
X157473740Y-63403334D01*
X157500098Y-63400500D01*
X158782745Y-63400500D01*
X158849784Y-63420185D01*
X158870426Y-63436819D01*
X162363181Y-66929574D01*
X162396666Y-66990897D01*
X162399500Y-67017255D01*
X162399500Y-67079057D01*
X162433777Y-67206978D01*
X162440423Y-67231783D01*
X162440426Y-67231790D01*
X162519475Y-67368709D01*
X162519479Y-67368714D01*
X162519480Y-67368716D01*
X162631284Y-67480520D01*
X162631286Y-67480521D01*
X162631290Y-67480524D01*
X162753114Y-67550858D01*
X162768216Y-67559577D01*
X162920943Y-67600500D01*
X162920945Y-67600500D01*
X163079055Y-67600500D01*
X163079057Y-67600500D01*
X163231784Y-67559577D01*
X163368716Y-67480520D01*
X163480520Y-67368716D01*
X163559577Y-67231784D01*
X163600500Y-67079057D01*
X163600500Y-66920943D01*
X163559577Y-66768216D01*
X163559573Y-66768209D01*
X163480524Y-66631290D01*
X163480518Y-66631282D01*
X163368717Y-66519481D01*
X163368709Y-66519475D01*
X163231790Y-66440426D01*
X163231786Y-66440424D01*
X163231784Y-66440423D01*
X163079057Y-66399500D01*
X163079056Y-66399500D01*
X163017255Y-66399500D01*
X162950216Y-66379815D01*
X162929574Y-66363181D01*
X159245915Y-62679522D01*
X159245913Y-62679520D01*
X159200250Y-62653156D01*
X159154589Y-62626793D01*
X159093780Y-62610500D01*
X159052727Y-62599500D01*
X159052726Y-62599500D01*
X157500098Y-62599500D01*
X157433059Y-62579815D01*
X157412417Y-62563181D01*
X157368717Y-62519481D01*
X157368709Y-62519475D01*
X157231790Y-62440426D01*
X157231786Y-62440424D01*
X157231784Y-62440423D01*
X157079057Y-62399500D01*
X156920943Y-62399500D01*
X156768216Y-62440423D01*
X156768209Y-62440426D01*
X156631290Y-62519475D01*
X156631282Y-62519481D01*
X156519481Y-62631282D01*
X156519475Y-62631290D01*
X156440426Y-62768209D01*
X156440423Y-62768216D01*
X156399500Y-62920943D01*
X155400500Y-62920943D01*
X155400500Y-61424182D01*
X155400500Y-61420943D01*
X165399500Y-61420943D01*
X165399500Y-61579057D01*
X165419739Y-61654588D01*
X165440423Y-61731783D01*
X165440426Y-61731790D01*
X165519475Y-61868709D01*
X165519479Y-61868714D01*
X165519480Y-61868716D01*
X165631284Y-61980520D01*
X165631286Y-61980521D01*
X165631290Y-61980524D01*
X165660618Y-61997456D01*
X165768216Y-62059577D01*
X165920943Y-62100500D01*
X165920945Y-62100500D01*
X166079055Y-62100500D01*
X166079057Y-62100500D01*
X166231784Y-62059577D01*
X166368716Y-61980520D01*
X166480520Y-61868716D01*
X166559577Y-61731784D01*
X166600500Y-61579057D01*
X166600500Y-61517255D01*
X166620185Y-61450216D01*
X166636819Y-61429574D01*
X167203212Y-60863181D01*
X167987637Y-60078756D01*
X168040364Y-59987431D01*
X168040364Y-59987430D01*
X168044428Y-59980392D01*
X168045500Y-59981011D01*
X168065868Y-59950524D01*
X168103976Y-59912417D01*
X168147677Y-59868716D01*
X168226734Y-59731784D01*
X168267657Y-59579057D01*
X168267657Y-59420943D01*
X168226734Y-59268216D01*
X168224296Y-59263993D01*
X168147681Y-59131290D01*
X168147675Y-59131282D01*
X168035874Y-59019481D01*
X168035866Y-59019475D01*
X167898947Y-58940426D01*
X167898943Y-58940424D01*
X167898941Y-58940423D01*
X167746214Y-58899500D01*
X167588100Y-58899500D01*
X167435373Y-58940423D01*
X167435366Y-58940426D01*
X167298447Y-59019475D01*
X167298439Y-59019481D01*
X167186638Y-59131282D01*
X167186632Y-59131290D01*
X167107583Y-59268209D01*
X167107580Y-59268216D01*
X167066657Y-59420943D01*
X167066657Y-59579057D01*
X167079219Y-59625940D01*
X167108966Y-59736959D01*
X167107303Y-59806809D01*
X167076872Y-59856733D01*
X166070426Y-60863181D01*
X166009103Y-60896666D01*
X165982745Y-60899500D01*
X165920943Y-60899500D01*
X165768216Y-60940423D01*
X165768209Y-60940426D01*
X165631290Y-61019475D01*
X165631282Y-61019481D01*
X165519481Y-61131282D01*
X165519475Y-61131290D01*
X165440426Y-61268209D01*
X165440423Y-61268216D01*
X165399500Y-61420943D01*
X155400500Y-61420943D01*
X155400500Y-61381587D01*
X155375100Y-61286795D01*
X155374212Y-61281987D01*
X155377314Y-61251914D01*
X155378034Y-61221689D01*
X155380863Y-61217507D01*
X155381382Y-61212486D01*
X155400248Y-61188865D01*
X155417196Y-61163826D01*
X155424051Y-61159066D01*
X155424988Y-61157894D01*
X155426452Y-61157399D01*
X155434142Y-61152060D01*
X155468716Y-61132100D01*
X155512417Y-61088399D01*
X155573740Y-61054914D01*
X155600098Y-61052080D01*
X159901145Y-61052080D01*
X159901147Y-61052080D01*
X160003008Y-61024787D01*
X160094333Y-60972060D01*
X160429574Y-60636819D01*
X160490897Y-60603334D01*
X160517255Y-60600500D01*
X160579055Y-60600500D01*
X160579057Y-60600500D01*
X160731784Y-60559577D01*
X160868716Y-60480520D01*
X160980520Y-60368716D01*
X161059577Y-60231784D01*
X161100500Y-60079057D01*
X161100500Y-60017255D01*
X161120185Y-59950216D01*
X161136819Y-59929574D01*
X161929574Y-59136819D01*
X161990897Y-59103334D01*
X162017255Y-59100500D01*
X162079055Y-59100500D01*
X162079057Y-59100500D01*
X162231784Y-59059577D01*
X162368716Y-58980520D01*
X162480520Y-58868716D01*
X162559577Y-58731784D01*
X162600500Y-58579057D01*
X162600500Y-58420943D01*
X162559577Y-58268216D01*
X162514101Y-58189448D01*
X162480524Y-58131290D01*
X162480518Y-58131282D01*
X162368717Y-58019481D01*
X162368709Y-58019475D01*
X162231790Y-57940426D01*
X162231786Y-57940424D01*
X162231784Y-57940423D01*
X162079057Y-57899500D01*
X161920943Y-57899500D01*
X161768216Y-57940423D01*
X161768209Y-57940426D01*
X161631290Y-58019475D01*
X161631282Y-58019481D01*
X161519481Y-58131282D01*
X161519475Y-58131290D01*
X161440426Y-58268209D01*
X161440423Y-58268216D01*
X161399500Y-58420943D01*
X161399500Y-58482745D01*
X161379815Y-58549784D01*
X161363181Y-58570426D01*
X160570426Y-59363181D01*
X160509103Y-59396666D01*
X160482745Y-59399500D01*
X160420943Y-59399500D01*
X160268216Y-59440423D01*
X160268209Y-59440426D01*
X160131290Y-59519475D01*
X160131282Y-59519481D01*
X160019481Y-59631282D01*
X160019475Y-59631290D01*
X159940426Y-59768209D01*
X159940423Y-59768216D01*
X159899500Y-59920943D01*
X159899500Y-59982745D01*
X159890855Y-60012185D01*
X159884332Y-60042172D01*
X159880577Y-60047187D01*
X159879815Y-60049784D01*
X159863181Y-60070426D01*
X159718846Y-60214761D01*
X159657523Y-60248246D01*
X159631165Y-60251080D01*
X155600098Y-60251080D01*
X155533059Y-60231395D01*
X155512417Y-60214761D01*
X155468717Y-60171061D01*
X155468709Y-60171055D01*
X155331790Y-60092006D01*
X155331786Y-60092004D01*
X155331784Y-60092003D01*
X155179057Y-60051080D01*
X155024500Y-60051080D01*
X154957461Y-60031395D01*
X154911706Y-59978591D01*
X154900500Y-59927080D01*
X154900500Y-53149230D01*
X154903881Y-53137712D01*
X154902741Y-53125763D01*
X154913543Y-53104808D01*
X154920185Y-53082191D01*
X154930055Y-53072778D01*
X154934757Y-53063660D01*
X154962500Y-53041843D01*
X154983013Y-53030000D01*
X155053323Y-52989406D01*
X155121222Y-52972934D01*
X155187249Y-52995787D01*
X155229883Y-53049342D01*
X155293807Y-53203671D01*
X155293814Y-53203684D01*
X155403248Y-53367462D01*
X155403251Y-53367466D01*
X155542533Y-53506748D01*
X155542537Y-53506751D01*
X155706315Y-53616185D01*
X155706328Y-53616192D01*
X155888308Y-53691569D01*
X155930000Y-53699862D01*
X155930000Y-52896988D01*
X155939940Y-52914205D01*
X155995795Y-52970060D01*
X156064204Y-53009556D01*
X156140504Y-53030000D01*
X156219496Y-53030000D01*
X156295796Y-53009556D01*
X156364205Y-52970060D01*
X156420060Y-52914205D01*
X156430000Y-52896988D01*
X156430000Y-53699862D01*
X156471690Y-53691569D01*
X156471692Y-53691569D01*
X156653671Y-53616192D01*
X156653684Y-53616185D01*
X156817462Y-53506751D01*
X156817466Y-53506748D01*
X156956748Y-53367466D01*
X156956751Y-53367462D01*
X157066185Y-53203684D01*
X157066192Y-53203671D01*
X157141569Y-53021693D01*
X157141572Y-53021681D01*
X157179999Y-52828495D01*
X157180000Y-52828492D01*
X157180000Y-52430000D01*
X156480000Y-52430000D01*
X156480000Y-51930000D01*
X157035536Y-51930000D01*
X157102575Y-51949685D01*
X157142923Y-51992000D01*
X157149482Y-52003361D01*
X157149484Y-52003364D01*
X157149485Y-52003365D01*
X157256635Y-52110515D01*
X157387865Y-52186281D01*
X157534234Y-52225500D01*
X157534236Y-52225500D01*
X157685764Y-52225500D01*
X157685766Y-52225500D01*
X157832135Y-52186281D01*
X157963365Y-52110515D01*
X158070515Y-52003365D01*
X158146281Y-51872135D01*
X158185500Y-51725766D01*
X158185500Y-51574234D01*
X162814500Y-51574234D01*
X162814500Y-51725766D01*
X162834109Y-51798950D01*
X162853719Y-51872136D01*
X162888151Y-51931772D01*
X162929485Y-52003365D01*
X163036635Y-52110515D01*
X163167865Y-52186281D01*
X163314234Y-52225500D01*
X163314236Y-52225500D01*
X163465764Y-52225500D01*
X163465766Y-52225500D01*
X163612135Y-52186281D01*
X163743365Y-52110515D01*
X163850515Y-52003365D01*
X163857077Y-51992000D01*
X163907644Y-51943784D01*
X163964464Y-51930000D01*
X164520000Y-51930000D01*
X164520000Y-52430000D01*
X163820000Y-52430000D01*
X163820000Y-52828495D01*
X163858427Y-53021681D01*
X163858430Y-53021693D01*
X163933807Y-53203671D01*
X163933814Y-53203684D01*
X164043248Y-53367462D01*
X164043251Y-53367466D01*
X164182533Y-53506748D01*
X164182537Y-53506751D01*
X164346315Y-53616185D01*
X164346328Y-53616192D01*
X164528308Y-53691569D01*
X164570000Y-53699862D01*
X164570000Y-52896988D01*
X164579940Y-52914205D01*
X164635795Y-52970060D01*
X164704204Y-53009556D01*
X164780504Y-53030000D01*
X164859496Y-53030000D01*
X164935796Y-53009556D01*
X165004205Y-52970060D01*
X165060060Y-52914205D01*
X165070000Y-52896988D01*
X165070000Y-53699862D01*
X165111690Y-53691569D01*
X165111692Y-53691569D01*
X165293671Y-53616192D01*
X165293684Y-53616185D01*
X165457462Y-53506751D01*
X165457466Y-53506748D01*
X165596748Y-53367466D01*
X165596751Y-53367462D01*
X165706185Y-53203684D01*
X165706190Y-53203675D01*
X165773395Y-53041428D01*
X165781570Y-53021688D01*
X165781572Y-53021681D01*
X165819999Y-52828495D01*
X165820000Y-52828492D01*
X165820000Y-52430000D01*
X165120000Y-52430000D01*
X165120000Y-51930000D01*
X165820000Y-51930000D01*
X165820000Y-51531508D01*
X165819999Y-51531504D01*
X165781572Y-51338318D01*
X165781569Y-51338306D01*
X165706192Y-51156328D01*
X165706185Y-51156315D01*
X165596751Y-50992537D01*
X165596748Y-50992533D01*
X165457466Y-50853251D01*
X165457462Y-50853248D01*
X165293684Y-50743814D01*
X165293671Y-50743807D01*
X165111691Y-50668429D01*
X165111683Y-50668427D01*
X165070000Y-50660135D01*
X165070000Y-51463011D01*
X165060060Y-51445795D01*
X165004205Y-51389940D01*
X164935796Y-51350444D01*
X164859496Y-51330000D01*
X164780504Y-51330000D01*
X164704204Y-51350444D01*
X164635795Y-51389940D01*
X164579940Y-51445795D01*
X164570000Y-51463011D01*
X164570000Y-50660136D01*
X164569999Y-50660135D01*
X164528316Y-50668427D01*
X164528308Y-50668429D01*
X164346328Y-50743807D01*
X164346315Y-50743814D01*
X164182537Y-50853248D01*
X164182533Y-50853251D01*
X164043248Y-50992536D01*
X163930427Y-51161387D01*
X163929003Y-51160435D01*
X163885742Y-51204451D01*
X163817600Y-51219892D01*
X163751927Y-51196041D01*
X163749907Y-51194306D01*
X163749811Y-51194432D01*
X163743367Y-51189487D01*
X163743365Y-51189485D01*
X163677750Y-51151602D01*
X163612136Y-51113719D01*
X163538950Y-51094109D01*
X163465766Y-51074500D01*
X163314234Y-51074500D01*
X163167863Y-51113719D01*
X163036635Y-51189485D01*
X163036632Y-51189487D01*
X162929487Y-51296632D01*
X162929485Y-51296635D01*
X162853719Y-51427863D01*
X162824328Y-51537554D01*
X162814500Y-51574234D01*
X158185500Y-51574234D01*
X158146281Y-51427865D01*
X158070515Y-51296635D01*
X157963365Y-51189485D01*
X157897750Y-51151602D01*
X157832136Y-51113719D01*
X157758950Y-51094109D01*
X157685766Y-51074500D01*
X157534234Y-51074500D01*
X157387863Y-51113719D01*
X157256635Y-51189485D01*
X157250189Y-51194432D01*
X157248099Y-51191709D01*
X157200217Y-51217466D01*
X157130558Y-51212043D01*
X157074888Y-51169821D01*
X157069299Y-51160976D01*
X156956751Y-50992537D01*
X156956748Y-50992533D01*
X156817466Y-50853251D01*
X156817462Y-50853248D01*
X156653684Y-50743814D01*
X156653671Y-50743807D01*
X156471691Y-50668429D01*
X156471683Y-50668427D01*
X156430000Y-50660135D01*
X156430000Y-51463011D01*
X156420060Y-51445795D01*
X156364205Y-51389940D01*
X156295796Y-51350444D01*
X156219496Y-51330000D01*
X156140504Y-51330000D01*
X156064204Y-51350444D01*
X155995795Y-51389940D01*
X155939940Y-51445795D01*
X155930000Y-51463011D01*
X155930000Y-50660136D01*
X155929999Y-50660135D01*
X155888316Y-50668427D01*
X155888308Y-50668429D01*
X155706328Y-50743807D01*
X155706315Y-50743814D01*
X155542537Y-50853248D01*
X155542533Y-50853251D01*
X155403251Y-50992533D01*
X155403248Y-50992537D01*
X155293814Y-51156315D01*
X155293807Y-51156328D01*
X155218430Y-51338306D01*
X155218427Y-51338318D01*
X155180000Y-51531504D01*
X155180000Y-51868955D01*
X155160315Y-51935994D01*
X155107511Y-51981749D01*
X155038353Y-51991693D01*
X154994002Y-51976343D01*
X154931788Y-51940425D01*
X154931786Y-51940424D01*
X154931784Y-51940423D01*
X154779057Y-51899500D01*
X154624500Y-51899500D01*
X154557461Y-51879815D01*
X154511706Y-51827011D01*
X154500500Y-51775500D01*
X154500500Y-50522729D01*
X154500501Y-50522716D01*
X154500501Y-50407274D01*
X154473206Y-50305411D01*
X154473205Y-50305410D01*
X154459009Y-50280821D01*
X154420480Y-50214087D01*
X154345913Y-50139520D01*
X154345912Y-50139519D01*
X154341582Y-50135189D01*
X154341571Y-50135179D01*
X152946818Y-48740426D01*
X152913333Y-48679103D01*
X152910499Y-48652745D01*
X152910499Y-47601504D01*
X155180000Y-47601504D01*
X155180000Y-47750000D01*
X155880000Y-47750000D01*
X155880000Y-48250000D01*
X155180000Y-48250000D01*
X155180000Y-48398495D01*
X155218427Y-48591681D01*
X155218430Y-48591693D01*
X155293807Y-48773671D01*
X155293814Y-48773684D01*
X155403248Y-48937462D01*
X155403251Y-48937466D01*
X155542533Y-49076748D01*
X155542537Y-49076751D01*
X155706315Y-49186185D01*
X155706328Y-49186192D01*
X155888308Y-49261569D01*
X155930000Y-49269862D01*
X155930000Y-48466988D01*
X155939940Y-48484205D01*
X155995795Y-48540060D01*
X156064204Y-48579556D01*
X156140504Y-48600000D01*
X156219496Y-48600000D01*
X156295796Y-48579556D01*
X156364205Y-48540060D01*
X156420060Y-48484205D01*
X156430000Y-48466988D01*
X156430000Y-49269862D01*
X156471690Y-49261569D01*
X156471692Y-49261569D01*
X156653671Y-49186192D01*
X156653684Y-49186185D01*
X156817462Y-49076751D01*
X156817466Y-49076748D01*
X156956748Y-48937466D01*
X156956751Y-48937462D01*
X157066185Y-48773684D01*
X157066192Y-48773671D01*
X157141569Y-48591693D01*
X157141572Y-48591681D01*
X157179999Y-48398495D01*
X157180000Y-48398492D01*
X157180000Y-48250000D01*
X156480000Y-48250000D01*
X156480000Y-47750000D01*
X157180000Y-47750000D01*
X157180000Y-47601508D01*
X157179999Y-47601504D01*
X163820000Y-47601504D01*
X163820000Y-47750000D01*
X164520000Y-47750000D01*
X164520000Y-48250000D01*
X163820000Y-48250000D01*
X163820000Y-48398495D01*
X163858427Y-48591681D01*
X163858430Y-48591693D01*
X163933807Y-48773671D01*
X163933814Y-48773684D01*
X164043248Y-48937462D01*
X164043251Y-48937466D01*
X164182533Y-49076748D01*
X164182537Y-49076751D01*
X164346315Y-49186185D01*
X164346328Y-49186192D01*
X164528308Y-49261569D01*
X164570000Y-49269862D01*
X164570000Y-48466988D01*
X164579940Y-48484205D01*
X164635795Y-48540060D01*
X164704204Y-48579556D01*
X164780504Y-48600000D01*
X164859496Y-48600000D01*
X164935796Y-48579556D01*
X165004205Y-48540060D01*
X165060060Y-48484205D01*
X165070000Y-48466988D01*
X165070000Y-49269862D01*
X165111690Y-49261569D01*
X165111692Y-49261569D01*
X165293671Y-49186192D01*
X165293684Y-49186185D01*
X165457462Y-49076751D01*
X165457466Y-49076748D01*
X165596748Y-48937466D01*
X165596751Y-48937462D01*
X165706185Y-48773684D01*
X165706192Y-48773671D01*
X165781569Y-48591693D01*
X165781572Y-48591681D01*
X165819999Y-48398495D01*
X165820000Y-48398492D01*
X165820000Y-48250000D01*
X165120000Y-48250000D01*
X165120000Y-47750000D01*
X165820000Y-47750000D01*
X165820000Y-47601508D01*
X165819999Y-47601504D01*
X165781572Y-47408318D01*
X165781569Y-47408306D01*
X165723870Y-47269006D01*
X165706190Y-47226325D01*
X165706185Y-47226315D01*
X165596751Y-47062537D01*
X165596748Y-47062533D01*
X165457466Y-46923251D01*
X165457462Y-46923248D01*
X165293684Y-46813814D01*
X165293671Y-46813807D01*
X165111691Y-46738429D01*
X165111683Y-46738427D01*
X165070000Y-46730135D01*
X165070000Y-47533011D01*
X165060060Y-47515795D01*
X165004205Y-47459940D01*
X164935796Y-47420444D01*
X164859496Y-47400000D01*
X164780504Y-47400000D01*
X164704204Y-47420444D01*
X164635795Y-47459940D01*
X164579940Y-47515795D01*
X164570000Y-47533011D01*
X164570000Y-46730136D01*
X164569999Y-46730135D01*
X164528316Y-46738427D01*
X164528308Y-46738429D01*
X164346328Y-46813807D01*
X164346315Y-46813814D01*
X164182537Y-46923248D01*
X164182533Y-46923251D01*
X164043251Y-47062533D01*
X164043248Y-47062537D01*
X163933814Y-47226315D01*
X163933807Y-47226328D01*
X163858430Y-47408306D01*
X163858427Y-47408318D01*
X163820000Y-47601504D01*
X157179999Y-47601504D01*
X157141572Y-47408318D01*
X157141569Y-47408306D01*
X157066192Y-47226328D01*
X157066185Y-47226315D01*
X156956751Y-47062537D01*
X156956748Y-47062533D01*
X156817466Y-46923251D01*
X156817462Y-46923248D01*
X156653684Y-46813814D01*
X156653671Y-46813807D01*
X156471691Y-46738429D01*
X156471683Y-46738427D01*
X156430000Y-46730135D01*
X156430000Y-47533011D01*
X156420060Y-47515795D01*
X156364205Y-47459940D01*
X156295796Y-47420444D01*
X156219496Y-47400000D01*
X156140504Y-47400000D01*
X156064204Y-47420444D01*
X155995795Y-47459940D01*
X155939940Y-47515795D01*
X155930000Y-47533011D01*
X155930000Y-46730136D01*
X155929999Y-46730135D01*
X155888316Y-46738427D01*
X155888308Y-46738429D01*
X155706328Y-46813807D01*
X155706315Y-46813814D01*
X155542537Y-46923248D01*
X155542533Y-46923251D01*
X155403251Y-47062533D01*
X155403248Y-47062537D01*
X155293814Y-47226315D01*
X155293807Y-47226328D01*
X155218430Y-47408306D01*
X155218427Y-47408318D01*
X155180000Y-47601504D01*
X152910499Y-47601504D01*
X152910499Y-47225143D01*
X152910499Y-47225136D01*
X152910497Y-47225117D01*
X152907586Y-47200012D01*
X152907585Y-47200010D01*
X152907585Y-47200009D01*
X152862206Y-47097235D01*
X152782765Y-47017794D01*
X152782763Y-47017793D01*
X152679992Y-46972415D01*
X152654865Y-46969500D01*
X150865143Y-46969500D01*
X150865117Y-46969502D01*
X150840012Y-46972413D01*
X150840008Y-46972415D01*
X150737235Y-47017793D01*
X150657794Y-47097234D01*
X150612415Y-47200006D01*
X150612415Y-47200008D01*
X150609500Y-47225131D01*
X150609500Y-49014856D01*
X150609502Y-49014882D01*
X150612413Y-49039987D01*
X150612415Y-49039991D01*
X150657793Y-49142764D01*
X150657794Y-49142765D01*
X150737235Y-49222206D01*
X150840009Y-49267585D01*
X150865135Y-49270500D01*
X151602873Y-49270499D01*
X151669911Y-49290183D01*
X151715666Y-49342987D01*
X151725610Y-49412146D01*
X151696585Y-49475702D01*
X151637807Y-49513476D01*
X151622271Y-49516972D01*
X151490589Y-49537829D01*
X151318363Y-49593787D01*
X151318360Y-49593788D01*
X151157002Y-49676006D01*
X151010505Y-49782441D01*
X151010500Y-49782445D01*
X150882445Y-49910500D01*
X150882441Y-49910505D01*
X150776006Y-50057002D01*
X150693788Y-50218360D01*
X150693787Y-50218363D01*
X150637829Y-50390589D01*
X150609500Y-50569448D01*
X150609500Y-50750551D01*
X150637829Y-50929410D01*
X150693787Y-51101636D01*
X150693788Y-51101639D01*
X150776006Y-51262997D01*
X150882441Y-51409494D01*
X150882445Y-51409499D01*
X151010500Y-51537554D01*
X151010505Y-51537558D01*
X151060986Y-51574234D01*
X151157006Y-51643996D01*
X151258780Y-51695853D01*
X151288684Y-51711090D01*
X151339480Y-51759065D01*
X151356275Y-51826886D01*
X151333737Y-51893021D01*
X151279022Y-51936472D01*
X151270708Y-51939506D01*
X151241781Y-51948905D01*
X151052439Y-52045380D01*
X150998282Y-52084727D01*
X150998282Y-52084728D01*
X151630591Y-52717037D01*
X151567007Y-52734075D01*
X151452993Y-52799901D01*
X151359901Y-52892993D01*
X151294075Y-53007007D01*
X151277037Y-53070591D01*
X150644728Y-52438282D01*
X150644727Y-52438282D01*
X150605380Y-52492439D01*
X150508904Y-52681782D01*
X150443242Y-52883869D01*
X150443242Y-52883872D01*
X150410000Y-53093753D01*
X149600500Y-53093753D01*
X149600500Y-44024500D01*
X149620185Y-43957461D01*
X149672989Y-43911706D01*
X149724500Y-43900500D01*
X171575500Y-43900500D01*
X171642539Y-43920185D01*
G37*
%TD.AperFunction*%
%TD*%
M02*
