%TF.GenerationSoftware,KiCad,Pcbnew,10.0.3*%
%TF.CreationDate,2026-06-25T12:17:52-04:00*%
%TF.ProjectId,RP2040_dev,52503230-3430-45f6-9465-762e6b696361,rev?*%
%TF.SameCoordinates,Original*%
%TF.FileFunction,Copper,L1,Top*%
%TF.FilePolarity,Positive*%
%FSLAX46Y46*%
G04 Gerber Fmt 4.6, Leading zero omitted, Abs format (unit mm)*
G04 Created by KiCad (PCBNEW 10.0.3) date 2026-06-25 12:17:52*
%MOMM*%
%LPD*%
G01*
G04 APERTURE LIST*
G04 Aperture macros list*
%AMRoundRect*
0 Rectangle with rounded corners*
0 $1 Rounding radius*
0 $2 $3 $4 $5 $6 $7 $8 $9 X,Y pos of 4 corners*
0 Add a 4 corners polygon primitive as box body*
4,1,4,$2,$3,$4,$5,$6,$7,$8,$9,$2,$3,0*
0 Add four circle primitives for the rounded corners*
1,1,$1+$1,$2,$3*
1,1,$1+$1,$4,$5*
1,1,$1+$1,$6,$7*
1,1,$1+$1,$8,$9*
0 Add four rect primitives between the rounded corners*
20,1,$1+$1,$2,$3,$4,$5,0*
20,1,$1+$1,$4,$5,$6,$7,0*
20,1,$1+$1,$6,$7,$8,$9,0*
20,1,$1+$1,$8,$9,$2,$3,0*%
G04 Aperture macros list end*
%TA.AperFunction,SMDPad,CuDef*%
%ADD10RoundRect,0.140000X-0.170000X0.140000X-0.170000X-0.140000X0.170000X-0.140000X0.170000X0.140000X0*%
%TD*%
%TA.AperFunction,SMDPad,CuDef*%
%ADD11RoundRect,0.140000X0.170000X-0.140000X0.170000X0.140000X-0.170000X0.140000X-0.170000X-0.140000X0*%
%TD*%
%TA.AperFunction,SMDPad,CuDef*%
%ADD12RoundRect,0.150000X0.150000X-0.587500X0.150000X0.587500X-0.150000X0.587500X-0.150000X-0.587500X0*%
%TD*%
%TA.AperFunction,SMDPad,CuDef*%
%ADD13RoundRect,0.135000X-0.185000X0.135000X-0.185000X-0.135000X0.185000X-0.135000X0.185000X0.135000X0*%
%TD*%
%TA.AperFunction,SMDPad,CuDef*%
%ADD14RoundRect,0.200000X-0.200000X-0.800000X0.200000X-0.800000X0.200000X0.800000X-0.200000X0.800000X0*%
%TD*%
%TA.AperFunction,SMDPad,CuDef*%
%ADD15RoundRect,0.225000X0.225000X0.250000X-0.225000X0.250000X-0.225000X-0.250000X0.225000X-0.250000X0*%
%TD*%
%TA.AperFunction,ComponentPad*%
%ADD16R,1.700000X1.700000*%
%TD*%
%TA.AperFunction,ComponentPad*%
%ADD17C,1.700000*%
%TD*%
%TA.AperFunction,SMDPad,CuDef*%
%ADD18RoundRect,0.050000X-0.387500X-0.050000X0.387500X-0.050000X0.387500X0.050000X-0.387500X0.050000X0*%
%TD*%
%TA.AperFunction,SMDPad,CuDef*%
%ADD19RoundRect,0.050000X-0.050000X-0.387500X0.050000X-0.387500X0.050000X0.387500X-0.050000X0.387500X0*%
%TD*%
%TA.AperFunction,HeatsinkPad*%
%ADD20R,3.200000X3.200000*%
%TD*%
%TA.AperFunction,SMDPad,CuDef*%
%ADD21RoundRect,0.140000X0.140000X0.170000X-0.140000X0.170000X-0.140000X-0.170000X0.140000X-0.170000X0*%
%TD*%
%TA.AperFunction,SMDPad,CuDef*%
%ADD22RoundRect,0.250000X-0.450000X-0.350000X0.450000X-0.350000X0.450000X0.350000X-0.450000X0.350000X0*%
%TD*%
%TA.AperFunction,SMDPad,CuDef*%
%ADD23RoundRect,0.150000X0.150000X0.575000X-0.150000X0.575000X-0.150000X-0.575000X0.150000X-0.575000X0*%
%TD*%
%TA.AperFunction,SMDPad,CuDef*%
%ADD24RoundRect,0.075000X0.075000X0.650000X-0.075000X0.650000X-0.075000X-0.650000X0.075000X-0.650000X0*%
%TD*%
%TA.AperFunction,ComponentPad*%
%ADD25O,1.000000X2.100000*%
%TD*%
%TA.AperFunction,ComponentPad*%
%ADD26O,1.000000X1.600000*%
%TD*%
%TA.AperFunction,SMDPad,CuDef*%
%ADD27RoundRect,0.135000X0.135000X0.185000X-0.135000X0.185000X-0.135000X-0.185000X0.135000X-0.185000X0*%
%TD*%
%TA.AperFunction,SMDPad,CuDef*%
%ADD28RoundRect,0.062500X-0.387500X-0.062500X0.387500X-0.062500X0.387500X0.062500X-0.387500X0.062500X0*%
%TD*%
%TA.AperFunction,HeatsinkPad*%
%ADD29R,0.200000X1.600000*%
%TD*%
%TA.AperFunction,ViaPad*%
%ADD30C,0.600000*%
%TD*%
%TA.AperFunction,ViaPad*%
%ADD31C,0.300000*%
%TD*%
%TA.AperFunction,Conductor*%
%ADD32C,0.200000*%
%TD*%
G04 APERTURE END LIST*
D10*
%TO.P,C5,1*%
%TO.N,+3V3*%
X159000000Y-83500000D03*
%TO.P,C5,2*%
%TO.N,GND*%
X159000000Y-84460000D03*
%TD*%
D11*
%TO.P,33pF3,1*%
%TO.N,GND*%
X161500000Y-87980000D03*
%TO.P,33pF3,2*%
%TO.N,XIN*%
X161500000Y-87020000D03*
%TD*%
D10*
%TO.P,C6,1*%
%TO.N,+3V3*%
X163000000Y-61000000D03*
%TO.P,C6,2*%
%TO.N,GND*%
X163000000Y-61960000D03*
%TD*%
D12*
%TO.P,U2,1,GND_1*%
%TO.N,GND*%
X156050000Y-59375000D03*
%TO.P,U2,2,VO_2*%
%TO.N,+3V3*%
X157950000Y-59375000D03*
%TO.P,U2,3,VI_3*%
%TO.N,VBUS*%
X157000000Y-57500000D03*
%TD*%
D10*
%TO.P,C10,1*%
%TO.N,+1V1*%
X161000000Y-83500000D03*
%TO.P,C10,2*%
%TO.N,GND*%
X161000000Y-84460000D03*
%TD*%
D13*
%TO.P,R2,1*%
%TO.N,Net-(J1-CC2)*%
X158500000Y-55000000D03*
%TO.P,R2,2*%
%TO.N,GND*%
X158500000Y-56020000D03*
%TD*%
D14*
%TO.P,SW1,1,1_1*%
%TO.N,GND*%
X158900000Y-64500000D03*
%TO.P,SW1,2,2_2*%
%TO.N,Net-(R6-Pad1)*%
X163100000Y-64500000D03*
%TD*%
D10*
%TO.P,C7,1*%
%TO.N,+3V3*%
X157000000Y-84000000D03*
%TO.P,C7,2*%
%TO.N,GND*%
X157000000Y-84960000D03*
%TD*%
D15*
%TO.P,C13,1*%
%TO.N,VBUS*%
X157000000Y-55500000D03*
%TO.P,C13,2*%
%TO.N,GND*%
X155450000Y-55500000D03*
%TD*%
D11*
%TO.P,C12,1*%
%TO.N,+1V1*%
X161000000Y-67960000D03*
%TO.P,C12,2*%
%TO.N,GND*%
X161000000Y-67000000D03*
%TD*%
D10*
%TO.P,C1,1*%
%TO.N,+3V3*%
X160000000Y-83540000D03*
%TO.P,C1,2*%
%TO.N,GND*%
X160000000Y-84500000D03*
%TD*%
D16*
%TO.P,J4,1,Pin_1_1*%
%TO.N,VBUS*%
X169540000Y-48120000D03*
D17*
%TO.P,J4,2,Pin_2_2*%
%TO.N,GPIO29_ADC3*%
X169540000Y-50660000D03*
%TO.P,J4,3,Pin_3_3*%
%TO.N,GND*%
X169540000Y-53200000D03*
%TO.P,J4,4,Pin_4_4*%
%TO.N,GPIO28_ADC2*%
X169540000Y-55740000D03*
%TO.P,J4,5,Pin_5_5*%
%TO.N,+3V3*%
X169540000Y-58280000D03*
%TO.P,J4,6,Pin_6_6*%
%TO.N,GPIO27_ADC1*%
X169540000Y-60820000D03*
%TO.P,J4,7,Pin_7_7*%
%TO.N,GPIO26_ADC0*%
X169540000Y-63360000D03*
%TO.P,J4,8,Pin_8_8*%
%TO.N,GND*%
X169540000Y-65900000D03*
%TO.P,J4,9,Pin_9_9*%
%TO.N,GPIO24*%
X169540000Y-68440000D03*
%TO.P,J4,10,Pin_10_10*%
%TO.N,GPIO23*%
X169540000Y-70980000D03*
%TO.P,J4,11,Pin_11_11*%
%TO.N,RUN*%
X169540000Y-73520000D03*
%TO.P,J4,12,Pin_12_12*%
%TO.N,GPIO22*%
X169540000Y-76060000D03*
%TO.P,J4,13,Pin_13_13*%
%TO.N,GND*%
X169540000Y-78600000D03*
%TO.P,J4,14,Pin_14_14*%
%TO.N,GPIO21*%
X169540000Y-81140000D03*
%TO.P,J4,15,Pin_15_15*%
%TO.N,GPIO20*%
X169540000Y-83680000D03*
%TO.P,J4,16,Pin_16_16*%
%TO.N,GPIO19*%
X169540000Y-86220000D03*
%TO.P,J4,17,Pin_17_17*%
%TO.N,GPIO18*%
X169540000Y-88760000D03*
%TO.P,J4,18,Pin_18_18*%
%TO.N,GND*%
X169540000Y-91300000D03*
%TO.P,J4,19,Pin_19_19*%
%TO.N,GPIO17*%
X169540000Y-93840000D03*
%TO.P,J4,20,Pin_20_20*%
%TO.N,GPIO16*%
X169540000Y-96380000D03*
%TD*%
D13*
%TO.P,R5,1*%
%TO.N,Net-(33pF2-Pad2)*%
X156000000Y-89000000D03*
%TO.P,R5,2*%
%TO.N,XOUT*%
X156000000Y-90020000D03*
%TD*%
D16*
%TO.P,J3,1,Pin_1_1*%
%TO.N,SWCLK*%
X158000000Y-96000000D03*
D17*
%TO.P,J3,2,Pin_2_2*%
%TO.N,GND*%
X160540000Y-96000000D03*
%TO.P,J3,3,Pin_3_3*%
%TO.N,SWD*%
X163080000Y-96000000D03*
%TD*%
D11*
%TO.P,C2,1*%
%TO.N,+3V3*%
X162000000Y-57500000D03*
%TO.P,C2,2*%
%TO.N,GND*%
X162000000Y-56540000D03*
%TD*%
D13*
%TO.P,R6,1*%
%TO.N,Net-(R6-Pad1)*%
X164500000Y-63980000D03*
%TO.P,R6,2*%
%TO.N,QSPI_SS*%
X164500000Y-65000000D03*
%TD*%
D18*
%TO.P,U1,1,IOVDD_1*%
%TO.N,+3V3*%
X157262500Y-75337500D03*
%TO.P,U1,2,GPIO0_2*%
%TO.N,GPIO0*%
X157262500Y-75737500D03*
%TO.P,U1,3,GPIO1_3*%
%TO.N,GPIO1*%
X157262500Y-76137500D03*
%TO.P,U1,4,GPIO2_4*%
%TO.N,GPIO2*%
X157262500Y-76537500D03*
%TO.P,U1,5,GPIO3_5*%
%TO.N,GPIO3*%
X157262500Y-76937500D03*
%TO.P,U1,6,GPIO4_6*%
%TO.N,GPIO4*%
X157262500Y-77337500D03*
%TO.P,U1,7,GPIO5_7*%
%TO.N,GPIO5*%
X157262500Y-77737500D03*
%TO.P,U1,8,GPIO6_8*%
%TO.N,GPIO6*%
X157262500Y-78137500D03*
%TO.P,U1,9,GPIO7_9*%
%TO.N,GPIO7*%
X157262500Y-78537500D03*
%TO.P,U1,10,IOVDD_10*%
%TO.N,+3V3*%
X157262500Y-78937500D03*
%TO.P,U1,11,GPIO8_11*%
%TO.N,GPIO8*%
X157262500Y-79337500D03*
%TO.P,U1,12,GPIO9_12*%
%TO.N,GPIO9*%
X157262500Y-79737500D03*
%TO.P,U1,13,GPIO10_13*%
%TO.N,GPIO10*%
X157262500Y-80137500D03*
%TO.P,U1,14,GPIO11_14*%
%TO.N,GPIO11*%
X157262500Y-80537500D03*
D19*
%TO.P,U1,15,GPIO12_15*%
%TO.N,GPIO12*%
X158100000Y-81375000D03*
%TO.P,U1,16,GPIO13_16*%
%TO.N,GPIO13*%
X158500000Y-81375000D03*
%TO.P,U1,17,GPIO14_17*%
%TO.N,GPIO14*%
X158900000Y-81375000D03*
%TO.P,U1,18,GPIO15_18*%
%TO.N,GPIO15*%
X159300000Y-81375000D03*
%TO.P,U1,19,TESTEN_19*%
%TO.N,GND*%
X159700000Y-81375000D03*
%TO.P,U1,20,XIN_20*%
%TO.N,XIN*%
X160100000Y-81375000D03*
%TO.P,U1,21,XOUT_21*%
%TO.N,XOUT*%
X160500000Y-81375000D03*
%TO.P,U1,22,IOVDD_22*%
%TO.N,+3V3*%
X160900000Y-81375000D03*
%TO.P,U1,23,DVDD_23*%
%TO.N,+1V1*%
X161300000Y-81375000D03*
%TO.P,U1,24,SWCLK_24*%
%TO.N,SWCLK*%
X161700000Y-81375000D03*
%TO.P,U1,25,SWDIO_25*%
%TO.N,SWD*%
X162100000Y-81375000D03*
%TO.P,U1,26,RUN_26*%
%TO.N,RUN*%
X162500000Y-81375000D03*
%TO.P,U1,27,GPIO16_27*%
%TO.N,GPIO16*%
X162900000Y-81375000D03*
%TO.P,U1,28,GPIO17_28*%
%TO.N,GPIO17*%
X163300000Y-81375000D03*
D18*
%TO.P,U1,29,GPIO18_29*%
%TO.N,GPIO18*%
X164137500Y-80537500D03*
%TO.P,U1,30,GPIO19_30*%
%TO.N,GPIO19*%
X164137500Y-80137500D03*
%TO.P,U1,31,GPIO20_31*%
%TO.N,GPIO20*%
X164137500Y-79737500D03*
%TO.P,U1,32,GPIO21_32*%
%TO.N,GPIO21*%
X164137500Y-79337500D03*
%TO.P,U1,33,IOVDD_33*%
%TO.N,+3V3*%
X164137500Y-78937500D03*
%TO.P,U1,34,GPIO22_34*%
%TO.N,GPIO22*%
X164137500Y-78537500D03*
%TO.P,U1,35,GPIO23_35*%
%TO.N,GPIO23*%
X164137500Y-78137500D03*
%TO.P,U1,36,GPIO24_36*%
%TO.N,GPIO24*%
X164137500Y-77737500D03*
%TO.P,U1,37,GPIO25_37*%
%TO.N,unconnected-(U1-GPIO25-Pad37)*%
X164137500Y-77337500D03*
%TO.P,U1,38,GPIO26/ADC0_38*%
%TO.N,GPIO26_ADC0*%
X164137500Y-76937500D03*
%TO.P,U1,39,GPIO27/ADC1_39*%
%TO.N,GPIO27_ADC1*%
X164137500Y-76537500D03*
%TO.P,U1,40,GPIO28/ADC2_40*%
%TO.N,GPIO28_ADC2*%
X164137500Y-76137500D03*
%TO.P,U1,41,GPIO29/ADC3_41*%
%TO.N,GPIO29_ADC3*%
X164137500Y-75737500D03*
%TO.P,U1,42,IOVDD_42*%
%TO.N,+3V3*%
X164137500Y-75337500D03*
D19*
%TO.P,U1,43,ADC_AVDD_43*%
X163300000Y-74500000D03*
%TO.P,U1,44,VREG_VIN_44*%
X162900000Y-74500000D03*
%TO.P,U1,45,VREG_VOUT_45*%
%TO.N,+1V1*%
X162500000Y-74500000D03*
%TO.P,U1,46,USB_DM_46*%
%TO.N,USB_MCU_N*%
X162100000Y-74500000D03*
%TO.P,U1,47,USB_DP_47*%
%TO.N,USB_MCU_P*%
X161700000Y-74500000D03*
%TO.P,U1,48,USB_VDD_48*%
%TO.N,+3V3*%
X161300000Y-74500000D03*
%TO.P,U1,49,IOVDD_49*%
X160900000Y-74500000D03*
%TO.P,U1,50,DVDD_50*%
%TO.N,+1V1*%
X160500000Y-74500000D03*
%TO.P,U1,51,QSPI_SD3_51*%
%TO.N,QSPI_SD3*%
X160100000Y-74500000D03*
%TO.P,U1,52,QSPI_SCLK_52*%
%TO.N,QSPI_SCLK*%
X159700000Y-74500000D03*
%TO.P,U1,53,QSPI_SD0_53*%
%TO.N,QSPI_SD0*%
X159300000Y-74500000D03*
%TO.P,U1,54,QSPI_SD2_54*%
%TO.N,QSPI_SD2*%
X158900000Y-74500000D03*
%TO.P,U1,55,QSPI_SD1_55*%
%TO.N,QSPI_SD1*%
X158500000Y-74500000D03*
%TO.P,U1,56,~{QSPI_SS}_56*%
%TO.N,QSPI_SS*%
X158100000Y-74500000D03*
D20*
%TO.P,U1,57,GND_57*%
%TO.N,GND*%
X160700000Y-77937500D03*
%TD*%
D13*
%TO.P,R3,1*%
%TO.N,USB_D+*%
X161500000Y-71480000D03*
%TO.P,R3,2*%
%TO.N,USB_MCU_P*%
X161500000Y-72500000D03*
%TD*%
%TO.P,R1,1*%
%TO.N,Net-(J1-CC1)*%
X161000000Y-56500000D03*
%TO.P,R1,2*%
%TO.N,GND*%
X161000000Y-57520000D03*
%TD*%
D10*
%TO.P,C3,1*%
%TO.N,+3V3*%
X159500000Y-61000000D03*
%TO.P,C3,2*%
%TO.N,GND*%
X159500000Y-61960000D03*
%TD*%
%TO.P,C4,1*%
%TO.N,+3V3*%
X155000000Y-84040000D03*
%TO.P,C4,2*%
%TO.N,GND*%
X155000000Y-85000000D03*
%TD*%
%TO.P,33pF2,1*%
%TO.N,GND*%
X156000000Y-87000000D03*
%TO.P,33pF2,2*%
%TO.N,Net-(33pF2-Pad2)*%
X156000000Y-87960000D03*
%TD*%
D21*
%TO.P,C11,1*%
%TO.N,+1V1*%
X158480000Y-68000000D03*
%TO.P,C11,2*%
%TO.N,GND*%
X157520000Y-68000000D03*
%TD*%
D13*
%TO.P,R4,1*%
%TO.N,USB_D-*%
X162500000Y-71480000D03*
%TO.P,R4,2*%
%TO.N,USB_MCU_N*%
X162500000Y-72500000D03*
%TD*%
D22*
%TO.P,Y1,1,1_1*%
%TO.N,Net-(33pF2-Pad2)*%
X157500000Y-89000000D03*
%TO.P,Y1,2,G_2*%
%TO.N,GND*%
X159700000Y-89000000D03*
%TO.P,Y1,3,3_3*%
%TO.N,XIN*%
X159700000Y-87300000D03*
%TO.P,Y1,4,G_4*%
%TO.N,GND*%
X157500000Y-87300000D03*
%TD*%
D23*
%TO.P,J1,A1,GND_A1*%
%TO.N,GND*%
X163750000Y-53095000D03*
%TO.P,J1,A4,VBUS_A4*%
%TO.N,VBUS*%
X162950000Y-53095000D03*
D24*
%TO.P,J1,A5,CC1_A5*%
%TO.N,Net-(J1-CC1)*%
X161750000Y-53095000D03*
%TO.P,J1,A6,D+_A6*%
%TO.N,USB_D+*%
X160750000Y-53095000D03*
%TO.P,J1,A7,D-_A7*%
%TO.N,USB_D-*%
X160250000Y-53095000D03*
%TO.P,J1,A8*%
%TO.N,N/C*%
X159250000Y-53095000D03*
D23*
%TO.P,J1,A9,VBUS_A9*%
%TO.N,VBUS*%
X158050000Y-53095000D03*
%TO.P,J1,A12,GND_A12*%
%TO.N,GND*%
X157250000Y-53095000D03*
%TO.P,J1,B1,GND_B1*%
X157250000Y-53095000D03*
%TO.P,J1,B4,VBUS_B4*%
%TO.N,VBUS*%
X158050000Y-53095000D03*
D24*
%TO.P,J1,B5,CC2_B5*%
%TO.N,Net-(J1-CC2)*%
X158750000Y-53095000D03*
%TO.P,J1,B6,D+_B6*%
%TO.N,USB_D+*%
X159750000Y-53095000D03*
%TO.P,J1,B7,D-_B7*%
%TO.N,USB_D-*%
X161250000Y-53095000D03*
%TO.P,J1,B8*%
%TO.N,N/C*%
X162250000Y-53095000D03*
D23*
%TO.P,J1,B9,VBUS_B9*%
%TO.N,VBUS*%
X162950000Y-53095000D03*
%TO.P,J1,B12,GND_B12*%
%TO.N,GND*%
X163750000Y-53095000D03*
D25*
%TO.P,J1,SH,SHIELD_SH*%
X164820000Y-52180000D03*
D26*
X164820000Y-48000000D03*
D25*
X156180000Y-52180000D03*
D26*
X156180000Y-48000000D03*
%TD*%
D16*
%TO.P,J2,1,Pin_1_1*%
%TO.N,GPIO0*%
X151760000Y-48120000D03*
D17*
%TO.P,J2,2,Pin_2_2*%
%TO.N,GPIO1*%
X151760000Y-50660000D03*
%TO.P,J2,3,Pin_3_3*%
%TO.N,GND*%
X151760000Y-53200000D03*
%TO.P,J2,4,Pin_4_4*%
%TO.N,GPIO2*%
X151760000Y-55740000D03*
%TO.P,J2,5,Pin_5_5*%
%TO.N,GPIO3*%
X151760000Y-58280000D03*
%TO.P,J2,6,Pin_6_6*%
%TO.N,GPIO4*%
X151760000Y-60820000D03*
%TO.P,J2,7,Pin_7_7*%
%TO.N,GPIO5*%
X151760000Y-63360000D03*
%TO.P,J2,8,Pin_8_8*%
%TO.N,GND*%
X151760000Y-65900000D03*
%TO.P,J2,9,Pin_9_9*%
%TO.N,GPIO6*%
X151760000Y-68440000D03*
%TO.P,J2,10,Pin_10_10*%
%TO.N,GPIO7*%
X151760000Y-70980000D03*
%TO.P,J2,11,Pin_11_11*%
%TO.N,GPIO8*%
X151760000Y-73520000D03*
%TO.P,J2,12,Pin_12_12*%
%TO.N,GPIO9*%
X151760000Y-76060000D03*
%TO.P,J2,13,Pin_13_13*%
%TO.N,GND*%
X151760000Y-78600000D03*
%TO.P,J2,14,Pin_14_14*%
%TO.N,GPIO10*%
X151760000Y-81140000D03*
%TO.P,J2,15,Pin_15_15*%
%TO.N,GPIO11*%
X151760000Y-83680000D03*
%TO.P,J2,16,Pin_16_16*%
%TO.N,GPIO12*%
X151760000Y-86220000D03*
%TO.P,J2,17,Pin_17_17*%
%TO.N,GPIO13*%
X151760000Y-88760000D03*
%TO.P,J2,18,Pin_18_18*%
%TO.N,GND*%
X151760000Y-91300000D03*
%TO.P,J2,19,Pin_19_19*%
%TO.N,GPIO14*%
X151760000Y-93840000D03*
%TO.P,J2,20,Pin_20_20*%
%TO.N,GPIO15*%
X151760000Y-96380000D03*
%TD*%
D10*
%TO.P,C15,1*%
%TO.N,+3V3*%
X156000000Y-84000000D03*
%TO.P,C15,2*%
%TO.N,GND*%
X156000000Y-84960000D03*
%TD*%
D15*
%TO.P,C14,1*%
%TO.N,+3V3*%
X158000000Y-61375000D03*
%TO.P,C14,2*%
%TO.N,GND*%
X156450000Y-61375000D03*
%TD*%
D10*
%TO.P,C9,1*%
%TO.N,+3V3*%
X158000000Y-84000000D03*
%TO.P,C9,2*%
%TO.N,GND*%
X158000000Y-84960000D03*
%TD*%
D27*
%TO.P,R7,1*%
%TO.N,GND*%
X156105000Y-68000000D03*
%TO.P,R7,2*%
%TO.N,QSPI_SS*%
X155085000Y-68000000D03*
%TD*%
D10*
%TO.P,C8,1*%
%TO.N,+3V3*%
X160500000Y-61000000D03*
%TO.P,C8,2*%
%TO.N,GND*%
X160500000Y-61960000D03*
%TD*%
D28*
%TO.P,U4,1,~{CS}_1*%
%TO.N,QSPI_SS*%
X155150000Y-69500000D03*
%TO.P,U4,2,DO/IO_{1}_2*%
%TO.N,QSPI_SD1*%
X155150000Y-70000000D03*
%TO.P,U4,3,~{WP}/IO_{2}_3*%
%TO.N,QSPI_SD2*%
X155150000Y-70500000D03*
%TO.P,U4,4,GND_4*%
%TO.N,GND*%
X155150000Y-71000000D03*
%TO.P,U4,5,DI/IO_{0}_5*%
%TO.N,QSPI_SD0*%
X158000000Y-71000000D03*
%TO.P,U4,6,CLK_6*%
%TO.N,QSPI_SCLK*%
X158000000Y-70500000D03*
%TO.P,U4,7,~{HOLD}/~{RESET}/IO_{3}_7*%
%TO.N,QSPI_SD3*%
X158000000Y-70000000D03*
%TO.P,U4,8,VCC_8*%
%TO.N,+3V3*%
X158000000Y-69500000D03*
D29*
%TO.P,U4,9*%
%TO.N,N/C*%
X156575000Y-70250000D03*
%TD*%
D30*
%TO.N,+3V3*%
X155100000Y-60651580D03*
X156358578Y-66641422D03*
X166500000Y-79500000D03*
X160500000Y-60000000D03*
X159500000Y-80037502D03*
X158495180Y-78717291D03*
X162000000Y-58500000D03*
X156161783Y-75191264D03*
X166000000Y-61500000D03*
X160500000Y-75837498D03*
X160000000Y-82500000D03*
X167667157Y-59500000D03*
X158900001Y-69501769D03*
%TO.N,GND*%
X162000000Y-89500000D03*
X158200000Y-80104143D03*
X170500000Y-64500000D03*
X164500000Y-57000000D03*
X158000000Y-72000000D03*
X158000000Y-50500000D03*
X156000000Y-69000000D03*
D31*
X159000000Y-57500000D03*
D30*
X154000000Y-48500000D03*
X159484246Y-65470418D03*
X154000000Y-46000000D03*
X161292779Y-58126052D03*
X165500000Y-63000000D03*
X153900000Y-90000000D03*
X161175000Y-62000000D03*
X166000000Y-88500000D03*
X165300000Y-82500000D03*
X165000000Y-85000000D03*
X164000000Y-55500000D03*
X156000000Y-91500000D03*
%TO.N,XIN*%
X160500000Y-80037502D03*
X161000000Y-86000000D03*
%TO.N,+1V1*%
X163000000Y-73500000D03*
X161000000Y-73500000D03*
X162800002Y-77000000D03*
%TO.N,GPIO29_ADC3*%
X162554902Y-75907353D03*
X164500000Y-72000000D03*
%TO.N,RUN*%
X163202118Y-80436599D03*
X167600000Y-76000000D03*
%TO.N,XOUT*%
X161991302Y-85514496D03*
X161500000Y-80037502D03*
%TO.N,SWCLK*%
X162300000Y-84000000D03*
X160000000Y-94000000D03*
%TO.N,SWD*%
X162300000Y-83000000D03*
%TO.N,QSPI_SS*%
X163000000Y-67000000D03*
X157000000Y-63000000D03*
%TO.N,GPIO0*%
X158179771Y-75537500D03*
%TO.N,GPIO1*%
X154700000Y-52500000D03*
X159054478Y-75554478D03*
%TO.N,GPIO2*%
X158189032Y-77978185D03*
X158832992Y-66418776D03*
%TO.N,GPIO3*%
X155659267Y-74568784D03*
X153500000Y-59500000D03*
%TO.N,GPIO4*%
X153374265Y-64125735D03*
X155137062Y-73962726D03*
%TO.N,GPIO5*%
X154352843Y-74120854D03*
%TO.N,GPIO6*%
X153752843Y-73500000D03*
%TO.N,GPIO15*%
X159223151Y-82691064D03*
X155242794Y-82742794D03*
%TD*%
%TO.N,+3V3*%
D32*
X160900000Y-82640000D02*
X160000000Y-83540000D01*
X154500000Y-64782844D02*
X154500000Y-61251580D01*
X162900000Y-75033860D02*
X162900000Y-74500000D01*
X158000000Y-59425000D02*
X157950000Y-59375000D01*
X159000002Y-80037502D02*
X159500000Y-80037502D01*
X164000000Y-61000000D02*
X165000000Y-62000000D01*
X160900000Y-74500000D02*
X161300000Y-74500000D01*
X156161783Y-75191264D02*
X157116264Y-75191264D01*
X164137500Y-78937500D02*
X165937500Y-78937500D01*
X162000000Y-58500000D02*
X164000000Y-60500000D01*
X157116264Y-75191264D02*
X157262500Y-75337500D01*
X154500000Y-61251580D02*
X155100000Y-60651580D01*
X162696360Y-75237500D02*
X162900000Y-75033860D01*
X158274971Y-78937500D02*
X158274971Y-79312471D01*
X160500000Y-75837498D02*
X160500000Y-76000000D01*
X163000000Y-61000000D02*
X163000000Y-59500000D01*
X158500000Y-84000000D02*
X159000000Y-83500000D01*
X157000000Y-84000000D02*
X158000000Y-84000000D01*
X167667157Y-59500000D02*
X168320000Y-59500000D01*
X160900000Y-81908860D02*
X160900000Y-81375000D01*
X155000000Y-84040000D02*
X155960000Y-84040000D01*
X160900000Y-81375000D02*
X160900000Y-82640000D01*
X164000000Y-60500000D02*
X164000000Y-61000000D01*
X163300000Y-74500000D02*
X164137500Y-75337500D01*
X159000000Y-83500000D02*
X159960000Y-83500000D01*
X158274971Y-79312471D02*
X159000002Y-80037502D01*
X158898232Y-69500000D02*
X158900001Y-69501769D01*
X158375000Y-61000000D02*
X158000000Y-61375000D01*
X163300000Y-74500000D02*
X162900000Y-74500000D01*
X157262500Y-78937500D02*
X158274971Y-78937500D01*
X160500000Y-60000000D02*
X160500000Y-61000000D01*
X160000000Y-82500000D02*
X160308860Y-82500000D01*
X168320000Y-59500000D02*
X169540000Y-58280000D01*
X160500000Y-76000000D02*
X160900000Y-75600000D01*
X162000000Y-57500000D02*
X162000000Y-58500000D01*
X161300000Y-74500000D02*
X161300000Y-75033860D01*
X165000000Y-62000000D02*
X165500000Y-62000000D01*
X160900000Y-75600000D02*
X160900000Y-74500000D01*
X159960000Y-83500000D02*
X160000000Y-83540000D01*
X158000000Y-61375000D02*
X158000000Y-59425000D01*
X158000000Y-84000000D02*
X158500000Y-84000000D01*
X155960000Y-84040000D02*
X156000000Y-84000000D01*
X158274971Y-78937500D02*
X158495180Y-78717291D01*
X159500000Y-61000000D02*
X158375000Y-61000000D01*
X158000000Y-69500000D02*
X158898232Y-69500000D01*
X165937500Y-78937500D02*
X166500000Y-79500000D01*
X160308860Y-82500000D02*
X160900000Y-81908860D01*
X163000000Y-59500000D02*
X162000000Y-58500000D01*
X159500000Y-61000000D02*
X160500000Y-61000000D01*
X156358578Y-66641422D02*
X154500000Y-64782844D01*
X161300000Y-75033860D02*
X161503640Y-75237500D01*
X165500000Y-62000000D02*
X166000000Y-61500000D01*
X161503640Y-75237500D02*
X162696360Y-75237500D01*
X156000000Y-84000000D02*
X157000000Y-84000000D01*
%TO.N,GND*%
X170690000Y-50183654D02*
X170016346Y-49510000D01*
X153900000Y-90000000D02*
X153900000Y-90600000D01*
X158500000Y-56020000D02*
X158500000Y-57000000D01*
X161335000Y-61960000D02*
X161375000Y-62000000D01*
X156180000Y-48000000D02*
X156000000Y-48000000D01*
X155380000Y-90338924D02*
X155631076Y-90590000D01*
X156300000Y-63148529D02*
X157651471Y-64500000D01*
X156935000Y-52780000D02*
X156935000Y-51065000D01*
X170500000Y-64940000D02*
X169540000Y-65900000D01*
X155380000Y-87643866D02*
X155380000Y-90338924D01*
X157500000Y-50500000D02*
X158000000Y-50500000D01*
X159496362Y-80637502D02*
X158733359Y-80637502D01*
X163750000Y-53095000D02*
X163750000Y-55250000D01*
X158500000Y-84960000D02*
X159000000Y-84460000D01*
X158000000Y-72000000D02*
X155197055Y-72000000D01*
X170690000Y-88283654D02*
X170016346Y-87610000D01*
X170690000Y-86696346D02*
X170016346Y-87370000D01*
X164040000Y-56540000D02*
X164500000Y-57000000D01*
X167490000Y-49510000D02*
X164820000Y-52180000D01*
X160720000Y-87980000D02*
X159700000Y-89000000D01*
X159700000Y-80841140D02*
X159496362Y-80637502D01*
X153200000Y-91300000D02*
X151760000Y-91300000D01*
X156000000Y-48000000D02*
X154000000Y-46000000D01*
X156595000Y-68000000D02*
X157095000Y-68500000D01*
X155300000Y-90800000D02*
X156000000Y-91500000D01*
X161000000Y-57833273D02*
X161292779Y-58126052D01*
X170500000Y-64500000D02*
X170500000Y-64940000D01*
X169540000Y-91300000D02*
X170690000Y-90150000D01*
X156105000Y-68895000D02*
X156105000Y-68000000D01*
X158080000Y-87380000D02*
X155643866Y-87380000D01*
X155649999Y-71350000D02*
X155500000Y-71350000D01*
X169540000Y-53200000D02*
X170690000Y-52050000D01*
X170016346Y-87370000D02*
X167370000Y-87370000D01*
X160910000Y-90590000D02*
X162000000Y-89500000D01*
X157520000Y-68075000D02*
X157095000Y-68500000D01*
X170016346Y-49510000D02*
X167490000Y-49510000D01*
X158000000Y-84960000D02*
X158500000Y-84960000D01*
X161000000Y-84460000D02*
X159000000Y-84460000D01*
X155300000Y-49800000D02*
X154000000Y-48500000D01*
X153900000Y-90600000D02*
X153200000Y-91300000D01*
X157520000Y-68000000D02*
X157520000Y-68075000D01*
X158500000Y-57000000D02*
X159000000Y-57500000D01*
X155000000Y-85000000D02*
X155300000Y-85300000D01*
X158900000Y-64886172D02*
X159484246Y-65470418D01*
X155098527Y-71901472D02*
X155197055Y-72000000D01*
X156300000Y-62500000D02*
X156400000Y-62400000D01*
X156000000Y-69000000D02*
X156105000Y-68895000D01*
X158733359Y-80637502D02*
X158200000Y-80104143D01*
X158900000Y-64500000D02*
X158900000Y-64886172D01*
X156400000Y-62400000D02*
X159060000Y-62400000D01*
X154848529Y-53200000D02*
X155300000Y-52748529D01*
X156450000Y-62350000D02*
X156450000Y-61375000D01*
X156935000Y-51065000D02*
X157500000Y-50500000D01*
X164040000Y-63000000D02*
X165500000Y-63000000D01*
X161335000Y-61960000D02*
X161215000Y-61960000D01*
X162000000Y-56540000D02*
X164040000Y-56540000D01*
X157095000Y-69220001D02*
X157095000Y-71095000D01*
X165300000Y-83606346D02*
X165300000Y-82500000D01*
X170016346Y-87370000D02*
X169063654Y-87370000D01*
X157250000Y-53095000D02*
X156935000Y-52780000D01*
X166890000Y-87610000D02*
X166000000Y-88500000D01*
X157775962Y-71775962D02*
X158000000Y-72000000D01*
X155300000Y-52748529D02*
X155300000Y-49800000D01*
X161215000Y-61960000D02*
X161175000Y-62000000D01*
X170690000Y-79750000D02*
X170690000Y-86696346D01*
X158000000Y-84960000D02*
X155040000Y-84960000D01*
X170690000Y-52050000D02*
X170690000Y-50183654D01*
X156105000Y-68000000D02*
X156595000Y-68000000D01*
X170690000Y-90150000D02*
X170690000Y-88283654D01*
X159060000Y-62400000D02*
X159500000Y-61960000D01*
X163000000Y-61960000D02*
X164040000Y-63000000D01*
X156105000Y-68000000D02*
X156023924Y-68000000D01*
X163750000Y-55250000D02*
X164000000Y-55500000D01*
X157095000Y-71095000D02*
X158000000Y-72000000D01*
X157651471Y-64500000D02*
X158900000Y-64500000D01*
X155300000Y-85300000D02*
X155300000Y-90800000D01*
X157095000Y-68500000D02*
X157095000Y-69220001D01*
X161000000Y-57520000D02*
X161000000Y-57833273D01*
X159700000Y-89000000D02*
X158080000Y-87380000D01*
X159700000Y-81375000D02*
X159700000Y-80841140D01*
X156840000Y-71350000D02*
X155649999Y-71350000D01*
X167370000Y-87370000D02*
X165000000Y-85000000D01*
X169540000Y-78600000D02*
X170690000Y-79750000D01*
X155500000Y-71350000D02*
X155150000Y-71000000D01*
X161500000Y-87980000D02*
X160720000Y-87980000D01*
X157095000Y-71095000D02*
X156840000Y-71350000D01*
X169063654Y-87370000D02*
X165300000Y-83606346D01*
X151760000Y-53200000D02*
X154848529Y-53200000D01*
X160500000Y-61960000D02*
X161335000Y-61960000D01*
X156300000Y-62500000D02*
X156300000Y-63148529D01*
X156300000Y-62500000D02*
X156450000Y-62350000D01*
X155643866Y-87380000D02*
X155380000Y-87643866D01*
X155040000Y-84960000D02*
X155000000Y-85000000D01*
X170016346Y-87610000D02*
X166890000Y-87610000D01*
X155631076Y-90590000D02*
X160910000Y-90590000D01*
X157095000Y-69220001D02*
X157095000Y-70500000D01*
%TO.N,XIN*%
X161220000Y-87300000D02*
X161500000Y-87020000D01*
X161500000Y-87020000D02*
X161500000Y-86500000D01*
X160100000Y-80437502D02*
X160100000Y-81375000D01*
X159700000Y-87300000D02*
X161220000Y-87300000D01*
X161500000Y-86500000D02*
X161000000Y-86000000D01*
X160500000Y-80037502D02*
X160100000Y-80437502D01*
%TO.N,VBUS*%
X157000000Y-57500000D02*
X157000000Y-55500000D01*
X162950000Y-52370001D02*
X161679999Y-51100000D01*
X162950000Y-53095000D02*
X162950000Y-52370001D01*
X158050000Y-52370001D02*
X158050000Y-53095000D01*
X157000000Y-55000000D02*
X157000000Y-55500000D01*
X158050000Y-53095000D02*
X158050000Y-53950000D01*
X161679999Y-51100000D02*
X159320001Y-51100000D01*
X163585406Y-50500000D02*
X164500000Y-50500000D01*
X166880000Y-48120000D02*
X169540000Y-48120000D01*
X162950000Y-53095000D02*
X162715000Y-52860000D01*
X162715000Y-52860000D02*
X162715000Y-51370406D01*
X158050000Y-53950000D02*
X157000000Y-55000000D01*
X162715000Y-51370406D02*
X163585406Y-50500000D01*
X164500000Y-50500000D02*
X166880000Y-48120000D01*
X159320001Y-51100000D02*
X158050000Y-52370001D01*
%TO.N,+1V1*%
X161000000Y-83500000D02*
X161300000Y-83200000D01*
X161862500Y-80637500D02*
X162800002Y-79699998D01*
X162906371Y-73500000D02*
X163000000Y-73500000D01*
X161300000Y-81375000D02*
X161300000Y-80841140D01*
X160500000Y-70000000D02*
X160500000Y-74500000D01*
X161000000Y-73500000D02*
X160966140Y-73500000D01*
X160966140Y-73500000D02*
X160500000Y-73966140D01*
X160500000Y-73966140D02*
X160500000Y-74500000D01*
X161300000Y-80841140D02*
X161503640Y-80637500D01*
X161300000Y-83200000D02*
X161300000Y-81375000D01*
X158480000Y-68000000D02*
X158500000Y-68000000D01*
X161000000Y-67960000D02*
X160500000Y-68460000D01*
X162800002Y-79699998D02*
X162800002Y-77000000D01*
X162500000Y-73906371D02*
X162906371Y-73500000D01*
X158500000Y-68000000D02*
X160500000Y-70000000D01*
X160500000Y-68460000D02*
X160500000Y-70000000D01*
X161503640Y-80637500D02*
X161862500Y-80637500D01*
X162500000Y-74500000D02*
X162500000Y-73906371D01*
%TO.N,Net-(J1-CC2)*%
X158750000Y-54750000D02*
X158500000Y-55000000D01*
X158750000Y-53095000D02*
X158750000Y-54750000D01*
%TO.N,Net-(R6-Pad1)*%
X163980000Y-64500000D02*
X164500000Y-63980000D01*
X163100000Y-64500000D02*
X163980000Y-64500000D01*
%TO.N,GPIO29_ADC3*%
X164500000Y-71868628D02*
X164500000Y-72000000D01*
X166651472Y-63651472D02*
X166000000Y-64302944D01*
X169540000Y-50660000D02*
X166651472Y-53548528D01*
X166000000Y-70368628D02*
X164500000Y-71868628D01*
X166000000Y-64302944D02*
X166000000Y-70368628D01*
X164137500Y-75737500D02*
X162724755Y-75737500D01*
X166651472Y-53548528D02*
X166651472Y-63651472D01*
X162724755Y-75737500D02*
X162554902Y-75907353D01*
%TO.N,GPIO28_ADC2*%
X166600000Y-70334314D02*
X166600000Y-64268628D01*
X167067157Y-63801472D02*
X167067157Y-58212843D01*
X165100000Y-75708860D02*
X165100000Y-71834314D01*
X167067157Y-58212843D02*
X169540000Y-55740000D01*
X165100000Y-71834314D02*
X166600000Y-70334314D01*
X164671360Y-76137500D02*
X165100000Y-75708860D01*
X166600000Y-64268628D02*
X167067157Y-63801472D01*
X164137500Y-76137500D02*
X164671360Y-76137500D01*
%TO.N,GPIO27_ADC1*%
X165500000Y-76000000D02*
X165500000Y-72000000D01*
X168000000Y-62960000D02*
X168000000Y-62360000D01*
X168000000Y-62360000D02*
X169540000Y-60820000D01*
X167467157Y-63967157D02*
X167467157Y-63467158D01*
X167467157Y-63467158D02*
X167974315Y-62960000D01*
X167000000Y-64434314D02*
X167467157Y-63967157D01*
X164137500Y-76537500D02*
X164962500Y-76537500D01*
X167000000Y-70500000D02*
X167000000Y-64434314D01*
X165500000Y-72000000D02*
X167000000Y-70500000D01*
X167974315Y-62960000D02*
X168000000Y-62960000D01*
X164962500Y-76537500D02*
X165500000Y-76000000D01*
%TO.N,GPIO26_ADC0*%
X164137500Y-76937500D02*
X164671360Y-76937500D01*
X168000000Y-63500000D02*
X168140000Y-63360000D01*
X167500000Y-64500000D02*
X168000000Y-64000000D01*
X166100000Y-76737500D02*
X166100000Y-72227968D01*
X164671360Y-76937500D02*
X165071360Y-77337500D01*
X165500000Y-77337500D02*
X166100000Y-76737500D01*
X165071360Y-77337500D02*
X165500000Y-77337500D01*
X167500000Y-70827968D02*
X167500000Y-64500000D01*
X166100000Y-72227968D02*
X167500000Y-70827968D01*
X168000000Y-64000000D02*
X168000000Y-63500000D01*
X168140000Y-63360000D02*
X169540000Y-63360000D01*
%TO.N,GPIO24*%
X168446827Y-70446827D02*
X168446827Y-69533173D01*
X168446827Y-69533173D02*
X169540000Y-68440000D01*
X165762500Y-77737500D02*
X166500000Y-77000000D01*
X166500000Y-72393654D02*
X168446827Y-70446827D01*
X164137500Y-77737500D02*
X165762500Y-77737500D01*
X166500000Y-77000000D02*
X166500000Y-72393654D01*
%TO.N,GPIO23*%
X164137500Y-78137500D02*
X166362500Y-78137500D01*
X167000000Y-77500000D02*
X167000000Y-72500000D01*
X167000000Y-72500000D02*
X168520000Y-70980000D01*
X166362500Y-78137500D02*
X167000000Y-77500000D01*
X168520000Y-70980000D02*
X169540000Y-70980000D01*
%TO.N,RUN*%
X163001217Y-80637500D02*
X162703640Y-80637500D01*
X163202118Y-80436599D02*
X163001217Y-80637500D01*
X167600000Y-75460000D02*
X167600000Y-76000000D01*
X169540000Y-73520000D02*
X167600000Y-75460000D01*
X162703640Y-80637500D02*
X162500000Y-80841140D01*
X162500000Y-80841140D02*
X162500000Y-81375000D01*
%TO.N,GPIO22*%
X167062500Y-78537500D02*
X164137500Y-78537500D01*
X169540000Y-76060000D02*
X167062500Y-78537500D01*
%TO.N,GPIO21*%
X167000000Y-81302944D02*
X167162944Y-81140000D01*
X165034556Y-79337500D02*
X167000000Y-81302944D01*
X164137500Y-79337500D02*
X165034556Y-79337500D01*
X167162944Y-81140000D02*
X169540000Y-81140000D01*
%TO.N,GPIO20*%
X166500000Y-81368629D02*
X164868870Y-79737500D01*
X169540000Y-83680000D02*
X168320000Y-83680000D01*
X168320000Y-83680000D02*
X168000000Y-84000000D01*
X168000000Y-84000000D02*
X166500000Y-82500000D01*
X166500000Y-82500000D02*
X166500000Y-81368629D01*
X164868870Y-79737500D02*
X164137500Y-79737500D01*
%TO.N,GPIO19*%
X164137500Y-80137500D02*
X164703185Y-80137500D01*
X165900000Y-82580000D02*
X169540000Y-86220000D01*
X165900000Y-81334315D02*
X165900000Y-82580000D01*
X164703185Y-80137500D02*
X165900000Y-81334315D01*
%TO.N,GPIO18*%
X163700000Y-89200000D02*
X163700000Y-82300000D01*
X164500000Y-81500000D02*
X165500000Y-81500000D01*
X166000000Y-91500000D02*
X163700000Y-89200000D01*
X165500000Y-81500000D02*
X164537500Y-80537500D01*
X169540000Y-88760000D02*
X166800000Y-91500000D01*
X166800000Y-91500000D02*
X166000000Y-91500000D01*
X163700000Y-82300000D02*
X164500000Y-81500000D01*
X164537500Y-80537500D02*
X164137500Y-80537500D01*
%TO.N,GPIO17*%
X163300000Y-81375000D02*
X163300000Y-89574314D01*
X163300000Y-89574314D02*
X167565686Y-93840000D01*
X167565686Y-93840000D02*
X169540000Y-93840000D01*
%TO.N,GPIO16*%
X162900000Y-89740000D02*
X169540000Y-96380000D01*
X162900000Y-81375000D02*
X162900000Y-89740000D01*
%TO.N,Net-(33pF2-Pad2)*%
X156000000Y-89000000D02*
X156000000Y-87960000D01*
X156000000Y-89000000D02*
X157500000Y-89000000D01*
%TO.N,XOUT*%
X156000000Y-90020000D02*
X160396134Y-90020000D01*
X162110000Y-85610000D02*
X162000000Y-85500000D01*
X161500000Y-80037502D02*
X160900002Y-80637500D01*
X161991302Y-85508698D02*
X161991302Y-85514496D01*
X160900002Y-80637500D02*
X160703640Y-80637500D01*
X162000000Y-85500000D02*
X161991302Y-85508698D01*
X160703640Y-80637500D02*
X160500000Y-80841140D01*
X160500000Y-80841140D02*
X160500000Y-81375000D01*
X162110000Y-88306134D02*
X162110000Y-85610000D01*
X160396134Y-90020000D02*
X162110000Y-88306134D01*
%TO.N,SWCLK*%
X160000000Y-94000000D02*
X158000000Y-96000000D01*
X162300000Y-84000000D02*
X162300000Y-83848529D01*
X162300000Y-83848529D02*
X161700000Y-83248529D01*
X161700000Y-81375000D02*
X161700000Y-83248529D01*
%TO.N,SWD*%
X162300000Y-83000000D02*
X162100000Y-82800000D01*
X162100000Y-82800000D02*
X162100000Y-81375000D01*
%TO.N,QSPI_SS*%
X154001372Y-72900000D02*
X154601372Y-73500000D01*
X160000000Y-66000000D02*
X159766281Y-66000000D01*
X158232992Y-66667305D02*
X158232992Y-66384462D01*
X159432992Y-66667305D02*
X159081521Y-67018776D01*
X156958578Y-66889951D02*
X156607107Y-67241422D01*
X155085000Y-68500000D02*
X155085000Y-69435000D01*
X157000000Y-63000000D02*
X159112648Y-63000000D01*
X159081521Y-67018776D02*
X158584463Y-67018776D01*
X158232992Y-66384462D02*
X157716765Y-65868235D01*
X155258578Y-67241422D02*
X155085000Y-67415000D01*
X157716765Y-65868235D02*
X156958578Y-66626422D01*
X159112648Y-63000000D02*
X160000000Y-63887352D01*
X154000000Y-72900000D02*
X154001372Y-72900000D01*
X160500000Y-65500000D02*
X160000000Y-66000000D01*
X156522865Y-74500000D02*
X158100000Y-74500000D01*
X156607107Y-67241422D02*
X155258578Y-67241422D01*
X158584463Y-67018776D02*
X158232992Y-66667305D01*
X156958578Y-66626422D02*
X156958578Y-66889951D01*
X155085000Y-69435000D02*
X155150000Y-69500000D01*
X164500000Y-65000000D02*
X164500000Y-65500000D01*
X155150000Y-69500000D02*
X154000000Y-69500000D01*
X164500000Y-65500000D02*
X163000000Y-67000000D01*
X159432992Y-66333289D02*
X159432992Y-66667305D01*
X154000000Y-69500000D02*
X153500000Y-70000000D01*
X155085000Y-67415000D02*
X155085000Y-68500000D01*
X159766281Y-66000000D02*
X159432992Y-66333289D01*
X155385591Y-73362726D02*
X156522865Y-74500000D01*
X160000000Y-63887352D02*
X160000000Y-64600000D01*
X153500000Y-72000000D02*
X154000000Y-72500000D01*
X154751259Y-73500000D02*
X154888533Y-73362726D01*
X153500000Y-70000000D02*
X153500000Y-72000000D01*
X154888533Y-73362726D02*
X155385591Y-73362726D01*
X160500000Y-65100000D02*
X160500000Y-65500000D01*
X154601372Y-73500000D02*
X154751259Y-73500000D01*
X154000000Y-72500000D02*
X154000000Y-72900000D01*
X160000000Y-64600000D02*
X160500000Y-65100000D01*
%TO.N,GPIO0*%
X158000000Y-75533860D02*
X157796360Y-75737500D01*
X158000000Y-75533860D02*
X158176131Y-75533860D01*
X158156832Y-75603595D02*
X158053237Y-75500000D01*
X158053237Y-75500000D02*
X158000000Y-75500000D01*
X157796360Y-75737500D02*
X157262500Y-75737500D01*
X158000000Y-75500000D02*
X158000000Y-75533860D01*
X158176131Y-75533860D02*
X158179771Y-75537500D01*
%TO.N,GPIO1*%
X153600000Y-52500000D02*
X154700000Y-52500000D01*
X159000000Y-75500000D02*
X159054478Y-75554478D01*
X158471456Y-76137500D02*
X157262500Y-76137500D01*
X151760000Y-50660000D02*
X153600000Y-52500000D01*
X159054478Y-75554478D02*
X158471456Y-76137500D01*
%TO.N,GPIO2*%
X158189032Y-76930172D02*
X158189032Y-77978185D01*
X151760000Y-56463052D02*
X155700000Y-60403052D01*
X157262500Y-76537500D02*
X157796360Y-76537500D01*
X155700000Y-63285784D02*
X158832992Y-66418776D01*
X151760000Y-55740000D02*
X151760000Y-56463052D01*
X155700000Y-60403052D02*
X155700000Y-63285784D01*
X157796360Y-76537500D02*
X158189032Y-76930172D01*
%TO.N,GPIO3*%
X155590483Y-74500000D02*
X155659267Y-74568784D01*
X156471604Y-76708860D02*
X156500000Y-76708860D01*
X152980000Y-59500000D02*
X151760000Y-58280000D01*
X155400000Y-75400000D02*
X156000000Y-76000000D01*
X153500000Y-59500000D02*
X152980000Y-59500000D01*
X156400000Y-76637256D02*
X156471604Y-76708860D01*
X155400000Y-74828051D02*
X155400000Y-75400000D01*
X155659267Y-74568784D02*
X155400000Y-74828051D01*
X156000000Y-76043174D02*
X156400000Y-76443175D01*
X156728640Y-76937500D02*
X157262500Y-76937500D01*
X156400000Y-76443175D02*
X156400000Y-76637256D01*
X156500000Y-76708860D02*
X156728640Y-76937500D01*
X156000000Y-76000000D02*
X156000000Y-76043174D01*
%TO.N,GPIO4*%
X156000000Y-76802942D02*
X156000000Y-76608860D01*
X155000000Y-74000000D02*
X155099788Y-74000000D01*
X155099788Y-74000000D02*
X155137062Y-73962726D01*
X157262500Y-77337500D02*
X156534558Y-77337500D01*
X155491140Y-76100000D02*
X155165686Y-76100000D01*
X156000000Y-76608860D02*
X155491140Y-76100000D01*
X153374265Y-64125735D02*
X153374265Y-62434265D01*
X153374265Y-62434265D02*
X151760000Y-60820000D01*
X155165686Y-76100000D02*
X155000000Y-75934314D01*
X155000000Y-75934314D02*
X155000000Y-74000000D01*
X156534558Y-77337500D02*
X156000000Y-76802942D01*
%TO.N,GPIO5*%
X157262500Y-77737500D02*
X156368872Y-77737500D01*
X154500000Y-76000000D02*
X154500000Y-74268011D01*
X154352843Y-74147156D02*
X154352843Y-74120854D01*
X155000000Y-76500000D02*
X154500000Y-76000000D01*
X155131372Y-76500000D02*
X155000000Y-76500000D01*
X154500000Y-74268011D02*
X154352843Y-74120854D01*
X156368872Y-77737500D02*
X155131372Y-76500000D01*
X154218527Y-74281472D02*
X154352843Y-74147156D01*
%TO.N,GPIO6*%
X153752843Y-74272843D02*
X153752843Y-73500000D01*
X157262500Y-78137500D02*
X156203186Y-78137500D01*
X156203186Y-78137500D02*
X155065686Y-77000000D01*
X155065686Y-77000000D02*
X154500000Y-77000000D01*
X153698528Y-74327158D02*
X153752843Y-74272843D01*
X154500000Y-77000000D02*
X154000000Y-76500000D01*
X154000000Y-74628630D02*
X153698528Y-74327158D01*
X154000000Y-76500000D02*
X154000000Y-74628630D01*
%TO.N,GPIO7*%
X155000000Y-77500000D02*
X154331372Y-77500000D01*
X153532843Y-74727158D02*
X153152843Y-74347157D01*
X153152843Y-72372843D02*
X151760000Y-70980000D01*
X157262500Y-78537500D02*
X156037500Y-78537500D01*
X153532843Y-76701471D02*
X153532843Y-74727158D01*
X156037500Y-78537500D02*
X155000000Y-77500000D01*
X153152843Y-74347157D02*
X153152843Y-72372843D01*
X154331372Y-77500000D02*
X153532843Y-76701471D01*
%TO.N,GPIO8*%
X155603186Y-79337500D02*
X157262500Y-79337500D01*
X151760000Y-73520000D02*
X153132843Y-74892843D01*
X153132843Y-74892843D02*
X153132843Y-76867157D01*
X153132843Y-76867157D02*
X155603186Y-79337500D01*
%TO.N,GPIO9*%
X155437500Y-79737500D02*
X157262500Y-79737500D01*
X151760000Y-76060000D02*
X155437500Y-79737500D01*
%TO.N,GPIO10*%
X152762500Y-80137500D02*
X157262500Y-80137500D01*
X151760000Y-81140000D02*
X152762500Y-80137500D01*
%TO.N,GPIO11*%
X154902500Y-80537500D02*
X151760000Y-83680000D01*
X157262500Y-80537500D02*
X154902500Y-80537500D01*
%TO.N,GPIO12*%
X155005686Y-81000000D02*
X153000000Y-83005686D01*
X157475000Y-82000000D02*
X157000000Y-82000000D01*
X158100000Y-81375000D02*
X157475000Y-82000000D01*
X156500000Y-81000000D02*
X155005686Y-81000000D01*
X157000000Y-82000000D02*
X156500000Y-81500000D01*
X153000000Y-84980000D02*
X151760000Y-86220000D01*
X153000000Y-83005686D02*
X153000000Y-84980000D01*
X156500000Y-81500000D02*
X156500000Y-81000000D01*
%TO.N,GPIO13*%
X158500000Y-81375000D02*
X158500000Y-82000000D01*
X153000000Y-87520000D02*
X151760000Y-88760000D01*
X155071372Y-81500000D02*
X153500000Y-83071372D01*
X153500000Y-83071372D02*
X153500000Y-85500000D01*
X156000000Y-81500000D02*
X155071372Y-81500000D01*
X158000000Y-82500000D02*
X156934315Y-82500000D01*
X158500000Y-82000000D02*
X158000000Y-82500000D01*
X153000000Y-86000000D02*
X153000000Y-87520000D01*
X156934315Y-82500000D02*
X156000000Y-81565685D01*
X153500000Y-85500000D02*
X153000000Y-86000000D01*
%TO.N,GPIO14*%
X156000000Y-82131371D02*
X155005687Y-82131371D01*
X155005687Y-82131371D02*
X153900000Y-83237058D01*
X158065686Y-83000000D02*
X156868629Y-83000000D01*
X156868629Y-83000000D02*
X156000000Y-82131371D01*
X153660000Y-93840000D02*
X151760000Y-93840000D01*
X154500000Y-86700000D02*
X154500000Y-93000000D01*
X153900000Y-86100000D02*
X154500000Y-86700000D01*
X153900000Y-83237058D02*
X153900000Y-86100000D01*
X158900000Y-82165686D02*
X158065686Y-83000000D01*
X158900000Y-81375000D02*
X158900000Y-82165686D01*
X154500000Y-93000000D02*
X153660000Y-93840000D01*
%TO.N,GPIO15*%
X154900000Y-93240000D02*
X151760000Y-96380000D01*
X159300000Y-82614215D02*
X159300000Y-81375000D01*
X154300000Y-83402744D02*
X154300000Y-85934314D01*
X155242794Y-82742794D02*
X154959950Y-82742794D01*
X154300000Y-85934314D02*
X154900000Y-86534314D01*
X154959950Y-82742794D02*
X154300000Y-83402744D01*
X154900000Y-86534314D02*
X154900000Y-93240000D01*
X159223151Y-82691064D02*
X159300000Y-82614215D01*
%TO.N,USB_MCU_N*%
X162100000Y-74500000D02*
X162100000Y-73740686D01*
X162225000Y-73255001D02*
X162500000Y-72980001D01*
X162500000Y-72980001D02*
X162500000Y-72500000D01*
X162225000Y-73615686D02*
X162225000Y-73255001D01*
X162100000Y-73740686D02*
X162225000Y-73615686D01*
%TO.N,USB_MCU_P*%
X161500000Y-72500000D02*
X161500000Y-72980001D01*
X161700000Y-73575000D02*
X161775000Y-73500000D01*
X161700000Y-74500000D02*
X161700000Y-73575000D01*
X161500000Y-72980001D02*
X161775000Y-73255001D01*
X161775000Y-73255001D02*
X161775000Y-73500000D01*
%TO.N,QSPI_SD3*%
X158565685Y-70000000D02*
X160100000Y-71534315D01*
X160100000Y-71534315D02*
X160100000Y-74500000D01*
X158000000Y-70000000D02*
X158565685Y-70000000D01*
%TO.N,QSPI_SCLK*%
X158500000Y-70500000D02*
X159700000Y-71700000D01*
X158000000Y-70500000D02*
X158500000Y-70500000D01*
X159700000Y-71700000D02*
X159700000Y-74500000D01*
%TO.N,QSPI_SD0*%
X159300000Y-72300000D02*
X159300000Y-74500000D01*
X158000000Y-71000000D02*
X159300000Y-72300000D01*
%TO.N,QSPI_SD2*%
X154800000Y-72300000D02*
X155062726Y-72562726D01*
X154400000Y-70665686D02*
X154400000Y-71768629D01*
X158199546Y-73100000D02*
X158900000Y-73800455D01*
X156754238Y-73600000D02*
X157000000Y-73600000D01*
X157500001Y-73100000D02*
X158199546Y-73100000D01*
X155150000Y-70500000D02*
X155614386Y-70500000D01*
X158900000Y-73800455D02*
X158900000Y-74500000D01*
X155150000Y-70500000D02*
X154565686Y-70500000D01*
X157000000Y-73600000D02*
X157500001Y-73100000D01*
X155062726Y-72562726D02*
X155716963Y-72562726D01*
X154800000Y-72168630D02*
X154800000Y-72300000D01*
X154565686Y-70500000D02*
X154400000Y-70665686D01*
X154400000Y-71768629D02*
X154800000Y-72168630D01*
X155716963Y-72562726D02*
X156754238Y-73600000D01*
%TO.N,QSPI_SD1*%
X157665686Y-73500000D02*
X158033860Y-73500000D01*
X154400000Y-72732942D02*
X154629784Y-72962726D01*
X158033860Y-73500000D02*
X158500000Y-73966140D01*
X154500000Y-70000000D02*
X154000000Y-70500000D01*
X158500000Y-73966140D02*
X158500000Y-74500000D01*
X154000000Y-70500000D02*
X154000000Y-71934314D01*
X155551277Y-72962726D02*
X156588551Y-74000000D01*
X156588551Y-74000000D02*
X157165686Y-74000000D01*
X154629784Y-72962726D02*
X155551277Y-72962726D01*
X154400000Y-72334315D02*
X154400000Y-72732942D01*
X157165686Y-74000000D02*
X157665686Y-73500000D01*
X155150000Y-70000000D02*
X154500000Y-70000000D01*
X154000000Y-71934314D02*
X154400000Y-72334315D01*
%TO.N,USB_D+*%
X161535000Y-69935235D02*
X161317247Y-69935235D01*
X159750000Y-51750000D02*
X160000000Y-51500000D01*
X161500000Y-70999999D02*
X161775000Y-70724999D01*
X160500000Y-51500000D02*
X160750000Y-51750000D01*
X160750000Y-51750000D02*
X160750000Y-53095000D01*
X161077247Y-69695235D02*
X161077247Y-69575235D01*
X161500000Y-71480000D02*
X161500000Y-70999999D01*
X161775000Y-69095235D02*
X161775000Y-68975235D01*
X159750000Y-53095000D02*
X159750000Y-51750000D01*
X161317247Y-69335235D02*
X161535000Y-69335235D01*
X160000000Y-51500000D02*
X160500000Y-51500000D01*
X159750000Y-54182501D02*
X159750000Y-53095000D01*
X159775000Y-58093198D02*
X159775000Y-54207501D01*
X161775000Y-68975235D02*
X161775000Y-60093198D01*
X161775000Y-60093198D02*
X159775000Y-58093198D01*
X159775000Y-54207501D02*
X159750000Y-54182501D01*
X161775000Y-70724999D02*
X161775000Y-70175235D01*
X161775000Y-70175235D02*
G75*
G03*
X161535000Y-69935200I-240000J35D01*
G01*
X161317247Y-69935235D02*
G75*
G02*
X161077165Y-69695235I-47J240035D01*
G01*
X161535000Y-69335235D02*
G75*
G03*
X161775035Y-69095235I0J240035D01*
G01*
X161077247Y-69575235D02*
G75*
G02*
X161317247Y-69335247I239953J35D01*
G01*
%TO.N,Net-(J1-CC1)*%
X161750000Y-55750000D02*
X161000000Y-56500000D01*
X161750000Y-53095000D02*
X161750000Y-55750000D01*
%TO.N,USB_D-*%
X160225000Y-57906802D02*
X162225000Y-59906802D01*
X160250000Y-54182501D02*
X160225000Y-54207501D01*
X160250000Y-53095000D02*
X160250000Y-54182501D01*
X162500000Y-71116397D02*
X162500000Y-71480000D01*
X162500000Y-70999999D02*
X162500000Y-71480000D01*
X160250000Y-54750000D02*
X160500000Y-55000000D01*
X160500000Y-55000000D02*
X161000000Y-55000000D01*
X161250000Y-54750000D02*
X161250000Y-53095000D01*
X162225000Y-59906802D02*
X162225000Y-70724999D01*
X162225000Y-70724999D02*
X162500000Y-70999999D01*
X161000000Y-55000000D02*
X161250000Y-54750000D01*
X160250000Y-53095000D02*
X160250000Y-54750000D01*
X160225000Y-54207501D02*
X160225000Y-57906802D01*
%TD*%
%TA.AperFunction,Conductor*%
%TO.N,GND*%
G36*
X153605703Y-86372542D02*
G01*
X153612181Y-86378574D01*
X154063181Y-86829574D01*
X154096666Y-86890897D01*
X154099500Y-86917255D01*
X154099500Y-92782745D01*
X154079815Y-92849784D01*
X154063181Y-92870426D01*
X153530426Y-93403181D01*
X153469103Y-93436666D01*
X153442745Y-93439500D01*
X152923160Y-93439500D01*
X152856121Y-93419815D01*
X152812675Y-93371795D01*
X152772387Y-93292727D01*
X152743996Y-93237006D01*
X152702332Y-93179660D01*
X152637558Y-93090505D01*
X152637554Y-93090500D01*
X152509499Y-92962445D01*
X152509494Y-92962441D01*
X152362995Y-92856004D01*
X152231314Y-92788908D01*
X152180519Y-92740934D01*
X152163724Y-92673113D01*
X152186262Y-92606978D01*
X152240977Y-92563527D01*
X152249295Y-92560492D01*
X152278217Y-92551095D01*
X152467554Y-92454622D01*
X152521716Y-92415270D01*
X152521717Y-92415270D01*
X151889408Y-91782962D01*
X151952993Y-91765925D01*
X152067007Y-91700099D01*
X152160099Y-91607007D01*
X152225925Y-91492993D01*
X152242962Y-91429408D01*
X152875270Y-92061717D01*
X152875270Y-92061716D01*
X152914622Y-92007554D01*
X153011095Y-91818217D01*
X153076757Y-91616130D01*
X153076757Y-91616127D01*
X153110000Y-91406246D01*
X153110000Y-91193753D01*
X153076757Y-90983872D01*
X153076757Y-90983869D01*
X153011095Y-90781782D01*
X152914624Y-90592449D01*
X152875270Y-90538282D01*
X152875269Y-90538282D01*
X152242962Y-91170590D01*
X152225925Y-91107007D01*
X152160099Y-90992993D01*
X152067007Y-90899901D01*
X151952993Y-90834075D01*
X151889409Y-90817037D01*
X152521716Y-90184728D01*
X152467550Y-90145375D01*
X152278217Y-90048904D01*
X152249292Y-90039506D01*
X152191616Y-90000068D01*
X152164418Y-89935710D01*
X152176333Y-89866863D01*
X152223577Y-89815388D01*
X152231315Y-89811090D01*
X152362994Y-89743996D01*
X152509501Y-89637553D01*
X152637553Y-89509501D01*
X152743996Y-89362994D01*
X152826211Y-89201639D01*
X152882171Y-89029409D01*
X152896765Y-88937259D01*
X152910500Y-88850551D01*
X152910500Y-88669448D01*
X152886581Y-88518436D01*
X152882171Y-88490591D01*
X152835424Y-88346716D01*
X152833429Y-88276875D01*
X152865672Y-88220719D01*
X153320480Y-87765913D01*
X153373207Y-87674588D01*
X153400500Y-87572727D01*
X153400500Y-87467273D01*
X153400500Y-86466255D01*
X153420185Y-86399216D01*
X153472989Y-86353461D01*
X153542147Y-86343517D01*
X153605703Y-86372542D01*
G37*
%TD.AperFunction*%
%TA.AperFunction,Conductor*%
G36*
X168153028Y-90815876D02*
G01*
X168208962Y-90857747D01*
X168233379Y-90923212D01*
X168227628Y-90970370D01*
X168223243Y-90983866D01*
X168223242Y-90983872D01*
X168190000Y-91193753D01*
X168190000Y-91406246D01*
X168223242Y-91616127D01*
X168223242Y-91616130D01*
X168288904Y-91818217D01*
X168385375Y-92007550D01*
X168424728Y-92061716D01*
X169057037Y-91429408D01*
X169074075Y-91492993D01*
X169139901Y-91607007D01*
X169232993Y-91700099D01*
X169347007Y-91765925D01*
X169410590Y-91782962D01*
X168778282Y-92415269D01*
X168778282Y-92415270D01*
X168832449Y-92454624D01*
X169021780Y-92551094D01*
X169050705Y-92560492D01*
X169108381Y-92599929D01*
X169135580Y-92664287D01*
X169123667Y-92733134D01*
X169076424Y-92784610D01*
X169068685Y-92788908D01*
X168937004Y-92856004D01*
X168790505Y-92962441D01*
X168790500Y-92962445D01*
X168662445Y-93090500D01*
X168662441Y-93090505D01*
X168556006Y-93237002D01*
X168487325Y-93371795D01*
X168439350Y-93422591D01*
X168376840Y-93439500D01*
X167782941Y-93439500D01*
X167715902Y-93419815D01*
X167695260Y-93403181D01*
X166404260Y-92112181D01*
X166370775Y-92050858D01*
X166375759Y-91981166D01*
X166417631Y-91925233D01*
X166483095Y-91900816D01*
X166491941Y-91900500D01*
X166852725Y-91900500D01*
X166852727Y-91900500D01*
X166954588Y-91873207D01*
X167045913Y-91820480D01*
X168022017Y-90844375D01*
X168083337Y-90810892D01*
X168153028Y-90815876D01*
G37*
%TD.AperFunction*%
%TA.AperFunction,Conductor*%
G36*
X165442539Y-81920185D02*
G01*
X165488294Y-81972989D01*
X165499500Y-82024500D01*
X165499500Y-82527273D01*
X165499500Y-82632727D01*
X165507809Y-82663737D01*
X165526793Y-82734589D01*
X165536571Y-82751524D01*
X165579520Y-82825913D01*
X165579522Y-82825915D01*
X168434325Y-85680718D01*
X168467810Y-85742041D01*
X168464575Y-85806716D01*
X168417829Y-85950587D01*
X168389500Y-86129448D01*
X168389500Y-86310551D01*
X168417829Y-86489410D01*
X168473787Y-86661636D01*
X168473788Y-86661639D01*
X168556006Y-86822997D01*
X168662441Y-86969494D01*
X168662445Y-86969499D01*
X168790500Y-87097554D01*
X168790505Y-87097558D01*
X168918287Y-87190396D01*
X168937006Y-87203996D01*
X169013632Y-87243039D01*
X169098360Y-87286211D01*
X169098363Y-87286212D01*
X169149245Y-87302744D01*
X169270591Y-87342171D01*
X169343639Y-87353740D01*
X169430678Y-87367527D01*
X169493813Y-87397456D01*
X169530744Y-87456768D01*
X169529746Y-87526631D01*
X169491136Y-87584863D01*
X169430678Y-87612473D01*
X169270589Y-87637829D01*
X169098363Y-87693787D01*
X169098360Y-87693788D01*
X168937002Y-87776006D01*
X168790505Y-87882441D01*
X168790500Y-87882445D01*
X168662445Y-88010500D01*
X168662441Y-88010505D01*
X168556006Y-88157002D01*
X168473788Y-88318360D01*
X168473787Y-88318363D01*
X168417829Y-88490589D01*
X168389500Y-88669448D01*
X168389500Y-88850551D01*
X168417829Y-89029410D01*
X168464575Y-89173281D01*
X168466570Y-89243122D01*
X168434325Y-89299280D01*
X166670426Y-91063181D01*
X166609103Y-91096666D01*
X166582745Y-91099500D01*
X166217255Y-91099500D01*
X166150216Y-91079815D01*
X166129574Y-91063181D01*
X164136819Y-89070426D01*
X164103334Y-89009103D01*
X164100500Y-88982745D01*
X164100500Y-82517255D01*
X164120185Y-82450216D01*
X164136819Y-82429574D01*
X164629574Y-81936819D01*
X164690897Y-81903334D01*
X164717255Y-81900500D01*
X165375500Y-81900500D01*
X165442539Y-81920185D01*
G37*
%TD.AperFunction*%
%TA.AperFunction,Conductor*%
G36*
X159915677Y-84229685D02*
G01*
X159936319Y-84246319D01*
X159940000Y-84250000D01*
X160060000Y-84250000D01*
X160063681Y-84246319D01*
X160125004Y-84212834D01*
X160151362Y-84210000D01*
X160876000Y-84210000D01*
X160943039Y-84229685D01*
X160988794Y-84282489D01*
X161000000Y-84334000D01*
X161000000Y-84598638D01*
X160991355Y-84628078D01*
X160984832Y-84658065D01*
X160981077Y-84663080D01*
X160980315Y-84665677D01*
X160963681Y-84686319D01*
X160936319Y-84713681D01*
X160874996Y-84747166D01*
X160848638Y-84750000D01*
X160250000Y-84750000D01*
X160250000Y-85278789D01*
X160270910Y-85277145D01*
X160426193Y-85232032D01*
X160473985Y-85203767D01*
X160505559Y-85195755D01*
X160536754Y-85186499D01*
X160540153Y-85186977D01*
X160541709Y-85186583D01*
X160571703Y-85191421D01*
X160710169Y-85231648D01*
X160769055Y-85269254D01*
X160798262Y-85332727D01*
X160788516Y-85401913D01*
X160742913Y-85454848D01*
X160737575Y-85458112D01*
X160631287Y-85519477D01*
X160631282Y-85519481D01*
X160519481Y-85631282D01*
X160519475Y-85631290D01*
X160440426Y-85768209D01*
X160440423Y-85768216D01*
X160399500Y-85920943D01*
X160399500Y-86079057D01*
X160438031Y-86222855D01*
X160440423Y-86231783D01*
X160440425Y-86231788D01*
X160442923Y-86236115D01*
X160459394Y-86304016D01*
X160436541Y-86370042D01*
X160381619Y-86413232D01*
X160312065Y-86419872D01*
X160290046Y-86413468D01*
X160281563Y-86410122D01*
X160228978Y-86403808D01*
X160193102Y-86399500D01*
X159206898Y-86399500D01*
X159167853Y-86404188D01*
X159118438Y-86410122D01*
X158977656Y-86465639D01*
X158857077Y-86557078D01*
X158818497Y-86607953D01*
X158762305Y-86649476D01*
X158692583Y-86654027D01*
X158631470Y-86620162D01*
X158614156Y-86598124D01*
X158542319Y-86481659D01*
X158542316Y-86481655D01*
X158418345Y-86357684D01*
X158269124Y-86265643D01*
X158269119Y-86265641D01*
X158102697Y-86210494D01*
X158102690Y-86210493D01*
X157999986Y-86200000D01*
X157750000Y-86200000D01*
X157750000Y-87176000D01*
X157730315Y-87243039D01*
X157677511Y-87288794D01*
X157626000Y-87300000D01*
X157374000Y-87300000D01*
X157306961Y-87280315D01*
X157261206Y-87227511D01*
X157250000Y-87176000D01*
X157250000Y-86200000D01*
X157000029Y-86200000D01*
X157000012Y-86200001D01*
X156897302Y-86210494D01*
X156730880Y-86265641D01*
X156730871Y-86265645D01*
X156643562Y-86319498D01*
X156576170Y-86337938D01*
X156515345Y-86320691D01*
X156426195Y-86267968D01*
X156426190Y-86267966D01*
X156270918Y-86222855D01*
X156270912Y-86222854D01*
X156250000Y-86221209D01*
X156250000Y-86876000D01*
X156230315Y-86943039D01*
X156177511Y-86988794D01*
X156126000Y-87000000D01*
X155874000Y-87000000D01*
X155806961Y-86980315D01*
X155761206Y-86927511D01*
X155750000Y-86876000D01*
X155750000Y-86221210D01*
X155749999Y-86221209D01*
X155729087Y-86222854D01*
X155729081Y-86222855D01*
X155573809Y-86267966D01*
X155573804Y-86267968D01*
X155434625Y-86350278D01*
X155428456Y-86355064D01*
X155427398Y-86353701D01*
X155374442Y-86382610D01*
X155304751Y-86377618D01*
X155248822Y-86335740D01*
X155240712Y-86323442D01*
X155220484Y-86288407D01*
X155220481Y-86288404D01*
X155220480Y-86288401D01*
X154786319Y-85854240D01*
X154752834Y-85792917D01*
X154751315Y-85778789D01*
X155250000Y-85778789D01*
X155270910Y-85777145D01*
X155426193Y-85732032D01*
X155473985Y-85703767D01*
X155541709Y-85686583D01*
X155571703Y-85691421D01*
X155729089Y-85737145D01*
X155750000Y-85738789D01*
X156250000Y-85738789D01*
X156270910Y-85737145D01*
X156426194Y-85692032D01*
X156436875Y-85685715D01*
X156504598Y-85668530D01*
X156563125Y-85685715D01*
X156573805Y-85692032D01*
X156729089Y-85737145D01*
X156750000Y-85738789D01*
X157250000Y-85738789D01*
X157270910Y-85737145D01*
X157426194Y-85692032D01*
X157436875Y-85685715D01*
X157504598Y-85668530D01*
X157563125Y-85685715D01*
X157573805Y-85692032D01*
X157729089Y-85737145D01*
X157750000Y-85738789D01*
X157750000Y-85210000D01*
X157250000Y-85210000D01*
X157250000Y-85738789D01*
X156750000Y-85738789D01*
X156750000Y-85210000D01*
X156250000Y-85210000D01*
X156250000Y-85738789D01*
X155750000Y-85738789D01*
X155750000Y-85250000D01*
X155250000Y-85250000D01*
X155250000Y-85778789D01*
X154751315Y-85778789D01*
X154750000Y-85766559D01*
X154750000Y-85124000D01*
X154769685Y-85056961D01*
X154822489Y-85011206D01*
X154874000Y-85000000D01*
X155000000Y-85000000D01*
X155000000Y-84861362D01*
X155008644Y-84831921D01*
X155015168Y-84801935D01*
X155018922Y-84796919D01*
X155019685Y-84794323D01*
X155036319Y-84773681D01*
X155063681Y-84746319D01*
X155125004Y-84712834D01*
X155151362Y-84710000D01*
X157876000Y-84710000D01*
X157943039Y-84729685D01*
X157988794Y-84782489D01*
X158000000Y-84834000D01*
X158000000Y-84960000D01*
X158126000Y-84960000D01*
X158193039Y-84979685D01*
X158238794Y-85032489D01*
X158250000Y-85084000D01*
X158250000Y-85738789D01*
X158270910Y-85737145D01*
X158426195Y-85692031D01*
X158565374Y-85609721D01*
X158565383Y-85609714D01*
X158679714Y-85495383D01*
X158679718Y-85495377D01*
X158758457Y-85362239D01*
X158750000Y-85330340D01*
X158750000Y-85238789D01*
X159250000Y-85238789D01*
X159270913Y-85237144D01*
X159428294Y-85191422D01*
X159498164Y-85191621D01*
X159526011Y-85203766D01*
X159573805Y-85232032D01*
X159729089Y-85277145D01*
X159750000Y-85278789D01*
X159750000Y-84750000D01*
X159250000Y-84750000D01*
X159250000Y-85238789D01*
X158750000Y-85238789D01*
X158750000Y-84584000D01*
X158769685Y-84516961D01*
X158822489Y-84471206D01*
X158874000Y-84460000D01*
X159000000Y-84460000D01*
X159000000Y-84334000D01*
X159019685Y-84266961D01*
X159072489Y-84221206D01*
X159124000Y-84210000D01*
X159848638Y-84210000D01*
X159915677Y-84229685D01*
G37*
%TD.AperFunction*%
%TA.AperFunction,Conductor*%
G36*
X168153028Y-78115876D02*
G01*
X168208962Y-78157747D01*
X168233379Y-78223212D01*
X168227628Y-78270370D01*
X168223243Y-78283866D01*
X168223242Y-78283872D01*
X168190000Y-78493753D01*
X168190000Y-78706246D01*
X168223242Y-78916127D01*
X168223242Y-78916130D01*
X168288904Y-79118217D01*
X168385375Y-79307550D01*
X168424728Y-79361716D01*
X169057037Y-78729408D01*
X169074075Y-78792993D01*
X169139901Y-78907007D01*
X169232993Y-79000099D01*
X169347007Y-79065925D01*
X169410590Y-79082962D01*
X168778282Y-79715269D01*
X168778282Y-79715270D01*
X168832449Y-79754624D01*
X169021780Y-79851094D01*
X169050705Y-79860492D01*
X169108381Y-79899929D01*
X169135580Y-79964287D01*
X169123667Y-80033134D01*
X169076424Y-80084610D01*
X169068685Y-80088908D01*
X168937004Y-80156004D01*
X168790505Y-80262441D01*
X168790500Y-80262445D01*
X168662445Y-80390500D01*
X168662441Y-80390505D01*
X168556006Y-80537002D01*
X168487325Y-80671795D01*
X168439350Y-80722591D01*
X168376840Y-80739500D01*
X167215675Y-80739500D01*
X167215671Y-80739499D01*
X167110217Y-80739499D01*
X167082159Y-80747017D01*
X167069123Y-80747696D01*
X167047321Y-80742509D01*
X167024917Y-80741976D01*
X167012010Y-80734108D01*
X167001150Y-80731525D01*
X166991763Y-80721767D01*
X166974993Y-80711545D01*
X166561274Y-80297825D01*
X166527789Y-80236502D01*
X166532773Y-80166810D01*
X166574645Y-80110877D01*
X166616856Y-80090371D01*
X166731784Y-80059577D01*
X166868716Y-79980520D01*
X166980520Y-79868716D01*
X167059577Y-79731784D01*
X167100500Y-79579057D01*
X167100500Y-79420943D01*
X167059577Y-79268216D01*
X167051508Y-79254240D01*
X166976457Y-79124245D01*
X166979494Y-79122491D01*
X166960091Y-79072392D01*
X166974088Y-79003939D01*
X167022872Y-78953920D01*
X167083655Y-78938000D01*
X167115225Y-78938000D01*
X167115227Y-78938000D01*
X167217088Y-78910707D01*
X167308413Y-78857980D01*
X168022017Y-78144375D01*
X168083337Y-78110892D01*
X168153028Y-78115876D01*
G37*
%TD.AperFunction*%
%TA.AperFunction,Conductor*%
G36*
X158120578Y-79775374D02*
G01*
X158150244Y-79775430D01*
X158155474Y-79778539D01*
X158160626Y-79779007D01*
X158174723Y-79789985D01*
X158202767Y-79806659D01*
X158360395Y-79964287D01*
X158675181Y-80279073D01*
X158675191Y-80279084D01*
X158754090Y-80357983D01*
X158785267Y-80375982D01*
X158816445Y-80393983D01*
X158843271Y-80409471D01*
X158891487Y-80460038D01*
X158904710Y-80528645D01*
X158878742Y-80593510D01*
X158821827Y-80634038D01*
X158799150Y-80639562D01*
X158748611Y-80646925D01*
X158739408Y-80649770D01*
X158738488Y-80646794D01*
X158685575Y-80655823D01*
X158660955Y-80648594D01*
X158660592Y-80649770D01*
X158651388Y-80646925D01*
X158583261Y-80637000D01*
X158583260Y-80637000D01*
X158416740Y-80637000D01*
X158416739Y-80637000D01*
X158348611Y-80646925D01*
X158339408Y-80649770D01*
X158338500Y-80646833D01*
X158286192Y-80655894D01*
X158264842Y-80653501D01*
X158251393Y-80646927D01*
X158183260Y-80637000D01*
X158117573Y-80637000D01*
X158110692Y-80636229D01*
X158084598Y-80625283D01*
X158057461Y-80617315D01*
X158052812Y-80611950D01*
X158046261Y-80609202D01*
X158030225Y-80585884D01*
X158011706Y-80564511D01*
X158009937Y-80556380D01*
X158006671Y-80551631D01*
X158006296Y-80539646D01*
X158000500Y-80513000D01*
X158000500Y-80454245D01*
X158000500Y-80454240D01*
X157990573Y-80386107D01*
X157990571Y-80386104D01*
X157990571Y-80386100D01*
X157987730Y-80376904D01*
X157990709Y-80375983D01*
X157981673Y-80323110D01*
X157988910Y-80298460D01*
X157987730Y-80298096D01*
X157990571Y-80288899D01*
X157990571Y-80288896D01*
X157990573Y-80288893D01*
X158000500Y-80220760D01*
X158000500Y-80054240D01*
X157990573Y-79986107D01*
X157990571Y-79986104D01*
X157990571Y-79986100D01*
X157987730Y-79976904D01*
X157990709Y-79975983D01*
X157981673Y-79923110D01*
X157984193Y-79908839D01*
X157987379Y-79895424D01*
X157990573Y-79888893D01*
X157993176Y-79871025D01*
X157994446Y-79865681D01*
X158009155Y-79839920D01*
X158021527Y-79812965D01*
X158026287Y-79809917D01*
X158029092Y-79805007D01*
X158055394Y-79791288D01*
X158080375Y-79775300D01*
X158086029Y-79775310D01*
X158091042Y-79772696D01*
X158120578Y-79775374D01*
G37*
%TD.AperFunction*%
%TA.AperFunction,Conductor*%
G36*
X159909705Y-75219973D02*
G01*
X159914390Y-75219173D01*
X159919352Y-75220629D01*
X159925937Y-75221078D01*
X159940803Y-75224257D01*
X159948607Y-75228073D01*
X159980071Y-75232657D01*
X159984067Y-75233512D01*
X160011324Y-75248273D01*
X160039507Y-75261207D01*
X160041787Y-75264770D01*
X160045506Y-75266784D01*
X160060456Y-75293937D01*
X160077172Y-75320055D01*
X160077164Y-75324284D01*
X160079204Y-75327990D01*
X160077099Y-75358924D01*
X160077042Y-75389925D01*
X160074749Y-75393478D01*
X160074462Y-75397699D01*
X160045813Y-75442449D01*
X160019478Y-75468784D01*
X160019475Y-75468788D01*
X159940426Y-75605707D01*
X159940423Y-75605714D01*
X159899500Y-75758441D01*
X159899500Y-75916555D01*
X159918218Y-75986409D01*
X159940423Y-76069281D01*
X159940426Y-76069288D01*
X160019475Y-76206207D01*
X160019479Y-76206212D01*
X160019480Y-76206214D01*
X160131284Y-76318018D01*
X160131286Y-76318019D01*
X160131290Y-76318022D01*
X160252281Y-76387875D01*
X160268216Y-76397075D01*
X160420943Y-76437998D01*
X160420945Y-76437998D01*
X160579055Y-76437998D01*
X160579057Y-76437998D01*
X160731784Y-76397075D01*
X160868716Y-76318018D01*
X160980520Y-76206214D01*
X161059577Y-76069282D01*
X161073842Y-76016042D01*
X161079542Y-76005285D01*
X161080755Y-75996772D01*
X161094743Y-75976597D01*
X161099799Y-75967056D01*
X161102745Y-75963646D01*
X161220480Y-75845913D01*
X161246762Y-75800391D01*
X161273207Y-75754587D01*
X161282164Y-75721158D01*
X161318526Y-75661499D01*
X161381372Y-75630968D01*
X161434028Y-75633475D01*
X161450913Y-75638000D01*
X161843792Y-75638000D01*
X161910831Y-75657685D01*
X161956586Y-75710489D01*
X161966530Y-75779647D01*
X161963568Y-75794087D01*
X161954402Y-75828296D01*
X161954402Y-75986410D01*
X161995021Y-76138000D01*
X161995325Y-76139136D01*
X161995328Y-76139143D01*
X162074377Y-76276062D01*
X162074381Y-76276067D01*
X162074382Y-76276069D01*
X162186186Y-76387873D01*
X162186187Y-76387874D01*
X162186189Y-76387875D01*
X162285542Y-76445236D01*
X162333757Y-76495802D01*
X162346981Y-76564409D01*
X162323458Y-76624194D01*
X162323545Y-76624245D01*
X162323210Y-76624825D01*
X162321918Y-76628109D01*
X162319479Y-76631287D01*
X162240428Y-76768209D01*
X162240425Y-76768216D01*
X162199502Y-76920943D01*
X162199502Y-77079057D01*
X162227132Y-77182171D01*
X162240425Y-77231783D01*
X162240428Y-77231790D01*
X162319477Y-77368709D01*
X162319483Y-77368717D01*
X162363183Y-77412417D01*
X162396668Y-77473740D01*
X162399502Y-77500098D01*
X162399502Y-79482742D01*
X162390857Y-79512182D01*
X162384334Y-79542169D01*
X162380579Y-79547184D01*
X162379817Y-79549781D01*
X162363183Y-79570424D01*
X162198849Y-79734757D01*
X162137526Y-79768241D01*
X162067834Y-79763257D01*
X162011901Y-79721385D01*
X162003781Y-79709075D01*
X161980522Y-79668789D01*
X161980518Y-79668784D01*
X161868717Y-79556983D01*
X161868709Y-79556977D01*
X161731790Y-79477928D01*
X161731786Y-79477926D01*
X161731784Y-79477925D01*
X161579057Y-79437002D01*
X161420943Y-79437002D01*
X161268216Y-79477925D01*
X161268209Y-79477928D01*
X161131290Y-79556977D01*
X161131282Y-79556983D01*
X161087681Y-79600585D01*
X161026358Y-79634070D01*
X160956666Y-79629086D01*
X160912319Y-79600585D01*
X160868717Y-79556983D01*
X160868709Y-79556977D01*
X160731790Y-79477928D01*
X160731786Y-79477926D01*
X160731784Y-79477925D01*
X160579057Y-79437002D01*
X160420943Y-79437002D01*
X160268216Y-79477925D01*
X160268209Y-79477928D01*
X160131290Y-79556977D01*
X160131282Y-79556983D01*
X160087681Y-79600585D01*
X160026358Y-79634070D01*
X159956666Y-79629086D01*
X159912319Y-79600585D01*
X159868717Y-79556983D01*
X159868709Y-79556977D01*
X159731790Y-79477928D01*
X159731786Y-79477926D01*
X159731784Y-79477925D01*
X159579057Y-79437002D01*
X159420943Y-79437002D01*
X159268216Y-79477925D01*
X159268211Y-79477927D01*
X159184894Y-79526029D01*
X159157833Y-79532593D01*
X159131742Y-79542325D01*
X159124347Y-79540716D01*
X159116994Y-79542500D01*
X159090681Y-79533392D01*
X159063469Y-79527473D01*
X159054775Y-79520965D01*
X159050967Y-79519647D01*
X159035215Y-79506322D01*
X158882981Y-79354088D01*
X158849496Y-79292765D01*
X158854480Y-79223073D01*
X158882981Y-79178726D01*
X158924207Y-79137500D01*
X158975700Y-79086007D01*
X159054757Y-78949075D01*
X159095680Y-78796348D01*
X159095680Y-78638234D01*
X159054757Y-78485507D01*
X159018798Y-78423223D01*
X158975704Y-78348581D01*
X158975698Y-78348573D01*
X158863897Y-78236772D01*
X158863892Y-78236768D01*
X158840235Y-78223110D01*
X158792020Y-78172543D01*
X158778796Y-78103936D01*
X158782457Y-78083641D01*
X158789532Y-78057242D01*
X158789532Y-77899128D01*
X158748609Y-77746401D01*
X158748605Y-77746394D01*
X158669556Y-77609475D01*
X158669550Y-77609467D01*
X158625851Y-77565768D01*
X158592366Y-77504445D01*
X158589532Y-77478087D01*
X158589532Y-76877447D01*
X158589531Y-76877443D01*
X158589237Y-76876347D01*
X158580949Y-76845412D01*
X158562239Y-76775584D01*
X158519147Y-76700948D01*
X158502675Y-76633050D01*
X158525527Y-76567023D01*
X158580448Y-76523832D01*
X158594438Y-76519175D01*
X158626044Y-76510707D01*
X158717369Y-76457980D01*
X158984052Y-76191297D01*
X159045375Y-76157812D01*
X159071733Y-76154978D01*
X159133533Y-76154978D01*
X159133535Y-76154978D01*
X159286262Y-76114055D01*
X159423194Y-76034998D01*
X159534998Y-75923194D01*
X159614055Y-75786262D01*
X159654978Y-75633535D01*
X159654978Y-75475421D01*
X159633186Y-75394092D01*
X159634849Y-75324243D01*
X159674012Y-75266381D01*
X159738240Y-75238877D01*
X159752961Y-75238000D01*
X159783255Y-75238000D01*
X159783260Y-75238000D01*
X159851393Y-75228073D01*
X159851396Y-75228071D01*
X159851399Y-75228071D01*
X159860596Y-75225230D01*
X159861516Y-75228209D01*
X159868709Y-75226980D01*
X159890724Y-75218682D01*
X159909705Y-75219973D01*
G37*
%TD.AperFunction*%
%TA.AperFunction,Conductor*%
G36*
X153238572Y-78117839D02*
G01*
X153277985Y-78144378D01*
X154658926Y-79525319D01*
X154692411Y-79586642D01*
X154687427Y-79656334D01*
X154645555Y-79712267D01*
X154580091Y-79736684D01*
X154571245Y-79737000D01*
X152709768Y-79737000D01*
X152647744Y-79753619D01*
X152577894Y-79751955D01*
X152527972Y-79721525D01*
X151889408Y-79082962D01*
X151952993Y-79065925D01*
X152067007Y-79000099D01*
X152160099Y-78907007D01*
X152225925Y-78792993D01*
X152242962Y-78729408D01*
X152875270Y-79361717D01*
X152875270Y-79361716D01*
X152914622Y-79307554D01*
X153011095Y-79118217D01*
X153076757Y-78916130D01*
X153076757Y-78916127D01*
X153110000Y-78706246D01*
X153110000Y-78493753D01*
X153076758Y-78283873D01*
X153072373Y-78270378D01*
X153070377Y-78200537D01*
X153106457Y-78140704D01*
X153169158Y-78109875D01*
X153238572Y-78117839D01*
G37*
%TD.AperFunction*%
%TA.AperFunction,Conductor*%
G36*
X163971290Y-61548565D02*
G01*
X164007138Y-61573531D01*
X164675179Y-62241571D01*
X164675189Y-62241582D01*
X164679519Y-62245912D01*
X164679520Y-62245913D01*
X164754087Y-62320480D01*
X164845413Y-62373207D01*
X164947273Y-62400501D01*
X164947275Y-62400501D01*
X165060323Y-62400501D01*
X165060339Y-62400500D01*
X165552725Y-62400500D01*
X165552727Y-62400500D01*
X165654588Y-62373207D01*
X165745913Y-62320480D01*
X165929574Y-62136819D01*
X165952471Y-62124316D01*
X165973271Y-62108563D01*
X165985389Y-62106341D01*
X165990897Y-62103334D01*
X166007716Y-62100867D01*
X166012473Y-62100500D01*
X166079057Y-62100500D01*
X166105982Y-62093285D01*
X166117433Y-62092402D01*
X166140825Y-62097353D01*
X166164728Y-62097923D01*
X166174383Y-62104457D01*
X166185788Y-62106872D01*
X166202787Y-62123681D01*
X166222591Y-62137085D01*
X166227180Y-62147803D01*
X166235470Y-62156000D01*
X166240683Y-62179334D01*
X166250095Y-62201313D01*
X166250972Y-62216035D01*
X166250972Y-63434217D01*
X166231287Y-63501256D01*
X166214653Y-63521898D01*
X165679522Y-64057028D01*
X165679520Y-64057031D01*
X165626793Y-64148356D01*
X165621675Y-64167457D01*
X165600654Y-64245905D01*
X165600653Y-64245913D01*
X165600653Y-64245915D01*
X165599500Y-64250218D01*
X165599500Y-70151372D01*
X165579815Y-70218411D01*
X165563181Y-70239053D01*
X164419564Y-71382669D01*
X164363978Y-71414762D01*
X164268220Y-71440421D01*
X164268209Y-71440426D01*
X164131290Y-71519475D01*
X164131282Y-71519481D01*
X164019481Y-71631282D01*
X164019475Y-71631290D01*
X163940426Y-71768209D01*
X163940423Y-71768216D01*
X163899500Y-71920943D01*
X163899500Y-72079057D01*
X163936400Y-72216768D01*
X163940423Y-72231783D01*
X163940426Y-72231790D01*
X164019475Y-72368709D01*
X164019479Y-72368714D01*
X164019480Y-72368716D01*
X164131284Y-72480520D01*
X164131286Y-72480521D01*
X164131290Y-72480524D01*
X164227386Y-72536004D01*
X164268216Y-72559577D01*
X164420943Y-72600500D01*
X164420945Y-72600500D01*
X164575500Y-72600500D01*
X164642539Y-72620185D01*
X164688294Y-72672989D01*
X164699500Y-72724500D01*
X164699500Y-74814202D01*
X164696853Y-74823213D01*
X164698140Y-74832517D01*
X164687167Y-74856200D01*
X164679815Y-74881241D01*
X164672717Y-74887390D01*
X164668769Y-74895914D01*
X164646732Y-74909906D01*
X164627011Y-74926996D01*
X164616147Y-74929328D01*
X164609786Y-74933368D01*
X164591563Y-74934606D01*
X164574825Y-74938200D01*
X164566172Y-74938152D01*
X164558260Y-74937000D01*
X164354447Y-74937000D01*
X164354080Y-74936998D01*
X164320894Y-74927057D01*
X164287716Y-74917315D01*
X164287328Y-74917002D01*
X164287149Y-74916949D01*
X164286897Y-74916655D01*
X164267074Y-74900681D01*
X163736819Y-74370426D01*
X163703334Y-74309103D01*
X163700500Y-74282745D01*
X163700500Y-74079239D01*
X163690573Y-74011108D01*
X163685231Y-74000180D01*
X163639198Y-73906017D01*
X163639196Y-73906015D01*
X163639196Y-73906014D01*
X163590206Y-73857024D01*
X163556721Y-73795701D01*
X163558112Y-73737249D01*
X163559575Y-73731786D01*
X163559577Y-73731784D01*
X163600500Y-73579057D01*
X163600500Y-73420943D01*
X163559577Y-73268216D01*
X163539569Y-73233561D01*
X163480524Y-73131290D01*
X163480518Y-73131282D01*
X163368717Y-73019481D01*
X163368709Y-73019475D01*
X163231790Y-72940426D01*
X163231786Y-72940424D01*
X163231784Y-72940423D01*
X163185085Y-72927910D01*
X163125426Y-72891546D01*
X163094897Y-72828699D01*
X163100138Y-72767183D01*
X163117741Y-72716879D01*
X163120500Y-72687457D01*
X163120499Y-72312544D01*
X163117741Y-72283121D01*
X163074381Y-72159206D01*
X163003844Y-72063632D01*
X162979874Y-71998005D01*
X162995189Y-71929835D01*
X163003845Y-71916366D01*
X163074381Y-71820794D01*
X163106327Y-71729499D01*
X163117741Y-71696881D01*
X163117741Y-71696879D01*
X163120500Y-71667457D01*
X163120499Y-71292544D01*
X163117741Y-71263121D01*
X163074381Y-71139206D01*
X162996423Y-71033577D01*
X162996419Y-71033574D01*
X162940592Y-70992371D01*
X162928375Y-70976281D01*
X162912605Y-70963658D01*
X162902778Y-70942567D01*
X162898341Y-70936723D01*
X162896702Y-70932150D01*
X162895460Y-70928459D01*
X162873207Y-70845412D01*
X162865747Y-70832491D01*
X162859556Y-70821767D01*
X162820484Y-70754092D01*
X162820478Y-70754084D01*
X162661819Y-70595425D01*
X162628334Y-70534102D01*
X162625500Y-70507744D01*
X162625500Y-67682936D01*
X162645185Y-67615897D01*
X162697989Y-67570142D01*
X162767147Y-67560198D01*
X162781587Y-67563159D01*
X162920943Y-67600500D01*
X162920945Y-67600500D01*
X163079055Y-67600500D01*
X163079057Y-67600500D01*
X163231784Y-67559577D01*
X163368716Y-67480520D01*
X163480520Y-67368716D01*
X163559577Y-67231784D01*
X163600500Y-67079057D01*
X163600500Y-67017255D01*
X163620185Y-66950216D01*
X163636819Y-66929574D01*
X164207171Y-66359222D01*
X164820480Y-65745913D01*
X164858812Y-65679520D01*
X164873207Y-65654587D01*
X164900500Y-65552727D01*
X164900500Y-65552723D01*
X164901129Y-65550376D01*
X164937493Y-65490715D01*
X164947261Y-65482705D01*
X164996423Y-65446423D01*
X165074381Y-65340794D01*
X165100591Y-65265892D01*
X165117741Y-65216881D01*
X165117741Y-65216879D01*
X165120500Y-65187457D01*
X165120499Y-64812544D01*
X165117741Y-64783121D01*
X165114965Y-64775189D01*
X165099194Y-64730117D01*
X165074381Y-64659206D01*
X165003844Y-64563632D01*
X164979874Y-64498005D01*
X164995189Y-64429835D01*
X165003845Y-64416366D01*
X165007739Y-64411090D01*
X165074381Y-64320794D01*
X165099153Y-64250000D01*
X165117741Y-64196881D01*
X165117741Y-64196879D01*
X165120500Y-64167457D01*
X165120499Y-63792546D01*
X165117741Y-63763120D01*
X165117739Y-63763115D01*
X165085970Y-63672326D01*
X165074381Y-63639206D01*
X165015612Y-63559577D01*
X164996423Y-63533576D01*
X164914329Y-63472989D01*
X164890794Y-63455619D01*
X164890792Y-63455618D01*
X164766880Y-63412258D01*
X164737461Y-63409500D01*
X164262546Y-63409500D01*
X164233125Y-63412258D01*
X164233115Y-63412260D01*
X164109207Y-63455618D01*
X164003577Y-63533576D01*
X163985760Y-63557717D01*
X163930111Y-63599966D01*
X163860455Y-63605423D01*
X163798906Y-63572355D01*
X163769809Y-63527413D01*
X163743798Y-63457673D01*
X163743793Y-63457664D01*
X163657547Y-63342455D01*
X163657544Y-63342452D01*
X163542335Y-63256206D01*
X163542328Y-63256202D01*
X163407486Y-63205910D01*
X163407485Y-63205909D01*
X163407483Y-63205909D01*
X163347873Y-63199500D01*
X163347863Y-63199500D01*
X162852129Y-63199500D01*
X162852123Y-63199501D01*
X162792512Y-63205909D01*
X162784969Y-63207692D01*
X162784658Y-63206377D01*
X162762218Y-63207979D01*
X162731853Y-63212346D01*
X162727690Y-63210445D01*
X162723127Y-63210771D01*
X162696202Y-63196064D01*
X162668297Y-63183321D01*
X162665823Y-63179472D01*
X162661808Y-63177279D01*
X162647110Y-63150353D01*
X162630523Y-63124543D01*
X162629629Y-63118330D01*
X162628331Y-63115951D01*
X162625500Y-63089608D01*
X162625500Y-62863133D01*
X162645185Y-62796094D01*
X162697989Y-62750339D01*
X162746850Y-62741702D01*
X162750000Y-62738790D01*
X162750000Y-62738789D01*
X163250000Y-62738789D01*
X163270910Y-62737145D01*
X163426195Y-62692031D01*
X163565374Y-62609721D01*
X163565383Y-62609714D01*
X163679714Y-62495383D01*
X163679721Y-62495374D01*
X163762031Y-62356195D01*
X163804504Y-62210000D01*
X163250000Y-62210000D01*
X163250000Y-62738789D01*
X162750000Y-62738789D01*
X162750000Y-62084000D01*
X162769685Y-62016961D01*
X162822489Y-61971206D01*
X162874000Y-61960000D01*
X163000000Y-61960000D01*
X163000000Y-61834000D01*
X163019685Y-61766961D01*
X163072489Y-61721206D01*
X163124000Y-61710000D01*
X163804504Y-61710000D01*
X163800381Y-61695807D01*
X163800580Y-61625938D01*
X163838522Y-61567268D01*
X163902160Y-61538424D01*
X163971290Y-61548565D01*
G37*
%TD.AperFunction*%
%TA.AperFunction,Conductor*%
G36*
X157751826Y-66502081D02*
G01*
X157807759Y-66543953D01*
X157832176Y-66609417D01*
X157832492Y-66618263D01*
X157832492Y-66720031D01*
X157859785Y-66821894D01*
X157868636Y-66837224D01*
X157912512Y-66913218D01*
X157912514Y-66913220D01*
X158027241Y-67027947D01*
X158060726Y-67089270D01*
X158055742Y-67158962D01*
X158013870Y-67214895D01*
X157948406Y-67239312D01*
X157904965Y-67234704D01*
X157770001Y-67195493D01*
X157770000Y-67195494D01*
X157770000Y-68804503D01*
X157916195Y-68762031D01*
X158055372Y-68679722D01*
X158055380Y-68679716D01*
X158105936Y-68629160D01*
X158167259Y-68595674D01*
X158234569Y-68599797D01*
X158257181Y-68607710D01*
X158257189Y-68607710D01*
X158257190Y-68607711D01*
X158286930Y-68610500D01*
X158286934Y-68610500D01*
X158492745Y-68610500D01*
X158522185Y-68619144D01*
X158552172Y-68625668D01*
X158557187Y-68629422D01*
X158559784Y-68630185D01*
X158580426Y-68646819D01*
X158685550Y-68751943D01*
X158719035Y-68813266D01*
X158714051Y-68882958D01*
X158672179Y-68938891D01*
X158659869Y-68947011D01*
X158531282Y-69021250D01*
X158514331Y-69038200D01*
X158453007Y-69071682D01*
X158426436Y-69073618D01*
X158426436Y-69074500D01*
X157578049Y-69074500D01*
X157507493Y-69084779D01*
X157398650Y-69137989D01*
X157312988Y-69223651D01*
X157259780Y-69332488D01*
X157255925Y-69358951D01*
X157249500Y-69403051D01*
X157249500Y-69403055D01*
X157249500Y-69403056D01*
X157249500Y-69596950D01*
X157259779Y-69667507D01*
X157259779Y-69667508D01*
X157273484Y-69695543D01*
X157285241Y-69764416D01*
X157273484Y-69804457D01*
X157259781Y-69832488D01*
X157259780Y-69832491D01*
X157249500Y-69903051D01*
X157249500Y-69903055D01*
X157249500Y-69903056D01*
X157249500Y-70096950D01*
X157259779Y-70167507D01*
X157259779Y-70167508D01*
X157273484Y-70195543D01*
X157285241Y-70264416D01*
X157273484Y-70304457D01*
X157259781Y-70332488D01*
X157259780Y-70332490D01*
X157258936Y-70338286D01*
X157249500Y-70403051D01*
X157249500Y-70403055D01*
X157249500Y-70403056D01*
X157249500Y-70596950D01*
X157259779Y-70667507D01*
X157259779Y-70667508D01*
X157273484Y-70695543D01*
X157285241Y-70764416D01*
X157273484Y-70804457D01*
X157259781Y-70832488D01*
X157259780Y-70832491D01*
X157249500Y-70903051D01*
X157249500Y-70903055D01*
X157249500Y-70903056D01*
X157249500Y-71096950D01*
X157259779Y-71167506D01*
X157312989Y-71276349D01*
X157398651Y-71362011D01*
X157507488Y-71415219D01*
X157507489Y-71415219D01*
X157507491Y-71415220D01*
X157578051Y-71425500D01*
X157807743Y-71425499D01*
X157874783Y-71445183D01*
X157895425Y-71461818D01*
X158863181Y-72429573D01*
X158896666Y-72490896D01*
X158899500Y-72517254D01*
X158899500Y-72934199D01*
X158879815Y-73001238D01*
X158827011Y-73046993D01*
X158757853Y-73056937D01*
X158694297Y-73027912D01*
X158687819Y-73021880D01*
X158445461Y-72779522D01*
X158445459Y-72779520D01*
X158399796Y-72753156D01*
X158354135Y-72726793D01*
X158303203Y-72713146D01*
X158252273Y-72699500D01*
X157552728Y-72699500D01*
X157447274Y-72699500D01*
X157345411Y-72726793D01*
X157254089Y-72779519D01*
X157254088Y-72779520D01*
X156964797Y-73068808D01*
X156903476Y-73102292D01*
X156833784Y-73097308D01*
X156789437Y-73068807D01*
X156044513Y-72323884D01*
X156044511Y-72323881D01*
X155962878Y-72242248D01*
X155962876Y-72242246D01*
X155917213Y-72215882D01*
X155917212Y-72215881D01*
X155871553Y-72189520D01*
X155871552Y-72189519D01*
X155871551Y-72189519D01*
X155769690Y-72162226D01*
X155769689Y-72162226D01*
X155308061Y-72162226D01*
X155241022Y-72142541D01*
X155195267Y-72089737D01*
X155188286Y-72070320D01*
X155173207Y-72014043D01*
X155120480Y-71922717D01*
X155045913Y-71848150D01*
X155011562Y-71813799D01*
X154978077Y-71752476D01*
X154983061Y-71682784D01*
X155011563Y-71638436D01*
X155025000Y-71624999D01*
X155025000Y-71124000D01*
X155027550Y-71115314D01*
X155026262Y-71106353D01*
X155037240Y-71082312D01*
X155044685Y-71056961D01*
X155051525Y-71051033D01*
X155055287Y-71042797D01*
X155077521Y-71028507D01*
X155097489Y-71011206D01*
X155108003Y-71008918D01*
X155114065Y-71005023D01*
X155149000Y-71000000D01*
X155151000Y-71000000D01*
X155218039Y-71019685D01*
X155263794Y-71072489D01*
X155275000Y-71124000D01*
X155275000Y-71625000D01*
X155574363Y-71625000D01*
X155574377Y-71624999D01*
X155684341Y-71610521D01*
X155684342Y-71610521D01*
X155821175Y-71553843D01*
X155938679Y-71463679D01*
X156028842Y-71346176D01*
X156050777Y-71293221D01*
X156094618Y-71238817D01*
X156160912Y-71216751D01*
X156228611Y-71234029D01*
X156253020Y-71252991D01*
X156302235Y-71302206D01*
X156405009Y-71347585D01*
X156430135Y-71350500D01*
X156719864Y-71350499D01*
X156719879Y-71350497D01*
X156719882Y-71350497D01*
X156744987Y-71347586D01*
X156744988Y-71347585D01*
X156744991Y-71347585D01*
X156847765Y-71302206D01*
X156927206Y-71222765D01*
X156972585Y-71119991D01*
X156975500Y-71094865D01*
X156975499Y-69405136D01*
X156975258Y-69403056D01*
X156972586Y-69380012D01*
X156972585Y-69380010D01*
X156972585Y-69380009D01*
X156927206Y-69277235D01*
X156847765Y-69197794D01*
X156806383Y-69179522D01*
X156744992Y-69152415D01*
X156719865Y-69149500D01*
X156430143Y-69149500D01*
X156430117Y-69149502D01*
X156405012Y-69152413D01*
X156405008Y-69152415D01*
X156302235Y-69197793D01*
X156222794Y-69277234D01*
X156177415Y-69380006D01*
X156177415Y-69380008D01*
X156174500Y-69405131D01*
X156174500Y-70206372D01*
X156165749Y-70236172D01*
X156158947Y-70266500D01*
X156155986Y-70269422D01*
X156154815Y-70273411D01*
X156131344Y-70293748D01*
X156109224Y-70315585D01*
X156105153Y-70316443D01*
X156102011Y-70319166D01*
X156071255Y-70323588D01*
X156040856Y-70329996D01*
X156036970Y-70328518D01*
X156032853Y-70329110D01*
X156004588Y-70316202D01*
X155975551Y-70305158D01*
X155972277Y-70301446D01*
X155969297Y-70300085D01*
X155950756Y-70280041D01*
X155946608Y-70274424D01*
X155934866Y-70254087D01*
X155922323Y-70241544D01*
X155916817Y-70234089D01*
X155907873Y-70209630D01*
X155895395Y-70186778D01*
X155894961Y-70174320D01*
X155892822Y-70168468D01*
X155894498Y-70160993D01*
X155893857Y-70142542D01*
X155900500Y-70096949D01*
X155900499Y-69903052D01*
X155897045Y-69879345D01*
X155890220Y-69832493D01*
X155890220Y-69832491D01*
X155876516Y-69804460D01*
X155864756Y-69735591D01*
X155876515Y-69695540D01*
X155890220Y-69667509D01*
X155900500Y-69596949D01*
X155900499Y-69403052D01*
X155890220Y-69332491D01*
X155837012Y-69223653D01*
X155837010Y-69223651D01*
X155837010Y-69223650D01*
X155751348Y-69137988D01*
X155642511Y-69084780D01*
X155626978Y-69082517D01*
X155591620Y-69077366D01*
X155559881Y-69062799D01*
X155528297Y-69048375D01*
X155528231Y-69048273D01*
X155528122Y-69048223D01*
X155509410Y-69018986D01*
X155490523Y-68989597D01*
X155490500Y-68989440D01*
X155490458Y-68989374D01*
X155485500Y-68954662D01*
X155485500Y-68853597D01*
X155505185Y-68786558D01*
X155557989Y-68740803D01*
X155627147Y-68730859D01*
X155672622Y-68746866D01*
X155715804Y-68772404D01*
X155855000Y-68812844D01*
X155855000Y-68812843D01*
X156355000Y-68812843D01*
X156494194Y-68772404D01*
X156632285Y-68690738D01*
X156632294Y-68690731D01*
X156726283Y-68596743D01*
X156787606Y-68563258D01*
X156857298Y-68568242D01*
X156901645Y-68596743D01*
X156984616Y-68679714D01*
X156984625Y-68679721D01*
X157123804Y-68762031D01*
X157270000Y-68804504D01*
X157270000Y-68250000D01*
X156355000Y-68250000D01*
X156355000Y-68812843D01*
X155855000Y-68812843D01*
X155855000Y-68124000D01*
X155874685Y-68056961D01*
X155927489Y-68011206D01*
X155979000Y-68000000D01*
X156105000Y-68000000D01*
X156105000Y-67874000D01*
X156124685Y-67806961D01*
X156177489Y-67761206D01*
X156229000Y-67750000D01*
X157270000Y-67750000D01*
X157270000Y-67184778D01*
X157286614Y-67122777D01*
X157325962Y-67054624D01*
X157331785Y-67044539D01*
X157359078Y-66942678D01*
X157359078Y-66843677D01*
X157378763Y-66776638D01*
X157395397Y-66755996D01*
X157620811Y-66530582D01*
X157682134Y-66497097D01*
X157751826Y-66502081D01*
G37*
%TD.AperFunction*%
%TA.AperFunction,Conductor*%
G36*
X152703988Y-64145578D02*
G01*
X152759922Y-64187449D01*
X152780430Y-64229666D01*
X152814688Y-64357520D01*
X152814691Y-64357525D01*
X152893740Y-64494444D01*
X152893744Y-64494449D01*
X152893745Y-64494451D01*
X153005549Y-64606255D01*
X153005551Y-64606256D01*
X153005555Y-64606259D01*
X153097265Y-64659207D01*
X153142481Y-64685312D01*
X153295208Y-64726235D01*
X153295210Y-64726235D01*
X153453320Y-64726235D01*
X153453322Y-64726235D01*
X153606049Y-64685312D01*
X153742981Y-64606255D01*
X153854785Y-64494451D01*
X153868112Y-64471366D01*
X153918678Y-64423151D01*
X153987285Y-64409927D01*
X154052150Y-64435894D01*
X154092680Y-64492808D01*
X154099500Y-64533366D01*
X154099500Y-64835570D01*
X154126793Y-64937433D01*
X154131400Y-64945412D01*
X154179520Y-65028757D01*
X154179522Y-65028759D01*
X155721759Y-66570996D01*
X155736462Y-66597923D01*
X155753055Y-66623742D01*
X155753946Y-66629942D01*
X155755244Y-66632319D01*
X155758078Y-66658677D01*
X155758078Y-66716922D01*
X155738393Y-66783961D01*
X155685589Y-66829716D01*
X155634078Y-66840922D01*
X155205851Y-66840922D01*
X155103991Y-66868215D01*
X155103988Y-66868216D01*
X155070876Y-66887334D01*
X155041770Y-66904138D01*
X155012666Y-66920941D01*
X155012663Y-66920943D01*
X154764522Y-67169084D01*
X154764520Y-67169087D01*
X154728322Y-67231784D01*
X154711793Y-67260412D01*
X154695698Y-67320480D01*
X154695698Y-67320481D01*
X154695697Y-67320480D01*
X154684502Y-67362265D01*
X154684500Y-67362273D01*
X154684500Y-67362276D01*
X154684500Y-67407085D01*
X154664815Y-67474124D01*
X154644232Y-67496084D01*
X154645151Y-67497003D01*
X154638577Y-67503577D01*
X154560618Y-67609207D01*
X154517258Y-67733118D01*
X154517258Y-67733120D01*
X154514500Y-67762538D01*
X154514500Y-68237453D01*
X154517258Y-68266874D01*
X154517260Y-68266884D01*
X154560618Y-68390792D01*
X154638578Y-68496425D01*
X154645148Y-68502995D01*
X154643137Y-68505005D01*
X154676380Y-68548780D01*
X154684500Y-68592914D01*
X154684500Y-68975500D01*
X154664815Y-69042539D01*
X154612011Y-69088294D01*
X154560500Y-69099500D01*
X153947273Y-69099500D01*
X153845410Y-69126793D01*
X153801034Y-69152415D01*
X153754087Y-69179520D01*
X153754084Y-69179522D01*
X153179522Y-69754084D01*
X153179520Y-69754087D01*
X153134254Y-69832490D01*
X153126793Y-69845412D01*
X153111349Y-69903051D01*
X153105334Y-69925500D01*
X153099500Y-69947272D01*
X153099500Y-70596553D01*
X153079815Y-70663592D01*
X153027011Y-70709347D01*
X152957853Y-70719291D01*
X152894297Y-70690266D01*
X152857569Y-70634871D01*
X152826212Y-70538363D01*
X152826211Y-70538360D01*
X152779799Y-70447273D01*
X152743996Y-70377006D01*
X152722902Y-70347972D01*
X152637558Y-70230505D01*
X152637554Y-70230500D01*
X152509499Y-70102445D01*
X152509494Y-70102441D01*
X152362997Y-69996006D01*
X152362996Y-69996005D01*
X152362994Y-69996004D01*
X152297687Y-69962728D01*
X152201639Y-69913788D01*
X152201636Y-69913787D01*
X152029410Y-69857829D01*
X151869321Y-69832473D01*
X151806186Y-69802544D01*
X151769255Y-69743232D01*
X151770253Y-69673370D01*
X151808863Y-69615137D01*
X151869321Y-69587527D01*
X151939425Y-69576422D01*
X152029409Y-69562171D01*
X152201639Y-69506211D01*
X152362994Y-69423996D01*
X152509501Y-69317553D01*
X152637553Y-69189501D01*
X152743996Y-69042994D01*
X152826211Y-68881639D01*
X152882171Y-68709409D01*
X152898278Y-68607711D01*
X152910500Y-68530551D01*
X152910500Y-68349448D01*
X152889060Y-68214087D01*
X152882171Y-68170591D01*
X152839879Y-68040426D01*
X152826212Y-67998363D01*
X152826211Y-67998360D01*
X152797740Y-67942484D01*
X152743996Y-67837006D01*
X152722167Y-67806961D01*
X152637558Y-67690505D01*
X152637554Y-67690500D01*
X152509499Y-67562445D01*
X152509494Y-67562441D01*
X152362995Y-67456004D01*
X152231314Y-67388908D01*
X152180519Y-67340934D01*
X152163724Y-67273113D01*
X152186262Y-67206978D01*
X152240977Y-67163527D01*
X152249295Y-67160492D01*
X152278217Y-67151095D01*
X152467554Y-67054622D01*
X152521716Y-67015270D01*
X152521717Y-67015270D01*
X151889408Y-66382962D01*
X151952993Y-66365925D01*
X152067007Y-66300099D01*
X152160099Y-66207007D01*
X152225925Y-66092993D01*
X152242962Y-66029408D01*
X152875270Y-66661717D01*
X152875270Y-66661716D01*
X152914622Y-66607554D01*
X153011095Y-66418217D01*
X153076757Y-66216130D01*
X153076757Y-66216127D01*
X153110000Y-66006246D01*
X153110000Y-65793753D01*
X153076757Y-65583872D01*
X153076757Y-65583869D01*
X153011095Y-65381782D01*
X152914624Y-65192449D01*
X152875270Y-65138282D01*
X152875269Y-65138282D01*
X152242962Y-65770590D01*
X152225925Y-65707007D01*
X152160099Y-65592993D01*
X152067007Y-65499901D01*
X151952993Y-65434075D01*
X151889409Y-65417037D01*
X152521716Y-64784728D01*
X152467550Y-64745375D01*
X152278217Y-64648904D01*
X152249292Y-64639506D01*
X152191616Y-64600068D01*
X152164418Y-64535710D01*
X152176333Y-64466863D01*
X152223577Y-64415388D01*
X152231315Y-64411090D01*
X152362994Y-64343996D01*
X152497992Y-64245915D01*
X152509493Y-64237559D01*
X152509493Y-64237558D01*
X152509501Y-64237553D01*
X152572977Y-64174076D01*
X152634296Y-64140594D01*
X152703988Y-64145578D01*
G37*
%TD.AperFunction*%
%TA.AperFunction,Conductor*%
G36*
X168530488Y-63996344D02*
G01*
X168561263Y-64000024D01*
X168564681Y-64002751D01*
X168568701Y-64003505D01*
X168585556Y-64019411D01*
X168612770Y-64041128D01*
X168662441Y-64109494D01*
X168662445Y-64109499D01*
X168790500Y-64237554D01*
X168790505Y-64237558D01*
X168834725Y-64269685D01*
X168937006Y-64343996D01*
X169013055Y-64382745D01*
X169068684Y-64411090D01*
X169119480Y-64459065D01*
X169136275Y-64526886D01*
X169113737Y-64593021D01*
X169059022Y-64636472D01*
X169050708Y-64639506D01*
X169021781Y-64648905D01*
X168832439Y-64745380D01*
X168778282Y-64784727D01*
X168778282Y-64784728D01*
X169410591Y-65417037D01*
X169347007Y-65434075D01*
X169232993Y-65499901D01*
X169139901Y-65592993D01*
X169074075Y-65707007D01*
X169057037Y-65770591D01*
X168424728Y-65138282D01*
X168424727Y-65138282D01*
X168385380Y-65192439D01*
X168288904Y-65381782D01*
X168223242Y-65583869D01*
X168223242Y-65583872D01*
X168190000Y-65793753D01*
X168190000Y-66006246D01*
X168223242Y-66216127D01*
X168223242Y-66216130D01*
X168288904Y-66418217D01*
X168385375Y-66607550D01*
X168424728Y-66661716D01*
X169057037Y-66029408D01*
X169074075Y-66092993D01*
X169139901Y-66207007D01*
X169232993Y-66300099D01*
X169347007Y-66365925D01*
X169410590Y-66382962D01*
X168778282Y-67015269D01*
X168778282Y-67015270D01*
X168832449Y-67054624D01*
X169021780Y-67151094D01*
X169050705Y-67160492D01*
X169108381Y-67199929D01*
X169135580Y-67264287D01*
X169123667Y-67333134D01*
X169076424Y-67384610D01*
X169068685Y-67388908D01*
X168937004Y-67456004D01*
X168790505Y-67562441D01*
X168790500Y-67562445D01*
X168662445Y-67690500D01*
X168662441Y-67690505D01*
X168556006Y-67837002D01*
X168473788Y-67998360D01*
X168473787Y-67998363D01*
X168417829Y-68170589D01*
X168389500Y-68349448D01*
X168389500Y-68530551D01*
X168417829Y-68709412D01*
X168464575Y-68853283D01*
X168466570Y-68923124D01*
X168434325Y-68979281D01*
X168126346Y-69287260D01*
X168122873Y-69291787D01*
X168066444Y-69332988D01*
X167996697Y-69337140D01*
X167935778Y-69302925D01*
X167903028Y-69241207D01*
X167900500Y-69216297D01*
X167900500Y-64717253D01*
X167920185Y-64650214D01*
X167936815Y-64629576D01*
X168235703Y-64330687D01*
X168235708Y-64330684D01*
X168245911Y-64320480D01*
X168245913Y-64320480D01*
X168320480Y-64245913D01*
X168365777Y-64167457D01*
X168373207Y-64154588D01*
X168393743Y-64077943D01*
X168395064Y-64074063D01*
X168412911Y-64048722D01*
X168429041Y-64022260D01*
X168432854Y-64020407D01*
X168435297Y-64016940D01*
X168464012Y-64005271D01*
X168491888Y-63991730D01*
X168496098Y-63992233D01*
X168500027Y-63990637D01*
X168530488Y-63996344D01*
G37*
%TD.AperFunction*%
%TA.AperFunction,Conductor*%
G36*
X160443039Y-61729685D02*
G01*
X160488794Y-61782489D01*
X160500000Y-61834000D01*
X160500000Y-61960000D01*
X160626000Y-61960000D01*
X160693039Y-61979685D01*
X160738794Y-62032489D01*
X160750000Y-62084000D01*
X160750000Y-62738789D01*
X160770910Y-62737145D01*
X160926195Y-62692031D01*
X161065374Y-62609721D01*
X161065383Y-62609714D01*
X161162819Y-62512279D01*
X161224142Y-62478794D01*
X161293834Y-62483778D01*
X161349767Y-62525650D01*
X161374184Y-62591114D01*
X161374500Y-62599960D01*
X161374500Y-66096864D01*
X161354815Y-66163903D01*
X161302011Y-66209658D01*
X161253155Y-66218293D01*
X161250000Y-66221210D01*
X161250000Y-66876000D01*
X161230315Y-66943039D01*
X161177511Y-66988794D01*
X161126000Y-67000000D01*
X161000000Y-67000000D01*
X161000000Y-67126000D01*
X160980315Y-67193039D01*
X160927511Y-67238794D01*
X160876000Y-67250000D01*
X160195496Y-67250000D01*
X160237968Y-67396195D01*
X160320278Y-67535374D01*
X160320285Y-67535383D01*
X160370839Y-67585936D01*
X160404325Y-67647259D01*
X160400201Y-67714571D01*
X160392289Y-67737180D01*
X160392289Y-67737181D01*
X160389500Y-67766929D01*
X160389500Y-67952745D01*
X160369815Y-68019784D01*
X160353181Y-68040426D01*
X160179522Y-68214084D01*
X160179520Y-68214087D01*
X160126794Y-68305410D01*
X160104859Y-68387269D01*
X160104859Y-68387273D01*
X160099500Y-68407273D01*
X160099500Y-68407275D01*
X160099500Y-68733745D01*
X160079815Y-68800784D01*
X160027011Y-68846539D01*
X159957853Y-68856483D01*
X159894297Y-68827458D01*
X159887819Y-68821426D01*
X159096819Y-68030426D01*
X159063334Y-67969103D01*
X159060500Y-67942745D01*
X159060500Y-67776929D01*
X159057710Y-67747185D01*
X159057710Y-67747181D01*
X159057708Y-67747177D01*
X159057708Y-67747173D01*
X159027204Y-67660003D01*
X159013852Y-67621843D01*
X159010210Y-67616909D01*
X158986240Y-67551281D01*
X159001555Y-67483110D01*
X159051296Y-67434042D01*
X159109981Y-67419276D01*
X159134246Y-67419276D01*
X159134248Y-67419276D01*
X159236109Y-67391983D01*
X159327434Y-67339256D01*
X159753472Y-66913218D01*
X159806199Y-66821893D01*
X159833492Y-66720032D01*
X159833492Y-66614578D01*
X159833492Y-66550544D01*
X159842136Y-66521103D01*
X159848660Y-66491117D01*
X159852414Y-66486101D01*
X159853177Y-66483505D01*
X159869811Y-66462863D01*
X159895855Y-66436819D01*
X159957178Y-66403334D01*
X159983536Y-66400500D01*
X160052724Y-66400500D01*
X160052727Y-66400500D01*
X160122229Y-66381877D01*
X160192075Y-66383540D01*
X160249937Y-66422702D01*
X160277442Y-66486930D01*
X160265856Y-66555833D01*
X160261052Y-66564772D01*
X160237968Y-66603805D01*
X160195496Y-66750000D01*
X160750000Y-66750000D01*
X160750000Y-66221210D01*
X160749999Y-66221209D01*
X160729087Y-66222854D01*
X160649427Y-66245998D01*
X160579558Y-66245798D01*
X160520888Y-66207855D01*
X160492045Y-66144217D01*
X160502186Y-66075087D01*
X160527148Y-66039242D01*
X160735706Y-65830684D01*
X160735711Y-65830681D01*
X160745911Y-65820480D01*
X160745913Y-65820480D01*
X160820480Y-65745913D01*
X160871499Y-65657546D01*
X160873207Y-65654588D01*
X160900500Y-65552727D01*
X160900500Y-65447273D01*
X160900500Y-65047273D01*
X160880654Y-64973207D01*
X160873207Y-64945412D01*
X160831519Y-64873207D01*
X160820480Y-64854087D01*
X160745913Y-64779520D01*
X160745912Y-64779519D01*
X160741582Y-64775189D01*
X160741571Y-64775179D01*
X160436819Y-64470426D01*
X160403334Y-64409103D01*
X160400500Y-64382745D01*
X160400500Y-63834627D01*
X160400499Y-63834623D01*
X160392117Y-63803341D01*
X160381341Y-63763121D01*
X160373207Y-63732764D01*
X160320480Y-63641439D01*
X159630721Y-62951680D01*
X159597236Y-62890357D01*
X159602220Y-62820665D01*
X159644092Y-62764732D01*
X159709556Y-62740315D01*
X159718402Y-62739999D01*
X159734624Y-62739999D01*
X159734649Y-62739998D01*
X159770911Y-62737145D01*
X159926194Y-62692032D01*
X159936875Y-62685715D01*
X160004598Y-62668530D01*
X160063125Y-62685715D01*
X160073805Y-62692032D01*
X160229089Y-62737145D01*
X160250000Y-62738789D01*
X160250000Y-62210000D01*
X159624000Y-62210000D01*
X159556961Y-62190315D01*
X159511206Y-62137511D01*
X159500000Y-62086000D01*
X159500000Y-61834000D01*
X159519685Y-61766961D01*
X159572489Y-61721206D01*
X159624000Y-61710000D01*
X160376000Y-61710000D01*
X160443039Y-61729685D01*
G37*
%TD.AperFunction*%
%TA.AperFunction,Conductor*%
G36*
X157958648Y-63420185D02*
G01*
X158004403Y-63472989D01*
X158014347Y-63542147D01*
X158009994Y-63561390D01*
X158006409Y-63572893D01*
X158000000Y-63643427D01*
X158000000Y-64250000D01*
X158776000Y-64250000D01*
X158843039Y-64269685D01*
X158888794Y-64322489D01*
X158900000Y-64374000D01*
X158900000Y-64626000D01*
X158880315Y-64693039D01*
X158827511Y-64738794D01*
X158776000Y-64750000D01*
X158000002Y-64750000D01*
X157987540Y-64762460D01*
X157980312Y-64787074D01*
X157927506Y-64832827D01*
X157858347Y-64842767D01*
X157794793Y-64813739D01*
X157788319Y-64807711D01*
X157447471Y-64466863D01*
X156783950Y-63803341D01*
X156750465Y-63742018D01*
X156755449Y-63672326D01*
X156797321Y-63616393D01*
X156862785Y-63591976D01*
X156903720Y-63595885D01*
X156920943Y-63600500D01*
X156920946Y-63600500D01*
X157079055Y-63600500D01*
X157079057Y-63600500D01*
X157231784Y-63559577D01*
X157368716Y-63480520D01*
X157412417Y-63436819D01*
X157473740Y-63403334D01*
X157500098Y-63400500D01*
X157891609Y-63400500D01*
X157958648Y-63420185D01*
G37*
%TD.AperFunction*%
%TA.AperFunction,Conductor*%
G36*
X156643039Y-61394685D02*
G01*
X156688794Y-61447489D01*
X156700000Y-61499000D01*
X156700000Y-62376580D01*
X156701511Y-62379348D01*
X156700000Y-62400476D01*
X156700000Y-62401361D01*
X156699937Y-62401361D01*
X156696527Y-62449040D01*
X156654655Y-62504973D01*
X156642347Y-62513092D01*
X156631287Y-62519477D01*
X156631282Y-62519481D01*
X156519481Y-62631282D01*
X156519475Y-62631290D01*
X156440426Y-62768209D01*
X156440423Y-62768216D01*
X156399500Y-62920943D01*
X156399500Y-63079057D01*
X156402590Y-63090589D01*
X156404114Y-63096276D01*
X156402449Y-63166126D01*
X156363285Y-63223988D01*
X156299056Y-63251490D01*
X156230154Y-63239902D01*
X156196657Y-63216048D01*
X156136819Y-63156210D01*
X156103334Y-63094887D01*
X156100500Y-63068529D01*
X156100500Y-62473998D01*
X156120185Y-62406959D01*
X156172989Y-62361204D01*
X156193191Y-62356808D01*
X156200000Y-62349999D01*
X156200000Y-61499000D01*
X156219685Y-61431961D01*
X156272489Y-61386206D01*
X156324000Y-61375000D01*
X156576000Y-61375000D01*
X156643039Y-61394685D01*
G37*
%TD.AperFunction*%
%TA.AperFunction,Conductor*%
G36*
X157391265Y-62009772D02*
G01*
X157403724Y-62010424D01*
X157417880Y-62020604D01*
X157437544Y-62028608D01*
X157515025Y-62087364D01*
X157649410Y-62140359D01*
X157733856Y-62150500D01*
X157733862Y-62150500D01*
X158266138Y-62150500D01*
X158266144Y-62150500D01*
X158350590Y-62140359D01*
X158484975Y-62087364D01*
X158491967Y-62082061D01*
X158557277Y-62057237D01*
X158625641Y-62071664D01*
X158675354Y-62120760D01*
X158690512Y-62171137D01*
X158692854Y-62200910D01*
X158737969Y-62356196D01*
X158771195Y-62412379D01*
X158788378Y-62480103D01*
X158766218Y-62546366D01*
X158711752Y-62590129D01*
X158664463Y-62599500D01*
X157500098Y-62599500D01*
X157433059Y-62579815D01*
X157412417Y-62563181D01*
X157368717Y-62519481D01*
X157368709Y-62519475D01*
X157231790Y-62440426D01*
X157231785Y-62440423D01*
X157199831Y-62431861D01*
X157162429Y-62421839D01*
X157102770Y-62385475D01*
X157072241Y-62322628D01*
X157080536Y-62253252D01*
X157105182Y-62216077D01*
X157273278Y-62041425D01*
X157292538Y-62030424D01*
X157309029Y-62015592D01*
X157322286Y-62013434D01*
X157333950Y-62006773D01*
X157356097Y-62007931D01*
X157377991Y-62004369D01*
X157391265Y-62009772D01*
G37*
%TD.AperFunction*%
%TA.AperFunction,Conductor*%
G36*
X168332540Y-48540185D02*
G01*
X168378295Y-48592989D01*
X168389501Y-48644500D01*
X168389501Y-49014856D01*
X168389502Y-49014882D01*
X168392413Y-49039987D01*
X168392415Y-49039991D01*
X168437793Y-49142764D01*
X168437794Y-49142765D01*
X168517235Y-49222206D01*
X168620009Y-49267585D01*
X168645135Y-49270500D01*
X169382873Y-49270499D01*
X169449910Y-49290183D01*
X169495665Y-49342987D01*
X169505609Y-49412146D01*
X169476584Y-49475702D01*
X169417806Y-49513476D01*
X169402270Y-49516972D01*
X169270589Y-49537829D01*
X169098363Y-49593787D01*
X169098360Y-49593788D01*
X168937002Y-49676006D01*
X168790505Y-49782441D01*
X168790500Y-49782445D01*
X168662445Y-49910500D01*
X168662441Y-49910505D01*
X168556006Y-50057002D01*
X168473788Y-50218360D01*
X168473787Y-50218363D01*
X168417829Y-50390589D01*
X168389500Y-50569448D01*
X168389500Y-50750551D01*
X168417829Y-50929410D01*
X168464575Y-51073281D01*
X168466570Y-51143122D01*
X168434325Y-51199280D01*
X166330994Y-53302612D01*
X166330992Y-53302615D01*
X166278263Y-53393942D01*
X166258366Y-53468205D01*
X166258366Y-53468206D01*
X166250972Y-53495800D01*
X166250972Y-60783964D01*
X166231287Y-60851003D01*
X166178483Y-60896758D01*
X166109325Y-60906702D01*
X166094883Y-60903740D01*
X166079058Y-60899500D01*
X166079057Y-60899500D01*
X165920943Y-60899500D01*
X165768216Y-60940423D01*
X165768209Y-60940426D01*
X165631290Y-61019475D01*
X165631282Y-61019481D01*
X165519481Y-61131282D01*
X165519475Y-61131290D01*
X165440426Y-61268209D01*
X165440423Y-61268216D01*
X165399500Y-61420943D01*
X165399500Y-61475500D01*
X165396949Y-61484185D01*
X165398238Y-61493147D01*
X165387259Y-61517187D01*
X165379815Y-61542539D01*
X165372974Y-61548466D01*
X165369213Y-61556703D01*
X165346978Y-61570992D01*
X165327011Y-61588294D01*
X165316496Y-61590581D01*
X165310435Y-61594477D01*
X165275500Y-61599500D01*
X165217254Y-61599500D01*
X165150215Y-61579815D01*
X165129573Y-61563181D01*
X164436819Y-60870426D01*
X164403334Y-60809103D01*
X164400500Y-60782745D01*
X164400500Y-60447275D01*
X164400499Y-60447271D01*
X164400460Y-60447126D01*
X164393806Y-60422290D01*
X164373207Y-60345412D01*
X164320480Y-60254087D01*
X162636819Y-58570426D01*
X162603334Y-58509103D01*
X162600500Y-58482745D01*
X162600500Y-58420945D01*
X162600500Y-58420943D01*
X162559577Y-58268216D01*
X162559573Y-58268209D01*
X162480524Y-58131290D01*
X162480521Y-58131287D01*
X162480520Y-58131284D01*
X162480517Y-58131281D01*
X162475574Y-58124839D01*
X162477148Y-58123630D01*
X162448813Y-58071739D01*
X162453797Y-58002047D01*
X162482298Y-57957700D01*
X162484995Y-57955001D01*
X162484999Y-57954999D01*
X162563852Y-57848157D01*
X162607710Y-57722819D01*
X162610500Y-57693066D01*
X162610500Y-57306934D01*
X162609475Y-57296006D01*
X162607711Y-57277190D01*
X162607710Y-57277189D01*
X162607710Y-57277181D01*
X162599797Y-57254569D01*
X162596237Y-57184794D01*
X162629160Y-57125936D01*
X162679716Y-57075380D01*
X162679722Y-57075372D01*
X162762031Y-56936195D01*
X162804504Y-56790000D01*
X162124000Y-56790000D01*
X162056961Y-56770315D01*
X162011206Y-56717511D01*
X162000000Y-56666000D01*
X162000000Y-56414000D01*
X162019685Y-56346961D01*
X162072489Y-56301206D01*
X162124000Y-56290000D01*
X162804504Y-56290000D01*
X162762031Y-56143804D01*
X162679721Y-56004625D01*
X162679714Y-56004616D01*
X162565383Y-55890285D01*
X162565374Y-55890278D01*
X162426196Y-55807969D01*
X162270910Y-55762854D01*
X162270899Y-55762852D01*
X162264767Y-55762370D01*
X162199479Y-55737484D01*
X162158010Y-55681252D01*
X162150500Y-55638753D01*
X162150500Y-54244500D01*
X162170185Y-54177461D01*
X162222989Y-54131706D01*
X162274500Y-54120500D01*
X162360630Y-54120500D01*
X162360636Y-54120500D01*
X162433625Y-54109866D01*
X162495326Y-54079701D01*
X162564199Y-54067942D01*
X162590742Y-54074061D01*
X162715299Y-54117646D01*
X162745730Y-54120500D01*
X163079899Y-54120500D01*
X163146938Y-54140185D01*
X163167581Y-54156820D01*
X163198438Y-54187678D01*
X163198447Y-54187685D01*
X163339801Y-54271281D01*
X163497514Y-54317100D01*
X163497511Y-54317100D01*
X163499998Y-54317295D01*
X163500000Y-54317295D01*
X163500000Y-53911932D01*
X163506959Y-53870977D01*
X163543141Y-53767574D01*
X163547646Y-53754699D01*
X163550500Y-53724266D01*
X163550500Y-53219000D01*
X163553050Y-53210314D01*
X163551762Y-53201353D01*
X163562740Y-53177312D01*
X163570185Y-53151961D01*
X163577025Y-53146033D01*
X163580787Y-53137797D01*
X163603021Y-53123507D01*
X163622989Y-53106206D01*
X163633503Y-53103918D01*
X163639565Y-53100023D01*
X163674500Y-53095000D01*
X163876000Y-53095000D01*
X163943039Y-53114685D01*
X163988794Y-53167489D01*
X164000000Y-53219000D01*
X164000000Y-54317295D01*
X164000001Y-54317295D01*
X164002486Y-54317100D01*
X164160198Y-54271281D01*
X164301552Y-54187685D01*
X164301561Y-54187678D01*
X164417678Y-54071561D01*
X164417685Y-54071552D01*
X164501282Y-53930196D01*
X164501283Y-53930193D01*
X164547099Y-53772495D01*
X164547100Y-53772488D01*
X164547487Y-53767574D01*
X164570000Y-53708501D01*
X164570000Y-52896988D01*
X164579940Y-52914205D01*
X164635795Y-52970060D01*
X164704204Y-53009556D01*
X164780504Y-53030000D01*
X164859496Y-53030000D01*
X164935796Y-53009556D01*
X165004205Y-52970060D01*
X165060060Y-52914205D01*
X165070000Y-52896988D01*
X165070000Y-53699862D01*
X165111690Y-53691569D01*
X165111692Y-53691569D01*
X165293671Y-53616192D01*
X165293684Y-53616185D01*
X165457462Y-53506751D01*
X165457466Y-53506748D01*
X165596748Y-53367466D01*
X165596751Y-53367462D01*
X165706185Y-53203684D01*
X165706192Y-53203671D01*
X165781569Y-53021693D01*
X165781572Y-53021681D01*
X165819999Y-52828495D01*
X165820000Y-52828492D01*
X165820000Y-52430000D01*
X165120000Y-52430000D01*
X165120000Y-51930000D01*
X165820000Y-51930000D01*
X165820000Y-51531508D01*
X165819999Y-51531504D01*
X165781572Y-51338318D01*
X165781569Y-51338306D01*
X165706192Y-51156328D01*
X165706185Y-51156315D01*
X165596751Y-50992537D01*
X165596748Y-50992533D01*
X165457466Y-50853251D01*
X165457462Y-50853248D01*
X165293684Y-50743814D01*
X165293671Y-50743807D01*
X165132015Y-50676848D01*
X165077611Y-50633007D01*
X165055546Y-50566713D01*
X165072825Y-50499014D01*
X165091782Y-50474610D01*
X167009574Y-48556819D01*
X167070897Y-48523334D01*
X167097255Y-48520500D01*
X168265501Y-48520500D01*
X168332540Y-48540185D01*
G37*
%TD.AperFunction*%
%TA.AperFunction,Conductor*%
G36*
X153238572Y-52717839D02*
G01*
X153277984Y-52744377D01*
X153354087Y-52820480D01*
X153445412Y-52873207D01*
X153547273Y-52900500D01*
X153652727Y-52900500D01*
X154199902Y-52900500D01*
X154266941Y-52920185D01*
X154287583Y-52936819D01*
X154331284Y-52980520D01*
X154331286Y-52980521D01*
X154331290Y-52980524D01*
X154450488Y-53049342D01*
X154468216Y-53059577D01*
X154620943Y-53100500D01*
X154620945Y-53100500D01*
X154779055Y-53100500D01*
X154779057Y-53100500D01*
X154931784Y-53059577D01*
X155053323Y-52989406D01*
X155121222Y-52972934D01*
X155187249Y-52995787D01*
X155229883Y-53049342D01*
X155293807Y-53203671D01*
X155293814Y-53203684D01*
X155403248Y-53367462D01*
X155403251Y-53367466D01*
X155542533Y-53506748D01*
X155542537Y-53506751D01*
X155706315Y-53616185D01*
X155706328Y-53616192D01*
X155888308Y-53691569D01*
X155930000Y-53699862D01*
X155930000Y-52896988D01*
X155939940Y-52914205D01*
X155995795Y-52970060D01*
X156064204Y-53009556D01*
X156140504Y-53030000D01*
X156219496Y-53030000D01*
X156295796Y-53009556D01*
X156364205Y-52970060D01*
X156420060Y-52914205D01*
X156430000Y-52896988D01*
X156430000Y-53714390D01*
X156446894Y-53739193D01*
X156452511Y-53767563D01*
X156452898Y-53772482D01*
X156452900Y-53772495D01*
X156498716Y-53930193D01*
X156498717Y-53930196D01*
X156582314Y-54071552D01*
X156582321Y-54071561D01*
X156698438Y-54187678D01*
X156698447Y-54187685D01*
X156839803Y-54271282D01*
X156839802Y-54271282D01*
X156888368Y-54285391D01*
X156947254Y-54322997D01*
X156976462Y-54386469D01*
X156966717Y-54455655D01*
X156941456Y-54492149D01*
X156736049Y-54697556D01*
X156674726Y-54731041D01*
X156663156Y-54732990D01*
X156649410Y-54734641D01*
X156649403Y-54734642D01*
X156515027Y-54787634D01*
X156515025Y-54787635D01*
X156437545Y-54846390D01*
X156372233Y-54871213D01*
X156303869Y-54856785D01*
X156257082Y-54812684D01*
X156247573Y-54797268D01*
X156127732Y-54677427D01*
X156127728Y-54677424D01*
X155983492Y-54588457D01*
X155983481Y-54588452D01*
X155822606Y-54535144D01*
X155723322Y-54525000D01*
X155700000Y-54525000D01*
X155700000Y-56474999D01*
X155723308Y-56474999D01*
X155723322Y-56474998D01*
X155822607Y-56464855D01*
X155983481Y-56411547D01*
X155983492Y-56411542D01*
X156127728Y-56322575D01*
X156127732Y-56322572D01*
X156247573Y-56202731D01*
X156257081Y-56187317D01*
X156266112Y-56179193D01*
X156271503Y-56168308D01*
X156291605Y-56156263D01*
X156309029Y-56140592D01*
X156321018Y-56138640D01*
X156331438Y-56132398D01*
X156354859Y-56133133D01*
X156377991Y-56129369D01*
X156390861Y-56134264D01*
X156401273Y-56134591D01*
X156426510Y-56147822D01*
X156432902Y-56150254D01*
X156435265Y-56151879D01*
X156515025Y-56212364D01*
X156534140Y-56219901D01*
X156545782Y-56227911D01*
X156559263Y-56244493D01*
X156576131Y-56257617D01*
X156580863Y-56271063D01*
X156589856Y-56282125D01*
X156592231Y-56303364D01*
X156599327Y-56323524D01*
X156599500Y-56330070D01*
X156599500Y-56474872D01*
X156579815Y-56541911D01*
X156549134Y-56574642D01*
X156527850Y-56590350D01*
X156447207Y-56699617D01*
X156447206Y-56699619D01*
X156402353Y-56827798D01*
X156402353Y-56827800D01*
X156399500Y-56858230D01*
X156399500Y-58013878D01*
X156379815Y-58080917D01*
X156327011Y-58126672D01*
X156311722Y-58129371D01*
X156300000Y-58140203D01*
X156300000Y-59125000D01*
X156850000Y-59125000D01*
X156850000Y-58721865D01*
X156849999Y-58721850D01*
X156847100Y-58685008D01*
X156846967Y-58684280D01*
X156847010Y-58683868D01*
X156846603Y-58678692D01*
X156847563Y-58678616D01*
X156854286Y-58614795D01*
X156898009Y-58560297D01*
X156964255Y-58538089D01*
X156968949Y-58538000D01*
X157204265Y-58538000D01*
X157204266Y-58538000D01*
X157224532Y-58536099D01*
X157293116Y-58549436D01*
X157343603Y-58597737D01*
X157359962Y-58665664D01*
X157353158Y-58700500D01*
X157352354Y-58702798D01*
X157352353Y-58702800D01*
X157349500Y-58733230D01*
X157349500Y-60016769D01*
X157352353Y-60047199D01*
X157352353Y-60047201D01*
X157397206Y-60175380D01*
X157397207Y-60175382D01*
X157477440Y-60284095D01*
X157477851Y-60284651D01*
X157549133Y-60337259D01*
X157552154Y-60341238D01*
X157556703Y-60343316D01*
X157573076Y-60368794D01*
X157591384Y-60392906D01*
X157592511Y-60399035D01*
X157594477Y-60402094D01*
X157599500Y-60437029D01*
X157599500Y-60544928D01*
X157579815Y-60611967D01*
X157527011Y-60657722D01*
X157520996Y-60660280D01*
X157515028Y-60662633D01*
X157515025Y-60662635D01*
X157437545Y-60721390D01*
X157372233Y-60746213D01*
X157303869Y-60731785D01*
X157257082Y-60687684D01*
X157247573Y-60672268D01*
X157127732Y-60552427D01*
X157127728Y-60552424D01*
X156983492Y-60463457D01*
X156983481Y-60463452D01*
X156858133Y-60421916D01*
X156800688Y-60382143D01*
X156773865Y-60317627D01*
X156786180Y-60248852D01*
X156790406Y-60241088D01*
X156801281Y-60222698D01*
X156801283Y-60222693D01*
X156847099Y-60064995D01*
X156847100Y-60064989D01*
X156849999Y-60028149D01*
X156850000Y-60028134D01*
X156850000Y-59625000D01*
X156174000Y-59625000D01*
X156106961Y-59605315D01*
X156061206Y-59552511D01*
X156050000Y-59501000D01*
X156050000Y-59375000D01*
X155924000Y-59375000D01*
X155856961Y-59355315D01*
X155811206Y-59302511D01*
X155800000Y-59251000D01*
X155800000Y-58140203D01*
X155797503Y-58140400D01*
X155639806Y-58186216D01*
X155639803Y-58186217D01*
X155498447Y-58269814D01*
X155498438Y-58269821D01*
X155382321Y-58385938D01*
X155382314Y-58385947D01*
X155298717Y-58527303D01*
X155298716Y-58527306D01*
X155252900Y-58685004D01*
X155252899Y-58685010D01*
X155250000Y-58721850D01*
X155250000Y-59087297D01*
X155230315Y-59154336D01*
X155177511Y-59200091D01*
X155108353Y-59210035D01*
X155044797Y-59181010D01*
X155038319Y-59174978D01*
X152582878Y-56719537D01*
X152549393Y-56658214D01*
X152554377Y-56588522D01*
X152582877Y-56544176D01*
X152637553Y-56489501D01*
X152743996Y-56342994D01*
X152826211Y-56181639D01*
X152882171Y-56009409D01*
X152896919Y-55916291D01*
X152910500Y-55830551D01*
X152910500Y-55798322D01*
X154500001Y-55798322D01*
X154510144Y-55897607D01*
X154563452Y-56058481D01*
X154563457Y-56058492D01*
X154652424Y-56202728D01*
X154652427Y-56202732D01*
X154772267Y-56322572D01*
X154772271Y-56322575D01*
X154916507Y-56411542D01*
X154916518Y-56411547D01*
X155077393Y-56464855D01*
X155176683Y-56474999D01*
X155200000Y-56474998D01*
X155200000Y-55750000D01*
X154500001Y-55750000D01*
X154500001Y-55798322D01*
X152910500Y-55798322D01*
X152910500Y-55649448D01*
X152885230Y-55489906D01*
X152882171Y-55470591D01*
X152851798Y-55377112D01*
X152826212Y-55298363D01*
X152826209Y-55298355D01*
X152804028Y-55254824D01*
X152804027Y-55254823D01*
X152801570Y-55250000D01*
X152776948Y-55201677D01*
X154500000Y-55201677D01*
X154500000Y-55250000D01*
X155200000Y-55250000D01*
X155200000Y-54524999D01*
X155176693Y-54525000D01*
X155176674Y-54525001D01*
X155077392Y-54535144D01*
X154916518Y-54588452D01*
X154916507Y-54588457D01*
X154772271Y-54677424D01*
X154772267Y-54677427D01*
X154652427Y-54797267D01*
X154652424Y-54797271D01*
X154563457Y-54941507D01*
X154563452Y-54941518D01*
X154510144Y-55102393D01*
X154500000Y-55201677D01*
X152776948Y-55201677D01*
X152743996Y-55137006D01*
X152718848Y-55102393D01*
X152637558Y-54990505D01*
X152637554Y-54990500D01*
X152509499Y-54862445D01*
X152509494Y-54862441D01*
X152362995Y-54756004D01*
X152231314Y-54688908D01*
X152180519Y-54640934D01*
X152163724Y-54573113D01*
X152186262Y-54506978D01*
X152240977Y-54463527D01*
X152249295Y-54460492D01*
X152278217Y-54451095D01*
X152467554Y-54354622D01*
X152521716Y-54315270D01*
X152521717Y-54315270D01*
X151889408Y-53682962D01*
X151952993Y-53665925D01*
X152067007Y-53600099D01*
X152160099Y-53507007D01*
X152225925Y-53392993D01*
X152242962Y-53329408D01*
X152875270Y-53961717D01*
X152875270Y-53961716D01*
X152914622Y-53907554D01*
X153011095Y-53718217D01*
X153076757Y-53516130D01*
X153076757Y-53516127D01*
X153110000Y-53306246D01*
X153110000Y-53093753D01*
X153076758Y-52883873D01*
X153072373Y-52870378D01*
X153070377Y-52800537D01*
X153106457Y-52740704D01*
X153169158Y-52709875D01*
X153238572Y-52717839D01*
G37*
%TD.AperFunction*%
%TA.AperFunction,Conductor*%
G36*
X158693039Y-56039685D02*
G01*
X158738794Y-56092489D01*
X158750000Y-56144000D01*
X158750000Y-56789930D01*
X158785122Y-56787167D01*
X158785128Y-56787166D01*
X158939188Y-56742407D01*
X158939191Y-56742406D01*
X159077285Y-56660738D01*
X159077294Y-56660731D01*
X159162819Y-56575207D01*
X159224142Y-56541722D01*
X159293834Y-56546706D01*
X159349767Y-56588578D01*
X159374184Y-56654042D01*
X159374500Y-56662888D01*
X159374500Y-58145924D01*
X159401793Y-58247787D01*
X159413584Y-58268209D01*
X159454520Y-58339111D01*
X159454522Y-58339113D01*
X160343183Y-59227774D01*
X160376668Y-59289097D01*
X160371684Y-59358789D01*
X160329812Y-59414722D01*
X160287599Y-59435229D01*
X160268217Y-59440422D01*
X160268209Y-59440426D01*
X160131290Y-59519475D01*
X160131282Y-59519481D01*
X160019481Y-59631282D01*
X160019475Y-59631290D01*
X159940426Y-59768209D01*
X159940423Y-59768216D01*
X159899500Y-59920943D01*
X159899500Y-60079057D01*
X159938472Y-60224500D01*
X159940423Y-60231783D01*
X159940423Y-60231784D01*
X159958658Y-60263368D01*
X159975130Y-60331268D01*
X159952277Y-60397295D01*
X159897355Y-60440485D01*
X159827802Y-60447126D01*
X159810315Y-60442408D01*
X159752826Y-60422291D01*
X159752814Y-60422289D01*
X159723070Y-60419500D01*
X159723066Y-60419500D01*
X159276934Y-60419500D01*
X159276930Y-60419500D01*
X159247185Y-60422289D01*
X159247173Y-60422291D01*
X159121844Y-60466147D01*
X159015000Y-60545001D01*
X159011950Y-60549135D01*
X158956302Y-60591385D01*
X158912181Y-60599500D01*
X158524500Y-60599500D01*
X158515814Y-60596949D01*
X158506853Y-60598238D01*
X158482812Y-60587259D01*
X158457461Y-60579815D01*
X158451533Y-60572974D01*
X158443297Y-60569213D01*
X158429007Y-60546978D01*
X158411706Y-60527011D01*
X158409418Y-60516496D01*
X158405523Y-60510435D01*
X158400500Y-60475500D01*
X158400500Y-60354788D01*
X158420185Y-60287749D01*
X158424730Y-60281155D01*
X158502790Y-60175386D01*
X158502789Y-60175386D01*
X158502793Y-60175382D01*
X158528996Y-60100499D01*
X158547646Y-60047201D01*
X158547646Y-60047199D01*
X158550500Y-60016769D01*
X158550500Y-58733230D01*
X158547646Y-58702800D01*
X158547646Y-58702798D01*
X158502793Y-58574619D01*
X158502792Y-58574617D01*
X158499699Y-58570426D01*
X158422150Y-58465350D01*
X158312882Y-58384707D01*
X158312880Y-58384706D01*
X158184700Y-58339853D01*
X158154270Y-58337000D01*
X158154266Y-58337000D01*
X157745734Y-58337000D01*
X157729852Y-58338489D01*
X157725462Y-58338901D01*
X157656878Y-58325560D01*
X157606394Y-58277257D01*
X157590038Y-58209329D01*
X157596847Y-58174484D01*
X157597646Y-58172199D01*
X157600500Y-58141769D01*
X157600500Y-56858230D01*
X157597646Y-56827800D01*
X157597646Y-56827798D01*
X157552793Y-56699619D01*
X157552792Y-56699617D01*
X157472150Y-56590350D01*
X157450865Y-56574641D01*
X157447843Y-56570661D01*
X157443297Y-56568585D01*
X157426926Y-56543111D01*
X157408615Y-56518994D01*
X157407487Y-56512863D01*
X157405523Y-56509807D01*
X157400500Y-56474872D01*
X157400500Y-56330070D01*
X157420185Y-56263031D01*
X157472989Y-56217276D01*
X157478973Y-56214730D01*
X157484975Y-56212364D01*
X157493238Y-56206097D01*
X157558547Y-56181273D01*
X157626912Y-56195698D01*
X157676625Y-56244793D01*
X157687242Y-56270304D01*
X157727592Y-56409188D01*
X157727593Y-56409191D01*
X157809261Y-56547285D01*
X157809268Y-56547294D01*
X157922705Y-56660731D01*
X157922714Y-56660738D01*
X158060808Y-56742406D01*
X158060811Y-56742407D01*
X158214871Y-56787166D01*
X158214877Y-56787167D01*
X158250000Y-56789931D01*
X158250000Y-56144000D01*
X158269685Y-56076961D01*
X158322489Y-56031206D01*
X158374000Y-56020000D01*
X158626000Y-56020000D01*
X158693039Y-56039685D01*
G37*
%TD.AperFunction*%
%TA.AperFunction,Conductor*%
G36*
X168153028Y-52715876D02*
G01*
X168208962Y-52757748D01*
X168233379Y-52823212D01*
X168227628Y-52870370D01*
X168223243Y-52883866D01*
X168223242Y-52883872D01*
X168190000Y-53093753D01*
X168190000Y-53306246D01*
X168223242Y-53516127D01*
X168223242Y-53516130D01*
X168288904Y-53718217D01*
X168385375Y-53907550D01*
X168424728Y-53961716D01*
X169057037Y-53329408D01*
X169074075Y-53392993D01*
X169139901Y-53507007D01*
X169232993Y-53600099D01*
X169347007Y-53665925D01*
X169410590Y-53682962D01*
X168778282Y-54315269D01*
X168778282Y-54315270D01*
X168832449Y-54354624D01*
X169021780Y-54451094D01*
X169050705Y-54460492D01*
X169108381Y-54499929D01*
X169135580Y-54564287D01*
X169123667Y-54633134D01*
X169076424Y-54684610D01*
X169068685Y-54688908D01*
X168937004Y-54756004D01*
X168790505Y-54862441D01*
X168790500Y-54862445D01*
X168662445Y-54990500D01*
X168662441Y-54990505D01*
X168556006Y-55137002D01*
X168473788Y-55298360D01*
X168473787Y-55298363D01*
X168417829Y-55470589D01*
X168389500Y-55649448D01*
X168389500Y-55830551D01*
X168417829Y-56009410D01*
X168464575Y-56153281D01*
X168466570Y-56223122D01*
X168434325Y-56279280D01*
X167263653Y-57449953D01*
X167202330Y-57483438D01*
X167132638Y-57478454D01*
X167076705Y-57436582D01*
X167052288Y-57371118D01*
X167051972Y-57362272D01*
X167051972Y-53765782D01*
X167071657Y-53698743D01*
X167088286Y-53678106D01*
X168022017Y-52744375D01*
X168083337Y-52710892D01*
X168153028Y-52715876D01*
G37*
%TD.AperFunction*%
%TA.AperFunction,Conductor*%
G36*
X171642539Y-43920185D02*
G01*
X171688294Y-43972989D01*
X171699500Y-44024500D01*
X171699500Y-98875500D01*
X171679815Y-98942539D01*
X171627011Y-98988294D01*
X171575500Y-98999500D01*
X149724500Y-98999500D01*
X149657461Y-98979815D01*
X149611706Y-98927011D01*
X149600500Y-98875500D01*
X149600500Y-53093753D01*
X150410000Y-53093753D01*
X150410000Y-53306246D01*
X150443242Y-53516127D01*
X150443242Y-53516130D01*
X150508904Y-53718217D01*
X150605375Y-53907550D01*
X150644728Y-53961716D01*
X151277037Y-53329408D01*
X151294075Y-53392993D01*
X151359901Y-53507007D01*
X151452993Y-53600099D01*
X151567007Y-53665925D01*
X151630590Y-53682962D01*
X150998282Y-54315269D01*
X150998282Y-54315270D01*
X151052449Y-54354624D01*
X151241780Y-54451094D01*
X151270705Y-54460492D01*
X151328381Y-54499929D01*
X151355580Y-54564287D01*
X151343667Y-54633134D01*
X151296424Y-54684610D01*
X151288685Y-54688908D01*
X151157004Y-54756004D01*
X151010505Y-54862441D01*
X151010500Y-54862445D01*
X150882445Y-54990500D01*
X150882441Y-54990505D01*
X150776006Y-55137002D01*
X150693788Y-55298360D01*
X150693787Y-55298363D01*
X150637829Y-55470589D01*
X150609500Y-55649448D01*
X150609500Y-55830551D01*
X150637829Y-56009410D01*
X150693787Y-56181636D01*
X150693788Y-56181639D01*
X150738966Y-56270304D01*
X150766083Y-56323524D01*
X150776006Y-56342997D01*
X150882441Y-56489494D01*
X150882445Y-56489499D01*
X151010500Y-56617554D01*
X151010505Y-56617558D01*
X151077181Y-56666000D01*
X151157006Y-56723996D01*
X151247912Y-56770315D01*
X151318360Y-56806211D01*
X151318363Y-56806212D01*
X151384800Y-56827798D01*
X151490591Y-56862171D01*
X151572155Y-56875089D01*
X151591385Y-56884205D01*
X151612181Y-56888729D01*
X151631609Y-56903273D01*
X151635286Y-56905016D01*
X151640435Y-56909880D01*
X151661910Y-56931355D01*
X151695395Y-56992678D01*
X151690411Y-57062370D01*
X151648539Y-57118303D01*
X151593627Y-57141509D01*
X151490589Y-57157828D01*
X151318363Y-57213787D01*
X151318360Y-57213788D01*
X151157002Y-57296006D01*
X151010505Y-57402441D01*
X151010500Y-57402445D01*
X150882445Y-57530500D01*
X150882441Y-57530505D01*
X150776006Y-57677002D01*
X150693788Y-57838360D01*
X150693787Y-57838363D01*
X150637829Y-58010589D01*
X150609500Y-58189448D01*
X150609500Y-58370551D01*
X150637829Y-58549410D01*
X150693787Y-58721636D01*
X150693788Y-58721639D01*
X150743540Y-58819281D01*
X150774384Y-58879815D01*
X150776006Y-58882997D01*
X150882441Y-59029494D01*
X150882445Y-59029499D01*
X151010500Y-59157554D01*
X151010505Y-59157558D01*
X151107150Y-59227774D01*
X151157006Y-59263996D01*
X151262484Y-59317740D01*
X151318360Y-59346211D01*
X151318363Y-59346212D01*
X151404476Y-59374191D01*
X151490591Y-59402171D01*
X151563639Y-59413740D01*
X151650678Y-59427527D01*
X151713813Y-59457456D01*
X151750744Y-59516768D01*
X151749746Y-59586631D01*
X151711136Y-59644863D01*
X151650678Y-59672473D01*
X151490589Y-59697829D01*
X151318363Y-59753787D01*
X151318360Y-59753788D01*
X151157002Y-59836006D01*
X151010505Y-59942441D01*
X151010500Y-59942445D01*
X150882445Y-60070500D01*
X150882441Y-60070505D01*
X150776006Y-60217002D01*
X150693788Y-60378360D01*
X150693787Y-60378363D01*
X150637829Y-60550589D01*
X150609500Y-60729448D01*
X150609500Y-60910551D01*
X150637829Y-61089410D01*
X150693787Y-61261636D01*
X150693788Y-61261639D01*
X150737872Y-61348157D01*
X150771295Y-61413753D01*
X150776006Y-61422997D01*
X150882441Y-61569494D01*
X150882445Y-61569499D01*
X151010500Y-61697554D01*
X151010505Y-61697558D01*
X151106031Y-61766961D01*
X151157006Y-61803996D01*
X151262484Y-61857740D01*
X151318360Y-61886211D01*
X151318363Y-61886212D01*
X151404476Y-61914191D01*
X151490591Y-61942171D01*
X151563639Y-61953740D01*
X151650678Y-61967527D01*
X151713813Y-61997456D01*
X151750744Y-62056768D01*
X151749746Y-62126631D01*
X151711136Y-62184863D01*
X151650678Y-62212473D01*
X151490589Y-62237829D01*
X151318363Y-62293787D01*
X151318360Y-62293788D01*
X151157002Y-62376006D01*
X151010505Y-62482441D01*
X151010500Y-62482445D01*
X150882445Y-62610500D01*
X150882441Y-62610505D01*
X150776006Y-62757002D01*
X150693788Y-62918360D01*
X150693787Y-62918363D01*
X150637829Y-63090589D01*
X150609500Y-63269448D01*
X150609500Y-63450551D01*
X150637829Y-63629410D01*
X150693787Y-63801636D01*
X150693788Y-63801639D01*
X150776006Y-63962997D01*
X150882441Y-64109494D01*
X150882445Y-64109499D01*
X151010500Y-64237554D01*
X151010505Y-64237558D01*
X151054725Y-64269685D01*
X151157006Y-64343996D01*
X151233055Y-64382745D01*
X151288684Y-64411090D01*
X151339480Y-64459065D01*
X151356275Y-64526886D01*
X151333737Y-64593021D01*
X151279022Y-64636472D01*
X151270708Y-64639506D01*
X151241781Y-64648905D01*
X151052439Y-64745380D01*
X150998282Y-64784727D01*
X150998282Y-64784728D01*
X151630591Y-65417037D01*
X151567007Y-65434075D01*
X151452993Y-65499901D01*
X151359901Y-65592993D01*
X151294075Y-65707007D01*
X151277037Y-65770591D01*
X150644728Y-65138282D01*
X150644727Y-65138282D01*
X150605380Y-65192439D01*
X150508904Y-65381782D01*
X150443242Y-65583869D01*
X150443242Y-65583872D01*
X150410000Y-65793753D01*
X150410000Y-66006246D01*
X150443242Y-66216127D01*
X150443242Y-66216130D01*
X150508904Y-66418217D01*
X150605375Y-66607550D01*
X150644728Y-66661716D01*
X151277037Y-66029408D01*
X151294075Y-66092993D01*
X151359901Y-66207007D01*
X151452993Y-66300099D01*
X151567007Y-66365925D01*
X151630590Y-66382962D01*
X150998282Y-67015269D01*
X150998282Y-67015270D01*
X151052449Y-67054624D01*
X151241780Y-67151094D01*
X151270705Y-67160492D01*
X151328381Y-67199929D01*
X151355580Y-67264287D01*
X151343667Y-67333134D01*
X151296424Y-67384610D01*
X151288685Y-67388908D01*
X151157004Y-67456004D01*
X151010505Y-67562441D01*
X151010500Y-67562445D01*
X150882445Y-67690500D01*
X150882441Y-67690505D01*
X150776006Y-67837002D01*
X150693788Y-67998360D01*
X150693787Y-67998363D01*
X150637829Y-68170589D01*
X150609500Y-68349448D01*
X150609500Y-68530551D01*
X150637829Y-68709410D01*
X150693787Y-68881636D01*
X150693788Y-68881639D01*
X150724642Y-68942192D01*
X150775772Y-69042539D01*
X150776006Y-69042997D01*
X150882441Y-69189494D01*
X150882445Y-69189499D01*
X151010500Y-69317554D01*
X151010505Y-69317558D01*
X151128179Y-69403052D01*
X151157006Y-69423996D01*
X151262484Y-69477740D01*
X151318360Y-69506211D01*
X151318363Y-69506212D01*
X151366881Y-69521976D01*
X151490591Y-69562171D01*
X151563639Y-69573740D01*
X151650678Y-69587527D01*
X151713813Y-69617456D01*
X151750744Y-69676768D01*
X151749746Y-69746631D01*
X151711136Y-69804863D01*
X151650678Y-69832473D01*
X151490589Y-69857829D01*
X151318363Y-69913787D01*
X151318360Y-69913788D01*
X151157002Y-69996006D01*
X151010505Y-70102441D01*
X151010500Y-70102445D01*
X150882445Y-70230500D01*
X150882441Y-70230505D01*
X150776006Y-70377002D01*
X150693788Y-70538360D01*
X150693787Y-70538363D01*
X150637829Y-70710589D01*
X150609500Y-70889448D01*
X150609500Y-71070551D01*
X150637829Y-71249410D01*
X150693787Y-71421636D01*
X150693788Y-71421639D01*
X150776006Y-71582997D01*
X150882441Y-71729494D01*
X150882445Y-71729499D01*
X151010500Y-71857554D01*
X151010505Y-71857558D01*
X151100187Y-71922715D01*
X151157006Y-71963996D01*
X151255222Y-72014040D01*
X151318360Y-72046211D01*
X151318363Y-72046212D01*
X151355946Y-72058423D01*
X151490591Y-72102171D01*
X151563639Y-72113740D01*
X151650678Y-72127527D01*
X151713813Y-72157456D01*
X151750744Y-72216768D01*
X151749746Y-72286631D01*
X151711136Y-72344863D01*
X151650678Y-72372473D01*
X151490589Y-72397829D01*
X151318363Y-72453787D01*
X151318360Y-72453788D01*
X151157002Y-72536006D01*
X151010505Y-72642441D01*
X151010500Y-72642445D01*
X150882445Y-72770500D01*
X150882441Y-72770505D01*
X150776006Y-72917002D01*
X150693788Y-73078360D01*
X150693787Y-73078363D01*
X150637829Y-73250589D01*
X150609500Y-73429448D01*
X150609500Y-73610551D01*
X150637829Y-73789410D01*
X150693787Y-73961636D01*
X150693788Y-73961639D01*
X150776006Y-74122997D01*
X150882441Y-74269494D01*
X150882445Y-74269499D01*
X151010500Y-74397554D01*
X151010505Y-74397558D01*
X151138287Y-74490396D01*
X151157006Y-74503996D01*
X151262484Y-74557740D01*
X151318360Y-74586211D01*
X151318363Y-74586212D01*
X151404476Y-74614191D01*
X151490591Y-74642171D01*
X151563639Y-74653740D01*
X151650678Y-74667527D01*
X151713813Y-74697456D01*
X151750744Y-74756768D01*
X151749746Y-74826631D01*
X151711136Y-74884863D01*
X151650678Y-74912473D01*
X151490589Y-74937829D01*
X151318363Y-74993787D01*
X151318360Y-74993788D01*
X151157002Y-75076006D01*
X151010505Y-75182441D01*
X151010500Y-75182445D01*
X150882445Y-75310500D01*
X150882441Y-75310505D01*
X150776006Y-75457002D01*
X150693788Y-75618360D01*
X150693787Y-75618363D01*
X150637829Y-75790589D01*
X150609500Y-75969448D01*
X150609500Y-76150551D01*
X150637829Y-76329410D01*
X150693787Y-76501636D01*
X150693788Y-76501639D01*
X150749664Y-76611300D01*
X150759848Y-76631287D01*
X150776006Y-76662997D01*
X150882441Y-76809494D01*
X150882445Y-76809499D01*
X151010500Y-76937554D01*
X151010505Y-76937558D01*
X151134490Y-77027637D01*
X151157006Y-77043996D01*
X151225815Y-77079056D01*
X151288684Y-77111090D01*
X151339480Y-77159065D01*
X151356275Y-77226886D01*
X151333737Y-77293021D01*
X151279022Y-77336472D01*
X151270708Y-77339506D01*
X151241781Y-77348905D01*
X151052439Y-77445380D01*
X150998282Y-77484727D01*
X150998282Y-77484728D01*
X151630591Y-78117037D01*
X151567007Y-78134075D01*
X151452993Y-78199901D01*
X151359901Y-78292993D01*
X151294075Y-78407007D01*
X151277037Y-78470591D01*
X150644728Y-77838282D01*
X150644727Y-77838282D01*
X150605380Y-77892439D01*
X150508904Y-78081782D01*
X150443242Y-78283869D01*
X150443242Y-78283872D01*
X150410000Y-78493753D01*
X150410000Y-78706246D01*
X150443242Y-78916127D01*
X150443242Y-78916130D01*
X150508904Y-79118217D01*
X150605375Y-79307550D01*
X150644728Y-79361716D01*
X151277037Y-78729408D01*
X151294075Y-78792993D01*
X151359901Y-78907007D01*
X151452993Y-79000099D01*
X151567007Y-79065925D01*
X151630590Y-79082962D01*
X150998282Y-79715269D01*
X150998282Y-79715270D01*
X151052449Y-79754624D01*
X151241780Y-79851094D01*
X151270705Y-79860492D01*
X151328381Y-79899929D01*
X151355580Y-79964287D01*
X151343667Y-80033134D01*
X151296424Y-80084610D01*
X151288685Y-80088908D01*
X151157004Y-80156004D01*
X151010505Y-80262441D01*
X151010500Y-80262445D01*
X150882445Y-80390500D01*
X150882441Y-80390505D01*
X150776006Y-80537002D01*
X150693788Y-80698360D01*
X150693787Y-80698363D01*
X150637829Y-80870589D01*
X150609500Y-81049448D01*
X150609500Y-81230551D01*
X150637829Y-81409410D01*
X150693787Y-81581636D01*
X150693788Y-81581639D01*
X150749466Y-81690911D01*
X150770966Y-81733107D01*
X150776006Y-81742997D01*
X150882441Y-81889494D01*
X150882445Y-81889499D01*
X151010500Y-82017554D01*
X151010505Y-82017558D01*
X151138287Y-82110396D01*
X151157006Y-82123996D01*
X151262484Y-82177740D01*
X151318360Y-82206211D01*
X151318363Y-82206212D01*
X151404476Y-82234191D01*
X151490591Y-82262171D01*
X151563639Y-82273740D01*
X151650678Y-82287527D01*
X151713813Y-82317456D01*
X151750744Y-82376768D01*
X151749746Y-82446631D01*
X151711136Y-82504863D01*
X151650678Y-82532473D01*
X151490589Y-82557829D01*
X151318363Y-82613787D01*
X151318360Y-82613788D01*
X151157002Y-82696006D01*
X151010505Y-82802441D01*
X151010500Y-82802445D01*
X150882445Y-82930500D01*
X150882441Y-82930505D01*
X150776006Y-83077002D01*
X150693788Y-83238360D01*
X150693787Y-83238363D01*
X150637829Y-83410589D01*
X150609500Y-83589448D01*
X150609500Y-83770551D01*
X150637829Y-83949410D01*
X150693787Y-84121636D01*
X150693788Y-84121639D01*
X150776006Y-84282997D01*
X150882441Y-84429494D01*
X150882445Y-84429499D01*
X151010500Y-84557554D01*
X151010505Y-84557558D01*
X151106849Y-84627555D01*
X151157006Y-84663996D01*
X151254518Y-84713681D01*
X151318360Y-84746211D01*
X151318363Y-84746212D01*
X151369245Y-84762744D01*
X151490591Y-84802171D01*
X151563639Y-84813740D01*
X151650678Y-84827527D01*
X151713813Y-84857456D01*
X151750744Y-84916768D01*
X151749746Y-84986631D01*
X151711136Y-85044863D01*
X151650678Y-85072473D01*
X151490589Y-85097829D01*
X151318363Y-85153787D01*
X151318360Y-85153788D01*
X151157002Y-85236006D01*
X151010505Y-85342441D01*
X151010500Y-85342445D01*
X150882445Y-85470500D01*
X150882441Y-85470505D01*
X150776006Y-85617002D01*
X150693788Y-85778360D01*
X150693787Y-85778363D01*
X150637829Y-85950589D01*
X150609500Y-86129448D01*
X150609500Y-86310551D01*
X150637829Y-86489410D01*
X150693787Y-86661636D01*
X150693788Y-86661639D01*
X150776006Y-86822997D01*
X150882441Y-86969494D01*
X150882445Y-86969499D01*
X151010500Y-87097554D01*
X151010505Y-87097558D01*
X151138287Y-87190396D01*
X151157006Y-87203996D01*
X151233632Y-87243039D01*
X151318360Y-87286211D01*
X151318363Y-87286212D01*
X151369245Y-87302744D01*
X151490591Y-87342171D01*
X151563639Y-87353740D01*
X151650678Y-87367527D01*
X151713813Y-87397456D01*
X151750744Y-87456768D01*
X151749746Y-87526631D01*
X151711136Y-87584863D01*
X151650678Y-87612473D01*
X151490589Y-87637829D01*
X151318363Y-87693787D01*
X151318360Y-87693788D01*
X151157002Y-87776006D01*
X151010505Y-87882441D01*
X151010500Y-87882445D01*
X150882445Y-88010500D01*
X150882441Y-88010505D01*
X150776006Y-88157002D01*
X150693788Y-88318360D01*
X150693787Y-88318363D01*
X150637829Y-88490589D01*
X150609500Y-88669448D01*
X150609500Y-88850551D01*
X150637829Y-89029410D01*
X150693787Y-89201636D01*
X150693788Y-89201639D01*
X150743540Y-89299280D01*
X150764692Y-89340794D01*
X150776006Y-89362997D01*
X150882441Y-89509494D01*
X150882445Y-89509499D01*
X151010500Y-89637554D01*
X151010505Y-89637558D01*
X151078933Y-89687273D01*
X151157006Y-89743996D01*
X151252645Y-89792727D01*
X151288684Y-89811090D01*
X151339480Y-89859065D01*
X151356275Y-89926886D01*
X151333737Y-89993021D01*
X151279022Y-90036472D01*
X151270708Y-90039506D01*
X151241781Y-90048905D01*
X151052439Y-90145380D01*
X150998282Y-90184727D01*
X150998282Y-90184728D01*
X151630591Y-90817037D01*
X151567007Y-90834075D01*
X151452993Y-90899901D01*
X151359901Y-90992993D01*
X151294075Y-91107007D01*
X151277037Y-91170591D01*
X150644728Y-90538282D01*
X150644727Y-90538282D01*
X150605380Y-90592439D01*
X150508904Y-90781782D01*
X150443242Y-90983869D01*
X150443242Y-90983872D01*
X150410000Y-91193753D01*
X150410000Y-91406246D01*
X150443242Y-91616127D01*
X150443242Y-91616130D01*
X150508904Y-91818217D01*
X150605375Y-92007550D01*
X150644728Y-92061716D01*
X151277037Y-91429408D01*
X151294075Y-91492993D01*
X151359901Y-91607007D01*
X151452993Y-91700099D01*
X151567007Y-91765925D01*
X151630590Y-91782962D01*
X150998282Y-92415269D01*
X150998282Y-92415270D01*
X151052449Y-92454624D01*
X151241780Y-92551094D01*
X151270705Y-92560492D01*
X151328381Y-92599929D01*
X151355580Y-92664287D01*
X151343667Y-92733134D01*
X151296424Y-92784610D01*
X151288685Y-92788908D01*
X151157004Y-92856004D01*
X151010505Y-92962441D01*
X151010500Y-92962445D01*
X150882445Y-93090500D01*
X150882441Y-93090505D01*
X150776006Y-93237002D01*
X150693788Y-93398360D01*
X150693787Y-93398363D01*
X150637829Y-93570589D01*
X150609500Y-93749448D01*
X150609500Y-93930551D01*
X150637829Y-94109410D01*
X150693787Y-94281636D01*
X150693788Y-94281639D01*
X150776006Y-94442997D01*
X150882441Y-94589494D01*
X150882445Y-94589499D01*
X151010500Y-94717554D01*
X151010505Y-94717558D01*
X151096293Y-94779886D01*
X151157006Y-94823996D01*
X151262484Y-94877740D01*
X151318360Y-94906211D01*
X151318363Y-94906212D01*
X151403233Y-94933787D01*
X151490591Y-94962171D01*
X151563639Y-94973740D01*
X151650678Y-94987527D01*
X151713813Y-95017456D01*
X151750744Y-95076768D01*
X151749746Y-95146631D01*
X151711136Y-95204863D01*
X151650678Y-95232473D01*
X151490589Y-95257829D01*
X151318363Y-95313787D01*
X151318360Y-95313788D01*
X151157002Y-95396006D01*
X151010505Y-95502441D01*
X151010500Y-95502445D01*
X150882445Y-95630500D01*
X150882441Y-95630505D01*
X150776006Y-95777002D01*
X150693788Y-95938360D01*
X150693787Y-95938363D01*
X150637829Y-96110589D01*
X150609500Y-96289448D01*
X150609500Y-96470551D01*
X150637829Y-96649410D01*
X150693787Y-96821636D01*
X150693788Y-96821639D01*
X150776006Y-96982997D01*
X150882441Y-97129494D01*
X150882445Y-97129499D01*
X151010500Y-97257554D01*
X151010505Y-97257558D01*
X151137742Y-97350000D01*
X151157006Y-97363996D01*
X151262484Y-97417740D01*
X151318360Y-97446211D01*
X151318363Y-97446212D01*
X151404476Y-97474191D01*
X151490591Y-97502171D01*
X151573429Y-97515291D01*
X151669449Y-97530500D01*
X151669454Y-97530500D01*
X151850551Y-97530500D01*
X151937259Y-97516765D01*
X152029409Y-97502171D01*
X152201639Y-97446211D01*
X152362994Y-97363996D01*
X152509501Y-97257553D01*
X152637553Y-97129501D01*
X152743996Y-96982994D01*
X152826211Y-96821639D01*
X152882171Y-96649409D01*
X152905835Y-96500000D01*
X152910500Y-96470551D01*
X152910500Y-96289448D01*
X152894019Y-96185397D01*
X152882171Y-96110591D01*
X152835424Y-95966716D01*
X152833429Y-95896875D01*
X152865672Y-95840719D01*
X153601260Y-95105131D01*
X156849500Y-95105131D01*
X156849500Y-96894856D01*
X156849502Y-96894882D01*
X156852413Y-96919987D01*
X156852415Y-96919991D01*
X156897793Y-97022764D01*
X156897794Y-97022765D01*
X156977235Y-97102206D01*
X157080009Y-97147585D01*
X157105135Y-97150500D01*
X158894864Y-97150499D01*
X158894879Y-97150497D01*
X158894882Y-97150497D01*
X158919987Y-97147586D01*
X158919988Y-97147585D01*
X158919991Y-97147585D01*
X159022765Y-97102206D01*
X159102206Y-97022765D01*
X159147585Y-96919991D01*
X159150500Y-96894865D01*
X159150499Y-96763076D01*
X159170183Y-96696040D01*
X159222987Y-96650285D01*
X159292145Y-96640341D01*
X159355701Y-96669365D01*
X159382495Y-96703600D01*
X159382829Y-96703396D01*
X159384607Y-96706297D01*
X159384977Y-96706770D01*
X159385373Y-96707547D01*
X159424728Y-96761716D01*
X160057037Y-96129408D01*
X160074075Y-96192993D01*
X160139901Y-96307007D01*
X160232993Y-96400099D01*
X160347007Y-96465925D01*
X160410590Y-96482962D01*
X159778282Y-97115269D01*
X159778282Y-97115270D01*
X159832449Y-97154624D01*
X160021782Y-97251095D01*
X160223870Y-97316757D01*
X160433754Y-97350000D01*
X160646246Y-97350000D01*
X160856127Y-97316757D01*
X160856130Y-97316757D01*
X161058217Y-97251095D01*
X161247554Y-97154622D01*
X161301716Y-97115270D01*
X161301717Y-97115270D01*
X160669408Y-96482962D01*
X160732993Y-96465925D01*
X160847007Y-96400099D01*
X160940099Y-96307007D01*
X161005925Y-96192993D01*
X161022962Y-96129408D01*
X161655270Y-96761717D01*
X161655270Y-96761716D01*
X161694622Y-96707554D01*
X161791095Y-96518217D01*
X161800492Y-96489295D01*
X161839928Y-96431618D01*
X161904286Y-96404419D01*
X161973133Y-96416331D01*
X162024610Y-96463574D01*
X162028908Y-96471314D01*
X162096004Y-96602995D01*
X162202441Y-96749494D01*
X162202445Y-96749499D01*
X162330500Y-96877554D01*
X162330505Y-96877558D01*
X162458287Y-96970396D01*
X162477006Y-96983996D01*
X162553094Y-97022765D01*
X162638360Y-97066211D01*
X162638363Y-97066212D01*
X162724476Y-97094191D01*
X162810591Y-97122171D01*
X162893429Y-97135291D01*
X162989449Y-97150500D01*
X162989454Y-97150500D01*
X163170551Y-97150500D01*
X163257259Y-97136765D01*
X163349409Y-97122171D01*
X163521639Y-97066211D01*
X163682994Y-96983996D01*
X163829501Y-96877553D01*
X163957553Y-96749501D01*
X164063996Y-96602994D01*
X164146211Y-96441639D01*
X164202171Y-96269409D01*
X164216765Y-96177259D01*
X164230500Y-96090551D01*
X164230500Y-95909448D01*
X164209522Y-95777006D01*
X164202171Y-95730591D01*
X164146211Y-95558361D01*
X164146211Y-95558360D01*
X164073619Y-95415893D01*
X164063996Y-95397006D01*
X164003535Y-95313788D01*
X163957558Y-95250505D01*
X163957554Y-95250500D01*
X163829499Y-95122445D01*
X163829494Y-95122441D01*
X163682997Y-95016006D01*
X163682996Y-95016005D01*
X163682994Y-95016004D01*
X163606906Y-94977235D01*
X163521639Y-94933788D01*
X163521636Y-94933787D01*
X163349410Y-94877829D01*
X163170551Y-94849500D01*
X163170546Y-94849500D01*
X162989454Y-94849500D01*
X162989449Y-94849500D01*
X162810589Y-94877829D01*
X162638363Y-94933787D01*
X162638360Y-94933788D01*
X162477002Y-95016006D01*
X162330505Y-95122441D01*
X162330500Y-95122445D01*
X162202445Y-95250500D01*
X162202441Y-95250505D01*
X162096004Y-95397004D01*
X162028908Y-95528685D01*
X161980933Y-95579480D01*
X161913112Y-95596275D01*
X161846977Y-95573737D01*
X161803527Y-95519021D01*
X161800492Y-95510705D01*
X161791094Y-95481780D01*
X161694624Y-95292449D01*
X161655270Y-95238282D01*
X161655269Y-95238282D01*
X161022962Y-95870590D01*
X161005925Y-95807007D01*
X160940099Y-95692993D01*
X160847007Y-95599901D01*
X160732993Y-95534075D01*
X160669408Y-95517037D01*
X161301716Y-94884728D01*
X161247550Y-94845375D01*
X161058217Y-94748904D01*
X160856129Y-94683242D01*
X160646246Y-94650000D01*
X160498598Y-94650000D01*
X160431559Y-94630315D01*
X160385804Y-94577511D01*
X160375860Y-94508353D01*
X160404885Y-94444797D01*
X160410917Y-94438319D01*
X160480520Y-94368716D01*
X160559577Y-94231784D01*
X160600500Y-94079057D01*
X160600500Y-93920943D01*
X160559577Y-93768216D01*
X160548741Y-93749448D01*
X160480524Y-93631290D01*
X160480518Y-93631282D01*
X160368717Y-93519481D01*
X160368709Y-93519475D01*
X160231790Y-93440426D01*
X160231786Y-93440424D01*
X160231784Y-93440423D01*
X160079057Y-93399500D01*
X159920943Y-93399500D01*
X159768216Y-93440423D01*
X159768209Y-93440426D01*
X159631290Y-93519475D01*
X159631282Y-93519481D01*
X159519481Y-93631282D01*
X159519475Y-93631290D01*
X159440426Y-93768209D01*
X159440423Y-93768216D01*
X159399500Y-93920943D01*
X159399500Y-93982744D01*
X159379815Y-94049783D01*
X159363181Y-94070425D01*
X158620425Y-94813181D01*
X158559102Y-94846666D01*
X158532744Y-94849500D01*
X157105143Y-94849500D01*
X157105117Y-94849502D01*
X157080012Y-94852413D01*
X157080008Y-94852415D01*
X156977235Y-94897793D01*
X156897794Y-94977234D01*
X156852415Y-95080006D01*
X156852415Y-95080008D01*
X156849500Y-95105131D01*
X153601260Y-95105131D01*
X155135703Y-93570687D01*
X155135708Y-93570684D01*
X155145911Y-93560480D01*
X155145913Y-93560480D01*
X155220480Y-93485913D01*
X155273207Y-93394587D01*
X155278936Y-93373207D01*
X155279315Y-93371795D01*
X155285772Y-93347694D01*
X155300501Y-93292727D01*
X155300501Y-93187273D01*
X155300501Y-93179678D01*
X155300500Y-93179660D01*
X155300500Y-90562176D01*
X155320185Y-90495137D01*
X155372989Y-90449382D01*
X155442147Y-90439438D01*
X155498134Y-90462406D01*
X155503576Y-90466422D01*
X155503577Y-90466423D01*
X155609206Y-90544381D01*
X155650511Y-90558834D01*
X155733119Y-90587741D01*
X155740796Y-90588460D01*
X155762543Y-90590500D01*
X156237456Y-90590499D01*
X156266879Y-90587741D01*
X156390794Y-90544381D01*
X156496423Y-90466423D01*
X156496428Y-90466415D01*
X156502997Y-90459849D01*
X156505007Y-90461859D01*
X156548787Y-90428617D01*
X156592914Y-90420500D01*
X160448859Y-90420500D01*
X160448861Y-90420500D01*
X160550722Y-90393207D01*
X160642047Y-90340480D01*
X162287819Y-88694705D01*
X162349142Y-88661221D01*
X162418833Y-88666205D01*
X162474767Y-88708077D01*
X162499184Y-88773541D01*
X162499500Y-88782387D01*
X162499500Y-89792726D01*
X162526793Y-89894589D01*
X162535980Y-89910500D01*
X162579520Y-89985913D01*
X162579522Y-89985915D01*
X168434325Y-95840718D01*
X168467810Y-95902041D01*
X168464575Y-95966716D01*
X168417829Y-96110587D01*
X168389500Y-96289448D01*
X168389500Y-96470551D01*
X168417829Y-96649410D01*
X168473787Y-96821636D01*
X168473788Y-96821639D01*
X168556006Y-96982997D01*
X168662441Y-97129494D01*
X168662445Y-97129499D01*
X168790500Y-97257554D01*
X168790505Y-97257558D01*
X168917742Y-97350000D01*
X168937006Y-97363996D01*
X169042484Y-97417740D01*
X169098360Y-97446211D01*
X169098363Y-97446212D01*
X169184476Y-97474191D01*
X169270591Y-97502171D01*
X169353429Y-97515291D01*
X169449449Y-97530500D01*
X169449454Y-97530500D01*
X169630551Y-97530500D01*
X169717259Y-97516765D01*
X169809409Y-97502171D01*
X169981639Y-97446211D01*
X170142994Y-97363996D01*
X170289501Y-97257553D01*
X170417553Y-97129501D01*
X170523996Y-96982994D01*
X170606211Y-96821639D01*
X170662171Y-96649409D01*
X170685835Y-96500000D01*
X170690500Y-96470551D01*
X170690500Y-96289448D01*
X170674019Y-96185397D01*
X170662171Y-96110591D01*
X170606211Y-95938361D01*
X170606211Y-95938360D01*
X170556459Y-95840718D01*
X170523996Y-95777006D01*
X170490272Y-95730589D01*
X170417558Y-95630505D01*
X170417554Y-95630500D01*
X170289499Y-95502445D01*
X170289494Y-95502441D01*
X170142997Y-95396006D01*
X170142996Y-95396005D01*
X170142994Y-95396004D01*
X170091300Y-95369664D01*
X169981639Y-95313788D01*
X169981636Y-95313787D01*
X169809410Y-95257829D01*
X169649321Y-95232473D01*
X169586186Y-95202544D01*
X169549255Y-95143232D01*
X169550253Y-95073370D01*
X169588863Y-95015137D01*
X169649321Y-94987527D01*
X169719425Y-94976422D01*
X169809409Y-94962171D01*
X169981639Y-94906211D01*
X170142994Y-94823996D01*
X170289501Y-94717553D01*
X170417553Y-94589501D01*
X170523996Y-94442994D01*
X170606211Y-94281639D01*
X170662171Y-94109409D01*
X170682233Y-93982744D01*
X170690500Y-93930551D01*
X170690500Y-93749448D01*
X170671783Y-93631282D01*
X170662171Y-93570591D01*
X170606211Y-93398361D01*
X170606211Y-93398360D01*
X170552387Y-93292727D01*
X170523996Y-93237006D01*
X170482332Y-93179660D01*
X170417558Y-93090505D01*
X170417554Y-93090500D01*
X170289499Y-92962445D01*
X170289494Y-92962441D01*
X170142995Y-92856004D01*
X170011314Y-92788908D01*
X169960519Y-92740934D01*
X169943724Y-92673113D01*
X169966262Y-92606978D01*
X170020977Y-92563527D01*
X170029295Y-92560492D01*
X170058217Y-92551095D01*
X170247554Y-92454622D01*
X170301716Y-92415270D01*
X170301717Y-92415270D01*
X169669408Y-91782962D01*
X169732993Y-91765925D01*
X169847007Y-91700099D01*
X169940099Y-91607007D01*
X170005925Y-91492993D01*
X170022962Y-91429408D01*
X170655270Y-92061717D01*
X170655270Y-92061716D01*
X170694622Y-92007554D01*
X170791095Y-91818217D01*
X170856757Y-91616130D01*
X170856757Y-91616127D01*
X170890000Y-91406246D01*
X170890000Y-91193753D01*
X170856757Y-90983872D01*
X170856757Y-90983869D01*
X170791095Y-90781782D01*
X170694624Y-90592449D01*
X170655270Y-90538282D01*
X170655269Y-90538282D01*
X170022962Y-91170590D01*
X170005925Y-91107007D01*
X169940099Y-90992993D01*
X169847007Y-90899901D01*
X169732993Y-90834075D01*
X169669408Y-90817037D01*
X170301716Y-90184728D01*
X170247550Y-90145375D01*
X170058217Y-90048904D01*
X170029292Y-90039506D01*
X169971616Y-90000068D01*
X169944418Y-89935710D01*
X169956333Y-89866863D01*
X170003577Y-89815388D01*
X170011315Y-89811090D01*
X170142994Y-89743996D01*
X170289501Y-89637553D01*
X170417553Y-89509501D01*
X170523996Y-89362994D01*
X170606211Y-89201639D01*
X170662171Y-89029409D01*
X170676765Y-88937259D01*
X170690500Y-88850551D01*
X170690500Y-88669448D01*
X170666581Y-88518436D01*
X170662171Y-88490591D01*
X170632709Y-88399916D01*
X170606212Y-88318363D01*
X170606211Y-88318360D01*
X170574986Y-88257078D01*
X170523996Y-88157006D01*
X170441110Y-88042922D01*
X170417558Y-88010505D01*
X170417554Y-88010500D01*
X170289499Y-87882445D01*
X170289494Y-87882441D01*
X170142997Y-87776006D01*
X170142996Y-87776005D01*
X170142994Y-87776004D01*
X170066800Y-87737181D01*
X169981639Y-87693788D01*
X169981636Y-87693787D01*
X169809410Y-87637829D01*
X169649321Y-87612473D01*
X169586186Y-87582544D01*
X169549255Y-87523232D01*
X169550253Y-87453370D01*
X169588863Y-87395137D01*
X169649321Y-87367527D01*
X169719425Y-87356422D01*
X169809409Y-87342171D01*
X169981639Y-87286211D01*
X170142994Y-87203996D01*
X170289501Y-87097553D01*
X170417553Y-86969501D01*
X170523996Y-86822994D01*
X170606211Y-86661639D01*
X170662171Y-86489409D01*
X170679543Y-86379726D01*
X170690500Y-86310551D01*
X170690500Y-86129448D01*
X170665709Y-85972930D01*
X170662171Y-85950591D01*
X170615424Y-85806716D01*
X170606212Y-85778363D01*
X170606211Y-85778360D01*
X170562223Y-85692031D01*
X170523996Y-85617006D01*
X170469186Y-85541566D01*
X170417558Y-85470505D01*
X170417554Y-85470500D01*
X170289499Y-85342445D01*
X170289494Y-85342441D01*
X170142997Y-85236006D01*
X170142996Y-85236005D01*
X170142994Y-85236004D01*
X170079724Y-85203766D01*
X169981639Y-85153788D01*
X169981636Y-85153787D01*
X169809410Y-85097829D01*
X169649321Y-85072473D01*
X169586186Y-85042544D01*
X169549255Y-84983232D01*
X169550253Y-84913370D01*
X169588863Y-84855137D01*
X169649321Y-84827527D01*
X169719425Y-84816422D01*
X169809409Y-84802171D01*
X169981639Y-84746211D01*
X170142994Y-84663996D01*
X170289501Y-84557553D01*
X170417553Y-84429501D01*
X170523996Y-84282994D01*
X170606211Y-84121639D01*
X170662171Y-83949409D01*
X170679986Y-83836932D01*
X170690500Y-83770551D01*
X170690500Y-83589448D01*
X170665816Y-83433607D01*
X170662171Y-83410591D01*
X170614084Y-83262591D01*
X170606212Y-83238363D01*
X170606211Y-83238360D01*
X170577740Y-83182484D01*
X170523996Y-83077006D01*
X170510396Y-83058287D01*
X170417558Y-82930505D01*
X170417554Y-82930500D01*
X170289499Y-82802445D01*
X170289494Y-82802441D01*
X170142997Y-82696006D01*
X170142996Y-82696005D01*
X170142994Y-82696004D01*
X170079667Y-82663737D01*
X169981639Y-82613788D01*
X169981636Y-82613787D01*
X169809410Y-82557829D01*
X169649321Y-82532473D01*
X169586186Y-82502544D01*
X169549255Y-82443232D01*
X169550253Y-82373370D01*
X169588863Y-82315137D01*
X169649321Y-82287527D01*
X169719425Y-82276422D01*
X169809409Y-82262171D01*
X169981639Y-82206211D01*
X170142994Y-82123996D01*
X170289501Y-82017553D01*
X170417553Y-81889501D01*
X170523996Y-81742994D01*
X170606211Y-81581639D01*
X170662171Y-81409409D01*
X170682233Y-81282745D01*
X170690500Y-81230551D01*
X170690500Y-81049448D01*
X170664628Y-80886107D01*
X170662171Y-80870591D01*
X170619578Y-80739500D01*
X170606212Y-80698363D01*
X170606211Y-80698360D01*
X170562182Y-80611950D01*
X170523996Y-80537006D01*
X170463867Y-80454245D01*
X170417558Y-80390505D01*
X170417554Y-80390500D01*
X170289499Y-80262445D01*
X170289494Y-80262441D01*
X170142995Y-80156004D01*
X170011314Y-80088908D01*
X169960519Y-80040934D01*
X169943724Y-79973113D01*
X169966262Y-79906978D01*
X170020977Y-79863527D01*
X170029295Y-79860492D01*
X170058217Y-79851095D01*
X170247554Y-79754622D01*
X170301716Y-79715270D01*
X170301717Y-79715270D01*
X169669408Y-79082962D01*
X169732993Y-79065925D01*
X169847007Y-79000099D01*
X169940099Y-78907007D01*
X170005925Y-78792993D01*
X170022962Y-78729408D01*
X170655270Y-79361717D01*
X170655270Y-79361716D01*
X170694622Y-79307554D01*
X170791095Y-79118217D01*
X170856757Y-78916130D01*
X170856757Y-78916127D01*
X170890000Y-78706246D01*
X170890000Y-78493753D01*
X170856757Y-78283872D01*
X170856757Y-78283869D01*
X170791095Y-78081782D01*
X170694624Y-77892449D01*
X170655270Y-77838282D01*
X170655269Y-77838282D01*
X170022962Y-78470590D01*
X170005925Y-78407007D01*
X169940099Y-78292993D01*
X169847007Y-78199901D01*
X169732993Y-78134075D01*
X169669408Y-78117037D01*
X170301716Y-77484728D01*
X170247550Y-77445375D01*
X170058217Y-77348904D01*
X170029292Y-77339506D01*
X169971616Y-77300068D01*
X169944418Y-77235710D01*
X169956333Y-77166863D01*
X170003577Y-77115388D01*
X170011315Y-77111090D01*
X170142994Y-77043996D01*
X170289501Y-76937553D01*
X170417553Y-76809501D01*
X170523996Y-76662994D01*
X170606211Y-76501639D01*
X170662171Y-76329409D01*
X170684508Y-76188381D01*
X170690500Y-76150551D01*
X170690500Y-75969448D01*
X170666636Y-75818783D01*
X170662171Y-75790591D01*
X170612592Y-75638000D01*
X170606212Y-75618363D01*
X170606211Y-75618360D01*
X170558950Y-75525607D01*
X170523996Y-75457006D01*
X170478287Y-75394093D01*
X170417558Y-75310505D01*
X170417554Y-75310500D01*
X170289499Y-75182445D01*
X170289494Y-75182441D01*
X170142997Y-75076006D01*
X170142996Y-75076005D01*
X170142994Y-75076004D01*
X170091300Y-75049664D01*
X169981639Y-74993788D01*
X169981636Y-74993787D01*
X169809410Y-74937829D01*
X169649321Y-74912473D01*
X169586186Y-74882544D01*
X169549255Y-74823232D01*
X169550253Y-74753370D01*
X169588863Y-74695137D01*
X169649321Y-74667527D01*
X169719425Y-74656422D01*
X169809409Y-74642171D01*
X169981639Y-74586211D01*
X170142994Y-74503996D01*
X170289501Y-74397553D01*
X170417553Y-74269501D01*
X170523996Y-74122994D01*
X170606211Y-73961639D01*
X170662171Y-73789409D01*
X170676765Y-73697259D01*
X170690500Y-73610551D01*
X170690500Y-73429448D01*
X170674019Y-73325397D01*
X170662171Y-73250591D01*
X170631596Y-73156488D01*
X170606212Y-73078363D01*
X170606211Y-73078360D01*
X170576207Y-73019475D01*
X170523996Y-72917006D01*
X170424109Y-72779522D01*
X170417558Y-72770505D01*
X170417554Y-72770500D01*
X170289499Y-72642445D01*
X170289494Y-72642441D01*
X170142997Y-72536006D01*
X170142996Y-72536005D01*
X170142994Y-72536004D01*
X170091300Y-72509664D01*
X169981639Y-72453788D01*
X169981636Y-72453787D01*
X169809410Y-72397829D01*
X169649321Y-72372473D01*
X169586186Y-72342544D01*
X169549255Y-72283232D01*
X169550253Y-72213370D01*
X169588863Y-72155137D01*
X169649321Y-72127527D01*
X169722708Y-72115903D01*
X169809409Y-72102171D01*
X169981639Y-72046211D01*
X170142994Y-71963996D01*
X170289501Y-71857553D01*
X170417553Y-71729501D01*
X170523996Y-71582994D01*
X170606211Y-71421639D01*
X170662171Y-71249409D01*
X170679625Y-71139207D01*
X170690500Y-71070551D01*
X170690500Y-70889448D01*
X170674019Y-70785397D01*
X170662171Y-70710591D01*
X170634191Y-70624476D01*
X170606212Y-70538363D01*
X170606211Y-70538360D01*
X170559799Y-70447273D01*
X170523996Y-70377006D01*
X170502902Y-70347972D01*
X170417558Y-70230505D01*
X170417554Y-70230500D01*
X170289499Y-70102445D01*
X170289494Y-70102441D01*
X170142997Y-69996006D01*
X170142996Y-69996005D01*
X170142994Y-69996004D01*
X170077687Y-69962728D01*
X169981639Y-69913788D01*
X169981636Y-69913787D01*
X169809410Y-69857829D01*
X169649321Y-69832473D01*
X169586186Y-69802544D01*
X169549255Y-69743232D01*
X169550253Y-69673370D01*
X169588863Y-69615137D01*
X169649321Y-69587527D01*
X169719425Y-69576422D01*
X169809409Y-69562171D01*
X169981639Y-69506211D01*
X170142994Y-69423996D01*
X170289501Y-69317553D01*
X170417553Y-69189501D01*
X170523996Y-69042994D01*
X170606211Y-68881639D01*
X170662171Y-68709409D01*
X170678278Y-68607711D01*
X170690500Y-68530551D01*
X170690500Y-68349448D01*
X170669060Y-68214087D01*
X170662171Y-68170591D01*
X170619879Y-68040426D01*
X170606212Y-67998363D01*
X170606211Y-67998360D01*
X170577740Y-67942484D01*
X170523996Y-67837006D01*
X170502167Y-67806961D01*
X170417558Y-67690505D01*
X170417554Y-67690500D01*
X170289499Y-67562445D01*
X170289494Y-67562441D01*
X170142995Y-67456004D01*
X170011314Y-67388908D01*
X169960519Y-67340934D01*
X169943724Y-67273113D01*
X169966262Y-67206978D01*
X170020977Y-67163527D01*
X170029295Y-67160492D01*
X170058217Y-67151095D01*
X170247554Y-67054622D01*
X170301716Y-67015270D01*
X170301717Y-67015270D01*
X169669408Y-66382962D01*
X169732993Y-66365925D01*
X169847007Y-66300099D01*
X169940099Y-66207007D01*
X170005925Y-66092993D01*
X170022962Y-66029408D01*
X170655270Y-66661717D01*
X170655270Y-66661716D01*
X170694622Y-66607554D01*
X170791095Y-66418217D01*
X170856757Y-66216130D01*
X170856757Y-66216127D01*
X170890000Y-66006246D01*
X170890000Y-65793753D01*
X170856757Y-65583872D01*
X170856757Y-65583869D01*
X170791095Y-65381782D01*
X170694624Y-65192449D01*
X170655270Y-65138282D01*
X170655269Y-65138282D01*
X170022962Y-65770590D01*
X170005925Y-65707007D01*
X169940099Y-65592993D01*
X169847007Y-65499901D01*
X169732993Y-65434075D01*
X169669409Y-65417037D01*
X170301716Y-64784728D01*
X170247550Y-64745375D01*
X170058217Y-64648904D01*
X170029292Y-64639506D01*
X169971616Y-64600068D01*
X169944418Y-64535710D01*
X169956333Y-64466863D01*
X170003577Y-64415388D01*
X170011315Y-64411090D01*
X170142994Y-64343996D01*
X170289501Y-64237553D01*
X170417553Y-64109501D01*
X170523996Y-63962994D01*
X170606211Y-63801639D01*
X170662171Y-63629409D01*
X170679199Y-63521898D01*
X170690500Y-63450551D01*
X170690500Y-63269448D01*
X170667548Y-63124543D01*
X170662171Y-63090591D01*
X170606211Y-62918361D01*
X170606211Y-62918360D01*
X170543912Y-62796094D01*
X170523996Y-62757006D01*
X170476789Y-62692031D01*
X170417558Y-62610505D01*
X170417554Y-62610500D01*
X170289499Y-62482445D01*
X170289494Y-62482441D01*
X170142997Y-62376006D01*
X170142996Y-62376005D01*
X170142994Y-62376004D01*
X170091300Y-62349664D01*
X169981639Y-62293788D01*
X169981636Y-62293787D01*
X169809410Y-62237829D01*
X169649321Y-62212473D01*
X169586186Y-62182544D01*
X169549255Y-62123232D01*
X169550253Y-62053370D01*
X169588863Y-61995137D01*
X169649321Y-61967527D01*
X169719425Y-61956422D01*
X169809409Y-61942171D01*
X169981639Y-61886211D01*
X170142994Y-61803996D01*
X170289501Y-61697553D01*
X170417553Y-61569501D01*
X170523996Y-61422994D01*
X170606211Y-61261639D01*
X170662171Y-61089409D01*
X170676765Y-60997259D01*
X170690500Y-60910551D01*
X170690500Y-60729448D01*
X170669917Y-60599500D01*
X170662171Y-60550591D01*
X170628602Y-60447275D01*
X170606212Y-60378363D01*
X170606211Y-60378360D01*
X170566604Y-60300628D01*
X170523996Y-60217006D01*
X170500843Y-60185138D01*
X170417558Y-60070505D01*
X170417554Y-60070500D01*
X170289499Y-59942445D01*
X170289494Y-59942441D01*
X170142997Y-59836006D01*
X170142996Y-59836005D01*
X170142994Y-59836004D01*
X170082299Y-59805078D01*
X169981639Y-59753788D01*
X169981636Y-59753787D01*
X169809410Y-59697829D01*
X169649321Y-59672473D01*
X169586186Y-59642544D01*
X169549255Y-59583232D01*
X169550253Y-59513370D01*
X169588863Y-59455137D01*
X169649321Y-59427527D01*
X169719425Y-59416422D01*
X169809409Y-59402171D01*
X169981639Y-59346211D01*
X170142994Y-59263996D01*
X170289501Y-59157553D01*
X170417553Y-59029501D01*
X170523996Y-58882994D01*
X170606211Y-58721639D01*
X170662171Y-58549409D01*
X170688061Y-58385947D01*
X170690500Y-58370551D01*
X170690500Y-58189448D01*
X170668613Y-58051264D01*
X170662171Y-58010591D01*
X170609394Y-57848157D01*
X170606212Y-57838363D01*
X170606211Y-57838360D01*
X170556556Y-57740909D01*
X170523996Y-57677006D01*
X170510396Y-57658287D01*
X170417558Y-57530505D01*
X170417554Y-57530500D01*
X170289499Y-57402445D01*
X170289494Y-57402441D01*
X170142997Y-57296006D01*
X170142996Y-57296005D01*
X170142994Y-57296004D01*
X170061682Y-57254573D01*
X169981639Y-57213788D01*
X169981636Y-57213787D01*
X169809410Y-57157829D01*
X169649321Y-57132473D01*
X169586186Y-57102544D01*
X169549255Y-57043232D01*
X169550253Y-56973370D01*
X169588863Y-56915137D01*
X169649321Y-56887527D01*
X169727860Y-56875087D01*
X169809409Y-56862171D01*
X169981639Y-56806211D01*
X170142994Y-56723996D01*
X170289501Y-56617553D01*
X170417553Y-56489501D01*
X170523996Y-56342994D01*
X170606211Y-56181639D01*
X170662171Y-56009409D01*
X170676919Y-55916291D01*
X170690500Y-55830551D01*
X170690500Y-55649448D01*
X170665230Y-55489906D01*
X170662171Y-55470591D01*
X170631798Y-55377112D01*
X170606212Y-55298363D01*
X170606211Y-55298360D01*
X170577740Y-55242484D01*
X170523996Y-55137006D01*
X170498848Y-55102393D01*
X170417558Y-54990505D01*
X170417554Y-54990500D01*
X170289499Y-54862445D01*
X170289494Y-54862441D01*
X170142995Y-54756004D01*
X170011314Y-54688908D01*
X169960519Y-54640934D01*
X169943724Y-54573113D01*
X169966262Y-54506978D01*
X170020977Y-54463527D01*
X170029295Y-54460492D01*
X170058217Y-54451095D01*
X170247554Y-54354622D01*
X170301716Y-54315270D01*
X170301717Y-54315270D01*
X169669408Y-53682962D01*
X169732993Y-53665925D01*
X169847007Y-53600099D01*
X169940099Y-53507007D01*
X170005925Y-53392993D01*
X170022962Y-53329408D01*
X170655270Y-53961717D01*
X170655270Y-53961716D01*
X170694622Y-53907554D01*
X170791095Y-53718217D01*
X170856757Y-53516130D01*
X170856757Y-53516127D01*
X170890000Y-53306246D01*
X170890000Y-53093753D01*
X170856757Y-52883872D01*
X170856757Y-52883869D01*
X170791095Y-52681782D01*
X170694624Y-52492449D01*
X170655270Y-52438282D01*
X170655269Y-52438282D01*
X170022962Y-53070590D01*
X170005925Y-53007007D01*
X169940099Y-52892993D01*
X169847007Y-52799901D01*
X169732993Y-52734075D01*
X169669408Y-52717037D01*
X170301716Y-52084728D01*
X170247550Y-52045375D01*
X170058217Y-51948904D01*
X170029292Y-51939506D01*
X169971616Y-51900068D01*
X169944418Y-51835710D01*
X169956333Y-51766863D01*
X170003577Y-51715388D01*
X170011315Y-51711090D01*
X170142994Y-51643996D01*
X170289501Y-51537553D01*
X170417553Y-51409501D01*
X170523996Y-51262994D01*
X170606211Y-51101639D01*
X170662171Y-50929409D01*
X170685911Y-50779522D01*
X170690500Y-50750551D01*
X170690500Y-50569448D01*
X170674019Y-50465397D01*
X170662171Y-50390591D01*
X170606211Y-50218361D01*
X170606211Y-50218360D01*
X170559554Y-50126793D01*
X170523996Y-50057006D01*
X170510396Y-50038287D01*
X170417558Y-49910505D01*
X170417554Y-49910500D01*
X170289499Y-49782445D01*
X170289494Y-49782441D01*
X170142997Y-49676006D01*
X170142996Y-49676005D01*
X170142994Y-49676004D01*
X170091300Y-49649664D01*
X169981639Y-49593788D01*
X169981636Y-49593787D01*
X169809410Y-49537829D01*
X169677728Y-49516972D01*
X169614594Y-49487042D01*
X169577663Y-49427731D01*
X169578661Y-49357868D01*
X169617271Y-49299636D01*
X169681235Y-49271522D01*
X169697120Y-49270499D01*
X170434864Y-49270499D01*
X170434879Y-49270497D01*
X170434882Y-49270497D01*
X170459987Y-49267586D01*
X170459988Y-49267585D01*
X170459991Y-49267585D01*
X170562765Y-49222206D01*
X170642206Y-49142765D01*
X170687585Y-49039991D01*
X170690500Y-49014865D01*
X170690499Y-47225136D01*
X170690497Y-47225117D01*
X170687586Y-47200012D01*
X170687585Y-47200010D01*
X170687585Y-47200009D01*
X170642206Y-47097235D01*
X170562765Y-47017794D01*
X170562763Y-47017793D01*
X170459992Y-46972415D01*
X170434865Y-46969500D01*
X168645143Y-46969500D01*
X168645117Y-46969502D01*
X168620012Y-46972413D01*
X168620008Y-46972415D01*
X168517235Y-47017793D01*
X168437794Y-47097234D01*
X168392415Y-47200006D01*
X168392415Y-47200008D01*
X168389500Y-47225131D01*
X168389500Y-47595500D01*
X168369815Y-47662539D01*
X168317011Y-47708294D01*
X168265500Y-47719500D01*
X166827273Y-47719500D01*
X166725410Y-47746793D01*
X166634087Y-47799520D01*
X166634084Y-47799522D01*
X166031681Y-48401925D01*
X165970358Y-48435410D01*
X165900666Y-48430426D01*
X165844733Y-48388554D01*
X165820316Y-48323090D01*
X165820000Y-48314244D01*
X165820000Y-48250000D01*
X165120000Y-48250000D01*
X165120000Y-47750000D01*
X165820000Y-47750000D01*
X165820000Y-47601508D01*
X165819999Y-47601504D01*
X165781572Y-47408318D01*
X165781569Y-47408306D01*
X165706192Y-47226328D01*
X165706185Y-47226315D01*
X165596751Y-47062537D01*
X165596748Y-47062533D01*
X165457466Y-46923251D01*
X165457462Y-46923248D01*
X165293684Y-46813814D01*
X165293671Y-46813807D01*
X165111691Y-46738429D01*
X165111683Y-46738427D01*
X165070000Y-46730135D01*
X165070000Y-47533011D01*
X165060060Y-47515795D01*
X165004205Y-47459940D01*
X164935796Y-47420444D01*
X164859496Y-47400000D01*
X164780504Y-47400000D01*
X164704204Y-47420444D01*
X164635795Y-47459940D01*
X164579940Y-47515795D01*
X164570000Y-47533011D01*
X164570000Y-46730136D01*
X164569999Y-46730135D01*
X164528316Y-46738427D01*
X164528308Y-46738429D01*
X164346328Y-46813807D01*
X164346315Y-46813814D01*
X164182537Y-46923248D01*
X164182533Y-46923251D01*
X164043251Y-47062533D01*
X164043248Y-47062537D01*
X163933814Y-47226315D01*
X163933807Y-47226328D01*
X163858430Y-47408306D01*
X163858427Y-47408318D01*
X163820000Y-47601504D01*
X163820000Y-47750000D01*
X164520000Y-47750000D01*
X164520000Y-48250000D01*
X163820000Y-48250000D01*
X163820000Y-48398495D01*
X163858427Y-48591681D01*
X163858430Y-48591693D01*
X163933807Y-48773671D01*
X163933814Y-48773684D01*
X164043248Y-48937462D01*
X164043251Y-48937466D01*
X164182533Y-49076748D01*
X164182537Y-49076751D01*
X164346315Y-49186185D01*
X164346328Y-49186192D01*
X164528308Y-49261569D01*
X164570000Y-49269862D01*
X164570000Y-48466988D01*
X164579940Y-48484205D01*
X164635795Y-48540060D01*
X164704204Y-48579556D01*
X164780504Y-48600000D01*
X164859496Y-48600000D01*
X164935796Y-48579556D01*
X165004205Y-48540060D01*
X165060060Y-48484205D01*
X165070000Y-48466988D01*
X165070000Y-49312244D01*
X165050315Y-49379283D01*
X165033681Y-49399925D01*
X164370426Y-50063181D01*
X164309103Y-50096666D01*
X164282745Y-50099500D01*
X163532679Y-50099500D01*
X163430816Y-50126793D01*
X163339493Y-50179520D01*
X163339490Y-50179522D01*
X162420383Y-51098629D01*
X162359060Y-51132114D01*
X162289368Y-51127130D01*
X162245021Y-51098629D01*
X161925914Y-50779522D01*
X161925912Y-50779520D01*
X161864056Y-50743807D01*
X161834588Y-50726793D01*
X161783656Y-50713146D01*
X161732726Y-50699500D01*
X161732725Y-50699500D01*
X159380340Y-50699500D01*
X159380324Y-50699499D01*
X159372728Y-50699499D01*
X159267274Y-50699499D01*
X159199367Y-50717695D01*
X159165413Y-50726793D01*
X159074085Y-50779522D01*
X158999519Y-50854089D01*
X158357206Y-51496401D01*
X158295883Y-51529886D01*
X158226191Y-51524902D01*
X158170258Y-51483030D01*
X158149750Y-51440813D01*
X158146280Y-51427863D01*
X158124385Y-51389940D01*
X158070515Y-51296635D01*
X157963365Y-51189485D01*
X157863996Y-51132114D01*
X157832136Y-51113719D01*
X157758950Y-51094109D01*
X157685766Y-51074500D01*
X157534234Y-51074500D01*
X157387863Y-51113719D01*
X157256635Y-51189485D01*
X157250189Y-51194432D01*
X157248099Y-51191709D01*
X157200217Y-51217466D01*
X157130558Y-51212043D01*
X157074888Y-51169821D01*
X157069299Y-51160976D01*
X156956751Y-50992537D01*
X156956748Y-50992533D01*
X156817466Y-50853251D01*
X156817462Y-50853248D01*
X156653684Y-50743814D01*
X156653671Y-50743807D01*
X156471691Y-50668429D01*
X156471683Y-50668427D01*
X156430000Y-50660135D01*
X156430000Y-51463011D01*
X156420060Y-51445795D01*
X156364205Y-51389940D01*
X156295796Y-51350444D01*
X156219496Y-51330000D01*
X156140504Y-51330000D01*
X156064204Y-51350444D01*
X155995795Y-51389940D01*
X155939940Y-51445795D01*
X155930000Y-51463011D01*
X155930000Y-50660136D01*
X155929999Y-50660135D01*
X155888316Y-50668427D01*
X155888308Y-50668429D01*
X155706328Y-50743807D01*
X155706315Y-50743814D01*
X155542537Y-50853248D01*
X155542533Y-50853251D01*
X155403251Y-50992533D01*
X155403248Y-50992537D01*
X155293814Y-51156315D01*
X155293807Y-51156328D01*
X155218430Y-51338306D01*
X155218427Y-51338318D01*
X155180000Y-51531504D01*
X155180000Y-51868955D01*
X155160315Y-51935994D01*
X155107511Y-51981749D01*
X155038353Y-51991693D01*
X154994002Y-51976343D01*
X154931788Y-51940425D01*
X154931786Y-51940424D01*
X154931784Y-51940423D01*
X154779057Y-51899500D01*
X154620943Y-51899500D01*
X154468216Y-51940423D01*
X154468209Y-51940426D01*
X154331290Y-52019475D01*
X154331282Y-52019481D01*
X154287583Y-52063181D01*
X154226260Y-52096666D01*
X154199902Y-52099500D01*
X153817255Y-52099500D01*
X153750216Y-52079815D01*
X153729574Y-52063181D01*
X152865674Y-51199281D01*
X152832189Y-51137958D01*
X152835423Y-51073284D01*
X152882171Y-50929409D01*
X152886750Y-50900500D01*
X152910500Y-50750551D01*
X152910500Y-50569448D01*
X152894019Y-50465397D01*
X152882171Y-50390591D01*
X152826211Y-50218361D01*
X152826211Y-50218360D01*
X152779554Y-50126793D01*
X152743996Y-50057006D01*
X152730396Y-50038287D01*
X152637558Y-49910505D01*
X152637554Y-49910500D01*
X152509499Y-49782445D01*
X152509494Y-49782441D01*
X152362997Y-49676006D01*
X152362996Y-49676005D01*
X152362994Y-49676004D01*
X152311300Y-49649664D01*
X152201639Y-49593788D01*
X152201636Y-49593787D01*
X152029410Y-49537829D01*
X151897728Y-49516972D01*
X151834594Y-49487042D01*
X151797663Y-49427731D01*
X151798661Y-49357868D01*
X151837271Y-49299636D01*
X151901235Y-49271522D01*
X151917120Y-49270499D01*
X152654864Y-49270499D01*
X152654879Y-49270497D01*
X152654882Y-49270497D01*
X152679987Y-49267586D01*
X152679988Y-49267585D01*
X152679991Y-49267585D01*
X152782765Y-49222206D01*
X152862206Y-49142765D01*
X152907585Y-49039991D01*
X152910500Y-49014865D01*
X152910499Y-47601504D01*
X155180000Y-47601504D01*
X155180000Y-47750000D01*
X155880000Y-47750000D01*
X155880000Y-48250000D01*
X155180000Y-48250000D01*
X155180000Y-48398495D01*
X155218427Y-48591681D01*
X155218430Y-48591693D01*
X155293807Y-48773671D01*
X155293814Y-48773684D01*
X155403248Y-48937462D01*
X155403251Y-48937466D01*
X155542533Y-49076748D01*
X155542537Y-49076751D01*
X155706315Y-49186185D01*
X155706328Y-49186192D01*
X155888308Y-49261569D01*
X155930000Y-49269862D01*
X155930000Y-48466988D01*
X155939940Y-48484205D01*
X155995795Y-48540060D01*
X156064204Y-48579556D01*
X156140504Y-48600000D01*
X156219496Y-48600000D01*
X156295796Y-48579556D01*
X156364205Y-48540060D01*
X156420060Y-48484205D01*
X156430000Y-48466988D01*
X156430000Y-49269862D01*
X156471690Y-49261569D01*
X156471692Y-49261569D01*
X156653671Y-49186192D01*
X156653684Y-49186185D01*
X156817462Y-49076751D01*
X156817466Y-49076748D01*
X156956748Y-48937466D01*
X156956751Y-48937462D01*
X157066185Y-48773684D01*
X157066192Y-48773671D01*
X157141569Y-48591693D01*
X157141572Y-48591681D01*
X157179999Y-48398495D01*
X157180000Y-48398492D01*
X157180000Y-48250000D01*
X156480000Y-48250000D01*
X156480000Y-47750000D01*
X157180000Y-47750000D01*
X157180000Y-47601508D01*
X157179999Y-47601504D01*
X157141572Y-47408318D01*
X157141569Y-47408306D01*
X157066192Y-47226328D01*
X157066185Y-47226315D01*
X156956751Y-47062537D01*
X156956748Y-47062533D01*
X156817466Y-46923251D01*
X156817462Y-46923248D01*
X156653684Y-46813814D01*
X156653671Y-46813807D01*
X156471691Y-46738429D01*
X156471683Y-46738427D01*
X156430000Y-46730135D01*
X156430000Y-47533011D01*
X156420060Y-47515795D01*
X156364205Y-47459940D01*
X156295796Y-47420444D01*
X156219496Y-47400000D01*
X156140504Y-47400000D01*
X156064204Y-47420444D01*
X155995795Y-47459940D01*
X155939940Y-47515795D01*
X155930000Y-47533011D01*
X155930000Y-46730136D01*
X155929999Y-46730135D01*
X155888316Y-46738427D01*
X155888308Y-46738429D01*
X155706328Y-46813807D01*
X155706315Y-46813814D01*
X155542537Y-46923248D01*
X155542533Y-46923251D01*
X155403251Y-47062533D01*
X155403248Y-47062537D01*
X155293814Y-47226315D01*
X155293807Y-47226328D01*
X155218430Y-47408306D01*
X155218427Y-47408318D01*
X155180000Y-47601504D01*
X152910499Y-47601504D01*
X152910499Y-47225136D01*
X152910497Y-47225117D01*
X152907586Y-47200012D01*
X152907585Y-47200010D01*
X152907585Y-47200009D01*
X152862206Y-47097235D01*
X152782765Y-47017794D01*
X152782763Y-47017793D01*
X152679992Y-46972415D01*
X152654865Y-46969500D01*
X150865143Y-46969500D01*
X150865117Y-46969502D01*
X150840012Y-46972413D01*
X150840008Y-46972415D01*
X150737235Y-47017793D01*
X150657794Y-47097234D01*
X150612415Y-47200006D01*
X150612415Y-47200008D01*
X150609500Y-47225131D01*
X150609500Y-49014856D01*
X150609502Y-49014882D01*
X150612413Y-49039987D01*
X150612415Y-49039991D01*
X150657793Y-49142764D01*
X150657794Y-49142765D01*
X150737235Y-49222206D01*
X150840009Y-49267585D01*
X150865135Y-49270500D01*
X151602873Y-49270499D01*
X151669910Y-49290183D01*
X151715665Y-49342987D01*
X151725609Y-49412146D01*
X151696584Y-49475702D01*
X151637806Y-49513476D01*
X151622270Y-49516972D01*
X151490589Y-49537829D01*
X151318363Y-49593787D01*
X151318360Y-49593788D01*
X151157002Y-49676006D01*
X151010505Y-49782441D01*
X151010500Y-49782445D01*
X150882445Y-49910500D01*
X150882441Y-49910505D01*
X150776006Y-50057002D01*
X150693788Y-50218360D01*
X150693787Y-50218363D01*
X150637829Y-50390589D01*
X150609500Y-50569448D01*
X150609500Y-50750551D01*
X150637829Y-50929410D01*
X150693787Y-51101636D01*
X150693788Y-51101639D01*
X150776006Y-51262997D01*
X150882441Y-51409494D01*
X150882445Y-51409499D01*
X151010500Y-51537554D01*
X151010505Y-51537558D01*
X151105883Y-51606853D01*
X151157006Y-51643996D01*
X151258780Y-51695853D01*
X151288684Y-51711090D01*
X151339480Y-51759065D01*
X151356275Y-51826886D01*
X151333737Y-51893021D01*
X151279022Y-51936472D01*
X151270708Y-51939506D01*
X151241781Y-51948905D01*
X151052439Y-52045380D01*
X150998282Y-52084727D01*
X150998282Y-52084728D01*
X151630591Y-52717037D01*
X151567007Y-52734075D01*
X151452993Y-52799901D01*
X151359901Y-52892993D01*
X151294075Y-53007007D01*
X151277037Y-53070591D01*
X150644728Y-52438282D01*
X150644727Y-52438282D01*
X150605380Y-52492439D01*
X150508904Y-52681782D01*
X150443242Y-52883869D01*
X150443242Y-52883872D01*
X150410000Y-53093753D01*
X149600500Y-53093753D01*
X149600500Y-44024500D01*
X149620185Y-43957461D01*
X149672989Y-43911706D01*
X149724500Y-43900500D01*
X171575500Y-43900500D01*
X171642539Y-43920185D01*
G37*
%TD.AperFunction*%
%TD*%
M02*
