M48
; DRILL file KiCad 10.0.3 date 2026-06-25T12:17:57
; FORMAT={-:-/ absolute / metric / decimal}
; #@! TF.CreationDate,2026-06-25T12:17:57-04:00
; #@! TF.GenerationSoftware,Kicad,Pcbnew,10.0.3
; #@! TF.FileFunction,Plated,1,2,PTH
FMAT,2
METRIC
; #@! TA.AperFunction,Plated,PTH,ViaDrill
T1C0.100
; #@! TA.AperFunction,Plated,PTH,ViaDrill
T2C0.300
; #@! TA.AperFunction,Plated,PTH,ComponentDrill
T3C0.600
; #@! TA.AperFunction,Plated,PTH,ComponentDrill
T4C1.000
%
G90
G05
T1
X159.0Y-57.5
T2
X153.374Y-64.126
X153.5Y-59.5
X153.753Y-73.5
X153.9Y-90.0
X154.0Y-46.0
X154.0Y-48.5
X154.353Y-74.121
X154.7Y-52.5
X155.1Y-60.652
X155.137Y-73.963
X155.243Y-82.743
X155.659Y-74.569
X156.0Y-69.0
X156.0Y-91.5
X156.162Y-75.191
X156.359Y-66.641
X157.0Y-63.0
X158.0Y-50.5
X158.0Y-72.0
X158.18Y-75.537
X158.189Y-77.978
X158.2Y-80.104
X158.495Y-78.717
X158.833Y-66.419
X158.9Y-69.502
X159.054Y-75.554
X159.223Y-82.691
X159.484Y-65.47
X159.5Y-80.038
X160.0Y-82.5
X160.0Y-94.0
X160.5Y-60.0
X160.5Y-75.837
X160.5Y-80.038
X161.0Y-73.5
X161.0Y-86.0
X161.175Y-62.0
X161.293Y-58.126
X161.5Y-80.038
X161.991Y-85.514
X162.0Y-58.5
X162.0Y-89.5
X162.3Y-83.0
X162.3Y-84.0
X162.555Y-75.907
X162.8Y-77.0
X163.0Y-67.0
X163.0Y-73.5
X163.202Y-80.437
X164.0Y-55.5
X164.5Y-57.0
X164.5Y-72.0
X165.0Y-85.0
X165.3Y-82.5
X165.5Y-63.0
X166.0Y-61.5
X166.0Y-88.5
X166.5Y-79.5
X167.6Y-76.0
X167.667Y-59.5
X170.5Y-64.5
T4
X151.76Y-48.12
X151.76Y-50.66
X151.76Y-53.2
X151.76Y-55.74
X151.76Y-58.28
X151.76Y-60.82
X151.76Y-63.36
X151.76Y-65.9
X151.76Y-68.44
X151.76Y-70.98
X151.76Y-73.52
X151.76Y-76.06
X151.76Y-78.6
X151.76Y-81.14
X151.76Y-83.68
X151.76Y-86.22
X151.76Y-88.76
X151.76Y-91.3
X151.76Y-93.84
X151.76Y-96.38
X158.0Y-96.0
X160.54Y-96.0
X163.08Y-96.0
X169.54Y-48.12
X169.54Y-50.66
X169.54Y-53.2
X169.54Y-55.74
X169.54Y-58.28
X169.54Y-60.82
X169.54Y-63.36
X169.54Y-65.9
X169.54Y-68.44
X169.54Y-70.98
X169.54Y-73.52
X169.54Y-76.06
X169.54Y-78.6
X169.54Y-81.14
X169.54Y-83.68
X169.54Y-86.22
X169.54Y-88.76
X169.54Y-91.3
X169.54Y-93.84
X169.54Y-96.38
T3
G00X156.18Y-48.3
M15
G01X156.18Y-47.7
M16
G05
G00X156.18Y-52.73
M15
G01X156.18Y-51.63
M16
G05
G00X164.82Y-48.3
M15
G01X164.82Y-47.7
M16
G05
G00X164.82Y-52.73
M15
G01X164.82Y-51.63
M16
G05
M30
